/* XPM */
static char *result[] = {
/* columns rows colors chars-per-pixel */
"50 40 95 2 ",
"   c black",
".  c #010100",
"X  c #040401",
"o  c #070601",
"O  c #080702",
"+  c #090801",
"@  c #0A0901",
"#  c #0B0901",
"$  c #0D0B01",
"%  c #0E0C01",
"&  c #0E0D01",
"*  c #120F03",
"=  c #131101",
"-  c #141101",
";  c #141203",
":  c #141304",
">  c #181500",
",  c #181401",
"<  c #1A1701",
"1  c #231E01",
"2  c #211D02",
"3  c #221D02",
"4  c #231F02",
"5  c #2A2400",
"6  c #2A2401",
"7  c #2B2401",
"8  c #2B2402",
"9  c #483E03",
"0  c #4C4104",
"q  c #4D4204",
"w  c #4F4305",
"e  c #4F4505",
"r  c #524A05",
"t  c #584905",
"y  c #594D06",
"u  c #937D08",
"i  c #9A8306",
"p  c #9B8306",
"a  c #9A8307",
"s  c #938009",
"d  c #988209",
"f  c #9B8608",
"g  c #9C8509",
"h  c #A08906",
"j  c #A28B06",
"k  c #A58B05",
"l  c #A58D07",
"z  c #A78D07",
"x  c #A18808",
"c  c #A78E08",
"v  c #A78F08",
"b  c #D7B805",
"n  c #DAB906",
"m  c #DAB907",
"M  c #DFBF07",
"N  c #E1BF06",
"B  c #E5C302",
"V  c #E7C503",
"C  c #E1C005",
"Z  c #E2C107",
"A  c #E7C604",
"S  c #E8C505",
"D  c #E9C704",
"F  c #E9C903",
"G  c #EBC803",
"H  c #ECCA01",
"J  c #EDCA01",
"K  c #EECB03",
"L  c #ECCB05",
"P  c #EDCA06",
"I  c #EFCE05",
"U  c #ECCD07",
"Y  c #F0CB05",
"T  c #F0C906",
"R  c #F4CF04",
"E  c #F4CF06",
"W  c #F2D003",
"Q  c #F6D100",
"!  c #F7D100",
"~  c #F6D101",
"^  c #F7D101",
"/  c #F6D200",
"(  c #F6D201",
")  c #F7D201",
"_  c #F7D102",
"`  c #F6D103",
"'  c #F7D103",
"]  c #F5D202",
"[  c #F6D202",
"{  c #F7D202",
"}  c #F6D203",
"|  c #F7D203",
" . c #F3D006",
".. c #F7D104",
"X. c #F8D103",
/* pixels */
"                                                                                                    ",
"                                                                                                    ",
"                                                                                                    ",
"                                                                                                    ",
"                                                                                                    ",
"                                                                                                    ",
"                                                                                                    ",
"                                                                                                    ",
"                                                                                                    ",
"                                                                                                    ",
"                                                                                                    ",
"                                                                                                    ",
"                                          . @ = < < - # .                                           ",
"                                        o 9 j b U I m v q +                                         ",
"                                      % s B ^ _ ( ( ) X.S a :                                       ",
"                                    X u E ! ^ _ / / Q / / R g O                                     ",
"                                  . e A _ ! Q / / / / / / / L y .                                   ",
"                                  $ h ' ( ~ / / / / / / / / ] l &                                   ",
"                                  2 M | ..[ [ / / / / / / / ( Z 4                                   ",
"                                  7 Y { } / / / / / / / / / / J 6                                   ",
"                                  8 T ^ ( / / / / / / / / / / H 5                                   ",
"                                  3 N | / / / / / / / / / / ) C 1                                   ",
"                                  $ x ` / / / / / / / / / / ( k %                                   ",
"                                  . r F / / / / / / / / / / G t .                                   ",
"                                    o d  ./ / / / / / / / W i o                                     ",
"                                      ; f D } ( / ( ( } V p *                                       ",
"                                        @ w c n P K n z 0 +                                         ",
"                                          . # - , > - # .                                           ",
"                                                                                                    ",
"                                                                                                    ",
"                                                                                                    ",
"                                                                                                    ",
"                                                                                                    ",
"                                                                                                    ",
"                                                                                                    ",
"                                                                                                    ",
"                                                                                                    ",
"                                                                                                    ",
"                                                                                                    ",
"                                                                                                    "
};
