/* XPM */
static char *result[] = {
/* columns rows colors chars-per-pixel */
"50 50 202 2 ",
"   c #000000",
".  c #02050B",
"X  c #0A0A0C",
"o  c #020711",
"O  c #050A14",
"+  c #0E0E11",
"@  c #040C1C",
"#  c #0F1014",
"$  c #121316",
"%  c #17181C",
"&  c #050E20",
"*  c #17012C",
"=  c #19022E",
"-  c #071229",
";  c #06132D",
":  c #181B25",
">  c #1A0333",
",  c #1D0937",
"<  c #19053B",
"1  c #1D093A",
"2  c #061635",
"3  c #06193B",
"4  c #0A1A3B",
"5  c #240D36",
"6  c #220D3B",
"7  c #24103C",
"8  c #29123F",
"9  c #23252A",
"0  c #1B0641",
"q  c #1D0944",
"w  c #1E0D4C",
"e  c #061C43",
"r  c #091D45",
"t  c #1F0E52",
"y  c #1F1156",
"u  c #1F115A",
"i  c #200C45",
"p  c #200D49",
"a  c #271347",
"s  c #2B174E",
"d  c #2C1B4A",
"f  c #331D47",
"g  c #200F51",
"h  c #211154",
"j  c #2D1B54",
"k  c #21135C",
"l  c #2B1A5C",
"z  c #311D54",
"x  c #11284F",
"c  c #072353",
"v  c #0A2659",
"b  c #0A285F",
"n  c #35204A",
"m  c #2F394F",
"M  c #362359",
"N  c #382659",
"B  c #2C3750",
"V  c #221564",
"C  c #2A1C63",
"Z  c #251769",
"A  c #23196B",
"S  c #2B1F6C",
"D  c #251C74",
"F  c #291F77",
"G  c #251E79",
"H  c #0D2B64",
"J  c #0C2D6A",
"K  c #0C3379",
"L  c #143574",
"P  c #2D2166",
"I  c #2C226A",
"U  c #362767",
"Y  c #342B6A",
"T  c #223D6F",
"R  c #2C2274",
"E  c #27207E",
"W  c #2B227C",
"Q  c #372A73",
"!  c #31277A",
"~  c #32297D",
"^  c #3D3273",
"/  c #403A77",
"(  c #454A59",
")  c #484B78",
"_  c #0D3685",
"`  c #0D3A8C",
"'  c #133C8D",
"]  c #272080",
"[  c #282181",
"{  c #312A82",
"}  c #3C3587",
"|  c #3D398B",
" . c #363290",
".. c #403787",
"X. c #423B89",
"o. c #413E95",
"O. c #19418A",
"+. c #0F4092",
"@. c #194596",
"#. c #15439C",
"$. c #1A459A",
"%. c #36538D",
"&. c #20499E",
"*. c #2F5193",
"=. c #1D59AB",
"-. c #2551A4",
";. c #2953A6",
":. c #2858AB",
">. c #2C5BAC",
",. c #345DAB",
"<. c #395EA9",
"1. c #1D64AF",
"2. c #3C62AE",
"3. c #2867B4",
"4. c #3D63B0",
"5. c #2D76BC",
"6. c #4A4685",
"7. c #454188",
"8. c #4B4688",
"9. c #554F83",
"0. c #534F8E",
"q. c #565082",
"w. c #585388",
"e. c #484495",
"r. c #524F9D",
"t. c #575190",
"y. c #5A5693",
"u. c #5D5A96",
"i. c #615D8D",
"p. c #4E628C",
"a. c #66628E",
"s. c #606097",
"d. c #62629C",
"f. c #4669B3",
"g. c #456AB2",
"h. c #4D70B9",
"j. c #5476BD",
"k. c #5C7ABC",
"l. c #6B6DA4",
"z. c #7479AD",
"x. c #7878AC",
"c. c #6778B7",
"v. c #787EB4",
"b. c #257CC0",
"n. c #307CC0",
"m. c #607DC0",
"M. c #7C82BB",
"N. c #3294CE",
"B. c #38ACDC",
"V. c #6986C7",
"C. c #7689C9",
"Z. c #7F88D0",
"A. c #7D96D1",
"S. c #8286BC",
"D. c #8F98B4",
"F. c #A1A5BF",
"G. c #838BC5",
"H. c #8793CD",
"J. c #8C93CC",
"K. c #838DD2",
"L. c #8997D6",
"P. c #939DD8",
"I. c #8CA1DA",
"U. c #93A7DB",
"Y. c #9AABDD",
"T. c #A2A6C1",
"R. c #A3A8C3",
"E. c #ACB5DA",
"W. c #B3B9DB",
"Q. c #99A8E2",
"!. c #9DABE9",
"~. c #9DB0E6",
"^. c #A4AEE0",
"/. c #A1AEEB",
"(. c #A3B3E3",
"). c #A5B3ED",
"_. c #ADB9E9",
"`. c #AABAED",
"'. c #B5BEE3",
"]. c #ADBCF4",
"[. c #B1BDF4",
"{. c #BCC0DF",
"}. c #BCC2E4",
"|. c #B5C3ED",
" X c #BAC5EF",
".X c #BCC8EF",
"XX c #B6C2F5",
"oX c #BAC6F2",
"OX c #BEC9F3",
"+X c #BFC9F9",
"@X c #C0C6E8",
"#X c #C3CBED",
"$X c #C3CCF4",
"%X c #C9CFF1",
"&X c #C3CCFA",
"*X c #C7D0F3",
"=X c #CAD2F5",
"-X c #C6D0FA",
";X c #CCD4FA",
":X c #D4DAF6",
">X c #D1D6FC",
",X c #D3D9FC",
/* pixels */
"                                                                                                    ",
"                                                                                                    ",
"                                                                                                    ",
"                        . X + X X X X + X X X X X X X X X X X X X X X X X X .                       ",
"                        ) D.R.R.R.R.F.R.F.F.T.T.T.T.F.F.T.T.T.T.F.F.T.T.F.D.m .                     ",
"                    2 M.=X$X.X$X*X*X=X=X*X*X%X%X%X%X%X$X*X%X$X$X$X$X$X#X.X$X#Xp.&                   ",
"                . v C.:X:X;XoX$X$X*X;X$X*X$X&X$X$X$X$X&X&X$XOXOXOX&X+X$X'.;X,X-Xc.4 .               ",
"              o L C.*X,X=X).G.w.i.a.w.q.q.q.q.9.9.9.9.9.9.q.9.9.9.q.q.w.H.).;X>X$Xk.H .             ",
"              ; $.|.|..X).M.7 = f 5 = = = = = = = = = = = = * = = = = = d G.~.OX'.(.@.o             ",
"              2 -.#X$X;XJ.7 * * * * * * * * * * * * * * = * * * = = * * * d Y.,XoX_.$.@             ",
"              2 -.#X$X;XS.> * * * * = * * * * * = * * * * * = = * * * * * 6 I.,XoX|.$.&             ",
"              3 -.=X&X;XS.> = = = = = = = * > = = = = * = 7 n > * > > * = , P.:XoXOX$.-             ",
"              3 -.=X$X>XM.> = > = > = > > = > = > = = = 8 n 5 = > * > > = , P.:XoX$X&.2             ",
"              e ;.=X$X;Xv.> > = > = > = = > = > > > > 8 n > > = > > > * > , J.,X.X=X&.2             ",
"              e ;.%X*X;Xz.> > > > > > > > > > = > = a f 7 > > > > * * > = , J.>X$X;X-.4             ",
"              r 2.:X*X;Xz.> > > > > > > > > > > > a n 6 > = > > > > > > > > G.;X$X=X;.e             ",
"              x g.:X$X;Xl., > > > < > > > > , > 6 n 6 > > > < > > < > > > 1 C.:X$X=X,.r             ",
"              x 2.;X&X;Xl., < > > > , > > > > < 6 6 > > < > > > > > , > > 1 v.;X=X;X,.c             ",
"              c :.:X$X;Xl.< < < > < < < < < < < < < < < < > < < > < < < < 1 z.;X;X-X4.v             ",
"              c >.:X&X;Xd.1 < < < < < < < < < < < < < < < < < < < < < < < 1 z.;X;X$Xf.H             ",
"              c ,.:XOX-Xd.< < < < < < < < 0 < < < 0 < 0 < 0 < 0 0 < 0 < , d x.-X;X=Xh.J             ",
"              b 2.:X-X-Xs.q q 0 0 0 0 0 0 0 0 0 0 0 0 < 0 0 0 0 < 0 0 0 s M l.-X;X;Xh.J             ",
"              b 2.,X$X&Xu.q 0 0 0 q q 1 q < 0 < 0 0 q 0 0 0 0 0 0 0 i a M s s.=X;X;Xj.K             ",
"              H 2.,X*X&Xy.q q q q s j q q q q q q q q q q q 0 0 0 i s N s i y.&X;X=Xj._             ",
"            . H g.,X-X+Xy.q 1 q d M s q q 0 q q q 0 0 q q 0 q q q s N d q w t.&X;X-Xk.`             ",
"            . J g.-X-X+Xt.w w z M w w q w w q q q q w q q w q q w N p w q w 8.&X;X-XV.` .           ",
"      . T %.%.<.j.XXXX+X0.p M U s w q q q w w q w q q q w q w q w p q w w p ) &X;X;XV.` .           ",
"      @ 2.#.#.-.:.U.XX+X0.j M j w w w w q w q w w w w w q w w w q w w q q p ) +X;X:XC.` .           ",
"      3 <.=.5.5.:.~.XXXXu.U l w w w w w w w w w w w w w t w w w w w w w w w ^ +X;X:XC.` o           ",
"    . v 2.3.B.N.:.`.].XXu.y w w w w w y w w t t w w g g t w t t y w w y w y ^ +X;X;XA.` O           ",
"    . K 4.:.3.1.>.].].oX6.g w t t t t t w t w g g w g g t w w t w t y w y w Y +X;X:XA.` @           ",
"    o +.4.3.1.3.>.`.].XX6.y y t t w y y g y y y y y h y y t t t w y y y y y Y +X>X;XL.@.+           ",
"    @ #.,.b.N.n.;.`.].XX8.y y y y u y y y y h k h l / l y y y y y y y u y u I XX;X-XU.*.X           ",
"    ; #.;.3.5.:.;.].].].7.k u k k k k u k k k k P U C g k k y h u h y u y k P XX,X*XY.O.O           ",
"    3 #.f.f.4.<.j.XXXX].7.k u u u u u u u u k I / V k k k u V u k k k u u k C [.,X$XU.' @           ",
"    @ H r 4 L #.L.XX>X].7.k k k k k k k k k C ^ P k k k u V u u k k V k V u S `.,XoXQ.@.-           ",
"      .   . O O.U.oX>X].7.V u V V k V V V R ^ I k V V V u V V u V V V u V V S ).,X.XQ.$.-           ",
"            . L Y.oX,X].7.V V V V V V V C Q I V V V V V V V V V V V V V V V S ).,XoX(.$.-           ",
"              : ^.|.,X).| V V Z V A V V Z Z Z V V Z V Z V V Z V V V V C V V I Q.,XoX(.@.&           ",
"              # E.|.,X(.7.A A Z V A A V Z Z Z Z Z Z V V Z Z A A A A A A Z A R Q.,X.X_.B .           ",
"              + W. X,X/.X.A A A A A A Z A A A A A A A A A Z Z Z Z Z R Q A A F Q.,XoX'.%             ",
"              + W. X>X/.X.A A D A A D A D A A A A A D A D A D A D ! / R D A R P.,XoX'.$             ",
"              + }. X,X/.| D D D D D D D D A D D D D D D D D D D ! / F D D A W P.,XoX}.$             ",
"              + @X X,X/.| D F D D D D D D D D D D D D D D D F ! ..W D D D D W L.,XoX@X$             ",
"              $ #X X>X/. .~ X.W D G G D G D G G D D G G F F { ..~ F F F D G W K.>X X#X%             ",
"              % %XoX>X!.e.} { F G G G G G G G G G G G G E { X.{ F G G G G G W K.>X X%X%             ",
"              % %X X,X/.r.W G G G E G G G G G E G G G G G [ [ G G G G G G [ W Z.,XoX=X9             ",
"              : %X X,X/.o.[ [ [ E E [ E E [ G ] ] ] ] ] W [ W ] ] ] ] ] G [ [ Z.>XoX=X9             ",
"              9 =X#X,XQ. .[ [ [ [ [ [ [ ] ] ] [ ] ] [ ] ] [ ] ] ] ] [ [ [ ] [ m.>X}.&Xn             ",
"              9 W.'.@XL.{ F G G G G G G G G G G G G G G G G G G G F G G G G { m.@XW.{.(             "
};
