/* XPM */
static char *result[] = {
/* columns rows colors chars-per-pixel */
"50 43 181 2 ",
"   c #000000",
".  c #01050C",
"X  c #030A14",
"o  c #080B12",
"O  c #030B1B",
"+  c #050E22",
"@  c #081223",
"#  c #05132A",
"$  c #1B1D21",
"%  c #061632",
"&  c #0B1A34",
"*  c #06193C",
"=  c #172135",
"-  c #202227",
";  c #24252B",
":  c #292B31",
">  c #2E3037",
",  c #071D43",
"<  c #081E47",
"1  c #08204C",
"2  c #082353",
"3  c #09265C",
"4  c #09285F",
"5  c #152E5E",
"6  c #2E3444",
"7  c #353843",
"8  c #2A3855",
"9  c #0A2A66",
"0  c #0B2D6E",
"q  c #0C2F74",
"w  c #0C327B",
"e  c #1D3A72",
"r  c #203966",
"t  c #3F414C",
"y  c #344160",
"u  c #40424D",
"i  c #464B56",
"p  c #4B505D",
"a  c #0C3682",
"s  c #163B84",
"d  c #143C8A",
"f  c #1C428A",
"g  c #1B4493",
"h  c #14449C",
"j  c #1E4C9E",
"k  c #2D4D8C",
"l  c #244B95",
"z  c #254D9D",
"x  c #395A9B",
"c  c #1D4BA2",
"v  c #1D4EAA",
"b  c #1F51AE",
"n  c #1E53B3",
"m  c #204DA3",
"M  c #2551A3",
"N  c #2152AE",
"B  c #2D57AA",
"V  c #335CA8",
"C  c #3A5EA9",
"Z  c #2355B3",
"A  c #2857B2",
"S  c #2558B5",
"D  c #2A5AB5",
"F  c #2257B8",
"G  c #245CBC",
"H  c #295CBA",
"J  c #3E63A8",
"K  c #2A66B1",
"L  c #296CB6",
"P  c #2D61BE",
"I  c #3966B4",
"U  c #3D6AB3",
"Y  c #3562BA",
"T  c #3965BA",
"R  c #3D69BD",
"E  c #2478BB",
"W  c #3A7CBE",
"Q  c #4266AB",
"!  c #4B6EAE",
"~  c #466CB7",
"^  c #4B6DB7",
"/  c #4369B8",
"(  c #5676B9",
")  c #5D7BBB",
"_  c #627FBC",
"`  c #255FC0",
"'  c #295FC1",
"]  c #1D77C4",
"[  c #1F7ECA",
"{  c #2662C1",
"}  c #2B62C3",
"|  c #296AC6",
" . c #3366C4",
".. c #376AC4",
"X. c #3B6DC6",
"o. c #3E6FC9",
"O. c #2770C9",
"+. c #227FCB",
"@. c #2B7ACD",
"#. c #3A77CA",
"$. c #436DC2",
"%. c #4474CA",
"&. c #5A7AC1",
"*. c #5177C9",
"=. c #5379CB",
"-. c #5B7ECF",
";. c #627EC1",
":. c #6883BE",
">. c #7D8DBB",
",. c #2D86C3",
"<. c #2483CF",
"1. c #2B86CE",
"2. c #3F83C1",
"3. c #2984D2",
"4. c #228ED4",
"5. c #2C8BD2",
"6. c #229AD7",
"7. c #249BD8",
"8. c #319BD3",
"9. c #28A7DF",
"0. c #29ABE1",
"q. c #38ADE1",
"w. c #2DB5E7",
"e. c #24BCE9",
"r. c #36B8E6",
"t. c #5682CE",
"y. c #4699CE",
"u. c #6985C6",
"i. c #728CC8",
"p. c #7B94CA",
"a. c #6284D3",
"s. c #6A8BD7",
"d. c #718FDD",
"f. c #7593DD",
"g. c #7B96DF",
"h. c #7B97E1",
"j. c #7E9AE1",
"k. c #27C5ED",
"l. c #8D9DC0",
"z. c #829AD3",
"x. c #8A9FD1",
"c. c #92A0CF",
"v. c #8DA2D8",
"b. c #94A6DB",
"n. c #ADB4D5",
"m. c #A6B2DA",
"M. c #B0B6D7",
"N. c #B5BBDD",
"B. c #849DE3",
"V. c #8BA3E6",
"C. c #92A7E7",
"Z. c #9DAFE2",
"A. c #91A7E8",
"S. c #96AAE8",
"D. c #9DB0E7",
"F. c #9DB0EB",
"G. c #A3B2E4",
"H. c #AABAE6",
"J. c #A3B6EE",
"K. c #AABAEF",
"L. c #B4BEE6",
"P. c #B1BEEC",
"I. c #A7BAF1",
"U. c #ACBCF2",
"Y. c #B1BFF3",
"T. c #B5C0E5",
"R. c #BAC3E5",
"E. c #B5C2EA",
"W. c #B9C4EC",
"Q. c #B4C1F6",
"!. c #BBC6F4",
"~. c #BEC8F4",
"^. c #C3CAEC",
"/. c #C4CDF4",
"(. c #C4CCF9",
"). c #C7D1F6",
"_. c #CAD3F7",
"`. c #C7D1F8",
"'. c #CBD3FA",
"]. c #D0D7FB",
"[. c #D1D9FA",
/* pixels */
"                                                                                                    ",
"                                                                                                    ",
"                                                                                                    ",
"                          o 7 u u u u t t t t t t t t t t u t t t t u 6 o                           ",
"                      . = l.R.L.E.R.T.T.T.T.T.T.T.R.L.R.R.R.T.T.L.L.L.R.>.=                         ",
"                    X r m.[.].E.(.(.(.(.(.).(.~.(.(.(.'.'.(.(.(.(.(.K.].`.c.e X                     ",
"                  . e b._._.J.j.=.=.=.=.=.t.t.=.=.=.=.t.=.=.=.*.=.=.B.K.'.`.c.s O                   ",
"                  + x ).~.E.f.S n Z Z F n n ] | n Z Z F F F F F F n  .h.P.~.W.M *                   ",
"                  @ ! ).'.I.S n { G { G G G [ | F G ' ' G { { ' G G n ..U.(.~.C ,                   ",
"                  @ Q /.'.I.Z n { ` ` ` ' F [ | G { ' G G G G F ` ` n P U._.).Q <                   ",
"                  # Q /.'.F.F n ' ' ` ` ' G [ | G ' ` G G ' ' G ` ` Z H K.[.).C 1                   ",
"                  # ! ^.].F.Z Z ` ` ` ` { P +.| G ' ` F G G G G ` ' b H K.[./.Q 2                   ",
"                  * ( W.'.F.Z n ' { ` { ..X.+.| F ` ` { { ' H ' ` ` n ~ K.].!.^ 4                   ",
"                  * ( ^.'.S.F n G { { .. .' +.| F ` G F G G G F ` ` Y Y F.].!.( 9                   ",
"                  * ) ^.].S.n n ' { ..o.' G +.O.F } ` ` ` ` { ' { { v A S.[.W.) 0                   ",
"                  , ) /.'.A.Z n { ..o.` ` G +.O.n } ` ` ` ` ` { G G v A S.[.~.) q                   ",
"                  < _ ).'.C.Z F ..X.} ` ` G 4.@.n F { ` ` ` ` ` ` S v D C.'./.;.q                   ",
"                  2 :.).'.V.F F } ' ` ` ` ` 6.k.@.n F ' ` { ` ` ' F v Z A.'.).u.w                   ",
"                  2 i.).'.V.Z S ` ` ` ` ` F 7.7.e.@.F F { ' ` ` F Z N A V.].(.i.a                   ",
"                  3 i.'.].B.F G ` ` ` ` } G 7.3.<.e.@.S ..{ { G Z Z N Z B.].(.p.a .                 ",
"                  4 z./.'.B.F H ` ` ` ` ` F 6.3.{ <.0.%.P ' ` F Z Z N Z B.]./.z.a .                 ",
"                  9 z.^.'.B.S ' ` ` ` ` { G 6.3.` O.q...F ' G F Z Z N A z.'.(.z.a .                 ",
"            O 8 y x v.W.(.B.S { ` ` ` ` { G 6.3.{ #.q.} F { F Z Z N Z Z h.'./.x.a X                 ",
"            5 z j V ^ D.Y.B.F ' ` ` ` ` ` F <.w.#.#.9.{ G G Z Z Z Z Z S h.'.(.b.d .                 ",
"            k h W 2.I D.Q.g.F ' ` ` ` ` { n n 5.r.3.0.' F F Z Z Z Z N N B.'.).b.d X                 ",
"            l U y.,.L K.Q.g.F } ` ` { ` { { G ` 7.e.0.' F Z Z Z Z Z N Z f.'.(.Z.d X                 ",
"          X V U K n I I.Q.f.n ' ` ` ` ` ` ` ` n { 0.w.' N Z Z Z Z Z Z D B.'.'.Z.f O                 ",
"          & J K L K I U.Q.h.n | ` ` ` ` ` ` ` G n | 7.G N Z Z Z Z Z D I f.'./.Z.g O                 ",
"          < z E 8.E ~ U.Q.h.n ' ` ` ` ` ` ` ` ` F G 5.S N Z Z Z Z H R Z s.(./.G.g O                 ",
"          4 B V N c &.U.Q.h.n } ` ` } ` ` ` ` ` F G 5.S N Z Z N D T A Z s.(./.G.j +                 ",
"          0 h h c c Z.(.(.h.n | } o.| ` { ` ' { F F 5.H b Z Z D R D Z N a.(./.G.z #                 ",
"          X O O # f G.(.(.d.n  .o.' ` ` ' { G G F S 3.H b Z Z / D Z Z Z -.!.(.H.z %                 ",
"                . f G.).'.d.F %...n n b n n n Z n S 5.S N Z N A Z Z N Z -.Y.'.P.z %                 ",
"                . f G.(.(.f...o.{ n b n n n n Z b S 5.H N Z Z Z Z Z Z N -.~.'.P.k o                 ",
"                  y J.(.~.h.Y } { F F F n F n Z N S 5.D N Z Z Z Z Z Z b -.Y.'.R.6 .                 ",
"                  = G.(.~.s.n  .{ Z G F F F Z N N S 5.G N Z Z Z Z Z Z b =.Y./.R.;                   ",
"                  $ n.`.~.a.` | ` n n n N N N Z N D 5.D Z Z Z Z Z Z Z v %.Y.(.R.:                   ",
"                  $ M.`.~.a.F | ` ' ' F Z Z Z Z D R 5.H N Z Z Z Z Z Z v $.Y.(.^.:                   ",
"                  $ N.`.!.-.` } ' G S Z Z Z S H T H 1.H Z Z Z Z Z Z Z m $.Y.'.^.>                   ",
"                  - L.'.!.=.F } ' Z Z Z Z Z H / Z D 1.H N Z Z Z Z Z Z m R U.'.^.7                   ",
"                  - N.).!.*.F G Z Z Z Z Z D R D N S 1.H N N Z Z Z Z b v Y K.'.^.i                   ",
"                  - R.(.!.*.G v b N b v A I N N v S 1.S v N v N v N c Z Y K.'.^.p                   ",
"                  - n.N.m.^ v m c j j j M M j j j c E M z c c c c c m m B b.R.M.p                   "
};
