/* XPM */
static char *result[] = {
/* columns rows colors chars-per-pixel */
"50 28 122 2 ",
"   c black",
".  c #010100",
"X  c #020200",
"o  c #030300",
"O  c #040400",
"+  c #050500",
"@  c #060600",
"#  c #060601",
"$  c #060701",
"%  c #070701",
"&  c #090900",
"*  c #080801",
"=  c #0A0A00",
"-  c #0B0B01",
";  c #0D0D01",
":  c #0F0F00",
">  c #111101",
",  c #121201",
"<  c #121301",
"1  c #131301",
"2  c #141401",
"3  c #181801",
"4  c #1B1B01",
"5  c #1D1D01",
"6  c #1E1E01",
"7  c #212101",
"8  c #222201",
"9  c #242401",
"0  c #252501",
"q  c #272702",
"w  c #292901",
"e  c #282802",
"r  c #2B2B02",
"t  c #2E2E01",
"y  c #303001",
"u  c #313101",
"i  c #323302",
"p  c #363601",
"a  c #3D3D01",
"s  c #3C3C02",
"d  c #404001",
"f  c #424201",
"g  c #454501",
"h  c #464601",
"j  c #4A4A01",
"k  c #4C4C01",
"l  c #4D4D02",
"z  c #4E4E02",
"x  c #535302",
"c  c #545401",
"v  c #585801",
"b  c #595902",
"n  c #606002",
"m  c #626202",
"M  c #6B6B02",
"N  c #6E6D03",
"B  c #707002",
"V  c #747503",
"C  c #757602",
"Z  c #797901",
"A  c #808001",
"S  c #858502",
"D  c #888802",
"F  c #8B8B02",
"G  c #939201",
"H  c #939302",
"J  c #979702",
"K  c #979703",
"L  c #989802",
"P  c #9B9B02",
"I  c #9B9B03",
"U  c #9F9F02",
"Y  c #A1A102",
"T  c #A3A303",
"R  c #A9A902",
"E  c #ABAB02",
"W  c #AFAF02",
"Q  c #B2B203",
"!  c #B7B703",
"~  c #BDBD01",
"^  c #BFBF02",
"/  c #C5C502",
"(  c #C6C602",
")  c #CDCD01",
"_  c #CDCD02",
"`  c #D6D601",
"'  c #D4D402",
"]  c #DCDC01",
"[  c #DFDF01",
"{  c #DDDD02",
"}  c #DEDE02",
"|  c #E2E202",
" . c #E8E801",
".. c #EAEA00",
"X. c #EAEA01",
"o. c #EBEB01",
"O. c #EDED00",
"+. c #EEEE01",
"@. c #EFEF01",
"#. c #EEEE02",
"$. c #F1F100",
"%. c #F0F001",
"&. c #F0F101",
"*. c #F1F101",
"=. c #F2F200",
"-. c #F3F300",
";. c #F2F201",
":. c #F4F400",
">. c #F5F501",
",. c #F6F600",
"<. c #F7F700",
"1. c #F7F701",
"2. c #F6F602",
"3. c #F8F801",
"4. c #F9FA00",
"5. c #FAFA00",
"6. c #FBFB00",
"7. c #FBFB01",
"8. c #FCFC00",
"9. c #FDFD00",
"0. c #FEFE00",
"q. c yellow",
/* pixels */
"                                                                                                    ",
"                                              # - * .                                               ",
"                                        3 k Z G U J A b 9 X                                         ",
"                                    < B ) o.5.q.q.q.8.@.` H 6                                       ",
"                                  u / ,.q.q.q.q.q.q.q.q.q.5.} x                                     ",
"                                t { q.q.q.q.q.q.q.q.q.q.q.q.q.&.m X                                 ",
"                              5 ' q.q.q.q.q.q.q.q.q.q.q.q.q.q.q. .f X                               ",
"                            O R q.q.q.q.q.q.q.q.q.q.q.q.q.q.q.q.q.W &                               ",
"                            d 6.q.q.q.q.q.q.q.q.q.q.q.q.q.q.q.*.E p o                               ",
"                            ! q.q.q.q.q.q.q.q.q.q.q.q.q.q.q._ g , .                                 ",
"                          4 O.q.q.q.q.q.q.q.q.q.q.q.q.q.2.c : X                                     ",
"                          a :.q.q.q.q.q.q.q.q.q.q.0.<.Y 1                                           ",
"                          v ,.q.q.q.q.q.q.q.q.q.>.~ s X                                             ",
"                          n <.q.q.q.q.q.q.q.q.q.| h .                                               ",
"                          z ,.q.q.q.q.q.q.q.q.q.q.+.F w .                                           ",
"                          y ;.q.q.q.q.q.q.q.q.q.q.q.5.[ V &                                         ",
"                          * X.q.q.q.q.q.q.q.q.q.q.q.q.q.5.#.r .                                     ",
"                            D q.q.q.q.q.q.q.q.q.q.q.q.q.q.q.9.Q 8 @                                 ",
"                            5 X.q.q.q.q.q.q.q.q.q.q.q.q.q.q.q.q. .C +                               ",
"                              M 1.q.q.q.q.q.q.q.q.q.q.q.q.q.q.q.6.T &                               ",
"                              = L 4.q.q.q.q.q.q.q.q.q.q.q.q.q.9.^ 7 .                               ",
"                              . 2 K 3.q.q.q.q.q.q.q.q.q.q.q.9.( 0 X                                 ",
"                                  o N %.q.q.q.q.q.q.q.q.q.7.I %                                     ",
"                                      > S ' ..$.-.=.O.] P q                                         ",
"                                          $ e h l j i ;                                             ",
"                                                                                                    ",
"                                                                                                    ",
"                                                                                                    "
};
