/* XPM */
static char *_dad52770d8e4d939e9aac423645d071[] = {
/* columns rows colors chars-per-pixel */
"50 50 129 2 ",
"   c #1C2F67",
".  c #1C2F69",
"X  c #1E316B",
"o  c #1F3571",
"O  c #1F3B75",
"+  c #202F68",
"@  c #21336D",
"#  c #223673",
"$  c #233A75",
"%  c #283C77",
"&  c #233678",
"*  c #263C7C",
"=  c #293E7E",
"-  c #2C417D",
";  c #263D80",
":  c #293E80",
">  c #264082",
",  c #2C4183",
"<  c #2D4589",
"1  c #2E498D",
"2  c #314584",
"3  c #314789",
"4  c #334B8E",
"5  c #394E8F",
"6  c #3B508F",
"7  c #2F4B93",
"8  c #324E97",
"9  c #314E95",
"0  c #354D95",
"q  c #344F94",
"w  c #364E94",
"e  c #374F95",
"r  c #364E96",
"t  c #334D92",
"y  c #384D90",
"u  c #394E91",
"i  c #384E91",
"p  c #314F98",
"a  c #334F99",
"s  c #344E98",
"d  c #344E99",
"f  c #354F99",
"g  c #354F99",
"h  c #355093",
"j  c #335094",
"k  c #335295",
"l  c #335096",
"z  c #355095",
"x  c #345195",
"c  c #365194",
"v  c #355294",
"b  c #375295",
"n  c #355097",
"m  c #345197",
"M  c #365196",
"N  c #375297",
"B  c #375092",
"V  c #385090",
"C  c #395093",
"Z  c #385193",
"A  c #395094",
"S  c #385096",
"D  c #395096",
"F  c #3A5197",
"G  c #3A5396",
"H  c #3A5294",
"J  c #3F5996",
"K  c #365198",
"L  c #355298",
"P  c #375299",
"I  c #365399",
"U  c #35519A",
"Y  c #35519B",
"T  c #36509A",
"R  c #37519B",
"E  c #375498",
"W  c #37549A",
"Q  c #36549D",
"!  c #34549F",
"~  c #35539D",
"^  c #3A5298",
"/  c #3B5298",
"(  c #38539A",
")  c #3E5299",
"_  c #395499",
"`  c #385599",
"'  c #3B5699",
"]  c #38559B",
"[  c #39569A",
"{  c #3B569B",
"}  c #3C5598",
"|  c #3C579A",
" . c #38529C",
".. c #38569C",
"X. c #3C579C",
"o. c #3A549B",
"O. c #3B589C",
"+. c #3555A0",
"@. c #3656A1",
"#. c #3957A0",
"$. c #3A57A3",
"%. c #375AA5",
"&. c #3C5AA3",
"*. c #3959A4",
"=. c #3B58A4",
"-. c #3B5BA6",
";. c #3C5CA7",
":. c #395AA5",
">. c #3859A8",
",. c #3B5BA8",
"<. c #3C5BAB",
"1. c #3F5FAA",
"2. c #3A5BA9",
"3. c #3F5FB2",
"4. c #3E60AA",
"5. c #3F62B2",
"6. c #415695",
"7. c #415499",
"8. c #415A9D",
"9. c #435C9E",
"0. c #40599B",
"q. c #4061B2",
"w. c #4364B3",
"e. c #4566B3",
"r. c #4667B6",
"t. c #4466B4",
"y. c #4768B6",
"u. c #4B6BB6",
"i. c #466AB8",
/* pixels */
"< z z j j 9 q 9 j 9 9 j q q 7 7 9 4 ^ L z j q q q 9 9 9 9 9 9 q 7 7 p 1 | z q j q q j z q 9 9 9 9 7 ",
"4 , : , , : : : : , 2 , : : : : < L 5 : , : : : : : : : , , : , : , 3.) , : : : : : : : : : : , , : ",
"t : , , : : = = = , : = : : : : < L V : = : , : : : = : 2 : = : : , w.H = * : : , : : : : = : 2 : : ",
"t , , : = : : : = = = : : = , = < L u = , , : = : : : = : = = : = , r.H : : : , : = = : : = , : : : ",
"5 = = = = = = = = * = = = - = * , s 5 = = = = = = = = = = = = = , , e.H * * = , * = = = = = * = = * ",
"= $ $ & & $ * $ & & $ $ * = $ $ * < = & $ & & & & = @ $ & $ $ = * $ < ; $ & $ $ $ & $ # $ $ $ $ & $ ",
"q q q q q h q 9 -.' z z z q q q q z q q t q 9 q h >.4 z z z L z q q q q q 9 q q t 9 s ^ ' z z z q H ",
": : : : = : = < <.5 : : : : = = , , = : : : = , : ! 5 : = = = : : : = , , : : = : : 4 L t : : : : : ",
": : : = : : : < ;.6 , : : : : : , : : : : ; : : = +.u , 2 : : : : = , , : : : : : : ,  .t = = : : : ",
": = 2 = = = = < 1.5 = = = = = : ; = = : = = = = : ! u 2 = : = = = = : : = = = : = = ,  .t = 2 = = = ",
"$ - $ $ & $ & , -., & & & & & & & $ & $ = $ $ $ $ p 3 % $ $ & & & & $ $ $ $ $ = $ & = s , = $ & $ & ",
"3 | ' ..' W W W ' L z q j L 9 q 9 , | 9.X.' ' W W W L z z j j z q q p < | O.8.' ' W L W L L p 9 9 q ",
"4 : = : = , : : : : : , 2 = : : < L u = = : = = : : : : = : , , = , q.H = , : = : : : : : : ; : = , ",
"5 : : = , , = : = : : : = : : : < L 5 : : : : 2 : : * : ; : , : = , w.H : = : : : : , = : : : = , , ",
"5 : : , , = : : = = = = : : : : 4 L u = = : 2 , = : = : = = = = : , r.^ : : : : : 2 : : : : : = : = ",
"5 = = = = = = = = = = = = = = 2 < s 5 * = = = = = = = = = = = = = , u.H = = = = = = = = = = * = = = ",
"# X X X . X X X @ . X X X X @ X X & X X . X X X X X + X X X X X X # $ # . X . X X X X     @ X X X X ",
"t 4 1 4 1 1 4 z -.V 4 t 4 4 4 4 4 4 t t 1 4 4 1 1 &.5 t 4 4 4 4 4 4 4 4 4 1 4 1 1 1 t s | t 4 4 t 4 ",
", ; = = = = : < >.4 : : : : = = = : 2 : : = = = : #.5 , : : : : = = = : : , : = = = ,  .V : : : : : ",
": : : = = = ; < 1.5 , , : : : : : , - = : : : : : +.u : : : , = : = : = 2 , = ; : : ,  .t : ; = , : ",
": : = : , = : < ;.5 2 : = = : ; : = = : : = , = : ! t : : 2 : : : = : = : ; ; ; = = <  .t = = , , = ",
"= = - , , = = < -.5 : = = = : = = = = = = , , : = L 5 = 2 : : : = = : = = = = = , , , ' 5 = : , , = ",
"7 -.-.-.-.-.-.>.2.-.-.>.>.>.4.%.>.1 *.-.%.2.>.>.-.>.-.-.>.>.-.-.-.4.%.9 %.-.-.2.-.>.-.%.-.-.-.>.>.>.",
"t : : : : : : , : : ; : : 2 , : < L 5 : : : : : = : : : : : : : 2 , 5.H : : : , : : : : : : : : : : ",
"5 : = : ; : , = = : = : : : = : < L 5 : : : ; = : 2 = : = : = , , , w.H : : : : : : = , , ; : : = = ",
"5 ; : = = , : : : : : = : = : : < ' H = : : : : 2 = : : : : : = = , r.H , = : : : : , , : = : : : : ",
"u : : : : = = : : = , = : : : : 3 ..u : : : = = = : : : = = : : : , i.7., : : : : : , : = : : : : : ",
"= & & & & O & & o $ $ & & & & & $ < $ $ & & & & & & X & - $ & & & $ > = $ & & & $ O & X & & $ - & & ",
", , 3 , , , , < 1.t , , , , , , , , , , , 3 , , , ! 4 3 , , , , , , , , , , , , , , < s t , 3 , , , ",
": 2 : = : : : < 1.4 : : : - = : : : = : 2 : = : : ! 5 , = = : = = : : : : : , , = : , L t , : = : : ",
": : = : : : = < 1.t : = , , = : : : = : : = : = : ! u : : : : , , : : : = : , : = : ,  .t = : : = : ",
": : : : : , , < 1.5 = , , : : : = : : : : : = = , ! u : : = - , : : : : = : ; = = : < ..t : : = = , ",
"$ $ $ * - = $ , #., $ $ * $ $ $ = $ $ * $ $ $ - * 9 3 * $ $ * $ * $ $ $ $ $ $ $ $ $ - q < * * $ = = ",
"q *.*.*.*.#.+.#.-.*.+.+.+.! ! ! &.1 *.@.*.*.&.=.@.-.*.#.+.+.+.! ..+.&.^ *.*.*.*.*.;.*.*.+.+.+.+.! ! ",
"5 , , , - : : , , , : : : : : 3 < L 5 , , , : : , : : , : : : : : , e.H , , , , , , : : : : : : : : ",
"5 , = : : : = , , : : : : : : = < L 5 = = : : : : = , , : : : : : 2 t.^ : : = = : : : : : , : : : : ",
"H , = : : : = , = ; : = = : : : < L u 2 : : = = = , , = : : = = : , r.^ : : , = ; : : = , , : : = = ",
"V : : = = : : : : : = : , : : : < L 6., : : = = : : : : ; : : : : , y.H = 2 = : : : : : , : : : : : ",
"* # # # # # o # X o # = # # # o & < & o # o # o # # . # o & $ # # & > = $ o # # # # # X o # # # & $ ",
"t t t t t 4 1 q >.0.J H H V u t t t t 4 4 4 5 4 1 %.5 } G } H h h h t t t 4 4 4 t 4 q L | H H G | u ",
": : , , : : : < 1.5 : : : : : 2 : , : : : , , : , ! 5 , : : : : : : , : : = : = 2 , , L t : : , : : ",
": : : = = : = < ;.5 = : ; : 2 : = : : : = , : : : ! u : : = * : ; 2 : : : : : , : ; ,  .t : : = : : ",
": : : : = = : 4 ;.5 : : : , : = : : : : : : : : : ! V , : : : : 2 : = : : : : = = : ,  .u : : : : : ",
"$ & & # # $ % = ! - # # & & $ # & # $ $ & & & # $ q 2 $ & & & $ & $ & # & & & & & & $ t 2 $ & & & & ",
", 4 4 4 1 1 1 1 4 7 1 1 1 1 1 1 7 < h 4 4 t 1 4 q q 4 1 1 1 1 1 < 1 9 , t t 4 4 1 1 4 t 4 1 1 1 1 1 ",
"t , , , , , , , , , 3 , , , , , 4 ' V , , , , , , , , , , 3 , , , , 5.| 2 , , , , , , , , , , , , , ",
"5 : : , = : : : ; 2 : : : : : : < L 5 : = : = : : : = : 2 : = : : , t.H : : : = : = : : : = : , : : ",
"5 , 2 : : : : : : : : = : = = = < L V = , , : : = : : , : = : = = , r.H : : = , , = : : : = 2 : : : ",
"t , = = = = = = = = = = = , , = , s V , 2 ; = : = = : : = = = = : , y.H : ; , , = = : = = = : = = = ",
"$ & # # # & $ # @ # # # $ $ # # $ , $ & # # # # # # . # # # # $ & & , * # # $ # # # # X # # & # # # "
};
