/* XPM */
static char *result[] = {
/* columns rows colors chars-per-pixel */
"50 50 254 2 ",
"   c #000000",
".  c #0B0303",
"X  c #0D0A04",
"o  c #170704",
"O  c #140C05",
"+  c #1B1308",
"@  c #270907",
"#  c #360808",
"$  c #2A1508",
"%  c #37140C",
"&  c #391612",
"*  c #331916",
"=  c #490D0E",
"-  c #47180A",
";  c #5A180A",
":  c #76160E",
">  c #660C10",
",  c #730E11",
"<  c #4F300E",
"1  c #6C2F13",
"2  c #4C142F",
"3  c #6D162E",
"4  c #771826",
"5  c #791A33",
"6  c #64212B",
"7  c #7B282B",
"8  c #57450D",
"9  c #784C15",
"0  c #9C1A0E",
"q  c #950E10",
"w  c #881611",
"e  c #9C141B",
"r  c #AE0D0E",
"t  c #B30F0E",
"y  c #A9130E",
"u  c #B4110C",
"i  c #BB140C",
"p  c #BC1B0C",
"a  c #A80F10",
"s  c #B20F12",
"d  c #A4171A",
"f  c #B91713",
"g  c #89271A",
"h  c #8F3013",
"j  c #BD250A",
"k  c #A9370A",
"l  c #A7281A",
"z  c #B8261A",
"x  c #A5381A",
"c  c #B93718",
"v  c #861828",
"b  c #981B28",
"n  c #891A35",
"m  c #AD1E26",
"M  c #8A2828",
"N  c #97252A",
"B  c #8C2A30",
"V  c #9A2B30",
"C  c #A62923",
"Z  c #A73924",
"A  c #B43B27",
"S  c #B22A30",
"D  c #CC1D07",
"F  c #C2160B",
"G  c #C51A0A",
"H  c #CC1D0B",
"J  c #D21E0B",
"K  c #C51D1A",
"L  c #C72809",
"P  c #DC2507",
"I  c #D4210A",
"U  c #DC2409",
"Y  c #D8290B",
"T  c #D9320B",
"R  c #CA2315",
"E  c #C72917",
"W  c #CC261A",
"Q  c #D42D16",
"!  c #D4271A",
"~  c #D42B1C",
"^  c #D92F1E",
"/  c #C73A17",
"(  c #DC3412",
")  c #DC331E",
"_  c #D63819",
"`  c #E32A06",
"'  c #E52908",
"]  c #E5380C",
"[  c #E32A17",
"{  c #E23717",
"}  c #E43B12",
"|  c #E83F13",
" . c #E43B1C",
".. c #EB3C1D",
"X. c #F13F1E",
"o. c #CB2323",
"O. c #D52A23",
"+. c #D72A25",
"@. c #C9332F",
"#. c #D83424",
"$. c #E72E25",
"%. c #EB3826",
"&. c #F13D21",
"*. c #885311",
"=. c #B54918",
"-. c #A15D18",
";. c #B7541E",
":. c #936618",
">. c #B87218",
",. c #8D5021",
"<. c #B24A2D",
"1. c #AE6328",
"2. c #C6440C",
"3. c #DA480C",
"4. c #C94613",
"5. c #D84618",
"6. c #CC5A19",
"7. c #D75613",
"8. c #E64805",
"9. c #E94D02",
"0. c #E44C0A",
"q. c #EE4A0D",
"w. c #F14C0C",
"e. c #EB5403",
"r. c #EC5A03",
"t. c #E7540A",
"y. c #F5520F",
"u. c #EC4312",
"i. c #E9471A",
"p. c #F24D14",
"a. c #F2441D",
"s. c #F44A1C",
"d. c #EB5717",
"f. c #F55514",
"g. c #F95C16",
"h. c #F4531A",
"j. c #F9541B",
"k. c #F55B1A",
"l. c #FA5C19",
"z. c #C26D19",
"x. c #D26816",
"c. c #D97814",
"v. c #F06105",
"b. c #FE690F",
"n. c #EE7B09",
"m. c #E86518",
"M. c #FB6412",
"N. c #FB6B15",
"B. c #F5641C",
"V. c #FA631A",
"C. c #FA6D1A",
"Z. c #F47210",
"A. c #FB741A",
"S. c #F37819",
"D. c #F37B1B",
"F. c #FB7C1B",
"G. c #DA482B",
"H. c #CE5128",
"J. c #EB4626",
"K. c #F34B21",
"L. c #F24728",
"P. c #E7542B",
"I. c #F45424",
"U. c #F65D26",
"Y. c #C97724",
"T. c #CF702E",
"R. c #F36625",
"E. c #ED722C",
"W. c #F67726",
"Q. c #BE3547",
"!. c #CA385C",
"~. c #B45956",
"^. c #D94741",
"/. c #D3714E",
"(. c #E5715A",
"). c #DA7B70",
"_. c #D98A14",
"`. c #DA9213",
"'. c #EB8A0C",
"]. c #F3880A",
"[. c #F49F0D",
"{. c #E98512",
"}. c #F78718",
"|. c #FC8C1B",
" X c #EA9617",
".X c #FB941B",
"XX c #F7991A",
"oX c #CFA018",
"OX c #F5A60C",
"+X c #FBBA0C",
"@X c #F5AA15",
"#X c #FCA31C",
"$X c #EAB013",
"%X c #FCB718",
"&X c #D28F29",
"*X c #F68826",
"=X c #EE932A",
"-X c #F69423",
";X c #F69B22",
":X c #F99827",
">X c #F38E37",
",X c #F7A124",
"<X c #FAA323",
"1X c #F6AA24",
"2X c #F1A92A",
"3X c #F7A928",
"4X c #F8B829",
"5X c #F9BC35",
"6X c #F7C915",
"7X c #FDD815",
"8X c #FAE119",
"9X c #EFC522",
"0X c #F8C62A",
"qX c #FACD2B",
"wX c #EFCC37",
"eX c #F9C736",
"rX c #FCCC33",
"tX c #FBD338",
"yX c #FBE338",
"uX c #DC9356",
"iX c #EC904D",
"pX c #F8B847",
"aX c #E9A750",
"sX c #DA8373",
"dX c #E18775",
"fX c #EDAE73",
"gX c #F8C949",
"hX c #F9D149",
"jX c #F9CA56",
"kX c #F8D255",
"lX c #F8E94C",
"zX c #F6CD6F",
"xX c #F9D770",
"cX c #F9EA70",
"vX c #D87D8A",
"bX c #D5ABA4",
"nX c #EDB9A0",
"mX c #F9C986",
"MX c #F6DB87",
"NX c #FAC39B",
"BX c #FAEE92",
"VX c #FAE899",
"CX c #E5CBB9",
"ZX c #F6E5A2",
"AX c #FBEBB8",
"SX c #FCF1B3",
"DX c #E9CCC5",
"FX c #F6E9C9",
"GX c #FDF3C6",
"HX c #FBF5CA",
"JX c #F9ECD1",
"KX c #FDF7D5",
"LX c #FEFAD4",
"PX c #F8F9ED",
/* pixels */
"                                                                                                    ",
"                                                                                                    ",
"                                                                                                    ",
"                                                                                                    ",
"                                                                                                    ",
"                                          O @ $ O .                                                 ",
"                                  X - x 5.h.k.l.R.V.m.;.1 $ O .                                     ",
"                                O x i.h.j.l.g.M.N.N.F.F.|.*X_.9 +                                   ",
"                        $ o     & 5.i.h.j.l.B.N.C.A.F.}.|..XXX-X<     .                             ",
"                    X ; 7.6.+   + / p.f.g.l.M.C.A.F.}.|..XXX@X&XO O ,.1.,.&                         ",
"                  . w 8.M.b.m.8 1.V p.f.k.l.C.C.F.|.|.:X<X#X%X~.O :.XX-X*Xx.1 .                     ",
"                  w ' q.M.b.C.Z.c.7 G.l.l.V.C.A.F.|.:X<X4X%XuXgXwX4XqXrXrX0X>X1                     ",
"              . : ` ' p.b.b.b.b.].1.B d.I.U.R.C.W.*X=X:X2XaXuXyXeXeXrXqXkXkX4XE.< .                 ",
"              ; I ` ` w.b.M.b.N.'.@X1.<.1.1.T./.(.dXdXvXvXfXlXhXeXhXtXMXKXJXkX=XP.&                 ",
"            @ G I P ` q.M.b.b.B. X6X9X$X9X2X*XW.iXzXJXJXJXLXBXhXjXgXhXZXPXPXMX0XR.H.o               ",
"          . w J I P P q.M.M.M.=.$X6X6X6XD.B.R.W.*X>XMXLXKXLXKXzXmXxXkXkXKXFXkXwXE.L.M               ",
"          # i H J U P u.M.M.V.;.@X+X@XI.I.}.3X,X}.:X5XMXKXKXKXbXNXNXjXjXhXZXZXwX=XL.J.&             ",
"        . , G H J I P | f.M.A  X+X'.s.K.U.,X3X0XqX5X4X5XZXKXKXCXnXzXjXhXhXHXHXhX:XP.%.C .           ",
"        o y D H J I U ] f.d.x OX}.a.a.a.B.,X1X0XqXqXqX5XgXAXKXFXbXfXgXgXgXxXxXeX>XL.L.#.=           ",
"        o u F F H J U Y y.x c.XXi.X.X.K.B.,X1X4XqXqXqXrX5XjXHXHXDXfXgXtXtXeXqX0XE.L.%.%.N o         ",
"        # i F D H H I P _ x ].i._  .X.a.B.;X1X4X0XqXqXqXeX5XMXHXFXbXpX5X5XeX4X>XU.L.%.%.$.*         ",
"        = i F F H I I U e x.5.#.[ { ..J.k.;X;X4X0XqXqXqX5X4XpXHXGXFX).1X:X>XW.U.U.L.%.%.$.4         ",
"        > i i G G H I R A d.+.Q #.$...&.K.:X:X1X4X9XqXqX4X2X(.HXGXGXCXdX*XW.R.R.I.L.%.%.$.S .       ",
"      . , i i F G L I d 7._ ~ O.^ )  .&.K.W.:X,X<X4X0X0X3X-X!.AXSXSXSX~.E.W.R.P.L.L.%.+.o.3 .       ",
"        , t i F F H f Z t.j W O.^ ) $...&.k.-X:X<X1X4X0XXXW.!.VXVXBXBXMX~.P.G.G.Q.S n B 6 X         ",
"        > t i i F F l 7.v.p f o.~ Q )  .&.s.R.-X;X#X<X3XD.^.sXBXcXjXpXeXpX&XT.&X&X&X&XoX<           ",
"        # d b b v v l r.r.p u f ~ O.^ ) ....a.W.-X;X<X}.E.Q.kXcX3X%X%X%X<X}.}.6X8X8X7X6X8           ",
"        . 2 4 A H.A t.r.v.j u u f ~ ^ ^  .%.&.K.k.*XW.g.@.uXlX.X|.%X%X%X%X.XN.S.6XqX7X$X8           ",
"          - 3.9.e.e.e.r.r.j u r u f ~ ^ ) ) i.i.a.I.L.P.<.4X{.N.C..X#X#XXXXXA.k.{.6X6X$X8           ",
"          @ 2.9.9.9.9.e.r.3.r u u u i W #._  ...a.s.J.A &X}.V.V.V.V.|.XX.X.XS.f.p.#X+X`.<           ",
"          o k 9.8.9.3.2.9.t.s u u u u i R ~ _ %. .#.Z z.}.g.f.j.j.h.B.D.|.}.W.i.i.t.@X`.$           ",
"            1 3.8.8._ C 2.t.u t t u u u i p ~ #.V B z.`.4.s.s.a.s.a.a.K.m.D.m.u. .5.`.>.X           ",
"            - 3.p.u.u._ N 3.L u u t u u i i b 5 7  XOX`.<.u... ... . . . .5._ ) ) _  X9             ",
"          @ 2.w.u.u.} ] _ l 9.y u u t u e 5 7 _.OX[.[.OX<._ _  .)  .) ) #.+.#.^ E Z `.*             ",
"        . h y.y.q.u.} } ( ~ c L r e v 5 7 >.[.'.1.4 l 7.z._ ^ ^ ^ ^ ^ O.+.+.o.C V  X:.              ",
"          1 t.y.q.u.| } ( _ E c l M Z 4.v.n.c.7 b Y J L x.Z W ~ ! o.O.! +.o.b Z {.`.$               ",
"          @ 4.y.u.u.| } ( { Q z 4.t.t.e.r.r.x 3 [ ' J D L Y.d f K o.o.o.m N =.{.'.8                 ",
"            ; 0.w.u.| } ( ( Q Q z 3.9.e.r.r.c M ' ' J D i 2.g a r s d n Z c.].].*.                  ",
"            . k q.u.| } ] ( Q Q W C 0.e.r.r.7.v ' ` J H F i d.4 e 4 5 6.Z.].].-.O                   ",
"              o 5.u.} ] { ( Q Q R z C 0.9.e.r.B Q ' J H F u j ;.M A L p p x.-.O                     ",
"                % _ u.( ( ( ( Q W R m M 3.t.e.4.v Y I H p L t.0.Y G F F i y $                       ",
"                  - _ ] } T Q ~ W W R b M _ e.e.M l z z / 8.T I H G F i t t =                       ",
"                  . ; / ( ( Q Q W W K m n c 9.e.t.4.N z ] P P J H H F i u q @                       ",
"                      % c ( Q Q W W f n N 3.9.e.e.Z b ' ' ' P I H G F i w o                         ",
"                        o g Q Q E b 3 2 & 1 h k =.M d ' ' P P I D G 0 #                             ",
"                            o % @ .               2 b ] ` ` I G 0 =                                 ",
"                                                  . = l j 0 : @                                     ",
"                                                      o o .                                         ",
"                                                                                                    ",
"                                                                                                    "
};
