/* XPM */
static char *result[] = {
/* columns rows colors chars-per-pixel */
"47 50 170 2 ",
"   c #000000",
".  c #0A0304",
"X  c #0E0409",
"o  c #150405",
"O  c #190707",
"+  c #150904",
"@  c #13060A",
"#  c #160A0A",
"$  c #1A090C",
"%  c #1D0710",
"&  c #1F0C13",
"*  c #1E0A18",
"=  c #21070F",
"-  c #260A09",
";  c #2F0B0D",
":  c #311108",
">  c #3C130E",
",  c #230B12",
"<  c #2B0C16",
"1  c #250C19",
"2  c #2C0C1A",
"3  c #340F1A",
"4  c #281012",
"5  c #35121B",
"6  c #3A0F25",
"7  c #361024",
"8  c #3C1322",
"9  c #4D1413",
"0  c #411218",
"q  c #561316",
"w  c #541E14",
"e  c #5D1518",
"r  c #621514",
"t  c #741E15",
"y  c #72181C",
"u  c #722315",
"i  c #782113",
"p  c #752A17",
"a  c #7C3414",
"s  c #4A1926",
"d  c #47122B",
"f  c #4C142B",
"g  c #4E1C29",
"h  c #5C1825",
"j  c #51132A",
"k  c #511C2B",
"l  c #5C1B2C",
"z  c #4C1431",
"x  c #581531",
"c  c #5E1739",
"v  c #6A1A25",
"b  c #78172F",
"n  c #6C1331",
"m  c #631A36",
"M  c #6A1935",
"N  c #61163B",
"B  c #63193C",
"V  c #6A1A39",
"C  c #741B36",
"Z  c #7E1B34",
"A  c #701739",
"S  c #751A3B",
"D  c #7E1D3B",
"F  c #60202F",
"G  c #6C2431",
"H  c #6D213A",
"J  c #752235",
"K  c #7A233B",
"L  c #98281D",
"P  c #8A3513",
"I  c #923D12",
"U  c #A62A1A",
"Y  c #B52D1A",
"T  c #9B1E2C",
"R  c #861A34",
"E  c #8A1D35",
"W  c #851F3B",
"Q  c #891F3D",
"!  c #87202C",
"~  c #85292F",
"^  c #9D2124",
"/  c #9F2F23",
"(  c #91202F",
")  c #9C232C",
"_  c #8E2037",
"`  c #82233C",
"'  c #8C233C",
"]  c #8D293C",
"[  c #942335",
"{  c #93253C",
"}  c #932A3F",
"|  c #982A3A",
" . c #92393B",
".. c #AD262B",
"X. c #A32C2F",
"o. c #A82F29",
"O. c #B02726",
"+. c #BB2826",
"@. c #B0292C",
"#. c #BE2F29",
"$. c #AB3A2A",
"%. c #B7332D",
"&. c #BD372A",
"*. c #BC3D2F",
"=. c #A12A32",
"-. c #A92B37",
";. c #B92532",
":. c #B22E33",
">. c #AA3132",
",. c #A23830",
"<. c #AF373B",
"1. c #AC3A38",
"2. c #B53538",
"3. c #D52E1F",
"4. c #CD341D",
"5. c #DA3F16",
"6. c #D6341D",
"7. c #DB341D",
"8. c #D1391F",
"9. c #DC3C1C",
"0. c #E23C1B",
"q. c #C92621",
"w. c #C72B23",
"e. c #CA2B25",
"r. c #C52E29",
"t. c #CC2D28",
"y. c #D42525",
"u. c #D42D22",
"i. c #DA2E21",
"p. c #C43623",
"a. c #CB3323",
"s. c #C43928",
"d. c #D53321",
"f. c #D83221",
"g. c #D33A21",
"h. c #D93824",
"j. c #D03F29",
"k. c #C93C31",
"l. c #8F4B15",
"z. c #B64815",
"x. c #BB5715",
"c. c #B04823",
"v. c #D94B12",
"b. c #DD431B",
"n. c #DC5B1F",
"m. c #E54515",
"M. c #E54D14",
"N. c #E94C16",
"B. c #E3421B",
"V. c #EA471B",
"C. c #E44E1B",
"Z. c #EC5117",
"A. c #E5541A",
"S. c #EC511C",
"D. c #F45C15",
"F. c #E76411",
"G. c #E0751E",
"H. c #F67C15",
"J. c #F5761B",
"K. c #D84320",
"L. c #E34120",
"P. c #E64D21",
"I. c #E15C22",
"U. c #C56026",
"Y. c #852441",
"T. c #8D2541",
"R. c #8B2942",
"E. c #922640",
"W. c #942A42",
"Q. c #982C41",
/* pixels */
"                                                                                              ",
"                                                                                              ",
"                                                                                              ",
"                                                                                              ",
"                                                                                              ",
"                                                                                              ",
"                                                                                              ",
"                                                                                              ",
"                                                  O .                                         ",
"                                              > i U 9                                         ",
"                                      . < l L 4.7.f.L .                                       ",
"                                    . l W X.9.9.7.7.w.;                                       ",
"                                  . K { _ a.B.9.7.7.3.r                                       ",
"                                . ' ' ' =.b.B.9.7.7.3.+.O                                     ",
"                              X 2 Y.{ { &.B.0.5.7.7.i.y.>                                     ",
"                          $ 8 z N D { { g.B.0.5.7.7.i.u.^                                     ",
"                        . l K c B S T.| s.4.9.9.7.f.3.u.y.o                                   ",
"                        X K T.B N V D >.K.L.B.0.0.7.u.y.y.v                                   ",
"                        @ R.Q.R.V S } [ %.9.0.0.f.7.e.;.T 8                                   ",
"                        $ R.Q.W.` A E.' T.[ p.0.7.f...S S                                     ",
"                        # W.Q.W.W.W { ' ' _ b g.7.f.T S d                                     ",
"                        # W.Q.W.W.{ E.T.' Q S ! h.t.R S =                                     ",
"                        @ W.Q.W.W.{ 2.&.>.( E n ) O.@.( =                                     ",
"                        @ R.Q.W.E.{ P.N.B.b.8.4.4.7.u.) @         . r >                       ",
"                        . F Q.Q.{ R S.N.V.m.0.0.7.7.e.v .     . p v.n.7.Y -                   ",
"                          3 ] S C Z C.N.V.B.B.9.7.r.[ 2     . P Z.V.m.C.f.q.q                 ",
"                            . 1 d f $.v.b.9.f.g.r._ C @     a A.M.N.A.h.t.@.0                 ",
"                                    g } | | | [ ' ' 0     # ,.[ p.A.I.K.1. .=                 ",
"                                    . k R.W.] E.' l $     X B S o.*.1.<. .4                   ",
"                                      . 5 ` E.H , .         B D ' ' [ G $                     ",
"                                          . X .             6 S W m 5 .                       ",
"                                          . - @               j K &                           ",
"                          + + . . . + : u 4.i.t.;                                             ",
"                        = c.z.l.I l.x.n.b.6.e.e.^                                             ",
"                        < ~ Z.D.D.J.A.9.6.#.E E h                                             ",
"                        * m $.D.H.F.s.-.=.' M V @                                             ",
"                          7 M U.G./ | W.{ m % X                                               ",
"                          @ x M A T.W.E.` $                                                   ",
"                            1 & m W.E.{ l . # w t o                                           ",
"                              X M W.T.` 2 X J j.6.y                                           ",
"                                8 s 5 $ . 6 V k.d.e                                           ",
"                                          @ m :.9 .                                           ",
"                                            @ $                                               ",
"                                                                                              ",
"                                                                                              ",
"                                                                                              ",
"                                                                                              ",
"                                                                                              ",
"                                                                                              ",
"                                                                                              "
};
