/* XPM */
static char *result[] = {
/* columns rows colors chars-per-pixel */
"50 50 249 2 ",
"   c #000000",
".  c #0B0403",
"X  c #0E0903",
"o  c #150904",
"O  c #230B05",
"+  c #270908",
"@  c #370908",
"#  c #261508",
"$  c #3C150A",
"%  c #3A1116",
"&  c #34290F",
"*  c #4D0F0F",
"=  c #46190C",
"-  c #52170A",
";  c #6C0E0E",
":  c #7A190B",
">  c #6D0E10",
",  c #493A0D",
"<  c #4F2A11",
"1  c #712C11",
"2  c #511327",
"3  c #6C162C",
"4  c #79242C",
"5  c #6C4816",
"6  c #7C1846",
"7  c #87150C",
"8  c #8F1715",
"9  c #9B1518",
"0  c #AD0C0E",
"q  c #B30F0E",
"w  c #A8130E",
"e  c #B4110D",
"r  c #BB140C",
"t  c #B91B0C",
"y  c #A90E14",
"u  c #B00F14",
"i  c #A71619",
"p  c #BB1813",
"a  c #922D13",
"s  c #BE250B",
"d  c #AA3809",
"f  c #A8261D",
"g  c #B82619",
"h  c #A6371A",
"j  c #B63818",
"k  c #871B29",
"l  c #941B26",
"z  c #891C33",
"x  c #9A1E30",
"c  c #A31B21",
"v  c #B81E23",
"b  c #892628",
"n  c #962728",
"m  c #9B3526",
"M  c #872731",
"N  c #9F3D33",
"B  c #A72528",
"V  c #B82729",
"C  c #A73423",
"Z  c #B53924",
"A  c #B03233",
"S  c #CB1C07",
"D  c #C1170B",
"F  c #C41A0B",
"G  c #CC1D0B",
"H  c #D31F0B",
"J  c #C51F16",
"K  c #C7270B",
"L  c #DD2506",
"P  c #D4210A",
"I  c #DA240A",
"U  c #DE2A08",
"Y  c #C5390C",
"T  c #DB370D",
"R  c #C82717",
"E  c #CC2519",
"W  c #D52C16",
"Q  c #D52B1B",
"!  c #D32B1C",
"~  c #D82E1D",
"^  c #CA3819",
"/  c #DC3512",
"(  c #D93618",
")  c #DB331D",
"_  c #E52806",
"`  c #E32C0A",
"'  c #EA370C",
"]  c #E72611",
"[  c #E63A13",
"{  c #E43C12",
"}  c #E1361E",
"|  c #E53A1D",
" . c #EB3C1D",
".. c #F13E1E",
"X. c #CC2322",
"o. c #D22626",
"O. c #D42B22",
"+. c #CE3620",
"@. c #DC3321",
"#. c #D83827",
"$. c #EA3325",
"%. c #EB3926",
"&. c #86471A",
"*. c #865616",
"=. c #995516",
"-. c #B44F1B",
";. c #A1731C",
":. c #934423",
">. c #AA4928",
",. c #B24B2E",
"<. c #AE6522",
"1. c #BA6723",
"2. c #C8430C",
"3. c #DC480E",
"4. c #CB4815",
"5. c #D84815",
"6. c #D35715",
"7. c #D65916",
"8. c #E94D03",
"9. c #EB460C",
"0. c #E34B0B",
"q. c #EE490E",
"w. c #F24C0D",
"e. c #EC5404",
"r. c #EB5B04",
"t. c #E9570B",
"y. c #F2520F",
"u. c #EB4311",
"i. c #E74619",
"p. c #F2441C",
"a. c #F34B1C",
"s. c #E35617",
"d. c #F45314",
"f. c #F75718",
"g. c #FA5C19",
"h. c #DB6414",
"j. c #C9731D",
"k. c #D57D1A",
"l. c #EB6B0A",
"z. c #FE6A0E",
"x. c #F7760E",
"c. c #EC651A",
"v. c #FB6413",
"b. c #FC6B14",
"n. c #F3661D",
"m. c #FA631A",
"M. c #FB6D19",
"N. c #E97614",
"B. c #FA731A",
"V. c #F5791B",
"C. c #FB7C1A",
"Z. c #CB4C2B",
"A. c #DB4721",
"S. c #ED4827",
"D. c #F34522",
"F. c #F24827",
"G. c #EC532D",
"H. c #F35524",
"J. c #F55C23",
"K. c #E25931",
"L. c #D67225",
"P. c #EB6627",
"I. c #F46624",
"U. c #F67824",
"Y. c #EF7332",
"T. c #912142",
"R. c #952C43",
"E. c #BD3A4F",
"W. c #C93858",
"Q. c #B04E4F",
"!. c #D56B54",
"~. c #E07841",
"^. c #C54870",
"/. c #D58816",
"(. c #CF9214",
"). c #EC880C",
"_. c #F4870A",
"`. c #EB970C",
"'. c #EB8A15",
"]. c #F68A16",
"[. c #F5831A",
"{. c #FB831A",
"}. c #FC8D1C",
"|. c #E89716",
" X c #FA931A",
".X c #F8991A",
"XX c #F9BA0F",
"oX c #EDAF12",
"OX c #F8A718",
"+X c #FAB719",
"@X c #D68C21",
"#X c #D59C2E",
"$X c #F78B27",
"%X c #F08F2D",
"&X c #F69223",
"*X c #F69B24",
"=X c #F89827",
"-X c #D8B736",
";X c #FAA323",
":X c #F6AB24",
">X c #F8A825",
",X c #F8B728",
"<X c #F9BA34",
"1X c #F7C50F",
"2X c #F9CB14",
"3X c #FCD818",
"4X c #F6C428",
"5X c #FAC42B",
"6X c #F9CD2C",
"7X c #F8C535",
"8X c #FCCC32",
"9X c #FBD336",
"0X c #D4864A",
"qX c #DCA04E",
"wX c #ECB449",
"eX c #EDB156",
"rX c #E09865",
"tX c #F2B964",
"yX c #FCCF42",
"uX c #F8C94A",
"iX c #F7D14E",
"pX c #FCD149",
"aX c #EEC75B",
"sX c #FCCF51",
"dX c #F8D358",
"fX c #F9E74A",
"gX c #F9D563",
"hX c #F7C775",
"jX c #F9E974",
"kX c #DEB09E",
"lX c #DAAEA4",
"zX c #F9D08C",
"xX c #F6E287",
"cX c #FCF18A",
"vX c #FAE69A",
"bX c #FCF095",
"nX c #D5C0B5",
"mX c #E5C2BF",
"MX c #FBE8A8",
"NX c #FAEEBA",
"BX c #FDF2B5",
"VX c #ECE0C8",
"CX c #F8EBC8",
"ZX c #FDF2C6",
"AX c #FBF5CB",
"SX c #FBF5D5",
"DX c #FDF9D3",
"FX c #FCF9D8",
"GX c #F8FAF0",
/* pixels */
"                                                                                                    ",
"                                                                                                    ",
"                                                                                                    ",
"                                                                                                    ",
"                                                                                                    ",
"                                                                                                    ",
"                                                                                                    ",
"                                                                                                    ",
"                                        o $ $ = $ # X                                               ",
"                                  X = h 4.5.s.s.s.7.6.-.5 = .                                       ",
"                                o h 5.a.f.f.g.v.M.M.C.C.$XN./.*..                                   ",
"                        . X     % A.a.d.f.g.m.m.M.C.C.{.}..X.X%X,     X                             ",
"                      - 7.-.o . # 4.a.f.g.g.m.M.C.C.{. X X.XOX@X  X 5 <.1 #                         ",
"                  . : u.z.z.-.< &.C a.f.g.m.M.M.C.{.}.=X;X+X,XQ.& ;.%X=X%XL.< .                     ",
"                  : U w.b.z.b.x.k.M A.f.g.m.M.B.C.}.=XOX+X,X0X<X-X,X4X7X7X<XL.1 .                   ",
"                : L _ w.z.z.z.x._.=.M f.g.I.M.C.{.}.;X,X<X0XeXfX6X8X8X6XiXdX<XP.<                   ",
"              - P L _ w.z.b.b.M.].+X:.6 M n m N Q.E.E.^.^.tXfXyXyXyX9XxXGXSXiX%XK.o                 ",
"            + t P L ` w.v.v.z.c.|.1X1X2X3X+X$XU.%XvXSXSXFXFXcXiXwXuXpXNXGXGXxX<XP.,..               ",
"          . 7 G P L _ q.g.z.v.-.oX1X1X1X[.I.n.B.Y.=XvXSXFXFXFXhXzXtXdXgXCXCXgX4XY.S.4 .             ",
"          @ t G P P L 9.g.v.c.6.XXXX.XP.J.U.*X=X&X=X<XvXDXFXSXlXzXzXgXsXdXvXxX7X%XH.#.+             ",
"        . ; D G P P I u.g.v.Z |.XX[.a.D.I.;X,X4X4X,X,XuXMXFXSXnXkXzXsXpXiXSXAXuX=XG.%.B X           ",
"        . w F S G P I ' f.c.>.oX'.p...D.m.;X,X4X6X6X5X7XuXNXAXVXlXtXuXuXyXdXdX5X%XF.%.#.%           ",
"        O e F F G H I ` y.B N.`.5.[ ..D.I.;X:X,X6X6X6X7X7XaXAXAXmXrX<X9X7X7X8X7XP.G.F.%.8 .         ",
"        @ r D F G H P I 5.C x.5.)  ...p.I.;X:X,X5X6X6X6X7X7XvXAXCXlXeX7X7X7X<X$XJ.S.%.%.O.O         ",
"        * r r F G G H H i h.s.@.~ }  .D.I.*X>X:X,X6X6X6X4X,XeXZXZXCXrX<X=X$XY.J.G.G.%.$.$.- .       ",
"        ; r D D G G H R h s.+.O.) }  ...a.%X*X>X,X4X6X6X,X:X!.ZXAXAXkX~.$XU.I.J.F.F.%.$.$.c .       ",
"        > e r D G G H f 7.( ! O.~ } %. .F.U.&X>X:X,X4X6X:X=XW.NXBXBXBXQ.Y.U.I.G.F.F.%.$.o.2         ",
"      . > q r r F K p C r.F O.! ~ ~ }  ...n. X*X;X:X+X4X=XY.W.bXbXbXbXxXR.K.J.K.A R.T.T.2 .         ",
"      . ; q e r F G f 4.l.t e O.~ ~ ~ |  .p.U.&X*X>X:X;XU.Z.!.jXjXgXsXpXdXqX>.,.,.=.#X4X,           ",
"        @ y i i i l h r.r.t q p ! O.~ }  .%.a.U.&X.X*X$XI.W.jXjX<XOXOXOX.X].'.2X3X3X3X4X,           ",
"        . 2 M C h C 3.r.r.F u e r O.~ ) }  . .a.I.V.V.g.Z.0XiX=X{.+X,X+X+X}.M.[.2X3X2XoX,           ",
"        . = 2.8.8.e.r.r.r.K e e e r ! ) ( | %.D.a.d.H.S.,.7X$XB.C. XOXOX.X.XV.g.'.2X1XoX,           ",
"          + 2.8.8.e.e.e.r.Y q e e e r Q ) ) ( i.p.a.i.A @X[.v.m.g.m.}. X.X XV.f.a.OXXX|.&           ",
"          X d 8.8.8.3.3.e.t.u e e e e r R ) $.%.| | B 1.].g.d.f.f.f.f.[. X[.V.i.i.i.XX(.#           ",
"            1 3.8.9./ n Y r.e 0 q q r e e F ! ^ A 4 <.|.A.d.p.a.p.a.F.a.I.V.c.5.( i.'.;.X           ",
"          . - 0.u.u.u.( C 0.K 0 q q q r e p l k m /.XX@XZ u...i.| | | | ( i.A.) ) ^ '.5             ",
"          # 2.q.9.u.{ { ^ f 0.q 0 e e u 9 4 m j.|.|.|.OX>.( } ) ( } } ~ @.~ O.#.X.-.(.#             ",
"        . a y.w.q.u.u./ / ! j s w 9 k 3 b j.|.`.:.m ^ 7.j.^ ~ ~ ~ ) O.Q O.O.o.v m `.*.              ",
"          1 w.w.q.[ { { / ( ! j f 4 m 7.r.N.k.4 n I H K N.C ! O.! o.o.o.o.X.x m './.X               ",
"          # 2.w.w.u.u.{ / / ( g 3.e.r.r.r.r.m 3 ] _ P S K 1.i p J X.E X.V z ,.)..X<                 ",
"          . - 0.w.u.{ { { / W E g 3.t.e.r.r.-.l U _ H S p 7.8 y 0 u i M m h._.).*.                  ",
"            X h q.u.u.{ / / W W E f 0.8.e.r.4.b ` L H G t e 6.8 9 k n j l._.).=.X                   ",
"              O 4.u.[ { / ` W W E g f 3.e.e.r.b W L P S t r Y -.n Z R F s h.=.X                     ",
"                + i.[ { / / W W R R B l 3.e.e.4.8 U P G p K r.0.K F F D e a O                       ",
"                  = { ' { / W W ! E J l l 5.e.e.4 b g f 4.9.P H S F D r q 0 *                       ",
"                    - Y T / W Q E E J v z j e.e.t.4.m R _ H L P S F D D q 8 +                       ",
"                    . $ j / W W E J v z M 3.e.e.e.h x ` _ _ L H S F D e : +                         ",
"                        O : j R g k 3 % = - 1 a a b f _ _ _ H H H r 7 @ .                           ",
"                          . O + O o .       . . X 2 l ' _ L I K 7 @ .                               ",
"                                                    % g K w - X .                                   "
};
