/* XPM */
static char *result[] = {
/* columns rows colors chars-per-pixel */
"80 80 239 2 ",
"   c #000000",
".  c #0B0605",
"X  c #0A0B0A",
"o  c #1A0C09",
"O  c #0E100F",
"+  c #1C110D",
"@  c #181817",
"#  c #230E09",
"$  c #28130C",
"%  c #36160D",
"&  c #3D190E",
"*  c #291A15",
"=  c #371C12",
"-  c #1D211F",
";  c #2A231D",
":  c #382419",
">  c #1F2220",
",  c #222523",
"<  c #242826",
"1  c #272A27",
"2  c #2B2D2B",
"3  c #382C25",
"4  c #2D312E",
"5  c #36332D",
"6  c #2E3331",
"7  c #323432",
"8  c #373A36",
"9  c #3C3E3B",
"0  c #431C0E",
"q  c #481C0F",
"w  c #431D12",
"e  c #491D12",
"r  c #581911",
"t  c #7A1E17",
"y  c #442314",
"u  c #4B2213",
"i  c #4C2A16",
"p  c #482919",
"a  c #532413",
"s  c #5B2513",
"d  c #562A17",
"f  c #5C2B19",
"g  c #59341C",
"h  c #632B16",
"j  c #6B2B15",
"k  c #652B18",
"l  c #762D17",
"z  c #65371C",
"x  c #6C341B",
"c  c #73331B",
"v  c #7A3619",
"b  c #7D351A",
"n  c #4C3226",
"m  c #483428",
"M  c #583826",
"N  c #443B36",
"B  c #673922",
"V  c #6A3529",
"C  c #773D22",
"Z  c #3B413D",
"A  c #6D411F",
"S  c #44433C",
"D  c #594233",
"F  c #694327",
"G  c #784726",
"H  c #7C532D",
"J  c #654736",
"K  c #70523A",
"L  c #3E4642",
"P  c #454844",
"I  c #454D4A",
"U  c #4A4D4B",
"Y  c #564D46",
"T  c #46514C",
"R  c #4C524E",
"E  c #54544C",
"W  c #5A534D",
"Q  c #4E5452",
"!  c #4E5954",
"~  c #525553",
"^  c #535A56",
"/  c #5A5954",
"(  c #545C5A",
")  c #5A5E5C",
"_  c #6F5B4B",
"`  c #645B55",
"'  c #5F6154",
"]  c #55625D",
"[  c #5B625E",
"{  c #66645B",
"}  c #786856",
"|  c #5C6562",
" . c #5D6A64",
".. c #5C6B67",
"X. c #5D706A",
"o. c #626564",
"O. c #636A65",
"+. c #6B6C67",
"@. c #646C6A",
"#. c #756C65",
"$. c #65736C",
"%. c #6A736D",
"&. c #6A776C",
"*. c #787368",
"=. c #6B7472",
"-. c #6A7775",
";. c #6C7B74",
":. c #727B76",
">. c #777A77",
",. c #727D7B",
"<. c #823216",
"1. c #82351A",
"2. c #87391C",
"3. c #873D23",
"4. c #914A1E",
"5. c #A2521F",
"6. c #8C4523",
"7. c #884A25",
"8. c #954C26",
"9. c #84542D",
"0. c #8A542A",
"q. c #98552A",
"w. c #9C5C2E",
"e. c #835A33",
"r. c #895B35",
"t. c #985A32",
"y. c #A75625",
"u. c #A45B2B",
"i. c #AA5C2B",
"p. c #B45D29",
"a. c #A35733",
"s. c #A55C35",
"d. c #99602F",
"f. c #8C6339",
"g. c #9C6333",
"h. c #986538",
"j. c #AC612E",
"k. c #B3632D",
"l. c #BB672D",
"z. c #A46433",
"x. c #A96433",
"c. c #AB6A35",
"v. c #A86A39",
"b. c #B66834",
"n. c #B46B34",
"m. c #BC6B33",
"M. c #B36D39",
"N. c #AA733C",
"B. c #B87238",
"V. c #BC743C",
"C. c #C26B2E",
"Z. c #C36D32",
"A. c #C76D33",
"S. c #C47234",
"D. c #CB7534",
"F. c #C3753B",
"G. c #C9763A",
"H. c #CC7C3B",
"J. c #D37A38",
"K. c #855C44",
"L. c #956B45",
"P. c #946F4B",
"I. c #A76D4B",
"U. c #A77646",
"Y. c #B57945",
"T. c #837569",
"R. c #907B65",
"E. c #BE7D61",
"W. c #C77C41",
"Q. c #C07F65",
"!. c #6F8276",
"~. c #6E8079",
"^. c #74867B",
"/. c #74837C",
"(. c #79837C",
"). c #CC813E",
"_. c #D6813A",
"`. c #E08637",
"'. c #B58349",
"]. c #B68655",
"[. c #9A8369",
"{. c #91877B",
"}. c #B78863",
"|. c #AF916E",
" X c #B7946B",
".X c #A38C77",
"XX c #AF9474",
"oX c #CC8243",
"OX c #C9874A",
"+X c #D48746",
"@X c #D68A45",
"#X c #DA8C45",
"$X c #DC944B",
"%X c #C48A54",
"&X c #CC9358",
"*X c #D99755",
"=X c #E2984E",
"-X c #DFA052",
";X c #E5A55C",
":X c #C59069",
">X c #E7A863",
",X c #EDAD64",
"<X c #ECB166",
"1X c #7A8583",
"2X c #778B83",
"3X c #7C8A83",
"4X c #7A8885",
"5X c #838B87",
"6X c #9E8D84",
"7X c #84938B",
"8X c #88958C",
"9X c #859492",
"0X c #8A9593",
"qX c #8C9B93",
"wX c #8C9C9B",
"eX c #939C97",
"rX c #A89888",
"tX c #B09D8C",
"yX c #8FA197",
"uX c #94A29B",
"iX c #97A49A",
"pX c #9BA99E",
"aX c #B9A28D",
"sX c #B8A997",
"dX c #B5AB9A",
"fX c #94A5A3",
"gX c #9AA9A4",
"hX c #9BADAB",
"jX c #9DB0AE",
"kX c #A1ADA3",
"lX c #A4B2A6",
"zX c #A6B4A9",
"xX c #A9B7AB",
"cX c #ABB9AD",
"vX c #B5B8AF",
"bX c #A8B8B4",
"nX c #B3C1BE",
"mX c #B9C5C3",
"MX c #C3D3D1",
/* pixels */
"                                        X :.eX0X9XwX0XgXnXmXmXmXmXmXbXmXMXMXMXMXMXnX=./.Z fXmXMXMXMXMXMXMXMXMXmXmXmXmXnXgXR ;.%.nXnXmXmXmXmXmXmXnXmXmXmXnXzXfX| ",
"                                        X :.5X*.{ T.eX0X(.3X1X5X>.=.eXkXkXlXiX5Xo.:.+./.Z | -.$.2X-.fXnXbXbXbXzX9X2X1X:./.Z L Q @.1X,.1X1XfXgXhXjXjXhX0XO.{.fXqX",
"                                        X 1X#.Y.H.G >.5X{.3X>.%.%.*.+.=.=.5XeXzXgX%.=.^.Z ] ^.2XbXzXfX4X1X5X5XiXlXlXzX-.3XL $.Q [ 4XwXwX9X,./.9X0X0X,.P.&X].+.wX",
"                                        X %.K H.H.6.~ 5X8X8X0XeXeXeX0X5X0X>.#.1XeX( :./.8 [ ..!.gXzXzX4X>.%.=.5XiXpXuX=.7XL  .! ( @.wXfXfXwX7X5X5X0XR s.I.v.M 1X",
"                                        X @.S c b % o.>.=.>.>.&.@.+.%.:.5X5X,.>.[ ~ $.,.9 @.(.1X^.;.o.@.1X7X9X0X9X7X5Xo.7XL $.] ) ,.5X5X,.=.:.,.(.{./ p f g 8 =.",
"                                        X $.$.5 ; Z [ @.+.>.>.+.O.@.+.o.) ) ( o.| O.^ $.Z 1X( I R R ( o.| | | o.@.=.o.| /.6 ! ^ O.o.( Q U Q / ( ( ] o.~ 9 U -.-.",
"                                        . P T T R Q ^ ' [ { [ ) / ^ ^ ~ ~ ~ / ( ) / Z $.7 L I P P P ~ Q U ~ Q Q U P P U P Z [ Z U U U I P P P R ) @.@.@.o.| @.@.",
"                                        . , 4 @ X X X X X O 7 9 8 8 9 9 S N 8 2 2 7 7 8 9 8 9 9 9 S N 8 8 7 5 2 1 , , ; < 2 8 P U P 8 4 4 4 - X X X X X X X . 2 ",
"                                        . @ P P X.$.$.&. .2 P +.{ ` / ~ / ) / / / / W W W Y Y Y / / W ` { o.` { ` o.o.o.{ +.+.+.+.+.+.%.+.O.4 > ] !.!.!.X.!.> L ",
"                                          X - $.!.^.^.^.;. .9 * u a u w p y & w e a a a d s f k k k k h k k k f s d a i a a a u u p u u = 7 Q ~ &.^.^.!.!.^.4 X ",
"                                            < O.} !.^.!.6  .+.{ + % w p & & & % 0 & & & % & & & 0 0 q q w e q q w & & w & w & w q 0 & & * L o. ._ !.7X' +.^.4 . ",
"                                            < &.E !.^.!.!  .+.*.+ # O . o % % % % $ = = B d u & : o # % o $ p y n f g = % s d $ X   . o w S +.=.!.qXyX8X7X^.< . ",
"                                          X @ < 1 < 1 < < , ' &.* a . . h G l l j r x B x.y.8.8.t.s j v s s d.0.w.q.j.x c y.y.7.: .   O $ Y &.Z S Z Z Z Z 4 X . ",
"                                          X -  .!.!.X.!.&.] O.*.d s   = 2.u.4.2.2.k 8.K.+XG.A.m.h.c v <.v k %XM.F.).@Xr.6.b.A.t.h.x .   % Y &. .&.[ &.!.!.!.Z . ",
"                                            < !.yXlX{.^.qX[ +.*.k s . C 8.j.6.6.2.k q.K.OXW.A.H.N.v <.l 2.G %XM.oX@X+Xr.3.W.G.t.c.p.$   & W !.&.yX{ pXpXpX^.Z . ",
"                                          . Z !.iXnXlXyX7XR O.&.V k # s.u.c.6.2.3.V 8.e.+XG.G.+XN.<.<.l b v ].V.H.+X+X9.8.b.A.t.N.k.v . e W &.&.pX!.cXnXjX!.1 . ",
"                                            4 3XpXnXxXlX^.E [ +.c j $ m.j.M.6.3.3.C 7.e.W.W.G.#XN.v <.v v c ].F.W.$X@XH q.M.W.t.N.p.8.. e W &.^ iXyXcXcXxXX.4 X ",
"                                            4 8XlXcXxXxX^.Z ' O.c l = S.M.V.6.C 3.3.3.e.+Xb.G.#X'.v <.v b v Y.W.G.#X@XG i.M.G.s.M.p.y.o a W =.9 8XcXcXcXnX{.Z X ",
"                                            4 pXlXyXlXnX!.T ' { x j B c.N.N.C d 1.c k F I.9.q.L.H a s s s a e.0.9.0.r.n G K 7.F H G C o u W %.Q 3XpXcXcXnX^.Z   ",
"                                            5 kXlXlXnX8X!.' T  .B : eXtXiXtXrX6X6X6X.X6X6X.X.X|.|.}.].].}.}.}.}.}.}.}.:X:X%X}.:X&X].I.M a Y | | ] 7XvXcXnX3X6 X ",
"                                          . 7 kXnXxXiX!.Q ~ U o.m : ).f.r.+X+XF t.#X#X#X#X#X_ Y.$X#X#X#X#X+XY e.#X#X#X$XW.T.U.$XK.Y a.g u W [ ! 8 [ lXpXlX7X6 . ",
"                                            7 pX^.lX^.&.%.U U [ F p oXF F +X#XD p +X#X#X#XoXm h.#X#X#X#X#X+Xg r.#X#X#X#XW.M B.@X9.g a.z p W [ , ;.L 8XqXlX7XZ   ",
"                                            4 8X3XqX$.T ( ( ~ | i z N.M.z.B.B.v.c.B.M.v.v.v.z.x.x.v.x.z.z.d.w.u.w.w.d.w.w.w.w.t.t.t.C p y R  .5 [ ~ ^ 7XpX^.Z X ",
"                                            4 ;.3X&.T ! ]  .Q o.* ; : i g z z x z x B i z g w C g w a % 0 u z z f i f o u u w & d g f $ w W X._ 8 %.^ $.^.!.Z   ",
"                                          . 1 X. .! T ! ^.] ! +.p $ = z c 8.t.u.u.p.k.F q.8.l p.q.h b q k x z.q.7.6.8.# v l j h 0.w.8.% q E { #.T.N [ >.$.-.8   ",
"                                            1 ] ! Z ] ^.qX| ~ @.d w 7.t.w.S.'.-X>X=X;Xr.c.F.Z.W.x.k 1.r x 3.Y.b.q.C.m.# <.l j j c.B.k.i w ~ [ T.tXT.D Q 1X..6 X ",
"                                            O R Z ..2X3XyX .~ o.d a y.g.k.H.'.-X,X;X>Xh.M.W.W._.c.h 2.r C 3.U.F.q.D.m.# <.<.j j z.B.l.g & ~ | *.dXdX{.} I =.<   ",
"                                            , I X.!.zXuX(.$.~ o.s w y.d.S.H.'.#X<X*X;Xh.M.W.#XJ.c.j 2.k C b Y.M.0.D.S.# l <.j j x.x.C.d w /  .*.sXvXdXrX} Q 7 . ",
"                                            O ] !.^.lXpX$.!.( o.a q 5.d.G.H.'.*X,X*X;Xh.M.oX+XH.N.k 4.l c 2.U.x.q.D.Z.$ j b l k x.z.D.d u ^ { *.dXvXdXdXrX} @   ",
"                                            < ;.[ yXpXpX{.!.( { y d 5.d.H.H.'.*X,X;X>XI.c.oX@X).N.h 2.l c b Y.v.q.A.F.$ t l l h x.0._.d u ^  .*.dXrXvXdXdX6X> . ",
"                                          . < ..$.hXnX&.yX!.^ O.y a 4.g.H.).U.%X,X>X;XL.c.oX@X).N.h 2.<.v b Y.x.i.A.Z.= b c V V f.9._.d 0 ^ O.T.sXT.sXdXdXsX8   ",
"                                            < ] ] zXnX!.nX!.] O.i & 4.g.D.D.U.%X,X>X*XU.M._.@XoXV.s 1.<.l 2.U.s.p.G.W.= n T.#.%.T.T.B.i w ' $.} T.S rXsXdXtXN . ",
"                                            < ] O.kXqXqXcX,.[ +.h & 4.g.S.).N.'.,X>X&XL.M.oX$XW.Y.a 1.<.l b U.x.l.W.Y.+ {.W N J m ` T.p ; 5 N m N N D Y Y Y N m ",
"                                            < !  .pXlXxXcX,.[ >.h 0 4.z.S.D.U.U.<X>X%XL.v.+X*X+X].e 1.<.c 2.U.k.m.M.M W ` n K.T.} M +.o a.I.I.s.a.3.M P.8.a.s.I.",
"                                            1 T ] uXcXcXxX(.[ >.z u 4.c.S.H.h.P.,X*XOXL.v.+X#X#XY.q b <.j b N.j.u.J W P U V m m ; M ` o b 1.b b b b s = c V V k ",
"                                            , !  .yXvXlXqX(.o.>.x a 4.M.m.F.h.h.,XOX%XI.g.W.#XL.J 1 m B J J L.j.u.M 5 P W n 3 n J M / . . # o o # # # # $ * $ o ",
"                                            1 $. .8XxXpX,.%.) =.x q 4.B.k.n.f.e.,XY.%XL.t.#X+X9 < < 9 _  X:XL.n.p.i.B * ` N n V D Y 5 # $ l e s c c V f 3.C C f ",
"                                          . < ~. .8XxXqX..] ( +.h a 4.).x.z.f.9.,XW.%Xh.t.=X+XU < < 5 K OX<XN.l.p.p.b.+ 3 N Y W W 5 $ . d 8.V 8.a.a.a.C a.a.s.G ",
"                                            , ~.$.3XcX^.:.U ~ | h q 4._.j.w.f.g.,X+X&Xr.r.=X+XU 2 2 6 Y &X;XN.l.p.C.Z.i k f : 3 : o a % h q.C q.a.a.t.V a.a.a.C ",
"                                            < ~.;.8XxX!.-.o.~ ( h q 4._.q.d.f.N.,X&X*Xr.t.#X+XI 2 2 8 J *X<Xf.l.p.C.Z.d a.r $ o # s y.0 h 8.C a.8.7.V n C t.a.V ",
"                                            1 ~.$.yX8X~.R ^ U ( h 0 5._.w.g.f.&X,X*X&Xr.r.#X+XS O - ; D -X;X0.k.p.A.m.g l.w.b.x.h.A.D.u k 7.V ` >.0X5X5X5X5 C f ",
"                                            1 ;.-.qX^. .5X2 I [ h a 5._.d.v.f.>X<X;X*Xf.q.=X#Xh.m 4 + H -X-X0.j.p.D.Z.f S.q.m.B.v.Z.A.u x 8.C y $ $ $ $ $ $ V p ",
"                                            < $.^.^.=.>.P 4 U [ h 0 5._.z.N.e.<X>X,X*Xr.t.#X#X=XN.J G c.;X-X0.5.k.J.A.i G.u.S.B.v.V.A.u x 8.G 8.3.l x s c C t.e ",
"                                            < ;.!.:.>.P 9 @.I ( h 0 5._.g.N.H ;X&X,X*XK J L.K.L.K J v.c.;X-XG j.k.J.D.a F.x.m.M.v.F.Z.u c 8.G q.a.a.a.V a.a.a.g ",
"                                            - ! [ { 6 ] ] =.I ! h & 5._.d.B.e.-XU.,X*XJ 6 6 7 7 4 ; v.w.;X-X7.5.l.J.D.i F.g.B.M.v.V.C.f C 6.V a.a.a.a.f a.a.a.C ",
"                                          X < ~ 4 T  .3X-.-.I ! h & 5.D.z.l.e.].L.>X+XH . - (.(.Z F Y.9.;X-XG j.S.J.).y c.: ; : ; = = $ j 3.C a.a.a.3.p a.a.a.C ",
"                                            @ L ~.^.;.8X7X-.T ( h & 5.).k.c.9.Y.U.,X+Xe.e.r.~ ) M G oXG ;X$XG z.C.J.J.y r.OXOX*X>X&XY.Y.* = p n M f n * V f V p ",
"                                            - P -.2X/.uXpX,.) ( h & d.D.B.l.H N.].,XOXr.g.t.7 / n H OXG *X$XH i.C.J.D.y w.oXJ r.=Xr.& 9.K.E.E.E.E.E.E.K R.Q.}.E.",
"                                            , L ;.8XyXlXlX(.O.) j % 5.D.H.m.H z.&X<XOXe.g.v.M F r.H @XG *X$XA j.C.J.D.y d.g.9.d.c.c.0.H z 4.7.7.7.6.7.B G 6.7.6.",
"                                            1 T ~.hXcXxXlX5XO.| h % q.S.J.Z.H w.<X<XOXH z.W.h.@Xd.9.#XF -X$XA z.C.J.D.y B.i : g : i d $ . $ = * : : 3 : = = $ $ ",
"                                          . < ! ^.8XcXcXxX3Xo.o.h & 8.S.J.G.H s.<X<X'.0.c.OXh.@Xg.9.$XG $X#XA w.l.D.C.y m.0.0.B.7.i.5.d & 4 S 5 P ) / E ~ 8 X X ",
"                                            < | ^.&.xXcXlX3XO.o.h 0 5.m.J.H.F M.<X,X'.H c.@Xh.@Xz.9.$X9.-X`.A u.C.D.C.i B.g.z.m.5.p.l.h i D +.! (.7X7XwXwX] >   ",
"                                            < ..(.3XpXxX8X(.o.o.h 0 4.k.G.J.F V.,X>X%X9.x.@Xr.@Xg.f.`.f.$X`.A u.C.J.m.p B.x.j.l.q.k.p.s d E *.] 1X:.-.jXjX| 2   ",
"                                            < ..8XyXyXlX^.(.o.o.x & 4.u.F._.z ).>XY.&Xe.j.@Xh.@Xv.9.$Xz.$X).z j.C.D.S.p c.M.j.k.0.k.p.q d D &.] =.:.,.jXhX( 2   ",
"                                            < X.yXiX{.lX&.(.O.[ f # 8.w.G._.x Y.Y.v.*X9.z.@Xh.$Xh.9.$XN.$X_.A j.C.J.C.p M.V.k.k.4.k.j.0 d Y +.' =.4XfXjXfX! <   ",
"                                          . ,  .qXpX$.jX&.(.+.o.f + q.w.G._.z Y.s.Y.*X9.z.+XY.#Xg.9.`.V.$X_.g k.C.D.S.: M.H.k.n.7.k.i.0 f E &.[ -.fXjXjXwXI <   ",
"                                            2  .(.lX] lX=.,.+.o.h = q.w.S._.z c.t.I.*X0.x.@XV.#Xg.9.#X).#XH.g k.C.m.l.: m.).k.k.7.p.u.p d Y +.' 1XjXjXjXwXL < X ",
"                                          . 2 ! (.cXE lX=./.o.) V : 8.u.m._.g v.q.I.*X8.x.@XV.#Xz.H ).).B.D.z b.l.B.p.: B.).k.k.7.y.s.w a Y O.[ 4XhXjXjX9XZ >   ",
"                                            1 ! (.nX] lX:.,.o.) k % 8.w.u.).g x.s.h.*X0.x.).c.@Xc.H M.V.d.S.F k.k.x.m.: m.).j.k.7.y.q.& a Y { [ fX4XjXfX4XL <   ",
"                                            < T ^.lX+.lX^.:.( ~ k q 8.8.A D.z 9.9.9.*X7.d.V.x.z.0.G d.z.0.B.g u.7.0.z.& j.q.g 0.7.5.8.0 a S { [ hX,.hXwX1XL <   ",
"                                            1 Z (.lX!.nXgX;.( ~ e 0 B g : H p : p N L.M g r.B 0.g g D g J 7.: B p n B * A z ; i g B C $ d S { | hX9XjX,.-.( 2   ",
"                                          X , Z {.nXlXlXgX-.~ ~ * : tXrXrXrXrXtXaXaXaXaXaXaXtXaXaXsXsXsXsXsXaXaXaXsXaXaXaXaXaXaXtX.X.X. a S ' | hXjXjXX.| -.6   ",
"                                          . - ] ^.pXnXlXuXX.~ ! t.p z._ t.b.V.L.r.W.W.W.W.Y.P.M.F.S.D.H.W.V.H U.@XoX).oXU.K.v.B.g.K g.. a S ` | jXjXhX-.-.4X6 X ",
"                                            @ !.^.iXcXxXwX@.! ! G p z.V 7.Z.Z.J p A.G.Z.W.0._ G S.S.S.D.G.M.V K #X#X#X+Xh.K g.+Xf.K G . a S ) @.jXjXjX9X4X3X7   ",
"                                            < $.$.gXxX8X3XX.~ ~ + : k.q.i.p.u.7.7.u.u.u.y.a.3.t.k.s.i.k.k.k.6.u.k.j.x.V.x.7.q.u.w.7.w.. a S { | hXhXhXfX4X9X8   ",
"                                            < ,.$.gXpX&.%.X.~ ~ % $ i i : z % = q i z u % e q r % % & & e e * y p u g $ x f d f = $ * + u N / | hXjXjXhX9X9X7   ",
"                                            < ~.^.xXiXO. ...U ~ s q 6.b f y.y z 6.q.k.A q t l <.r q t q h l & 7.w.q.7.% m.u.u.i.g p M & u S / ] 4XhXhXjXfXqX6   ",
"                                          X < ~.^.5X^.&.|  .U Q h 0 5.y.7.l.z u.M.c.S.G s 1.j v k e <.e s 1.i n.m.j.j.% oXj.C.S.g m M = u S W ! ..=.1XfXfX9X8   ",
"                                            @ L I I I T P L I ! h y y.i.7.l.z k.B.M.D.G z <.j <.j q 2.r j <.s m.B.i.p.= ).k.S.m.g m D & u S D Z Q R ( [ ( | 2   ",
"                                            @ 8 Z L L I I 8 U ( j % y.i.7.C.M m.).H.D.G s v j <.j q 2.s l <.g l.b.j.k.: H.k.C.l.g D J & u Z E 4 9 L 9 9 L P @   ",
"                                          . , X...;.;.;.$.( U ~ h % y.i.C C.g b.oXH.D.G s l l <.j 0 2.j l <.g k.n.j.j.: Y.l.C.l.F 5 J & i S S ! ~.$.~.;.;.;.2   ",
"                                            1 ..] ;.~./.$. .9 7 s # 6.i.C l.M 7.N.G.D.G s b l <.j q 2.l 2.v d j.k.j.i.p V.k.n.M.z 3 F & u S S ! | ] ^.$.$./.2   ",
"                                        X @ ; 3 2 5 5 5 4 2 - @ * + : : 3 p 3 m 3 n n 1 * ; = * ; * : 3 3 3 * n 3 p 3 * : 3 m 3 ; 1 3 ; * ; 1 1 3 4 8 5 5 5 ; @ ",
"                                        X K.P.R.P.[.[.|.XX X X XXXrX|.}.|..XXXXXXXXX.XXX[..X.X{.[.[.[.[.R.T.R.R.R.R.R..XrXrXXXXXaXXXXX XaX X:X X}.}.]. X}.}.].5 ",
"                                        O 8X3X2X/.1X3X9X9X4X!.,.4XfXjXjXjXjXfXwX0X0X..;.Z 8XbXmXmXmXmXnXnXnXnXbXbXbXbXbXwXT X...jXmXmXmXnXnXnXmXkXfXgXeXeXpXhXqX",
"                                        - 7X{.} L.{ 1X-./.:.;.;.,.4X9XwXfXfXwX4X1X=...~.7 ~.4XhX1X,.-./.fXfXfXwX,.1X9X4X4XL | ( $.3X^.^.1XwXfXhXhXjXfX*.} { 0X4X",
"                                        > 4X_ +X#X7.-.fXfXfXfXfXwX4X4X,.o.=.4X4XwX! | | 4 2X-.wXwXwX9X1X@...@.4XwXhXjX=.4XU -.( ..1XhXfX4X/.,.-.-.1X` U.].Y.Y 7X",
"                                        @ @.M k.x.V 9 =.@. .....=.,.4XwX4X4X4XwX$. .] | 6 1X~.| ,.1X=.,.4X4X9X4X4X1X4X-.4XI | ] | $.wX4X0X4X9X4X4X4XU 7.F B 3 ,.",
"                                        X [ P p u + ( ( Q Q Q Q Q ( ( ( ..o...~ ( =.] $.9 ;.-.@.$.-.,.4X4X4X9X,.1X1X,.@.4XZ I ! | -.( ~ ( [ | o.| o.| m i = U @.",
"                                        . ^ %.I 8 ( o.o.) ( ( ( ( ( ( ( ( ( ) | | 4X| ~.L ~.1X@.] ( | ( | | o.=.=.-.1X4X1X7 U ! 2X@.! Q Q Q ~ ) @.,.>.&.+.+.$.@."
};
