/* XPM */
static char *result[] = {
/* columns rows colors chars-per-pixel */
"80 80 160 2 ",
"   c #000000",
".  c #090607",
"X  c #070807",
"o  c #090807",
"O  c #060609",
"+  c #090709",
"@  c #07080A",
"#  c #0B0B0C",
"$  c #110E0E",
"%  c #11100F",
"&  c #0E0E11",
"*  c #110E11",
"=  c #0E1213",
"-  c #151514",
";  c #191616",
":  c #171815",
">  c #1A1816",
",  c #151619",
"<  c #1A1619",
"1  c #16191D",
"2  c #1C191B",
"3  c #221D1C",
"4  c #25211E",
"5  c #28231F",
"6  c #1E1720",
"7  c #1E1B21",
"8  c #221726",
"9  c #221C24",
"0  c #251E29",
"q  c #291F2C",
"w  c #262324",
"e  c #2A2522",
"r  c #2D2A26",
"t  c #26212A",
"y  c #2A222D",
"u  c #2E2C29",
"i  c #312C26",
"p  c #312D2B",
"a  c #34312D",
"s  c #3A342F",
"d  c #2D2432",
"f  c #2F2836",
"g  c #312635",
"h  c #312936",
"j  c #342639",
"k  c #352B3B",
"l  c #392E3E",
"z  c #333231",
"x  c #393532",
"c  c #3D3A35",
"v  c #3B313F",
"b  c #3E3D3B",
"n  c #413C36",
"m  c #433E3A",
"M  c #45413B",
"N  c #4A433D",
"B  c #3A2E42",
"V  c #3F2F49",
"C  c #3C3144",
"Z  c #3F3349",
"A  c #402F44",
"S  c #402F48",
"D  c #403447",
"F  c #43344C",
"G  c #45394D",
"H  c #493B4E",
"J  c #463651",
"K  c #483651",
"L  c #463952",
"P  c #4A3A55",
"I  c #4B375A",
"U  c #4D3B5B",
"Y  c #513E5E",
"T  c #513E62",
"R  c #454543",
"E  c #4B4540",
"W  c #4C4A45",
"Q  c #4E4C4C",
"!  c #514B43",
"~  c #514E4D",
"^  c #565047",
"/  c #52514E",
"(  c #59524B",
")  c #4E415A",
"_  c #52425C",
"`  c #545250",
"'  c #5E5851",
"]  c #625B53",
"[  c #635E59",
"{  c #66625C",
"}  c #6B645D",
"|  c #71695F",
" . c #554363",
".. c #594567",
"X. c #5A4A64",
"o. c #564569",
"O. c #59466A",
"+. c #5D4A6D",
"@. c #5F4A72",
"#. c #604B73",
"$. c #654E78",
"%. c #665175",
"&. c #6C5776",
"*. c #67507A",
"=. c #6B547C",
"-. c #6D597D",
";. c #70597F",
":. c #6C6661",
">. c #736C63",
",. c #7A7267",
"<. c #7C766B",
"1. c #827C6E",
"2. c #847C73",
"3. c #8A8177",
"4. c #8B837A",
"5. c #908778",
"6. c #928A7E",
"7. c #6E5680",
"8. c #725783",
"9. c #745A84",
"0. c #785B87",
"q. c #8F8B83",
"w. c #958D82",
"e. c #998E82",
"r. c #9B9286",
"t. c #9C948A",
"y. c #A0978B",
"u. c #A49A8C",
"i. c #A89C8C",
"p. c #A49C92",
"a. c #AA9E91",
"s. c #A7A195",
"d. c #ACA296",
"f. c #AEA59A",
"g. c #B1A599",
"h. c #B5AA9C",
"j. c #B9AE9E",
"k. c #BCB19F",
"l. c #B7ADA1",
"z. c #BAAEA1",
"x. c #BDB3A4",
"c. c #C1B5A5",
"v. c #C4B7A9",
"b. c #C6BCAC",
"n. c #CABEAD",
"m. c #CCBFB1",
"M. c #CBC0AE",
"N. c #CEC2B3",
"B. c #D3C6B5",
"V. c #D0C7B8",
"C. c #D7CCBA",
"Z. c #DACEBB",
"A. c #DDD1BD",
"S. c #E1D5BF",
"D. c #D8CDC0",
"F. c #DED2C1",
"G. c #E3D6C2",
"H. c #E5D9C4",
"J. c #E9DAC5",
"K. c #EADBC8",
/* pixels */
"                                                                                                                                                                ",
"                                                                                                                                                                ",
"                                                                                                                                                                ",
"                                                                                                                                                                ",
"                                                                            o @ O @ .                                                                           ",
"                                                                    + * - ; ; < 2 > : : : - $ @                                                                 ",
"                                                                # ; < : 9 h C F F G D v g 9 6 , ; $ +                                                           ",
"                                                          . - : ; 9 x X.-.8.8.8.9.9.9.8.8.-.@.V 0 2 < - #                                                       ",
"                                                      o - ; ; g _ %.;.9.9.9.9.9.9.0.9.9.8.8.8.7.%._ B 9 ; : #                                                   ",
"                                                  X # ; < j _ &.;.8.=.*.$.$.7.7.8.8.8.7.7.@.@.@.+.+.+. .j 9 ; % @                                               ",
"                                                + : > 8 _ 8.0.7.$.#.#.#.@.@.#.@.@.@.@.@.7.@.@.@.#.@.@.#.@.P y ; ; +                                             ",
"                                              = : 2 F &.9.=.#.@.@.@.@.@.@.@.@.@.@.@.@.@.@.@.@.@.@.@.@.@.@. .P B 9 ; $                                           ",
"                                            - ; y X.8.=.#.#.#.@.@.@.@.@.@.@.#.#.$.@.@.@.@.@.@.@.@.@.@.@.@.+.U P F 0 ; - .                                       ",
"                                        @ - < v &.=.#.#.@.@.@.@.@.@.#.@.@.@.@.@.@.@.@.@.@.@.@.@.@.#.@.@.#.O.Y U U J 9 < #                                       ",
"                                      @ ; 2 L =.$.#.@.@.@.@.@.@.@.#.@.@.@.@.@.@.@.@.@.@.@.@.@.@.#.@.#.@.@...U U U U L t 2 #                                     ",
"                                    @ < 9 _ =.#.@.@.@.@.@.#.@.@.@.@.@.@.@.@.@.@.@.@.@.@.@.@.@.@.@.@.@.@.@. .U U U U U F 7 > +                                   ",
"                                  . : 2 ) %.@.@.@.@.@.@.@.@.#.@.@.@.+.#.@.@.@.@.@.#.@.@.@.@.#.@.@.@.@.@.O.Y Y U U U Y I V < -                                   ",
"                                  = > L #.#.@.@.@.@.#.#.+.#.#.#.#.#.#.#.@.@.@.@.@.+.#.@.#.#.+.#.@.@.#.+._ U P P P U Y U P d ; #                                 ",
"                                = : d +.@.@.@.@._ Z P +.+.+.+.O.O.+.+.#.@.@.@.@.#.@.@.@.@.@.@.#.@.#.@. .U U J B Y U P S K J 9 - .                               ",
"                              . < 7  .@.@.+.) k 7 9 J T Y U U U U Y T O.@.@.@.@.@.@.#.@.@.@.#.#.#.@.O.T U Y J q P I P S F U g ; #                               ",
"                              * ; B @.O.) k 9 1 9 C U U U P U P U U U U T o.@.@.@.#.#.@.#.+.#.#.+.+.Y U U U F q J U I P J I F 2 ;                               ",
"                            . < 6 _ +.V 7 1 2 g F Y U U U Y U P U U U U U T T o.+.+.+.+.#.#.+.+.O.T I U U U F 8 F U Y U U U Y g < #                             ",
"                            + ; g  .T I D Z F U U U Y I U Y U Y U P U I U U U U U T T  .T T Y Y U I U U U U F 7 F Y Y I U U P S 2 *                             ",
"                            * ; C U U U U T U U I Y P U Y I Y U U Y P Y U U U U T T U U U U U Y U U U U I U D 7 V I I Y U P Y P 0 : +                           ",
"                            ; 2 F U U U U U Y U U U U U P U P U P U U U U U U U Y Y P U U U I U U U U U U U D 1 C P B P U U U U C , *                           ",
"                          o ; 0 U J F U U U I Y P D j q 9 9 w q g D P P U U U U I Y Y P U U U U U U U U U U B < C I d g P I U U P t ; .                         ",
"                          # < g I D D U U U U F g 7 ; ; ; < < < < < y F U U U U U U I U U U U U U P U U U U k 2 C I C 2 l U U U U C < -                         ",
"                          # < B I F D U U U D 9 2 : 2 4 2 2 > t j 9 < 9 C U U U U U I U I U U I K F U U U I t 2 Z U G 7 y P U U U P f : -                       ",
"                          $ 2 F U P P U L d < > 2 ! 3.f.t.E > < y L D d 9 C U U U P U U U U U U F S P Y I C 2 1 F U U 0 2 C U U U U K 0 ; =                     ",
"                          % 2 J U U I Z 9 ; 2 m w.h.j.j.l.g.( 3 2 d P P F V P U U U U U I U U U I P U U P y > 2 J U U d > d J U U U U L 0 > - .                 ",
"                          - 2 L U U C 7 < 2 >.d.l.z.b.A.b.j.g.[ 2 > h U I P U U Y I I P U U U U I J J U C 2 ; 9 U U T j < q S J I U U I L d 1 - .               ",
"                          - 7 L I k 2 2 x 4.h.z.v.B.n.z.c.h.h.a.( 2 1 v U U U U I P Y U U U U I F Z L L 0 2 ; y U U U B < 2 d B D F L P P v 7 :                 ",
"                          - 2 F k < > b t.j.x.n.M.{ 5 4 4 s <.g.d.m : 2 F U U U U U U U U I U U F F L j < ; 2 B U Y I S < : - 6 d k j f 0 1 ; =                 ",
"                          * 2 t ; : c u.l.c.C.u.e : : : 2 > 4 ^ d.y.e 2 y P U U U U U U U U U U U U Z 6 < ; 3 F U U T S 2 , , , ; < 2 : ; - O                   ",
"                          @ : : > c s.j.b.F.d.e : > x >.6.3.! N <.y.>.2 < k U U U U U U U U U U U F 7 < w < 0 P I U U F 6 , . . & & # # .                       ",
"                            # 2 ; [ h.M.G.C.s ; : c 1.4.j.k.r.x.b.3.2.m 2 9 J T U U V J U U U U J 9 < d h < g U U Y Y F 1 -                                     ",
"                              & 2 ] n.G.A.] > ; : 2 2 2 e M k.F.S.i.1.4.r < g I P I D d D U Y F 9 2 q F 0 < D U U U U F < -                                     ",
"                              + > ( G.G.u.3 ; > w u b b u > N V.S.Z.i.d.] 2 6 Z F J I k 8 g B 9 1 t J D < 0 L U U U U Z < -                                     ",
"                                ; n A.c.s > > z / ` ` / / z 2 6.J.J.M.j.p.u 2 y C F U U k < > 2 g I P y 2 k U U U T U V , -                                     ",
"                              . % e 6.p 2 > b / / / / ` / R 3 ,.J.J.A.k.h.:.2 2 F U U Y P A j D U T L 7 9 F U U U I U k ; &                                     ",
"                                % ; w.<.2 p ` ` / / / / / R 3 | J.J.S.c.j.e.3 < k U U U U U P U U I j < j P U U U U U y ; @                                     ",
"                                o : M ( < r W / / / / / / R 2 <.J.J.S.5.g.g.! < 0 P P U U U U U U J 9 9 H U U U U U U 0 :                                       ",
"                                . - 3 d.{ 2 w b / / ` ` / z 3 u.J.J.J.' 1.h.6.3 2 D U Y U U U U U k < l U U Y U U U L 2 -                                       ",
"                                  - 2 a.Z.<.r 7 h R Q Q b 1 M V.J.J.H.( m g.g.a < d U U U U U U L 7 q L U U U F F I B < *                                       ",
"                                  # 1 r.J.G.l.m > 3 w r 2 5 g.H.J.J.H.! e r.h.^ ; 9 K U U U U U f 7 G U U U P S F L 8 , @                                       ",
"                                  - > r.J.K.J.A.r.( e 3 m a.H.J.J.J.G.c 4 4.h.<.; < J U U U U F 9 B U U P U U F D y , &                                         ",
"                                . : 2 x.H.K.J.J.H.G.A.Z.G.H.B.y.c.J.M.4 2 6.d.! > < F U U U P d k U U U U P U F q ; - O                                         ",
"                                @ ; M C.J.J.J.J.K.K.J.K.J.J.B.u.b.H.1.> r q.b > : 2 F U U U V j L U U U U U l 8 ; & .                                           ",
"                                = 2 d.H.J.J.J.J.K.J.J.J.J.H.S.n.g.>.3 ; u u > > ; 8 J Y U P V U U U U U F d < ; #                                               ",
"                              . , a D.J.J.J.J.J.J.J.K.J.K.F.1.i 3 < ; : : 2 2 k y d U U U U U U U P F h < ; - .                                                 ",
"                              . ; E G.J.J.J.J.J.J.J.J.J.J.<.2 : ; ; ; < < y F P j G I U U U U P B y 2 ; : +                                                     ",
"                              . ; ^ G.J.K.J.J.J.J.K.S.J.n.3 ; , : > < y D U U U ) U U P F B d 2 : ; ; : .                                                       ",
"                              . > ! S.H.x.A.K.K.c.M.J.S.6.3 : : , w v F F F Z C k d 7 1 < < : , ; 3 i :                                                         ",
"                              . : M G.n.M N.J.H.^ 3.J.S.>.2 > : ; < 2 < < 2 < < : 2 2 1 < < : : : u a #                                                         ",
"                              . , a b.r.u M.J.F.n } J.S.! 2 9 d 2 ; < 2 2 7 , : : : > t D B y 1 ; 2 3 #                                                         ",
"                                & : 4 a z N.F.D.n } A.N.y > v l 7 2 f F L F 2 ; < 2 ; 2 D U U C 2 - > , .                                                       ",
"                                o = : ; 2 3 r p 2 w u w : 2 t q B L U L D d ; 9 P F 0 < 9 L T I y > u z #                                                       ",
"                                      # $ - - - - : : < 2 w j P G k y < < ; 2 D #.T D 2 < j L F 9 2 w w O                                                       ",
"                                              .   . - < C G F y 2 2 : : : ; < _ #.T P y ; < 2 2 2 ; 3 ;                                                         ",
"                                                    # > C k 9 ; < 9 f B y : 0 +.+.D D B < ; < - ; r x :                                                         ",
"                                                    + : 2 2 < 8 l L U I d < f @. .q F G 7 : y 7 ; e i #                                                         ",
"                                                      % ; ; d F U U T  .0 < C +.Y U U L 0 : f h > > 3 +                                                         ",
"                                                      X - 2 G U  .O.@...0 2 F +.+...U J d , t F 2 ; ; +                                                         ",
"                                                        : 9 U O.@.@.@.X.9 2 l k d 9 < 0 h , t  .0 : < O                                                         ",
"                                                      @ : t o.#.@.@.@...9 2 ) .. . .U L Z , 2  .g , < @                                                         ",
"                                                      + : k O.O.O.#.@. .9 > g C C C k y 7 : 7  .C < 1                                                           ",
"                                                      @ ; C @. .j +.@.+.w : : > > : > 2 2 : w  .F < ,                                                           ",
"                                                      & < L @.O.d F +.X.9 > c n a c M ' [ : 7  .P 2 =                                                           ",
"                                                      # : _ +.+.) 9 P  .9 3 6.h.h.h.j.j.g.i < P  .7 -                                                           ",
"                                                      - , U _ +.+.D 9 G 3 w h.B.N.M.m.Z.Z.n < H O.0 - .                                                         ",
"                                                    . - 2 _  .@.@.+.L h 3 2 2.J.J.J.J.H.c.5 2 H  .g : O                                                         ",
"                                                      : 9 +.+.@.@.#.+.+.j < r l.S.S.Z.g.m ; y P Y v : +                                                         ",
"                                                    @ : 0 +.@.@.#.#.+.@.) 2 2 5 ] | m 3 2 > G  ...D < #                                                         ",
"                                                      : q  .X.+.+.@.#.+.G h 7 < ; < ; < 7 f C h 9 > ; $                                                         ",
"                                                    @ < ; < 2 y h k C C C C h 7 : ; , : : 2 < ; : = # .                                                         ",
"                                                      @ & < , < ; > < 2 2 : : , : : : : > : - O                                                                 ",
"                                                          # 6 : 2 2 ( ~ 2 : > > < ; : 3 w - O                                                                   ",
"                                                          @ : 2 z w.M.{ 3 2 5 ] ] s < < - @                                                                     ",
"                                                          * : [ n.F.} 2 2 x f.F.J.V.m : =                                                                       ",
"                                                          + - r :.( 3 : M N.F.b.f.p.c : +                                                                       "
};
