/* XPM */
static char *result[] = {
/* columns rows colors chars-per-pixel */
"80 90 117 2 ",
"   c #000000",
".  c #040709",
"X  c #06090C",
"o  c #090B0E",
"O  c #070C11",
"+  c #0A0E12",
"@  c #080F18",
"#  c #0D1115",
"$  c #0E1319",
"%  c #141515",
"&  c #191616",
"*  c #171816",
"=  c #1B1816",
"-  c #141519",
";  c #1B161A",
":  c #16191B",
">  c #1C191B",
",  c #221D1C",
"<  c #24211E",
"1  c #1E1620",
"2  c #1E1A21",
"3  c #221C23",
"4  c #261E29",
"5  c #2A1E2B",
"6  c #252224",
"7  c #2A2523",
"8  c #2E2A26",
"9  c #26202A",
"0  c #2B222D",
"q  c #2E2B2C",
"w  c #342C27",
"e  c #322D2A",
"r  c #2F302E",
"t  c #35312D",
"y  c #39322E",
"u  c #2D2533",
"i  c #302534",
"p  c #322936",
"a  c #322739",
"s  c #352B3C",
"d  c #392D3E",
"f  c #343432",
"g  c #3C3531",
"h  c #3D3835",
"j  c #39303C",
"k  c #3C3B3A",
"l  c #40352D",
"z  c #423A35",
"x  c #4B3E37",
"c  c #463D39",
"v  c #4A3E39",
"b  c #4B413B",
"n  c #362D41",
"m  c #3B2E42",
"M  c #3D3245",
"N  c #3F3349",
"B  c #3F3849",
"V  c #413346",
"C  c #42354C",
"Z  c #49374F",
"A  c #44394D",
"S  c #4A3C4D",
"D  c #463651",
"F  c #493752",
"G  c #463952",
"H  c #4A3B55",
"J  c #4D3B5A",
"K  c #503C5C",
"L  c #4F3D60",
"P  c #513E61",
"I  c #454544",
"U  c #4E4443",
"Y  c #504A46",
"T  c #56534D",
"R  c #4D4156",
"E  c #4E405A",
"W  c #52425D",
"Q  c #5D5651",
"!  c #5F5952",
"~  c #676158",
"^  c #6D655C",
"/  c #544363",
"(  c #584667",
")  c #544A63",
"_  c #594966",
"`  c #574468",
"'  c #5A476B",
"]  c #5C4A6D",
"[  c #5E4A72",
"{  c #604B6E",
"}  c #604A71",
"|  c #695175",
" . c #675078",
".. c #6C547D",
"X. c #6E6962",
"o. c #777066",
"O. c #7A766B",
"+. c #898379",
"@. c #715780",
"#. c #755A85",
"$. c #9E978B",
"%. c #A0948C",
"&. c #ABA397",
"*. c #B1A598",
"=. c #B4AB9C",
"-. c #B9AD9C",
";. c #BBAFA2",
":. c #BCB0A2",
">. c #C2B7A5",
",. c #C3BAAD",
"<. c #CABDAC",
"1. c #D6CBBA",
"2. c #DED2BE",
"3. c #DED2C1",
"4. c #E4D6C1",
"5. c #E6D9C5",
"6. c #E8DAC4",
/* pixels */
"                                                                                                                                                                ",
"                                                                                                                                                                ",
"                                                                                                                                                                ",
"                                                                                                                                                                ",
"                                                                              .                                                                                 ",
"                                                                      . X + + # # % % + + X .                                                                   ",
"                                                                X + % % & & & & = = % & & & - # + .                                                             ",
"                                                            O $ & & & , u S W { { { _ W d 9 , ; & % @ .                                                         ",
"                                                        X + & & 3 A _ | ......#.#.#.#.@.@. .} H p > ; - O .                                                     ",
"                                                    . + % = 3 V { |  .} } } }  .@.@.@...} } } } ] H u > % - o                                                   ",
"                                                  . + & , s { } } } ] } } } } } [ [ [ [ } } [ } [ [ ( V 3 = - O                                                 ",
"                                                . # & 3 C ] } } ] N ] } } } } [ [ [ [ [ [ } } } ] [ [ / D 0 & % @                                               ",
"                                              . % & 3 G { } } } H 4 _ } } [ } [ [ [ [ [ [ } } } [ [ [ ` J H p = & @ .                                           ",
"                                            . - & 3 Z / [ } { } C > G ] } [ } [  .[ } } } } [ } [ } } ` J J J d & = @                                           ",
"                                          . - % 4 C K ` [ } ] } K ; 3 / ] } } } [ [ } [ [ } } } [ } [ / J J J H d > % +                                         ",
"                                          # & 2 C J J ` } } } ] ] 4 & 0 / } [ } [ [ } } } } } } } [ ] P J J J J J s ; = +                                       ",
"                                        # & 2 A F K K P } } } [ [ H ; & 4 R ] ] } } } } } } [ } [ [ ` J J J J J J G a : - X                                     ",
"                                      O : = m J J J L L } } } } [ ] D 3 % ; i H ] [ [ } } } } } [ [ L L J J J J J J J 9 % - .                                   ",
"                                    . $ = p H J J J J J P } } } [ [ [ / p , , 3 5 P [ } } } { } [ L J L J J J J J J J H 3 & $                                   ",
"                                    # & 3 F J J J J J J P } } } } [ [ [ ] / K K ` } [ } } ] } } ' J L J J J J J J J J J m > - o                                 ",
"                                  X - = M K J J J J J K K L }  .} } } ] ] } } [ [ [ [ } } } } [ / L L J L J J J J J J J H u ; $ .                               ",
"                                  - & i J J J J J J J F J J L P } } } } } [ } } [ } } } } } } } L J J J L H J J J J J J J D = & @                               ",
"                                O - 2 A J J J J J J J J F L J L ] } } } } } } } } } } } [ [ } [ J J J J J J J J J J J J J J s - - .                             ",
"                                % ; p H J J J J J J J J K K K K P ] } } } } } [ } } } } [ [ [ ( J L J J J H J J J J J J J K G 3 & #                             ",
"                              O % , A J J J J J J J J J J J J F K P ] [ [ } } } } } } } ] } ] L J K J K F J J J J J J J J J J p & % .                           ",
"                            . # % p J J J J J J J J J J J V V J K J L ' [ [ } [ } } } } ] ' P J J J G n D J J J J J J J H J J F > ; @                           ",
"                            . & 1 D F J K J J J J J L J J F i A J J J L / ` ] ] } ] ] ] / L J J J F i j J J J J J J J J D D J J d ; -                           ",
"                            # % u C C F J J J J J J J J J J m 4 H J J J J L L W P P K K K J J J J d 4 G J J J J J J J J D N F J G 2 - @                         ",
"                          . - % V m V F J J J J J J J J J J C ; N L J J L J L J J K J J J J J J G 3 i J J J J J J J J J J F H D D 5 ; $                         ",
"                          X % 2 F C Z F J K J J J J K J J J D ; n G L L J L L J J J J J J J J F u , F J F J J J J J J J J J H N N n ; - .                       ",
"                          + = i J J J J J K J J J J J F J J F - 2 G L H H L H L J J J J J J J A ; 0 J J J J J J J J J J L J J N C C > * .                       ",
"                          # ; m J J J J J J J J J J J J J J J 3 1 D J J L J J H J J J J J K J i = d J J J J J J J J J J J J J H D H 6 % +                       ",
"                          # = A F J J J J J F J J J J J J J J i - n J J J J J J J J J J J H Z > & C J J J J J J J J K J J J J J J H u % +                       ",
"                        . $ 2 G K J J J J J K J J J J F J J J m - 9 J J J J H J J J J J J J M & ; G J H J J J J J J H J J J J K J J s % $                       ",
"                        . % 3 H K K J J J J J J J J J J J J J D - 2 F J J J J J J J J J J J i & 6 H J J J J J J J K J J J J J J J J n ; $                       ",
"                        . % 2 H J J J J J J J J J J J J J J J J 2 ; a J H J J J J J J J K G 6 & M J J J J K H J J H J J J J J J J J M = %                       ",
"                        X * 3 H J J J J J J J J J J J J J J J F u ; > C J K J E J J J J J G > = C H J J H J J J J J J J J J H K J J M % -                       ",
"                        X % 4 H J J J J J J J J J J J J J J J L V ; ; u H J J J J J J J J A - & Z J J J J J K H J J J J J J J J J J M ; :                       ",
"                        . % 3 J J J J J J J J J J J J J J J J L J 0 - ; j H J J J J J J J m & ; G J J J J J J J J J J J J J J J J J M - -                       ",
"                        . % 3 H J J J J J J J J J J J J J F J L J C > = = B J J J J J J J d & > G J J J J J J J J J K J J J K J J J M ; %                       ",
"                        . % 3 G J J J J J J J J J J J J D D J J J J d - ; ; m J J J J J J a ; ; G J H J J J J J J J J J J J J J J J s & #                       ",
"                          % > A J J K J J J J J J H J H N N J F J J J p ; & > i H J J J J u ; ; H J J J J J J J J J J J J J J J J J p & #                       ",
"                          - > C J F V C F J J J J J J J F F J L J J J H i ; & , 0 V G H C > ; 3 H J J J J J J J J J J J J D n a d H 7 & #                       ",
"                          # & m J Z 5 1 4 C F J J J L J J J J L J J J J J 5 ; = & , 3 5 1 & & 0 J J J J J J J J J J J H u > > i Z H 4 % .                       ",
"                          o % 3 F L H u & , m J J J L H N C F J J J J J J J M 3 & = ; ; ; & 3 G J J J J J J J J J J m 2 & > M J J N > % .                       ",
"                          . - ; D J J F 5 ; ; C J J J G V V F K J J J J J J J H i 4 > , , 0 N J J J J J J J J J H p - & 5 G H J J u = %                         ",
"                            @ ; a J J J F 3 ; 3 D J J J F D H J J J J J J J J J J H H G D H J J J J J J J J J H u > & 0 G J K J H 3 & #                         ",
"                            + & > C J L J N 1 ; n J H J J J J J J J J J J J J J J J J K J J J J J J J J J J J u ; = i J J J K H a ; - .                         ",
"                              - % 3 F J J J u * 9 H J J J K J J J J J J J J J J J J J J J J J J J J J J J J s = = u H J J J J M ; % +                           ",
"                              . % & 4 G J J G 2 > N J J J J J J J J J J J J J J J J J J J J J J J J J J J D 2 ; u J J L J J M > & #                             ",
"                                o % % 4 N J J M > 9 N J J J J J H J J J J J J J J H J J J J J J J J J J F 5 ; 0 H J P J J n > & $ .                             ",
"                                  X # & ; s H G 2 = 2 n J J J J J J J J J J J J J J J J J J J J J J J J m ; i J J J J H u > ; +                                 ",
"                                    . - & & 3 3 = 8 , > i H J K J L J J J J J J J J J J J J J J J J J H 0 u G J K H d 2 ; ; +                                   ",
"                                        X % & % , g y 6 ; u G H D N J J J J L J J J J J L J J J J J J H u H J C s 4 ; & % X                                     ",
"                                          . + - & 7 g z 7 > 3 M 2 ; u H J J L J J J J J J J J J J J H D N n 4 ; ; % - O .                                       ",
"                                              . # % , g h t > ; = < - 4 M N D H H F J F G N M a i 5 3 > ; - % - # o .                                           ",
"                                                  o * : t h 7 : r I r ; - : ; ; ; - ; ; ; - ; = = & & % ; % X O                                                 ",
"                                                    + : * , * > I I r = & & = % - > > > & ; & ; & % * = : @                                                     ",
"                                                    # : & * > k I f = < g , = 2 d n M N C D D M p 3 & & % - X                                                   ",
"                                                  . * * = = r k f > > l v z 7 > 4 p m C V p 0 4 M C 4 & & & - .                                                 ",
"                                                . # - > % 7 k k , = e c b b v 7 * = ; > ; > a H J J V ; * 6 % -                                                 ",
"                                                % & 4 S 4 * 6 6 & 6 w y c v b 7 % 3 ; & , s V C J J D 3 = B > - #                                               ",
"                                              X % , E { E > & = = w e 7 w z z > > N H > ; 9 d A Z m u ; 2 W N ; % X                                             ",
"                                            . % ; u Z ] E 2 & & , < e 7 e e 7 & , / W > % ; > 4 > ; % ; u _ G 9 ; $                                             ",
"                                            + & 4 E M p i ; 2 M 4 ; < 8 7 t , % p _ p ; & & = * & > ; ; u a N S = - X                                           ",
"                                            - = ; M ) H 3 ; 9 J C 4 & , e e ; > Z W ; & & ; i & & , 2 ; 3 R ' n = & %                                           ",
"                                          # - & & ; 4 d 4 ; n [ / H i ; = , = 3 H M & & = ; 3 & = & % & , M 9 : = = % #                                         ",
"                                        + & < X.Q < & = % - H ] ( { ` N 2 & % i R 0 & = - * = 2 M 6 = & & * & 6 ! Q = - O                                       ",
"                                      . $ % X.=.=.$.b , % > / _ M ] { ] H > : A S = = % = ; u ) ] B = & & > U %.*.-.~ = $                                       ",
"                                      . - & ;.2.>.-.*.Q = 3 ] _ 4 _ [ } / > - u u & = : 6 N / W d 2 & % & T &.-.>.2.*.< -                                       ",
"                                      . - & >.6.4.<.;.Q = i ] ] 4 C [ } ' m 2 = = ; > s H H M 4 % = , 7 , < +.<.4.5.-.< -                                       ",
"                                        - % o.3.6.6.3.Y = j / { u 0 ' } [ [ A 2 = > j E V 3 ; & % q c x y & 8 <.5.2.O.: -                                       ",
"                                        # % , ^ =.1.,.t = A / [ J , C ] } } _ N 6 & > 4 > & & ; = y c b x t = ^ :.^ , & o                                       ",
"                                          # % > & , & * > Z / [ } p ; K [ } ` J J i & & & > 3 ; < w t z x b , = = , % +                                         ",
"                                            o # % % & % > K ( [ } / 3 u ] [ ] [ [ _ C > & > > ; < t t w y x w = % $ +                                           ",
"                                                . o - % 3 / } } } [ P 5 N ] [ [ [ [ ] D 3 = ; = < 8 e 8 8 l g & $ .                                             ",
"                                                    o % , W { } } } [ P u ) [ [ [ [ } _ p 3 0 4 ; = < e w w 8 & o                                               ",
"                                                    . % & 9 E ] } } } } ] / [ [ [ [ ] a i W ] _ M 2 & & = > & - .                                               ",
"                                                      . % = > m / { } } } } } ] [ ] J H ] ] [ [ / a > & = - # o                                                 ",
"                                                        . # % ; 3 n K ] } } } } [ [ ] { ' ] / s > & & % .                                                       ",
"                                                          o * & ; ; > 9 p m A G H J A M u 9 3 ; & & = $                                                         ",
"                                                            # & = & - & & & = = > ; = & = % = ; - ; - .                                                         ",
"                                                            . % : & - ; - $ # % % - # $ - - % & & - +                                                           ",
"                                                                . o o .       .   .       . o o o .                                                             ",
"                                                                                                                                                                ",
"                                                                                                                                                                ",
"                                                                                                                                                                ",
"                                                                                                                                                                ",
"                                                                                                                                                                ",
"                                                                                                                                                                "
};
