/* XPM */
static char *result[] = {
/* columns rows colors chars-per-pixel */
"80 80 167 2 ",
"   c #000000",
".  c #090706",
"X  c #090907",
"o  c #070608",
"O  c #090709",
"+  c #06080A",
"@  c #0B0B0C",
"#  c #110E0D",
"$  c #0F110F",
"%  c #13110E",
"&  c #0D0D11",
"*  c #100F10",
"=  c #0F1113",
"-  c #151414",
";  c #191615",
":  c #171917",
">  c #1B1916",
",  c #161618",
"<  c #1A1619",
"1  c #171819",
"2  c #1C191B",
"3  c #201A17",
"4  c #211D1C",
"5  c #25211D",
"6  c #2B251F",
"7  c #1D1722",
"8  c #1E1B21",
"9  c #221C23",
"0  c #251F29",
"q  c #291F2D",
"w  c #252223",
"e  c #2A2522",
"r  c #2D2926",
"t  c #26212B",
"y  c #2A222D",
"u  c #2E2C2B",
"i  c #312B27",
"p  c #332D2A",
"a  c #34302E",
"s  c #39332E",
"d  c #2D2432",
"f  c #2F2932",
"g  c #312635",
"h  c #322936",
"j  c #332739",
"k  c #38273D",
"l  c #342B3B",
"z  c #392D3E",
"x  c #343232",
"c  c #3B3733",
"v  c #3C3A33",
"b  c #37303F",
"n  c #3C3C3A",
"m  c #423B34",
"M  c #423D3A",
"N  c #484137",
"B  c #45413A",
"V  c #49443E",
"C  c #372D40",
"Z  c #3A2E42",
"A  c #3E2F49",
"S  c #3C3244",
"D  c #3E3149",
"F  c #423647",
"G  c #42344C",
"H  c #48374E",
"J  c #45394D",
"K  c #4A3C4F",
"L  c #463551",
"P  c #483653",
"I  c #463951",
"U  c #4A3A55",
"Y  c #4D3B5B",
"T  c #503D5E",
"R  c #4F3C60",
"E  c #513E61",
"W  c #474543",
"Q  c #4E4743",
"!  c #4C4A47",
"~  c #4E4A49",
"^  c #524C43",
"/  c #524E4D",
"(  c #53514E",
")  c #5B544D",
"_  c #4D4056",
"`  c #4E4159",
"'  c #52425D",
"]  c #545250",
"[  c #5D5751",
"{  c #5D5954",
"}  c #615C53",
"|  c #615D58",
" . c #6D645C",
".. c #554364",
"X. c #594665",
"o. c #564965",
"O. c #594964",
"+. c #564369",
"@. c #59466B",
"#. c #564868",
"$. c #5D496D",
"%. c #5F4A72",
"&. c #604B6F",
"*. c #60506E",
"=. c #614B73",
"-. c #624B78",
";. c #665175",
":. c #6A5475",
">. c #6B537C",
",. c #6E587E",
"<. c #715A7D",
"1. c #6C6662",
"2. c #746D64",
"3. c #797166",
"4. c #767068",
"5. c #7D756C",
"6. c #7F786B",
"7. c #7E7971",
"8. c #82796D",
"9. c #837C73",
"0. c #878076",
"q. c #898176",
"w. c #8C847A",
"e. c #91867D",
"r. c #6E5681",
"t. c #6F5981",
"y. c #735A84",
"u. c #785B87",
"i. c #765A88",
"p. c #958D84",
"a. c #988E83",
"s. c #9B9286",
"d. c #9D948A",
"f. c #A09487",
"g. c #A1978B",
"h. c #A49B8E",
"j. c #A59C91",
"k. c #ABA295",
"l. c #AEA599",
"z. c #B0A597",
"x. c #B1A69B",
"c. c #B4AB9C",
"v. c #BAAD9E",
"b. c #B7AFA1",
"n. c #BAAFA1",
"m. c #B7B1A0",
"M. c #BEB4A3",
"N. c #C2B5A5",
"B. c #C3BAAA",
"V. c #CBBEAB",
"C. c #CFC1AF",
"Z. c #D1C2AF",
"A. c #CDC5B5",
"S. c #D1C4B3",
"D. c #D6CAB6",
"F. c #D4CBBA",
"G. c #DACEBB",
"H. c #DDD1BD",
"J. c #E1D3BE",
"K. c #D6CDC0",
"L. c #DDD3C1",
"P. c #E4D6C2",
"I. c #E8D7C3",
"U. c #E6D9C4",
"Y. c #E9DAC5",
"T. c #E7DCCA",
"R. c #E9DCC9",
/* pixels */
"                                                                  o . . @ @ . . .                                                                               ",
"                                                          o . @ - 1 1 > ; ; ; 1 : - # O o                                                                       ",
"                                                      O * - ; ; < q l F K K U F j 0 1 > % # .                                                                   ",
"                                                o X - 1 > y F ..;.<.y.y.u.y.u.u.y.:.X.S y 3 - % @                                                               ",
"                                            o & - - 7 l O.:.;.r.y.u.u.u.u.i.i.i.u.y.u.t.,.O.f 2 ; - .                                                           ",
"                                          O * < 4 l T $.=.=.=.=.-.>.r.t.y.t.r.r.>.;.;.r.r.y.,.O.z 4 1 % @                                                       ",
"                                        @ > 1 q L $.%.%.$.%.%.%.%.%.%.%.=.%.%.%.%.=.%.%.=.;.,.y.<.O.t 3 < . .                                                   ",
"                                    o - - 9 Z Y ..=.=.%.=.=.%.%.%.%.%.%.%.%.%.%.%.%.%.%.%.%.=.-.>.y.r.Y 9 > * .                                                 ",
"                                  o * 1 t H U Y E %.%.%.%.%.%.%.%.=.%.%.%.%.%.%.%.%.%.%.%.%.%.%.%.-.>.<.*.h > , X                                               ",
"                                  - < y P Y Y Y =.%.%.=.=.%.%.=.%.%.%.%.=.%.%.%.%.=.%.%.%.%.%.=.=.=.$.-.,.<.H > 1 @                                             ",
"                                * 1 d H Y Y Y R E -.%.%.%.%.=.=.%.%.%.%.%.%.%.%.%.%.%.%.%.%.%.%.%.=.=.%.=.-.>.' t , @ o                                         ",
"                              @ 1 0 H Y Y R Y R E =.%.%.%.%.@.=.%.=.%.%.%.%.%.%.%.%.=.%.%.%.%.%.%.%.$.=.=.=.=.>.O.t % @                                         ",
"                              , 7 G Y Y Y T Y Y R @.=.=.@.=.=.%.%.%.=.%.%.%.%.%.%.%.%.%.%.%.%.%.%.%.%.%.%.%.%.%.;.*.9 - &                                       ",
"                          o - 1 l Y Y Y Y P P Y Y E @.=.=.=.=.%.%.%.%.%.%.%.%.%.=.%.%.%.%.%.%.%.%.%.%.=.%.%.%.%.%.=.O.t 1 O                                     ",
"                          o , 0 P Y Y Y T z P Y Y Y X.=.=.=.=.-.%.%.%.%.%.%.%.%.=.%.=.%.%.-.%.%.=.=.=.$.o.$.%.%.$.%.$.U < - .                                   ",
"                          # 1 z Y U L P U g P Y Y Y T @.@.=.=.&.=.%.%.%.%.%.%.%.%.%.%.@.E E E E E E +.E j d D o.%.%.=.$.h 1 & o                                 ",
"                        O 1 9 U Y L G L P 9 P Y R Y R E &.=.&.&.=.=.=.-.%.%.=.=.-.E E R Y Y Y Y T Y Y Y F 2 > 0 H O.$.=...9 - .                                 ",
"                        # < S Y Y G D U D w P Y P Y P R E @.&.=.=.=.=.-.%.%.%.@.E Y Y Y Y Y Y Y Y Y Y Y Y D t 1 1 q H X.$.l - @                                 ",
"                        - 9 P U Y U U Y Z 8 I Y Y Y P Y T T E +.E E @.E E E T Y T Y Y Y Y Y Y Y Y Y Y Y Y Y P z q 0 q P $.Y < , o                               ",
"                      # ; h Y Y Y Y Y Y z 8 G Y Y Y Y Y Y Y Y Y E E Y Y Y R Y Y T Y Y Y Y R Y Y Y Y Y Y Y Y Y Y Y Y Y Y T ' q , X                               ",
"                    o 1 9 L Y Y Y Y U A f 9 L Y Y Y Y Y Y Y Y Y Y Y Y Y Y Y Y Y Y Y Y Y Y Y Y Y Y Y Y Y Y Y Y Y Y Y Y Y Y Y l 1 #                               ",
"                    @ 1 j Y Y Y Y U j j d 2 G Y Y Y Y Y Y Y Y Y Y Y Y Y Y P Y Y Y Y E Y Y U P G D D F L U Y Y Y Y Y P P Y Y G < *                               ",
"                  X , 8 H Y Y Y U z 2 F g < G Y Y Y Y Y Y Y P L P Y Y Y Y Y Y Y T Y Y P k 9 < < 2 > < 7 d D Y Y Y Y D G Y R P 8 - .                             ",
"                o - < S Y Y Y Y H 9 9 P g < A G P Y Y Y Y Y P G P Y Y Y Y Y Y Y Y P F 9 < < 4 1 , , , 1 1 7 h I Y P L G U Y U 0 1 o                             ",
"              o - 1 g U Y Y Y Y l 2 y Y j < Z C I Y Y Y Y Y Y P P Y Y Y Y Y Y Y Y l < 9 d S y 1 2 r | c 4 1 > 9 S Y Y U Y Y Y d 1 +                             ",
"          o & - 1 g U T Y Y Y G 9 > S Y l < j l C Y Y Y Y Y L L P Y Y Y Y P Y P Z q Z H H y 1 4 Q s.c.l.e.^ 5 - 7 d I Y Y Y Y l , &                             ",
"          @ > 2 j U Y Y Y Y L Z 8 > D Y Z < y g 0 U Y Y Y Y L G P Y Y Y Y Y Y Y G U Y P d < 2 ) l.c.v.n.n.b.0.s > > y F Y Y Y l 1 &                             ",
"          - > b Y T Y Y L G A h 1 2 U Y F > 0 b < F Y Y Y Y P G P Y Y Y Y Y Y T Y T Y j 1 1 { x.z.e.l.G.N.c.v.x.( 2 - 9 I Y Y Z < -                             ",
"          @ - 2 y z A A z g 9 2 1 9 U Y H 9 2 S < d U T T Y Y Y Y Y Y Y Y Y Y Y Y Y Z < > ^ k.c.s.a.n.M.s.q.a.x.x.4.w : 8 S Y C 1 &                             ",
"            o , 1 1 2 < 1 , > , - 0 U Y U q > z 0 2 S T Y Y R Y Y Y Y P Y Y Y Y Y G 4 3 v h.c.M.z.w.^ 4 4 4 4 m e.l.w.r 1 7 S l 1 &                             ",
"                . % - , - & @ @ - q U Y U d > g Z 2 0 P Y R Y Y Y Y Y Y Y P Y Y U y > e w.q.h.G.h.a 2 2 ; 2 1 1 e 2.l.w.5 1 8 w - @                             ",
"                              o - y U T Y S < q Y 9 1 z Y Y Y Y Y Y Y Y Y Y Y Y z < 3 2.h.0.M.G.3.5.f.c.k.8.s 1 1 e w.c.0.5 1 1 , o                             ",
"                              o - y Y Y Y P 9 8 P Z < 2 D Y Y Y Y Y T T Y Y Y P 2 , N x.v.V.Y.Y.Y.I.I.U.h.1.1.r 1 1 5 h.x.s > - o                               ",
"                              o - q Y Y T U q < Z Y d 1 w P Y Y Y Y Y Y P P P g > 6 d.n.N.J.I.Y.Y.I.f.s 2 2 > > > 1 > ) x.a - o                                 ",
"                              o - 0 Y Y Y Y Z 1 0 U P w > t P Y Y T Y P Z A Z < -  .c.v.J.Y.Y.Y.U.N.4 w x W B s 3 > > 3 p.e -                                   ",
"                                , 4 P U H U L 9 1 H Y J 9 1 t P P Y H q k A g < 6 g.v.V.I.Y.Y.Y.J.3.> n ~ ] ] / ~ h 2 1 5 > -                                   ",
"                                - 2 H P G G Y g 1 k T Y D 8 : t F l 8 f P G 8 2  .c.v.G.Y.Y.Y.Y.J.V < ! ] ] / ] ] / c 2 , - @                                   ",
"                                % > S Y A G Y G ; 9 U Y Y _ t : 1 1 h Y Y j - 4 h.c.N.Y.Y.Y.I.Y.G.m 4 / / ] ] ] ] ] ] a , , o                                   ",
"                                @ 1 h Y P Y Y Y d 3 Z Y Y Y I S d S U Y P 4 > ^ c.l.q.I.Y.Y.Y.Y.J.V 4 Q / ] ( ( / ] ~ u , = .                                   ",
"                                o , y U Y Y Y Y Y 9 0 U Y R Y Y Y Y Y Y Z 2 4 e.c.5.) U.Y.Y.Y.Y.J.8.3 M ( / ( ] / W e > - @                                     ",
"                                  - 4 U Y Y Y Y ` z 7 S Y Y Y Y Y Y Y Y y 1 c c.c.m ) U.Y.Y.Y.Y.Y.m.4 e ! ( ( ! x 1 4 4 : X                                     ",
"                                  # 1 f U Y T Y Y I t t I Y Y Y Y Y Y U 9 1 [ n.k.e V J.R.Y.U.Y.Y.H. .4 w v u > > n w.a : +                                     ",
"                                    , > g Y Y Y Y Y G 9 S Y Y Y Y Y Y H < 3 9.v.a.2 s H.R.Y.Y.Y.U.U.R. .; > > 5 w.U.F.u : o                                     ",
"                                    o , > y L Y Y Y Y S q U Y Y Y Y Y D 3 ; ^ x.g.5 5 B.Y.S.j.S.R.Y.Y.J.B.c.N.H.U.Y.J.^ > $                                     ",
"                                      o * ; 0 F U Y Y Y Z z U Y Y Y Y L 1 1 ; ^ d.u 3 8.P.S.g.N.R.Y.Y.Y.Y.Y.Y.Y.Y.R.U.w.> $                                     ",
"                                        o @ > < d H Y Y P A U Y R Y Y P 2 1 < ; a u 1 4 5.A.F.J.Y.U.Y.Y.R.Y.Y.Y.Y.U.T.C.5 : @                                   ",
"                                            . * > 9 l G U Y Y Y Y Y Y Y q q g 3 : - > 1 1 e ) a.J.Y.Y.Y.Y.Y.Y.U.R.Y.R.H.) 2 $                                   ",
"                                                @ - 1 < d L U Y Y R R Y Z Z Y H 9 1 > - 1 < < < 6.R.Y.Y.Y.Y.Y.Y.R.Y.R.U.d.2 =                                   ",
"                                                  o X - ; 1 9 g C P U Y P P Y U P Z 0 1 > - : 1 6 M.J.Y.Y.Y.Y.Y.Y.I.R.Y.c.4 -                                   ",
"                                                        @ * 1 ; > > w d j Z G G G G G l 9 1 1 > 3 0.J.Y.H.Z.Y.Y.I.D.J.U.z.4 =                                   ",
"                                                          o @ ; 1 , 1 1 , < < 4 9 3 3 2 2 1 2 , 3 ) Y.Y.c.} P.Y.G.} N.Y.g.2 &                                   ",
"                                                            . , 1 9 y q 4 < 1 1 < < < < 1 1 8 t > N J.Y.e.p G.U.F.c 8.I.7.2 -                                   ",
"                                                            , ; g U Y U q - 1 > , 1 g F g 8 < > > i F.U.0.p D.Y.L.B ) s.5 - @                                   ",
"                                                          @ 1 d U T Y g < < h U q ; 9 F Y L D d > 2 v ^ c e } ) Q e 2 > > = .                                   ",
"                                                          @ - d Y Y F 4 1 d U $.T 9 , 9 g C J P d > - , : , > 1 1 1 - % X                                       ",
"                                                            - 9 l q 4 ; 2 H T $.&.g - , 1 1 2 t S b d 0 > - = o . . o                                           ",
"                                                            # , < , % - y l T &.%.F > 2 t 2 1 > < q H H 4 1 o                                                   ",
"                                                            @ , < 4 < , g d H =.%.U 2 2 D U C 8 < < < d 1 *                                                     ",
"                                                            % 1 z A < , S z z =.=...2 1 S Y R U z 9 < < , .                                                     ",
"                                                          o 1 3 P F - < G H z $.%.@.9 > S #...Y Y F 1 , # o                                                     ",
"                                                          @ > 0 ..G 1 2 y 0 d l S F t : l $.%.$.E U 9 1 o                                                       ",
"                                                          % - j $.z 1 q L D D G Y ' y > d %.=.%.=...y - @                                                       ",
"                                                        O - - F $.d 1 9 Z L Y o.' T q 1 d %.%.$.&.$.S 1 @                                                       ",
"                                                        % > 1 T X.g , 1 1 2 8 8 4 7 ; 1 d $.&.X.' &.Y ; *                                                       ",
"                                                      o 1 1 < T Y l > 2 p e 4 2 5 w > > S %.@.f ` %.' 2 -                                                       ",
"                                                      - 1 1 q O.Y t > { k.h.g.s.d.p.5 > C $.C t X.=.$.2 - .                                                     ",
"                                                    o - 1 - g $.` 2 > s.m.n.v.n.v.c.B , d S 0 ` %.$.X.9 -                                                       ",
"                                                    o - - 1 A $.U > 5 c.P.H.D.D.H.G.V - 2 8 I %.%.@.Y t ; o                                                     ",
"                                                    o < > > H =.X.y > 2.H.Y.R.R.U.B.6 1 g ' %.%.$.$...y - o                                                     ",
"                                                    . 4 > 2 _ %.$.b 1 4 3.B.H.J.V.[ > 4 H &.%.%.%.=.$.g 1 .                                                     ",
"                                                    # i 1 1 F o.$.O.0 < 2 4 m V e 2 2 z O.%.%.%.%.%.$.h , @                                                     ",
"                                                    # r 1 , 1 8 t h j 2 > : 1 - - 2 h U X.$.$.$.$.' P y , X                                                     ",
"                                                    % p u 1 ; 1 > - > 1 , , , 1 1 9 i d g y t 9 < 1 < ; 1 X                                                     ",
"                                                    @ p m r r 3 & @ @ & - - > > 1 1 1 1 1 < 1 , 1 , * @ o                                                       ",
"                                                    o 4 p e > #       o @ : > 2 r 3 > 1 e  .[ 4 < 1 * o                                                         ",
"                                                      @ 1 - X           $ - B c.K.8.4 2 , B A.k.p < <                                                           ",
"                                                                        1 > k.Y.P.P.m.) > 1 5.F.a.3 < o                                                         ",
"                                                                        * 1 V 2.8.h.n.w.> , > w > > -                                                           ",
"                                                                        . - ; 3 2 w y 4 , - - , - # o                                                           ",
"                                                                          o . # @ @ % % @ o   o                                                                 "
};
