/* XPM */
static char *result[] = {
/* columns rows colors chars-per-pixel */
"80 80 172 2 ",
"   c #000000",
".  c #060709",
"X  c #09070A",
"o  c #07080B",
"O  c #0B0B0C",
"+  c #110F0F",
"@  c #11100F",
"#  c #0D0E11",
"$  c #100D14",
"%  c #0F1013",
"&  c #151414",
"*  c #191615",
"=  c #171816",
"-  c #1B1916",
";  c #161618",
":  c #1A161A",
">  c #161819",
",  c #1C1A1B",
"<  c #201B17",
"1  c #211D1C",
"2  c #24221E",
"3  c #29241E",
"4  c #1D1721",
"5  c #1E1A21",
"6  c #221C24",
"7  c #211729",
"8  c #261D29",
"9  c #291E2C",
"0  c #2B1F32",
"q  c #252323",
"w  c #2A2522",
"e  c #2D2A24",
"r  c #262329",
"t  c #2A232D",
"y  c #2D2B29",
"u  c #302B26",
"i  c #312D29",
"p  c #33312E",
"a  c #39332E",
"s  c #2E2533",
"d  c #2F2933",
"f  c #312635",
"g  c #322936",
"h  c #322538",
"j  c #352B3B",
"k  c #392D3E",
"l  c #353433",
"z  c #3A3632",
"x  c #3E3A35",
"c  c #37313C",
"v  c #3A303F",
"b  c #3D3C3A",
"n  c #443D36",
"m  c #423E3A",
"M  c #45423C",
"N  c #4B443D",
"B  c #4E483F",
"V  c #362E40",
"C  c #3C2E42",
"Z  c #3D2F48",
"A  c #3C3144",
"S  c #3E3448",
"D  c #413446",
"F  c #43354B",
"G  c #48374D",
"H  c #44394C",
"J  c #463652",
"K  c #483753",
"L  c #463952",
"P  c #4A3A55",
"I  c #4D3B5A",
"U  c #513D5E",
"Y  c #4F3C60",
"T  c #503D60",
"R  c #444342",
"E  c #4B4643",
"W  c #4C4945",
"Q  c #4D4C4B",
"!  c #524D46",
"~  c #514F4C",
"^  c #555045",
"/  c #52514E",
"(  c #5A534B",
")  c #5D584F",
"_  c #4D4255",
"`  c #4F435E",
"'  c #51435C",
"]  c #535250",
"[  c #5E5A51",
"{  c #615B53",
"}  c #676157",
"|  c #6C6257",
" . c #67635B",
".. c #6B645D",
"X. c #6F685E",
"o. c #554362",
"O. c #584666",
"+. c #574965",
"@. c #594966",
"#. c #5A476A",
"$. c #5C4A6C",
"%. c #5A4770",
"&. c #5F4A72",
"*. c #64516F",
"=. c #614B73",
"-. c #655172",
";. c #675179",
":. c #6C547D",
">. c #6F587D",
",. c #715A7F",
"<. c #6F6A63",
"1. c #726B63",
"2. c #777267",
"3. c #7A7165",
"4. c #767068",
"5. c #7C756B",
"6. c #7F786D",
"7. c #7D7872",
"8. c #80776E",
"9. c #837B6F",
"0. c #847D73",
"q. c #877E78",
"w. c #878176",
"e. c #878378",
"r. c #8B837A",
"t. c #91897D",
"y. c #6E5680",
"u. c #705782",
"i. c #745A85",
"p. c #795A86",
"a. c #765A88",
"s. c #785A88",
"d. c #8E8781",
"f. c #948C83",
"g. c #979086",
"h. c #999285",
"j. c #9C958A",
"k. c #9F9C8D",
"l. c #A19887",
"z. c #A1978B",
"x. c #A39A8C",
"c. c #A49C91",
"v. c #A89F95",
"b. c #A7A091",
"n. c #ABA295",
"m. c #ADA599",
"M. c #B1A79A",
"N. c #B4AA9C",
"B. c #BAAD9E",
"V. c #B4ABA1",
"C. c #BAADA1",
"Z. c #BDB3A3",
"A. c #BEB4A8",
"S. c #C1B6A4",
"D. c #C5BBAB",
"F. c #C9BDAC",
"G. c #CABEB1",
"H. c #CDC1AD",
"J. c #CDC3B2",
"K. c #D2C5B4",
"L. c #D4C9B6",
"P. c #D8CBB6",
"I. c #D6CBBA",
"U. c #DACEBC",
"Y. c #DCD1BD",
"T. c #E0D5BF",
"R. c #DED4C1",
"E. c #E4D6C2",
"W. c #E6D9C4",
"Q. c #E9DAC5",
"!. c #E4DAC8",
"~. c #E9DBC8",
/* pixels */
"                                                                                                                                                                ",
"                                                                                                                                                                ",
"                                                                  . O O & & : & & @ O .                                                                         ",
"                                                          . o & ; : : : : 5 6 6 : & - - = & O .                                                                 ",
"                                                        + ; * * i H ' =.;.>.,.>.>.-.+.G h : * * O .                                                             ",
"                                                      & - 6 A *.u.i.p.a.a.s.s.a.a.p.i.u.u.-.D 6 & & X                                                           ",
"                                                  O & 5 A -.>.u.i.i.a.s.a.a.a.a.a.p.p.s.s.;.=.T k : & + .                                                       ",
"                                                & - s ' =.=.=.=.;.u.a.a.a.a.a.a.s.s.s.i.p.=.&.&.O.D 9 : @ X                                                     ",
"                                            . & : h @.&.&.&.=.&.=.u.i.i.a.a.a.a.a.a.a.a.u.=.=.=.@.I P s : & X                                                   ",
"                                          O * : S #.=.&.=.&.&.&.=.i.a.a.a.a.a.a.a.a.i.y.=.$.=.=.$.I I I k : * X                                                 ",
"                                        . & : k O.#.O.=.&.&.&.&.&.>.a.a.a.a.a.a.a.i.:.=.=.$.P @.k G I I I S 4 : O                                               ",
"                                      . & : k I &.$.f O.&.&.&.&.&.=.>.i.i.i.a.a.y.=.=.&.=.I k $.k 6 J I I I S , & X                                             ",
"                                      & ; j I T &.#.7 A $.&.&.&.&.&.&.=.>.u.y.;.=.=.&.=.$.s j $.o.< 7 P I I I V * ; .                                           ",
"                                    & * t P I T &.$.t 6 I $.&.&.&.&.&.=.&.&.&.&.&.=.=.&.' 6 A &.=.S : t P I I I h * ;                                           ",
"                                  O * 7 L I I I #.=.H : 8 +.&.&.&.&.&.&.&.&.&.&.&.&.&.$.j < I =.&.$.j : s I I I K t * +                                         ",
"                                  * : H I I I I O.=.@.r & 0 @.&.&.&.&.&.&.&.&.&.&.&.&.' : 6 #.$.&.=.$.g : j I I I J 6 -                                         ",
"                                & & j K F I I T T $.$.P 6 : t +.&.&.&.&.&.&.&.&.&.&.$.g , k $.&.&.&.&.$.H 9 H I I I k & & .                                     ",
"                              X * 6 P P 0 K I I I #.=.$.L 5 - 7 I %.&.&.&.&.=.&.&.&.I , , U &.&.&.&.&.&.$.+.I I I I P t & O                                     ",
"                              & , S I J 7 J I I P #.&.&.$._ 8 : , C +.%.&.&.&.&.&.$.8 = t $.&.&.&.=.&.=.&.&.&.T I I I H 1 & .                                   ",
"                            O * t I I S , F U K I #.=.&.=.$.o.S r , s K &.&.&.&.#.h : 6 o.&.=.$.&.&.&.&.&.=.&.o.I I I I f * O                                   ",
"                            ; : F I U g 6 J I I U =.=.=.&.&.&.&.%.o.U $.&.&.&.$.V : , H #.=.&.=.&.&.&.&.&.$.&.&.U K U I L 5 &                                   ",
"                            : s P I K : 8 K I I U $.&.&.&.&.&.&.&.=.&.&.$.&.@.s : , S @.$.&.&.&.&.&.&.&.&.&.&.&.T U P I P g , #                                 ",
"                        . & : S I I A : k P I I o.&.&.&.&.&.&.&.=.=.&.&.+.A q > , S $.&.=.=.&.=.=.&.&.&.&.&.&.&.T U I I I H : ; .                               ",
"                        . * r P U P t , H I I I T $.@.@.@.$.=.&.&.I S g 5 = : s I %.&.&.$.&.&.&.&.$.@.&.&.&.&.%.U U I I T I t - O                               ",
"                        O * C I I S : s K I I I K 0 6 1 6 8 F O.&.I C h h C G P I T &.&.=.#.o.S r 6 7 8 C +.=.=.T I I I I I D : O                               ",
"                        ; : G I J 8 8 J I I I K 0 6 6 : : * * 9 P +.I U I I I I I Y &.$.P s , * * , , 8 f H #.T I I I I I I K 1 ; .                             ",
"                        ; 6 K I k 1 S I I I I K K P H f , * * * 4 A P T U I I U T o.' A : * - - * t D K I U I I I I I I I I I 9 * X                             ",
"                      O * h I K 9 S I I I I I U U K 6 : : < : : - * , s I +.' +.' j : * , - - - , * 1 G I I I I I I I I I I I k : O                             ",
"                      O * D I J G I I I I I U I Z 4 : - ( 3.v.v.5.e : * - , 1 , : : * 1 4.c.N.c.X., - : k I I I I I I I I I I F : &                             ",
"                      % : H I I I I I K I I P C 1 * * B e.N.B.B.N.n.5.E y * + * y N 1.b.N.B.C.N.v...- - : k I I I I K K I I I J : &                             ",
"                      & : P I I I U J D K I C : * * - , 1 X.F.E.Y.H.S.N.m.x.x.c.n.M.S.J.P.P.A.5.e , : * * : h I I I F F I I I K 1 & .                           ",
"                      & 1 K I I I K K K K C , , , < 1 : : , m G.E.Q.E.Y.F.C.Z.C.D.U.W.W.W.L.^ : * - 1 1 < < * h I I I K I I I I 8 &                             ",
"                      & , I I P D F I I S , = q 3.8. .b & ; : z F.W.Q.Q.~.E.U.T.Q.~.Q.~.Y.M - : & p [ 2.1.y & : C I P U I I I I 8 &                             ",
"                      ; 5 I I K S F P G 6 & 2 0.0., & > - - = = u F.Q.Q.~.~.Q.Q.Q.Q.Q.T.M - = * - = * * 1.g.1 * , L I I I I I I 8 * .                           ",
"                    . & , L I P J P P g : - N 2., , p b p 1 & ; * ! I.Q.Q.Q.Q.Q.W.T.T.{ 2 = & , y b z 2 < ( { * : d P I I I I P 8 &                             ",
"                      % ; P I I I I S : - i f.y , W / ] ~ ~ W l , , x z.K.Q.Q.E.Y.N.( , - p W Q ] ] Q Q q w h.p : : F I I U I P 6 ;                             ",
"                      # * G P I I I s & ,  .e., l / / / Q ] ] Q R , w ! G.Q.Q.Q.K.^ q , b / ] ~ ] ] ] Q b 1 4.7., ; g I I I I J 1 $                             ",
"                      O * k I I I J , & 1 t.w.= R ] / ] ] ] ] ] ~ 6 E E.Q.Q.Q.Q.W.R.( , / ~ ] ] ~ ] Q ] W ,  .N., : 8 P U I I D < @                             ",
"                      X * f I I I g ; > , M.6.> Q ] ] / ~ ] ] ] R 1 ) Q.Q.Q.Q.Q.Q.E.5., b ] ~ ] ] Q ] ] Q 5 ) L.3 & , S P K I h : O                             ",
"                      . ; 6 J I P 6 * : q C.t.& R ] ] / ] ] Q W 1 w S.Q.Q.T.Q.T.W.W.Y.q , R ~ ~ ] ] ] ] W ,  .Y.2 - : g J F I 9 & .                             ",
"                        ; : H I J 5 6 , , k.M., l ~ ] ] ] ] x : * g.W.Q.Q.Q.W.Q.Q.Q.Q.M.= = p ^ ] ] ] ] b 1 t.Z.- - : s J K K , &                               ",
"                        # * j I H , j 7 : 1.J.x : R Q R l 1 - l l.E.Q.Q.E.r.( 8.K.Q.Q.W.B.M - 2 p b Q R 1 u F.r.1 , 1 s I I A : $                               ",
"                          * 6 J J 5 J j : n L.N.w , , : , l 5.I.W.Q.Q.I.) , , , E J.Q.Q.T.T.w.x , = > , w f.E.E : f t g I P 8 * .                               ",
"                          # * f H V I H , , 6.Y.m.4.[ w.N.K.~.~.E.Q.U.B = y W l , i K.Q.W.Q.W.L.N.t.} <.n.I.z.* - D S A I k - % .                               ",
"                            & : j K I P g , , M ^ 1.b.E.Q.~.~.~.~.W.t.< y Q / ~ l 1 X.W.W.Q.Y.K.E.E.V.4.( N , , t K I K A : :                                   ",
"                              ; : k I I P t : - > & * t.W.~.Q.W.W.E.N * W Q b W W , q E.W.W.D.l.J.n.- = = : : q P I I S : * #                                   ",
"                              O * > t I I I G F A 6 - z Y.W.W.~.Q.E.( : ; - : > , - y W.Q.Q.W.S.I.E - q j A G P I P h > : X .                                   ",
"                                  & * 6 A P I I I H , * { h.W.Q.Q.Q.J.<.N 1.j.w.( } D.!.~.Q.Q.H.1.* * S I I I P S 8 , *                                         ",
"                                    $ * , 9 D P I I 8 ; : w I.Q.Q.Q.W.E.U.T.Q.E.Y.W.~.!.Q.Q.W.Z.& - 6 H I P G t : : & .                                         ",
"                                    .   & & : 6 c P j * - w W.Q.W.A.E.Q.Q.Q.E.E.~.~.W.J.R.W.Q.J.& & s K A 8 * * >                                               ",
"                                        . O % * * , 8 : , x W.Q.D.y S.Q.~.Q.t.h.Q.Q.!.[ N Y.W.K.1 : 8 5 : * ; O .                                               ",
"                                              o ; & * & , a Y.Q. .2 h.Q.Q.~.2 p U.Q.E.p r Z.W.n.- * ; * & X                                                     ",
"                                              . % & - : : , n A.m 2 V.Q.W.Y.2 2 K.E.E..., g.} - & : * * O                                                       ",
"                                              o & 6 , & * : : 2 - - ! 9.b.V.2 w n.j.| a - , : - 6 * - * :                                                       ",
"                                            . + , S 6 , & ; - > : - - - 2 2 - , , 1 - * = , 8 d c * , s : & .                                                   ",
"                                            # , g o.s r & - : & * & = - - > : & - * * , r q 6 6 : = 7 ` t = .                                                   ",
"                                            ; , H ` c , : l j t & = , - : - = : - = = = ; : : : & = V o.S : &                                                   ",
"                                    .     # - j P s d : 5 A P F , & W n p q q 1 , 2 q , & q t j 6 = d s H t & O                                                 ",
"                                          ; * t ` @.g - 6 j H k : z m.M.N.V.m.X.j.V.V.E - g K K 8 - d @.I 7 * +                                                 ",
"                                        O & * * 5 d 6 : s s K f : ..J.D.J.D.V.j.B 9.U.8.1 t I o.j * , t , * * * o                                               ",
"                                        @ , z a 1 - & , S h P t & 6.D.Y.k.M 2 y  .b.W.h., 6 ' $.P : = - , x N , *                                               ",
"                                      O < W m.M.6.a , , P h H : , t.D.6., : > - 2 u J.N.6 , ' P ' - & x r.M.N.! , O                                             ",
"                                    . * < n.Z.B.Z.f.2 6 +.C A ; , 2.B - & 6 c t & , a w.- - G P _ 6 : d.C.S.D.x., % .                                           ",
"                                      @ 2 F.T.K.S.r., 8 @.P g * : : - , & : 6 : = : = & & : A F P t * 7.F.U.E.n.: &                                             ",
"                                      & - t.E.Q.E.f., d @.@.s : : 2 N k.x - , - p x.^ 2 , - j c P c = ..T.Q.Y.{ - O                                             ",
"                                      O = e g.E.E.X.- j #.@.g : z D.x.[ N.M.x.m.P.K.P.H...- t g I D - M I.F.( , & .                                             ",
"                                        O : q ^ ..y - A O.$.j : B Y.U.t.( W.E.E.R.H.K.H.q., t 0 ' L : 2 n u , & o                                               ",
"                                          # * - * & : A ` $.s : , r.N.1.p e.D.h.b  .M.h.- : q 4 O.I : = * @ O .                                                 ",
"                                          O * , 1 & : H #.&.t & - & * & - & , - - & * & : - 6 C O.' : & X                                                       ",
"                                            # * * = * g #.#.6 > z - & @ O O & & @ O & - l , 6 ' +.v : O                                                         ",
"                                              . o # ; = s _ , : = * >               ; * & * : _ s * & .                                                         ",
"                                                    o % : , > * * : & O           . = - * - = , ; & O                                                           ",
"                                                      o > > , , b.1., &           % - { m.u - * ; .                                                             ",
"                                                        & , E ( Y.H.1 *           & = S.Y.} ! - ;                                                               ",
"                                                        : < C.W.W.t., & .         & : 5.T.W.F.- ,                                                               ",
"                                                      . ; < 0.J.N.p & &           X ; 2 b.K.t., :                                                               ",
"                                                        O * - * < : @               % - , - : * #                                                               ",
"                                                          X # & & O                   O & : & X .                                                               ",
"                                                                  .                                                                                             ",
"                                                                                                                                                                "
};
