/* XPM */
static char *_26332e9ecbb4bf9d3c4f92fdec628e6qUPCikKQC9kBNJmi[] = {
/* columns rows colors chars-per-pixel */
"100 50 124 2 ",
"   c #031A5D",
".  c #081F62",
"X  c #0D2566",
"o  c #0F2669",
"O  c #10276A",
"+  c #142B6D",
"@  c #192E6A",
"#  c #1B316D",
"$  c #162D70",
"%  c #182F72",
"&  c #1A3174",
"*  c #1E3679",
"=  c #233B77",
"-  c #20377A",
";  c #243B7E",
":  c #293D7E",
">  c #2A417E",
",  c #263D81",
"<  c #283E81",
"1  c #274082",
"2  c #2B4284",
"3  c #2E4589",
"4  c #2F488B",
"5  c #314487",
"6  c #30478A",
"7  c #334A8D",
"8  c #384B8D",
"9  c #354D92",
"0  c #384F93",
"q  c #394F9A",
"w  c #375093",
"e  c #3D5497",
"r  c #3B5395",
"t  c #375399",
"y  c #3B519A",
"u  c #3A509B",
"i  c #3E5598",
"p  c #3F5699",
"a  c #3E549D",
"s  c #3E5599",
"d  c #3F589B",
"f  c #405395",
"g  c #40579A",
"h  c #40579B",
"j  c #40579A",
"k  c #41589B",
"l  c #42599C",
"z  c #435A9D",
"x  c #445B9E",
"c  c #445B9F",
"v  c #435C9E",
"b  c #435C9F",
"n  c #455C9F",
"m  c #435A9D",
"M  c #445BA1",
"N  c #445DA0",
"B  c #465DA0",
"V  c #465DA1",
"C  c #475EA1",
"Z  c #455CA2",
"A  c #465CA5",
"S  c #475DA6",
"D  c #465EA1",
"F  c #485FA2",
"G  c #485FA3",
"H  c #485FA5",
"J  c #485FA2",
"K  c #475DA8",
"L  c #4660A4",
"P  c #4960A3",
"I  c #4A62A2",
"U  c #4D62A1",
"Y  c #4E62A1",
"T  c #4F64A3",
"R  c #4A61A4",
"E  c #4B62A5",
"W  c #4A61A7",
"Q  c #4B62A6",
"!  c #4C63A6",
"~  c #4C63A7",
"^  c #4C64A4",
"/  c #4D64A7",
"(  c #4F67A7",
")  c #4B62A5",
"_  c #4A60A9",
"`  c #4A60AB",
"'  c #4D64A8",
"]  c #4E65A8",
"[  c #4E65A9",
"{  c #4F66A9",
"}  c #4E64AD",
"|  c #4F65AE",
" . c #4D65AA",
".. c #4F68AA",
"X. c #4F68AB",
"o. c #5368A7",
"O. c #5267A8",
"+. c #5067AA",
"@. c #5067AD",
"#. c #5066AF",
"$. c #5067AA",
"%. c #5168AB",
"&. c #5069AB",
"*. c #5469A8",
"=. c #5269AC",
"-. c #536AAD",
";. c #5168AE",
":. c #5269AF",
">. c #536AAE",
",. c #546BAE",
"<. c #546BAF",
"1. c #556CAF",
"2. c #536AAD",
"3. c #566DB0",
"4. c #576EB2",
"5. c #576EB4",
"6. c #556DB1",
"7. c #586FB2",
"8. c #586EB1",
"9. c #5970B4",
"0. c #5A71B4",
"q. c #5971B6",
"w. c #5E75B8",
"e. c #6077BA",
/* pixels */
"3 z ; ; ; 2 ; , - , 2 3 2 , , , < , ; ; , < 2 3 3 2 ; ; , < < , , q ` 9 | < , 2 ; ; > ; = = > > 1 1 1 , , , , , , ; ; 1 3 6 3 < ; , , ; e B 7 k , , , , , , , , ; ; 1 1 1 1 > > ; ; ; ; ; ; ; ; 1 1 3 3 ",
"2 z , , ; 1 - , 1 2 2 1 , ; , , , , ; ; , < 2 2 1 , , ; , , ; ; , q K 3 | < - , , ; ; ; = ; > > 1 1 1 , , , , , , ; ; < 3 3 2 , , , , - r x 7 p , , , , , , , , ; ; ; 1 1 1 1 > ; ; ; ; ; ; ; ; 1 1 1 1 ",
"2 B 2 1 ; 1 ; 2 7 3 2 , , , , , , , < < 1 1 2 2 ; , 1 1 < , ; , < u S 3 #.2 - , 2 1 ; ; > > > 2 1 1 1 1 < < < 1 , , ; < 2 2 1 ; < 1 < ; r x 7 k , , , , , , , , ; ; 1 1 2 2 1 1 ; ; ; ; > > > > 2 2 1 1 ",
"2 B 2 2 - , ; 2 6 2 , ; ; , , ; ; ; , , , , , , - ; < , ; - ; < 3 u S 3 @.3 - - 1 ; ; ; > 2 2 > : , ; ; ; , , , , ; ; , < < ; - , , , - r n 8 z , , , , , , , , ; 1 1 3 1 1 > ; ; ; ; ; ; ; ; ; 3 2 1 > ",
"1 n 2 1 - , - 2 < ; - - , , ; - - ; ; ; ; ; - - - ; , ; - - , 2 3 u S 3 @.3 - , ; - = > 2 2 ; - ; ; - - - ; ; ; ; ; ; ; ; ; ; - - ; ; - r B 0 x ; ; ; ; ; ; ; ; 1 1 1 1 1 ; - - ; ; ; ; ; ; ; ; > ; ; ; ",
"3 F 2 2 , 2 , 3 , , , 1 2 2 < , 2 1 1 < , , , , 1 1 < , , 1 3 7 3 a _ 7 6.3 , 2 ; ; 1 2 2 2 > ; 1 < , , , < 1 1 1 1 1 < < < < < ; < 1 < k E w B 1 1 1 1 1 1 1 1 3 3 3 3 1 1 : ; 1 1 1 1 1 1 1 1 ; ; > > ",
"2 z ; ; - , - , - - ; , ; ; ; ; 1 < , ; - - ; ; ; ; - ; , 1 2 2 , 0 B 3 E , - < - ; ; ; ; = - - ; ; ; ; ; , , , ; ; ; ; ; ; ; , - ; , , p n 7 e ; ; ; ; ; ; ; ; 1 < , ; ; ; ; ; ; ; ; ; ; ; ; ; - - - ; ",
"& 7 + + + & + $ + $ & % + + $ & * * & $ $ $ % & $ + + % * * & & + < 0 * r + + & & & & + + O @ & % % % % & & & & $ $ $ $ $ $ % & $ & & & 6 0 - 2 $ $ $ $ $ $ $ $ & $ + + + $ & & % % % % % % % % $ % & & ",
"- - - - - ; ; ; - - - ; ; - ; 1 3 . < - , , - - ; ; ; ; ; ; ; ; - , , , - - - , ; ; ; ; ; ; ; ; , * * , + - 2 , ; ; ; ; ; ; ; ; < , , , ; ; ; ; , ; - - ; , ; - < ; ; 1 - $ 7   * * 2 6 , ; , - ; ; - - ",
"{ { / ~ ~ ~ E E E P E ~ ~ P ~ %.3.7 -.~ +.,.-.,.+.+.+.+.+.+.+.+.{ { { ~ E E { +.E E E E P P P P E B E 0.n -.,./ +.+.+.{ { +.+.+.+.{ { { / / / ~ ~ E E E ~ ~ E F F z n P n p w.3 7.%.1.7.+.{ -.+.+.+.{ { ",
"3 3 2 < , ; ; ; < ; , < , ; < 3 z - e 3 1 < , 1 , , , , , , , , 2 < , , < 2 2 2 ; ; ; ; ; ; ; ; ; ; 3 n 3 w 6 ; , , , , , , , , < < < , , , , , , < 1 1 < , ; ; 2 , < 2 2 2 { - g 6 2 2 - , 2 < < , < , ",
"3 3 2 1 < , , , 2 1 1 2 2 1 2 7 ,.6 E 7 , ; - ; , , , , , , , , 1 < , 1 3 3 3 2 1 1 1 1 1 1 1 1 , 2 7 -.8 n 7 , , , , , , , , , < < < < , , , , 1 3 6 3 2 1 1 2 < , ; , , 3 3.< F 6 , , , , 2 , , , , , ",
", ; ; - - - - - , ; ; ; ; - , 3 E 1 z 2 - , , 1 ; ; ; ; ; ; ; ; - - ; 1 3 3 < - ; ; , , , , , , - < 2 { 3 z 3 - ; , , , , , , ; - - - - - - - - , 2 3 2 , ; ; , , - - - - 2 -., B 2 - , , , , - , , ; ; ",
", , , , , , < 1 1 , ; , ; ; 1 3 ~ 2 x 2 < 3 3 3 , , , , , , , , ; ; 1 3 3 3 1 ; , , , , , , , , ; 2 , { 2 n 3 ; , < 2 2 2 2 < , , , , , , , < < 2 2 2 2 , , , , 2 2 2 , 2 7 0.2 B 2 - 2 2 , 2 , 2 < , , ",
", , , , , , < 1 2 , ; , ; ; 1 6 %.3 n 2 < 3 2 , ; ; ; ; ; ; ; ; ; ; 1 1 1 1 < , ; ; , , , , , , ; 2 ; +.1 B 3 ; ; , < 1 1 < , ; , , , , , < < < 3 2 , ; ; , , ; - , , - - 2 -.* M < * < < , < < 2 < < , ",
", , , ; ; , , , 2 < , , , , 2 7 ~ 2 k 1 1 7 3 , , , , , , , , , ; ; ; ; - - ; < ; ; ; ; ; ; ; ; , 2 ; -.2 E 3 ; , , 1 2 2 1 , , ; ; ; ; ; , , , 6 2 ; - ; , , ; ; 2 2 < 2 7 5., H 2 - 2 < , < 2 3 2 2 < ",
"- ; , 6 < - 7 3 , ; ; < , - < 6 E 2 E 2 6 6 ; , , ; ; ; ; ; ; , , - - 1 * ; 1 ; ; ; : < 2 2 : = ; ; - 7., P 3 ; 2 3 3 2 - * - , 2 , ; 1 ; ; 2 - , , , ; ; ; , , * 6 , 1 * 6 3.; x 6 - - , ; 2 6 < < < , ",
", < - , - - 3 1 1 , , 1 < ; 1 6 E 3 n , < 2 - - 2 2 2 2 2 2 2 2 1 ; 1 3 1 1 ; - ; : > 2 2 2 > : 1 , < 1.3 B 7 , 3 3 3 3 1 , 1 2 , ; ; < ; ; 2 ; < , , , , , < 1 < 7 < 2 - 6 1.2 z 6 ; , 2 1 2 7 , , , , ",
"& * + & * & - & % $ + $ + + $ & r - 6 & % * $ & O O O O + + + + + O + + & $ + o @ @ & & # @ @ @ % + & 8 * 1 * + + + + O O O O + + + + + + + + + + + + + + $ % % * - + & O & 0 & , & + $ & % % & $ $ $ + ",
"+ - * < 3 < 2 - 1 < , , , ; , < 7 - 2 - * < ; ; 2 2 2 3 3 3 3 3 1 ; ; & 3 1 3 3 ; 1 2 2 > : : : 1 - < 7 2 2 2 - 3 2 2 2 2 3 2 2 < 1 3 < 1 1 - 1 , , , , < 2 2 2 3 2 - 2 ; ; 0 < 3 ; - , 1 , ; ; 2 2 2 2 ",
"0 +.E / -.E E E { { / ~ ~ / / ~ E k P E n +.~ E g k z x x x z z v v B w %.v F E ^ ( *.o.T Y Y T +.B ~ ~ ~ B ~ P n z k g k k g p g k F e n P 0 F { { { { { %.-.-.+.~ B { / F { P / P F ~ { ~ E P p p p p ",
"; p 3 ; 2 - , 3 ; ; ; - ; < , - < ; ; 6 ; 3 2 , < 1 2 2 2 2 1 < 4 r v 7 ..7 3 3 ; ; : : : = = = < - - - ; * - ; 2 2 1 < , , < < 3 3 0 1 r B 6 B , , , , , , 1 1 ; - - ; < ; - - , ; ; ; , , ; - 2 2 2 2 ",
"2 x 2 & , - - 1 , 1 1 , 2 3 3 , , , * 3 * 1 , - < 1 2 2 2 < , ; - 7 v 3 ~ , * - < ; : < > 2 > : < 2 , 3 2 1 - 2 ; < 1 < , ; < 2 1 ; 2 * 0 F 2 B 1 1 < < < 1 1 2 , < < ; 2 3 ; < 2 2 2 < < 1 1 < - - - - ",
"2 n 2 - 6 2 ; , ; , , ; < 3 3 , 2 2 * 3 * 2 2 , , < 1 1 < ; - - , r E 3 ..2 , 2 , ; = ; < 2 : : - 2 ; 6 2 2 * , - ; < , ; ; 1 3 6 1 3 * r / 3 E , , ; ; ; ; ; ; - , ; & ; 2 - < 2 1 , ; - ; , ; , , , < ",
"- / 1 - 3 - 2 ; ; , 2 3 3 2 , ; - ; ; ; ; , , ; , , , , , , , , ; r M 3 <.2 * - , , < : : < < < 2 2 2 2 , , , < , , , , , < 1 2 , 1 ; - p p 2 n - - - ; ; , , < , , < , - - 2 7 1 < , , , , < 1 , , , < ",
", / 2 - 3 - 2 ; , 1 2 3 3 2 1 , 1 2 2 1 < < < , ; ; ; ; ; ; ; , < u  .3 0.3 , < , , < < : < < < 6 3 2 < ; ; , , ; ; ; ; ; , , < 2 2 < , k x 6 B < < , , , , , , 1 < < 1 2 2 3 3 , , ; ; ; ; , , , , , , ",
"2 F 2 - < * < - ; , , , , , , ; ; ; ; ; ; ; ; ; - - - - - - - - , 0 | 3 0., , , ; ; ; ; ; ; : : 3 2 ; - - ; ; , ; - - - - - ; ; , ; - - r z 7 z 2 2 1 , ; ; ; ; , ; ; , 2 3 2 , ; ; - - - - ; ; ; ; ; ; ",
"7 n 3 ; 1 - 2 ; , , , , , , , , ; - ; 1 2 < < 2 < < < < < < < < 2 0 3.4 q.- 2 , < < < < < < < < 2 < ; ; < 2 2 1 1 1 < , , , < < < - ; ; r P r x 3 3 2 2 < , , , , , , , 2 3 2 , < , , , < < 1 1 1 1 1 1 ",
"6 w 2 - ; - , - , ; ; - - ; ; , , ; , 2 3 < , 2 ; ; ; ; ; ; ; , 3 0 6.9 { * 2 , , , , , ; ; : ; ; ; ; ; , , ; ; , , , ; ; ; ; ; < - , , w P p z < , , ; ; ; ; ; - , , - - , , - - ; ; ; , , , , , , , , ",
"- - & $ $ & & + & & & % % & & & & % & - - % $ & $ $ $ $ $ $ $ $ * , 0 , 3 + % $ & & % % % % % % % & & % + + + $ & & & $ $ $ + $ & + & & - 7 2 2 $ $ $ $ $ $ % % $ & & $ + & & + + + $ % & & & % % $ $ $ ",
"2 ; , ; - 1 , - ; ; ; ; ; ; ; ; - * - 2 3 ; - 1 , , , , , , , , , < 3 < < , - , , , < , ; ; ; ; - ; ; - * * , 3 3 2 2 < , , , , , * 2 - - 6 2 2 ; ; ; - - ; ; ; - < , - - < - $ ; , , 1 2 2 2 1 , , , , ",
"/ z ~ E F %./ B B B B B B B B B n k B ,.7.-.-.0.+.%.+.+.+.+.+.+.E _ E _ S  ._ | ~ ~ ~ ~ ~ ~ ~ P k n B z p x -.e.7.3.1.-.-.%.+.+.+.P 7.~ x { ~ P / ~ ~ E ~ E ~ E B E F n E { z 6 { %.-.,.1.1.1.,.-.%.%.+.",
"1 2 2 3 2 2 < , , , , 2 2 ; ; ,  .2 z 2 - ; ; , 1 1 ; ; ; ; ; ; < < < < < < < < 2 2 2 2 2 < : ; , 3 1 -.2 L 7 3 ; , : 1 1 < : : : : : : : : < < : : : ; = ; 2 5 < < , , , 2 %.- z 3 1 3 2 1 1 ; , , , ; ",
"< 1 2 2 2 2 , , 1 , ; , , ; , 2  .3 z 2 - ; ; , , , 1 1 1 > ; ; < < < < < < < < 5 2 2 < < < < < , 3 , -.1 B 6 2 ; , : : : : : : < : : : : : : : : : : : : : 2 5 < , , ; , 2 %.- z 3 < 3 2 < < ; , , , , ",
", < 1 2 1 < , ; < ; ; ; ; - , 3 { 2 x 2 - ; ; < ; < 1 1 2 1 ; ; , , , < < < 1 2 3 2 < ; ; ; < < - < , -.1 B 3 , , , ; ; ; ; : : 2 2 < : : : : : : : : : 1 2 2 2 < ; ; ; , 1 +.- z 3 , 2 , , < ; , , ; , ",
", , , < , , ; ; , ; ; , ; - < 3 { 3 x 2 ; , , < 1 2 1 1 1 > ; ; ; , , < < < 2 2 2 < < ; ; ; < < - < - -.2 B 3 ; , ; ; ; : : < 2 2 2 < : : : ; ; < : ; < 2 2 2 : , ; ; ; , 1 +.- z 2 ; , ; ; < ; , , ; ; ",
", , , , , ; ; ; - ; < 2 < ; , 3 { 3 M 3 ; , , 1 6 3 1 ; ; ; ; ; ; ; ; ; < < 2 2 < < < < < < ; ; , 2 , -.2 L 3 ; ; ; ; : : 2 5 5 2 2 < : : ; ; ; : : : < 2 2 < ; , ; ; ; , 2 %.; z 2 - , - ; , ; ; , , < ",
", , , ; ; ; ; ; - , 2 3 2 ; , 3 | 3 B 3 , , , 1 6 3 1 ; = = ; ; < ; ; ; < < < 2 ; ; < < < < < ; < 3 , -.3 E 3 , ; ; : : 1 2 5 5 2 1 < : : ; ; ; : : : < 1 1 : : , ; ; ; , 2 -., z 2 ; , ; ; , ; ; , 1 2 ",
", , , ; ; ; ; ; < 2 3 3 1 ; < 6 { 3 M 3 , , < 1 2 1 ; ; ; ; ; > , , , ; ; , < < , , , , , , < < 2 3 ; X.2 E 6 , ; ; : < 2 2 2 2 < < , , , , , , ; , , , , ; ; , , , , , 1 3 ,.< z 3 ; 1 , ; < ; , < 2 3 ",
"< , , ; ; ; , , 2 2 3 3 , - 1 7 { 3 M 3 , , < 1 ; ; ; ; > > > > < , , ; ; ; , , < , ; ; ; , 2 2 3 3 - { 1 L 3 , ; ; < 2 1 < : : < < , , , , < , - , < , - - ; , < , , , 1 3 1.< z 3 , 2 , , < ; 1 2 2 3 ",
"+ - O o & + + & * * & $ $ $ % & 9 3 - & $ $ $ % + + O O O O O O + & + + O & $ + $ $ + + $ & & * % % * 2 3 ; & % + + + + + + + + + + & o + $ X & $ $ $ $ $ $ $ $ + + $ & - ; , < * & + + + $ $ + + + + + ",
"& 7 2 3 0 2 2 6 7 6 3 3 3 2 3 3 0 9 3 2 2 2 3 3 8 8 8 8 8 8 8 8 0 7 3 - 3 6 8 6 3 3 3 2 3 3 3 6 3 3 3 0 0 4 2 2 8 8 8 8 8 8 8 8 7 7 0 3 7 0 2 8 3 3 3 3 3 3 3 3 3 3 6 6 6 7 7 7 8 6 3 3 3 6 3 3 0 0 0 0 ",
"7 -.{ { 1.P E { ~ E E E P P P F B B B B E E E E p e e e e e k k ~ n P 7 ..v ~ v E E E E E P P P | S B B B B B F e e e e e e f e e e d r B E r B ~ ~ ~ ~ ~ ~  .~ / / ~ E E P F F z z k z z x k g r r r r ",
"- r 3 ; 2 - , 2 , , , , , , , ; < < , , , , , ; 2 2 1 1 1 3 3 6 4 4 B 1 <.3 7 1 , , 1 1 1 1 , ; 3 1 - - - , < 2 2 2 2 2 2 2 2 2 3 2 4 4 d E r z , , , , , , , , , , , , , , , ; < 1 2 3 3 2 2 1 1 1 1 1 ",
"7 n 3 - 1 ; < 1 , , < 1 2 2 < < 6 3 3 2 < , , , , ; = ; ; ; 1 1 - 2 E 1 <.* - * , , 1 1 1 1 1 1 3 1 , , 1 2 3 3 ; ; ; ; ; : : ; , * , 1 e B w p , , , , , , , , , < < < < < < < * - - ; ; - - - ; ; ; ; ",
"2 z 2 - 2 , , - ; ; ; ; , , , , 3 2 , ; - - ; ; , , ; ; ; 1 1 1 2 r -.3 3.- 1 3 - - ; ; ; ; , , - , , , 1 2 2 , , , : : : : : < 2 , 2 2 e B w p ; ; ; ; ; ; ; ; , , , ; ; ; ; - < 2 3 3 3 2 2 2 < < < < ",
"2 n 7 , 2 , , ; < < , , < 2 2 3 < < , , , , , < ; ; ; ; ; ; ; ; ; 8 z , { * * 3 1 1 , ; ; , , 1 , < 1 1 2 3 2 , ; ; ; ; : : : : 2 < 3 3 w M 0 d < < < < < < < 1 < < < , , , ; ; ; , 1 1 , - - ; , , , , ",
"3 E 0 ; ; - , < 1 < , , < 2 3 3 , , , , , , , , ; ; ; ; ; ; ; ; , w z 3 3.2 - 6 2 1 , ; - - ; , , 2 2 2 2 3 2 ; , , : : : : : : - - < < 0 z 0 v , , , , , , , , ; ; ; ; , , , , 2 2 3 2 1 , , < , , , , ",
"7 ~ 2 < ; 1 ; < < < < < < < < < < < < < < < , < 2 1 < ; < < < , < t L 4 <.7 2 : : : : : < ; , , , , , , < , , ; < < < < < < < < , , , ; r B 0 z 2 ; 2 7 2 < < ; : < < < < < < < 3 < ; < < ; ; < < < < < ",
"7 ~ 2 < ; 1 ; < < < < < < < < < < < < < < < < < 2 1 < ; < < < , < t L 4 ,.6 2 : : : : : < : , , , , < < < < , ; < < < < < < < , , , , - r B 8 z 1 ; 2 7 2 : < : : < < < < < < < 3 < ; < < ; ; < < < < < "
};
