/* XPM */
static char *result[] = {
/* columns rows colors chars-per-pixel */
"80 80 237 2 ",
"   c #180C05",
".  c #1C1605",
"X  c #251E06",
"o  c #291F07",
"O  c #25150A",
"+  c #28190A",
"@  c #2B1A0C",
"#  c #311D0E",
"$  c #281B12",
"%  c #341D11",
"&  c #3C1E17",
"*  c #1E2403",
"=  c #1E2903",
"-  c #222405",
";  c #242907",
":  c #2C230A",
">  c #2B2A0B",
",  c #35220E",
"<  c #3A250E",
"1  c #312C0D",
"2  c #3B2A0F",
"3  c #2B3609",
"4  c #34340B",
"5  c #373A0A",
"6  c #343C0A",
"7  c #2D2214",
"8  c #2E2C12",
"9  c #332213",
"0  c #3C2612",
"q  c #3E2912",
"w  c #392818",
"e  c #2F3518",
"r  c #333614",
"t  c #3D3312",
"y  c #3B3B12",
"u  c #392925",
"i  c #3C3826",
"p  c #411F1A",
"a  c #402714",
"s  c #432A15",
"d  c #44241B",
"f  c #4A261D",
"g  c #452C19",
"h  c #4C2C1C",
"j  c #512E1F",
"k  c #443315",
"l  c #443D14",
"z  c #493916",
"x  c #45321B",
"c  c #4C331D",
"v  c #4C3A1A",
"b  c #51341F",
"n  c #523A1D",
"m  c #492620",
"M  c #4D2B22",
"N  c #542E23",
"B  c #582E26",
"V  c #582F28",
"C  c #4D3322",
"Z  c #493725",
"A  c #553223",
"S  c #583025",
"D  c #543B23",
"F  c #573927",
"G  c #5D3429",
"H  c #5E392D",
"J  c #493C33",
"K  c #5C3B33",
"L  c #593D37",
"P  c #60342B",
"I  c #61392E",
"U  c #693F2E",
"Y  c #633C32",
"T  c #643B34",
"R  c #693E35",
"E  c #37410A",
"W  c #3B4714",
"Q  c #3D4324",
"!  c #444C0C",
"~  c #48530B",
"^  c #434213",
"/  c #494619",
"(  c #534516",
")  c #505317",
"_  c #4A4623",
"`  c #574729",
"'  c #5A412C",
"]  c #58522A",
"[  c #5A4738",
"{  c #525136",
"}  c #67472C",
"|  c #6B442E",
" . c #68532B",
".. c #654135",
"X. c #6B4333",
"o. c #6B4A37",
"O. c #65453A",
"+. c #6B443B",
"@. c #634B3B",
"#. c #714B37",
"$. c #68533B",
"%. c #745433",
"&. c #785838",
"*. c #56642B",
"=. c #71712D",
"-. c #7D633A",
";. c #5B4F44",
":. c #5E5149",
">. c #634C42",
",. c #6D4B42",
"<. c #724C44",
"1. c #754F48",
"2. c #695747",
"3. c #745146",
"4. c #75524A",
"5. c #7A554E",
"6. c #765849",
"7. c #695A53",
"8. c #785954",
"9. c #7C5B54",
"0. c #706448",
"q. c #6B6859",
"w. c #786459",
"e. c #6F7158",
"r. c #7A7658",
"t. c #7C6A65",
"y. c #7C7667",
"u. c #835B3B",
"i. c #856A3C",
"p. c #8D7A3C",
"a. c #805C46",
"s. c #815D56",
"d. c #866749",
"f. c #8D7544",
"g. c #8B6B57",
"h. c #83635C",
"j. c #887259",
"k. c #937757",
"l. c #856761",
"z. c #856B63",
"x. c #8A6B64",
"c. c #8E6F69",
"v. c #8D726B",
"b. c #847868",
"n. c #957B67",
"m. c #92746E",
"M. c #8A7A75",
"N. c #937771",
"B. c #957A73",
"V. c #967D78",
"C. c #997E79",
"Z. c #7C8563",
"A. c #9A8549",
"S. c #9B8554",
"D. c #A29055",
"F. c #99856B",
"G. c #898375",
"H. c #948379",
"J. c #9C827C",
"K. c #8F9073",
"L. c #A79767",
"P. c #A58B74",
"I. c #A58B7B",
"U. c #ADA173",
"Y. c #8E8B81",
"T. c #9B8B84",
"R. c #988B87",
"E. c #9A958A",
"W. c #9D9891",
"Q. c #A38A83",
"!. c #A28B85",
"~. c #A58E8A",
"^. c #A59685",
"/. c #A4948C",
"(. c #A9928D",
"). c #B19A8C",
"_. c #AB9591",
"`. c #A69B96",
"'. c #AD9A95",
"]. c #B09A96",
"[. c #B29D99",
"{. c #9FA295",
"}. c #AAA789",
"|. c #ABA599",
" X c #B7A796",
".X c #B4A29C",
"XX c #BCB59E",
"oX c #ACA8A2",
"OX c #B6A8A4",
"+X c #BAAAA5",
"@X c #BCADAA",
"#X c #B6B5A8",
"$X c #BCB3AD",
"%X c #BEB7B4",
"&X c #C5BC9C",
"*X c #C0AFAC",
"=X c #C2B2AD",
"-X c #C4B8AC",
";X c #C4B5B2",
":X c #C4BAB4",
">X c #C8BAB5",
",X c #C6BCB9",
"<X c #CBBEBB",
"1X c #CCC1A7",
"2X c #D1C7AB",
"3X c #C4C1BC",
"4X c #CCC2BD",
"5X c #D3C9BA",
"6X c #CCC6C3",
"7X c #CFCAC6",
"8X c #D1C5C3",
"9X c #D3CBC5",
"0X c #D9CDC5",
"qX c #D4CCC9",
"wX c #D9CFCD",
"eX c #D8D5C7",
"rX c #D4D1CC",
"tX c #DAD3CE",
"yX c #DDD4D2",
"uX c #DDD8D5",
"iX c #DCDAD7",
"pX c #E2DCCD",
"aX c #E0D7D5",
"sX c #E1D9D6",
"dX c #E3DDDB",
"fX c #E4E1DE",
"gX c #E9E4DD",
"hX c #E6E3E1",
"jX c #E9E5E4",
"kX c #ECE8E5",
"lX c #EEECEA",
"zX c #F1EEED",
"xX c #F3F1EE",
"cX c #F5F4F3",
"vX c #F8F7F6",
"bX c #F8F8F6",
"nX c #FEFDFD",
/* pixels */
"qX!.S S B B D U.lXe.< < q 9 I S B S G S S S S S B S S S G K G P s.I kXnXnXfX$X:XiXnXvXcXcXbXnXnXnXnXnXnXhXs 3XnXeXw.I G S S S S S B S G G S G N G S P N.nXnXnXnX",
"G Y ,.O.+.+.P *.#X] 4 3 *.r.] v F #.8.,.I B B V S S B I G V G I aXx.bXnXnX%Xx < ` hXw.` =.=.cX%X3XnXnXnXlXs +XkXdXB.Y S S S S A S S S G G S N S N B P J.cXhXnXnX",
"+.>XzX9XsX$X,.e.W 6 W K.eXfX#X2.@.=XbXxX.X8.<.<.4.<.3.5.9.l.m.~.cXnXnXnXbXE.2.2.|.j.s s v =.`.|.nXnXnXnXxXq ..+.O.I S S B A S S S S S P B N G S S S P J.<XJ.cXnX",
"<XnXnXnXjXq.w w 3 y {  X2XXX5XF.^.pXkXnXnX>XQ.Q.C.C.C.C.I.!.(.[.[..X.X`.}.oXuXjXzXs s S S f.3.xXnXnXnXnXxXa A S G N S S S S S B S S S P G N N B S S G 9.R.sXnXnX",
"C.8XlXfXq.$ # a < h F ' $.] &.i.f.S.L.5XxX,.T T I I G G G G G P H H F x x F 7.jXzXj s B S X.p.L.U.5XnXnXbXg V B N S S S S S A B G G S G G N S N S G I z.,X].I.C.",
"P ..B.w.9 # h $X2.s S S A W S G S I i.F.OXG G G B B S S S S N S A P G a s h g @.zXN s B S B G I U L.xXnXnXY P B S S S B S B S G G B G P P P P G G P R (.c.I I R ",
"S S A h @ h B ;XR.d S S b l N S A B %.-.%XV H G S S S S S S S S I G N s s S S h zXj a N B S S S V k.zXnX8X,X<.P I 1.I P G G I <.s.P G R 1.#.<XzX=XP R ].5.G B Y ",
"S S N h # h A A A h S S z l S S V A } o.yXI G V B S S S S S A B S B S h j S S A zXb a N S S B S P h.jX[.$XvXkX@XwXcX8Xm.s.5.m.dXcX9.Y C.z.m.jXzXwX+.<XtX+.B N Y ",
"S S N j # M A A v x ` c A l S S S S G %.E.F G V S n n S S S S S S S S G P S N b OXA h B S S B S G 5./.T C.B.N.m.m.C.C.Q.~.[.dXcX*XB.9.@.' @.2.1.O.w.nXwXY S A T ",
"S S S B % N S S A H G S S l S S S S S %.@Xt.L V n ^ ( S G G G S S G G P P S G S 9 ..S B S S S G Y l.>.G B B G S G B G G G I [.8X+.S G S B S A j s G kX8XI S B ..",
"S S N N # m S S H G S S A l S S S S B %.jXxX,X[ ~ y E l S b k h S S S G A S G I @ w.G S B B B Y _.aX9.N S S B B N N N S B T (.<X+.G S S G G g s a G 9X*XG B A T ",
"S S G B % m B A G A S S S l B S S N B %.dXnXlX:.l E 5 W g 4 6 y N S S A x A I M /.OX8.T I R 5.>XvXvXB.G S G P V G P P G G P Q.0X+.S S P H A 0 < 0 P ;X*XP B A Y ",
"S S S S 9 T S B S N S S S y S S S S G } iXnXlXq.o 3 0 { *.K.`.E.^.T.T.#XdX|./.3XnXnXcXkXdXlXzXnXnXnXvXkXjXhXdXsX~.(.aX<X].[.gXvX8X=XOXQ.(.Q.G.b.b.B.fX,XP B B I ",
"N S S S 9.].G V S S S S S ^ S H G S G T 3XZ.W X ; 5 E [ %X}.fXnXbXnXnXnXbXnXnXnXnXnXqXT I T I I R R +.X.#.&.4.a.&.a.g.k.n.n.n. XxXnXzXwXnXnXnXfXdXbXnXwXY S S T ",
"S S S G C.0XP N S S B S G l I H V S G V _ 3   . 4 E E 6 h E y k x c c D Z F ` [ 2.yX,XV G H P G S S S S B S G P V B S S B B P U ).5Xk.n.nXnX:XD h A w.z.R S A Y ",
"S S S P B.zXI G S S B G B / H S S V G G %Xi   O l ! v ~ b W ! q N G S h a A B A I Q.>XI G S P G N S S S S S N G B B S S S B B P S P j 0.nXhX2.c A G [ qX<.S S Y ",
"S S H G c.cXY P P P G G P F H Y +.#.T l.hX$   O A ) n n N b ( s G H N A s A S S P N.*XR B B P P S S S S S S B S S S S S S S S G S S j $.vX(.A N G H +.yX5.S S Y ",
"S I G S h.cXX.P P G G G B j B.(.'..XT.sXcXu O > C D S N N G S c G S S N h N B B P s.jXs.G B P G S S S B S S S S N S S S S G I S S S P $.hX#.G S G G ..9Xx.G S I ",
"S G S S h.xX4.B B S S B B S n I Y Y Y 4XV.F c C C B S S B S P b A S B N h N S A P 5.nX;XU P P G S S G S S S S S S S S S G G b S S S V @.<XP B S S B T ,Xc.S S K ",
"S S S S 9.xXm.B A S S A B B ^ S B B G L u D D A h S S S S S G s N S B B j N S S G 5.nX8XR P P P G G I S N S S S S S S S I c y S S A P @.8XV B B S N T +Xc.S N T ",
"B B B G 5.zXyXP H H B B A B A A S S ..J.G.n A A g V A A S S A d N A B S S S G B P 8.nXwX#.P P P I T B G N N B S B A B c c c 4 A S ! n ` wXI B B S S T '.x.S S 1.",
"G B G P 5.zXcXw.3.3.,.<.1.1.3.] +.9./.#X0.@.G S g V S S N S B h A B S S B I I S P 9.nXdX<.P P P Y G G B B G S B A A A A 4 g ; s V Z ~ W M.h.R I G G s.yX~.I 3.yX",
"s.h.c.B.[.yXN.H z.c.v.B.J.~.'.^.^.{.` v 0.uXQ.h.[ 3.I 9.9.9.9.6.9.9.h.5.O.9.g.c.c.;XnXvX.XJ.J.C.C.B.B.N.N.N.N.x.l.2.r 3 w > = Z :.m E 0.yXhX;XOX]..XzXnXjXJ.tXnX",
"zXcXvXvXnX,X,.R +.+.,.,.+.,.4.9.-XG.@.O.h.nXnXlXY.V.m.wXwXuXaXdXhXjXjX'.8.(..X X*X1X2X2X2X2XpXbXnXvXzX>X.X*XvX+X}.|.Q * * = e K.Z.; i iXnXnXnXnXnXnXnXnXnXnXnXnX",
"=X*X*X+X.X XI.I.Q.I.I.).I.^.).I.}.=XpXaXlXnXdXN.@.T ,.1.4.4.5.5.9.s.h.].9.I U P M X.#.&.i.A.D.&XnXnXjXh.R Y m.<.T ..'  .^ > E.kX{.e 8 b.!.~.(.(.(._._.'.].].].OX",
"Y I I I U P Y U | #.N S #.u.u.u.i.a.0XnXnXyX4.R C V B B B G P P P P +.].R B B B N S S S G | i.A.&XnXnXzXv.G Y G S S G t y Q lXnXbX{.; c G G I G G P P P P P U X.",
"G N B B P P j S S I & p I G B G P P +.aXvX1.P P g N S S S S M 0 0 a a c G S B B S S G H S S S %.U.nXnXnX8XY S S S S N A 1 2.nXnX{.Z 0 0 N B A S G I S B B B B R ",
"G G P B B P P B S S G P P N S S N B B P gX+.G N s h S S S B q s q G G G P S A B A G H S S S S } L.nXnXnXyXS S S S S S N t r.hXy.w < A g N A B S H S N B B B G R ",
"P G S S S P P B S j P G S N B S B S S P tX#.G N s q B A B N g H s B A S S S S S G I S S N S n I L.bXnXsX,.S S N S B A A D &.:., q < A N A A G I S S S S S S G R ",
"I S S B P j j S N j B N S S N G S S N G 8X<.G N g B S S N c G S j S N S S B S S P S S S S S S G L.gXzXc.B S S S S B A G I ` + 0 s < N A B G G S S S S S N S S R ",
"S N S S S s j S B N G G S S N N S S G I *X1.V B M N A S V h A B B S S S S S S N S S S B S S A I k.m.J.m.G B A B S S G I v v - g B 0 B S S S S S S S A S B S G R ",
"G N S S B s h j B S N N S S G N S P G P '.1.G B h A S S F g N A S N S B S S S S S S S S S S A H k.z.<.~.H S B S A G K A 3 8 + x G s A B A S S B A S B S B S I R ",
"S S S S S s A G N S S S B N S N I G B G V.c N S j B h j j s B B S S S S S S S S S S S G N B G Y g.v.H ;X..S S S S z l c 3 : > g G S S S S A N N B N B S G I P R ",
"G S S S G g c S S S S S S G N G G S S G 8.g h B B B a < < s S N S S S G H S A S S B S N S P U S d.v.G <X+.N b b S z E k = o : > 3 q P P P G G G P P P P U P P R ",
"G N A S T w h A S S S N G N B G G G P P B 0 g G B B s < < s N G S S G H B B S S N N S S S G S G 9.B.S 4XH.5.$.*.~ E l Z * - ; 8 A T V G G B B S S S G U P P I ..",
"S b A G H 0 A S S S S B P P P P G P G P B d A H P S a < < a N B B G H S B G G S G S G S S G G P s..Xh.sXkXeX5X3Xr.Q 7 [ - * > w A B P P G N S S S S B B P F ~ ..",
"S E v v Z Z A A S B G P V V B B G P B M m m K G S S j < < < s j j S j j A S N A j h d f M l.m.C.+XnXbXcXx.Y S S b s 2 a < 9 [ F G V S P P S S S S N S S A A ! ) ",
"5 6 t ] |.tX' G G X.m.<.P V G B N K N.OX,XM T S S S N < < a j a < a a < h h j S A j < , # N.I.J.C.T.7X/...S S S N s 5 2 q q M.R.R G G P P G A s s h g g h 1 3 W ",
"> ; 4 Z.rXnXrX4X8XuXT.$X<.,.K R.8XhXvXnXlXM P B B j s < < a j a j j j a < s P S G I A s 0 S A G P B t.O.G S A B S b k < , w W.cXdXqXqX9X9XwX$X%X9XeX4Xe.e.e.W Q ",
"; * * ; r W ' K ,.5.R 4.9.s.N.I.(.'.R.7.L # s N h < < < < < j s N B j a j G S G Y S N B s 0 < 0 h h C N S S B S N S l 2 O w R.nX,X@.F F R ' ..Y ' [ ;.M.%XoXe {.",
"{ * - , A G G G P I G S P G P P G P g a a o < j a < < < q x j a N G N B B P P I S S S S A s , < s V C A S S S A B A ^ < O 0 Y.;X..P G j G I S S N h O < g q { bX",
"y.* 4 t c B S N S S S S S S S S V V a < 2 X o , : , , q g N G s N N S S N P P S S S A S N N < < 0 M 4.S S B S S S A / g @ 2 ;.O.P S S S I S S S B j O 0 A t 3XnX",
"|.8 3 g S S S N S S S N N S S S V G s < 2 . o o X o : g s G B f N B S S B P S A S S N S a < 0 < q [ v.S S A S S G H ^ S N 0 # B S S S S G S S B N j # a S x iXnX",
"rXr s g S B N G S B S P S S S A N M a , < . X o X o 8 < q A G s N N G N N P S ) N S S N s q x < a [ J.S S B S S I A v A f s # S S S S S A S B A B B < s G c dXnX",
"bXT.N c G S S S S B S j S S G C 0 < < , < . . - X X o @ < s B h S S n v b G D ~ b b h s g g < 2 2 ' H.H S S S G S b v S M f # B S S S S S S S S S N h S S c fXnX",
"nXuXA S G S S S S B S S S H G h < , < 1 : - . : o o o o < a N q j G ' ~ l n ~ E 5 5 0 t W 4 0 q # Z R.V S S A S S z A S B h % S S S S S S A S S S G I G A A fXnX",
"nXkX<.Y G S S S B B N G G B S q 2 2 0 w q.q.. : 8 : o o : < h f P Y G E E 4 5 E 5 5 2 E 5 q q + , q l.G A S S S A c S S N h % I S S j N S N A S S I S S N H hXnX",
"nX%Xw.C.x.h.s.5.5.1.<.<.1.5.9.[ J b.fXbXcXoX8 `.fXdX7XiXfXfX9XR.J qXqX%XK.oXE./ : - 4 Z y.R.;.x x Z M.R S S S A v A S S N h L 9.<.<.O.@.<.<.<.<.5.5.5.9.s.b.zXnX",
"tX+X6XyXaXsXdXdXgXzXnXnXnXnXzX_.P.P.kXaXm.D t 2.j.0.n.}.XX}.w.C @.t.nXnXzX6XK._ t 2 2 z r.U.}.&X X#X+Xo.S S S n c S S S S ,.<XnXvXzXkXjXgXhXkXlXlXxXnXcXdXiXsXdX",
"G s A G P P R ..,.l.aXnXnXcXx.G I &.hX+XX.b F k I n v z k z z ( ( 9 cX3X7./ n n g s 0 s s ' | &.i.f.@.F b b v b S S S S G #.yXkXJ.h.2.@.[ $.@.$.2.t.@X3X' F T O.",
"S j A S B G G G U Y N.vXnXB.G G S X.^.Y N j j g h j j j h < g j z z rXZ a c G G B N a s a A S S P i.@.S A b A S S S B B V R yX*XR G A < s g q @ @ d 5.'.j A G +.",
"B S S A G N N H P P s.kX;XP G B S S G S N G f h S S B N N N N S N ( R.< a S H A B N s h h A S B H %.' S S S B S S S S A G ,.8XB.G S N q C N j 0 9 N o._.N A I Y ",
"S S S S S S G H V P T uX[.P V B S S N S B B b g S S G G A S A B A } + , g I A S A N h A B A B A S } F B G N S S S N B B B R 8Xs.S S S Z h S B a 0 S +.].N N S Y ",
"S S N S S S G S V G V qX<.P B B S S S S A A A c S G G S S S B S B u.  0 C S n S B S S B S S S S N | A M P B S G I P B B G +.<Xl.S S Y S S S B s < S .._.N N N T ",
"S S S S N S S B V P V qX>.G G B S S S S B A b b G T S B S S S S S #.O 0 s B v S S S S B S S B S B I 9.t.P P P Y P P P P P R 8Xx.S G G B S S S s q N .._.G N B I ",
"S N S S S S S S B G V 9X8.I G B S N S S S B b D H S A S S A S S S b O , h S z A S S S S G S S S S P b.eXR P I G B P P P P +.8Xc.B A B A S S B s 0 G R (.G N G I ",
"S S S S S B G N B P V 6X8.T d B A B A A B S A c S S S S S S A S S b O , j S l S S S S G S S B G G V M.hXR T S B S N G G P +.8XB.S S S S S S B s q T +.(.G S A I ",
"S H G S S B N N B G M M.u M 0 B B B B S S S A A S B S S S B V G P P @ , j S l A S S T A S S B G V L OXzXT G S B S j A N G +.0XJ.S S S V V A B g x S T (.G S S T ",
"G I S S S S N G B G T E.$ s 0 j h h B B B S A N S S S S S B G G P P w % k b b S S I S B S S S G V &.F.hXL G C g s 2.eXoXw.>.hX(.S S S c g B A C 0 h T ~.P B B I ",
"U G P P P P P P P B t.kXJ , q 0 0 < s A a s B A S S S N A G T S P P M.# j S S S A S S S S S A S G -.f.qXzXV.L Z C $XnXjX[ xXnX;X<.R F x s h H s q q H c.I P P T ",
"G S S G S G G P G N `.nXOX7 g w % < s A s h G P P P G s j T I I Y qXOX% j S S S S A B S S S S S G X.-.9XnXnXnX7XrXhXiX' oXyXeXrX9X5X9XeXnXnXbXbXcXcXnXcX[.+.P R ",
"G B S B S S B G G F E.cXnXhXW.O O O w 0 a # & M O.V N 0 q f F l.+XcXqX0 N B B S S B S S S S S S H S &.5XnXxXH.x w ' [ C q s s k k q (  .hXnXcXxXbXnXnXnXdXl.T R ",
"G S S S S S G K g 8 e.lX#Xq.J % & d & & & w & M.qX`.t.w a g ' j.b.4XiXw G S S S S S S S V A S T G N %.-XlXb.2 a Z w.9...j j g 2 0 a k ` 7XeXL.L.U.&XgXnXwX5.B R ",
"G S S N S G H A x { rXnXZ.y z V G G G P G P P <.wXnXc.P | } #.%.i.L.lX2.I S B A B A S B S S H G S B }  Xb.a a s N j s N N G N s S S G n ^.6.}  .%.p.D.fXc.I B R ",
"G N S S P H S S M :.lXnXR.E n S S S S S S G S G g.9XI P B B B S P A.9X@.S S S A S S S S S S S S P N I t.x a a b S N N S A B N h S T S c D G B B S %.D.-X| N B T ",
"P N S S G S S S V O.rXnXv.z c S S S S S S S S G R yXR V B B j s j f.7.z.N S S S N S S S S S S S P N S & s a x S S B S S S S A N H S S h s G S S S I D.>XX.N P R ",
"P B S S N S S S V P %XnX8.G C S S S S S S S G P G 6Xs.V S B N a < ) jX`.S S S S S N N S B B N G P B G @ s U s B S S S S N S S A S S S N s G S S S P S.2X+.G G R ",
"G N S N S S S S K V @X3XL G A S S S A S S S I G V _.jXR G B s < < z bX7X>.S S S S G G S N G N S G B j # C P B S S B A S S S N j A S S S j G B G S P f.pXdX+Xa.R ",
"I P I P G S A S L V.oXq.N B B N B S S B S P G N S 3.nX3X+.g < < < k nXnX3XS S S G P S S S S B S P G j 9 0 G N B A S B S S B S h N N N G P B S I B G d.pXnXnX*X<.",
"J.+XOXOXC.4.8.9.`.$Xt.OXN P B B B A S S B b B B S G sXnX_.q x ' $.G.nXnX=XS S G I S S S S S N G P B h @ 0 G N S S S S S S S A f S B B P P G P G B G &.5XnXnXzX>X",
"OX*X@X+X].T.T./._.8.t.1.& V G P I I | #.#.| | | #.| j.I.y.q y.$XyXnXnXxXw.B P I G A S S S B S N B G f @ < S S S S S S I S S A h N G S G P I G S S G %.5XsX;X@X=X",
"T T T H T I H H G G V B & B P P G I n.sX.XS U U | | } | %.} &.d.g.jXnX,XG S S S S S S S S A S S P B j # < N S S S S I S S S S N B N N G U G S S B S X. Xh.R Y O.",
"B B B B S S S B S S S S f m P B G I g.sXw.B S B G B G U S G P | u.d.vX;XG B S N A S S S S S S I G B j # < s B N G I S S S A B N S S S P P G N S S S U k.H V B T ",
"B B N S S S S A S B S S V d P G H G S S B S S A N S P S S A G P U u.5X;XG B B B S S S S S S I S G B j @ , g S G P G S S S S A N N S N P P B N S B S G } S G S T ",
"S S S S G H S S S S S S P p I I S S S S B S S S G S S S N S B P P R [.+XG B B B S S S A S Y S N s j f @ , a S B S S A S S S S S B S N P P N S B S S I } B B A T ",
"A S S G G S S S A S S S G p Y G S S S S S B S A N B S S S S B P P P l.].P B B B B S S S H G S h & a s @ # a S S S S B S S A S S P B N P G S S A B S T F M S A I ",
"B S G T S S G S B S A B N & G V S A B S S S S G S S B S S S S P I R =X<XP S B B S S S S M N h N # : s + @ s B S S S S S A B S I G S S G G N S S S G I B m V S T ",
"S S G S S S P G S B B A a & P S S S B S A G G S S B A S S S G P R I 5XjXs.P P G N S S A h q 2 q : - 1 + # 2 C S B A S S S S H G S S S P P S S S S S V N m G B I ",
"S A S A S S P S S A B B a m G S A A S S S I S A S A A S S S B P P P wXnXkXT.[ 9 % % % @ @ + ; - X * - 7 X ; h S S A B A S H G S S A S G G B S S S A G N N B B T ",
"T I T I Y Y R Y H F F F c Z R K T Y Y Y O.Y T T I T Y Y Y I I R R +.aXnXnX7X:.7 7 7 % 9 7 9 i 7 , 8 e w 2.x F K I Y T I T Y K I I I Y T Y I T I Y Y T H K T T O."
};
