/* XPM */
static char *result[] = {
/* columns rows colors chars-per-pixel */
"80 80 178 2 ",
"   c #020101",
".  c #0A0604",
"X  c #070801",
"o  c #0D0905",
"O  c #0D0808",
"+  c #110704",
"@  c #120B06",
"#  c #1B0D06",
"$  c #140B09",
"%  c #1A0E0B",
"&  c #0E1103",
"*  c #141204",
"=  c #1C1306",
"-  c #141902",
";  c #1C1B05",
":  c #17100B",
">  c #1D120C",
",  c #1E1B0C",
"<  c #1D1210",
"1  c #200F0D",
"2  c #211507",
"3  c #251E06",
"4  c #281F07",
"5  c #23140C",
"6  c #2A160C",
"7  c #241B0B",
"8  c #2B1B0C",
"9  c #311D0D",
"0  c #251511",
"q  c #2A1613",
"w  c #251C11",
"e  c #2D1A14",
"r  c #2F1C18",
"t  c #331C15",
"y  c #3A1D16",
"u  c #351D18",
"i  c #3B1E19",
"p  c #1D2303",
"a  c #1E2903",
"s  c #232406",
"d  c #252C05",
"f  c #2A2D07",
"g  c #24230B",
"h  c #2C230A",
"j  c #2C2C0A",
"k  c #35220E",
"l  c #3A250E",
"z  c #322C0D",
"x  c #3B2A0F",
"c  c #273305",
"v  c #2B3206",
"b  c #2D3C05",
"n  c #2E3008",
"m  c #303607",
"M  c #323C07",
"N  c #33340B",
"B  c #3A340D",
"V  c #343C09",
"C  c #3A3C0C",
"Z  c #262011",
"A  c #2B2213",
"S  c #2E2C10",
"D  c #342313",
"F  c #3C2512",
"G  c #342B14",
"H  c #3D2911",
"J  c #362119",
"K  c #3D221B",
"L  c #3B2D1A",
"P  c #373213",
"I  c #3D3311",
"U  c #343B10",
"Y  c #3D3A11",
"T  c #3A311A",
"R  c #3F2520",
"E  c #411F1B",
"W  c #402714",
"Q  c #432A15",
"!  c #43241D",
"~  c #49261F",
"^  c #452B19",
"/  c #4C2C1C",
"(  c #512E1F",
")  c #443314",
"_  c #493216",
"`  c #443D14",
"'  c #4A3B15",
"]  c #45331B",
"[  c #4C341C",
"{  c #453A1C",
"}  c #4B391A",
"|  c #503F15",
" . c #51341F",
".. c #523A1D",
"X. c #442621",
"o. c #4A2720",
"O. c #452B22",
"+. c #4D2A22",
"@. c #542E23",
"#. c #582F26",
"$. c #582F28",
"%. c #4C3221",
"&. c #473B22",
"*. c #4F3926",
"=. c #553223",
"-. c #583025",
";. c #543C22",
":. c #5A3C23",
">. c #553229",
",. c #5D3329",
"<. c #563B2A",
"1. c #5E392C",
"2. c #60342A",
"3. c #613A2D",
"4. c #693E2E",
"5. c #603730",
"6. c #643B31",
"7. c #683E33",
"8. c #344207",
"9. c #374907",
"0. c #384A06",
"q. c #35410A",
"w. c #3B420C",
"e. c #3B4311",
"r. c #42450F",
"t. c #444C0C",
"y. c #44510A",
"u. c #4D550D",
"i. c #434213",
"p. c #4E4416",
"a. c #4D4A1C",
"s. c #534216",
"d. c #514B14",
"f. c #54431A",
"g. c #50481B",
"h. c #555316",
"j. c #595D18",
"k. c #4E4222",
"l. c #594526",
"z. c #554A20",
"x. c #5C4229",
"c. c #5B4828",
"v. c #634526",
"b. c #614D27",
"n. c #65432C",
"m. c #6A442E",
"M. c #614B29",
"N. c #6C4C2D",
"B. c #67572E",
"V. c #6A532E",
"C. c #655A28",
"Z. c #70562F",
"A. c #664130",
"S. c #6C4431",
"D. c #6F4C32",
"F. c #714731",
"G. c #724D31",
"H. c #6E5C31",
"J. c #735432",
"K. c #7E5636",
"L. c #755934",
"P. c #7A5B35",
"I. c #7B543B",
"U. c #726D26",
"Y. c #766435",
"T. c #7C6436",
"R. c #776835",
"E. c #7C6936",
"W. c #815937",
"Q. c #815A38",
"!. c #82663B",
"~. c #856C3B",
"^. c #84713A",
"/. c #897738",
"(. c #8D7B3E",
"). c #8A7140",
"_. c #937E41",
"`. c #948241",
/* pixels */
"% t @.-.-.,.;.f X 3 x x l t ,.-.>.-.1.-.-.-.#.#.#.-.#.-.1.1.#.2.@.2..     . $ @ .     X   X             X l #   $ K ,.1.-.-.-.-.-.-.-.,.,.-.-.-.-.-.-.!         ",
"-.@.+.@.+.@.,.9.- v z v f f ' ' >.,.+.+.@.-.#.>.#.#.-.1.1.#.,.$.$ ~       @ k l 9 . 8 ) h.j.  $ O       X W = . o K 1.-.-.-.-.-.-.-.-.,.,.-.#.=.-.-.-.y . O     ",
"@.% X $ O 5 +.s c n v - & X ; L &.q   . e +.@.@.@.@.( +.X.! ! u           = 4 4 = 4 Q Q [ U.0 $           H / +.+.,.-.-.-.-.=.@.-.-.-.2.#.#.-.-.-.-.-.K % X..   ",
">         w 6 8 B I Y j P G G &.T Z :     % u i i K K i i u t t q 2 = 5 > # O . . Q Q -.-./.<..           Q @.#.-.-.-.-.-.-.-.-.-.-.-.2.,.#.-.#.-.-.-.! q O     ",
"K % . . w 5 k l k _ :. .1.g.D.L.T.!.E.5   ! -.-.$.$.-.-.-.-.-.-.=.( ( W x W 9 .   ( ^ #.,.m.~.V.B.T       Q ,.@.-.-.-.#.-.@.-.-.,.3.-.2.-.#.#.#.-.,.,.X.1 r i i ",
",.@.K D 8 D / % 2 ! @.-.-.e.-.-.-.1.^.f.# ,.,.,.-.#.-.-.-.#.@.-.-.1.,.W ^ / Q k . #.Q #.-.-.1.3.3.V.O     -.,.,.-.-.#.$.-.-.-.,.,.-.-.2.2.2.,.,.2.2.1.u X.,.,.#.",
"#.-.=./ 8 / -.> % ! -.-.=.i.-.-.#.-.L.M.$ #.1.,.#.-.-.#.-.#.-.-.3.,.( Q ^ ( @./   ( W =.-.-.-.-.,.v.$   : < @.,.,.@.$.2.$.,.1.,.+.#.,.#.@.@.% O 5 2.,.t +.$.#.@.",
"-.-.@./ 8 / =.-./ / =.-.} i.-.=.-.-.m.N.O 5.2.-.-.-.-.=.-.-.-.-.-.-.#.( ( ,.-.( X / Q @.=.-.-.-.,.-.: < <   . q %   % X.+.>.%.O   o.,.y t ! . X $ @.1 $ $.@.-.@.",
"-.-.( ( 6 @.-. ._ ] k.;.=.` -.#.-.-.2.Z.5 ,.,.-.-...:.-.-.-.-.-.-.-.-.,.2.-.-.=.: =./ -.#.-.-.-.1.-.e o.J K K ! K i i u u q @   0 u ! F / ! W ! W t   $ ,.-.-.@.",
"-.-.-.-.t ( -.-.-.1.,.-.#.` -.-.( -.-.Z.$ q ~ -...i.d.-.,.-.,.-.,.-.,.2.,.-.-.-.6 %.-.-.-.-.-.-.$.! +.,.-.#.-.-.#.,.,.-.,.,.t % @.,.-.-.=.-.=.( ^ #.. % ,.-.=.-.",
"#.-.#.( 9 ( -.-.1.,.-.-.=.` -.-.#.-.#.Z.    O u t.w.w.Y ,.=._ @.-.-.-.,.-.-.1.3.# ! ,.,.#.#.,.,.t $ ~ -.#.-.#.#.#.-.-.#.#.2.u % >.@.-.-.-.<./ W W -.@ 0 ,.#.-.-.",
"-.-.#.#.t o.-.#.,.-.-.-.-.` #.=.#.#.2.V..     # ) 8.m e._ N M B -.-.-.( H =.2./ @ > o.#.,.@.+.>     ! -.,.-.,.-.-.2.1.,.2.$.i % @.-.-.,.3.-.F l l ,.@ q 2.#.#.@.",
"-.-.-.-.D ! #.#.-.-.-.-.-.C #.-.-.-.,.m..     * 8 v G G f p ; = 2 7 7 # . > 5 @       O O . .         . o o O @ q q $ > e e O   % 0 q R t t 6 7 8 t . > ,.#.#.@.",
"#.-.-.-.y e ,.#.-.-.#.-.-.r.-.3.,.-.,.3.@ a c 3 d V q.> o - X                       @ ~ -.-.-.-.-.,.,.1.1.1.3.n.D.n.v.n.m.n.v.%..   . %       . .     % ,.-.#.@.",
"-.-.-.-.y % ,.-.#.=.#.-.-.` 1.1.#.#.$.,.v c = = m 8.q.C [ M C x W Q l H l F 8 F D O 1 ,.,.,.2.,.-.-.-.-.#.-.,.3.$.>.-.-.-.-.$.,.^ w M.;.    @ l / / 8 R #.#.#.@.",
"-.-.-.3.! . ,.#.,.-.-.-.,.k.1.-.,.#.2.,.$ + @ 7 ) t.} u. .w.t.H @.,.-./ H @.-.-.,.t 5 2.3.-.2.,.-.-.-.=.-.-.@.#.#.$.-.-.-.-.-.-.,.2. .H   . k / -.,.L % @.#.-.@.",
"#.-.3.,.! . ,.2.2.2.2.2.2.:.-.,.-.@.#.i   + + 8 =.h.} ;.@.[ p.Q ,.3.-.-.^ @.-.-.,.X.q 2.#.#.2.2.-.-.-.=.-.-.=.-.-.-.-.-.-.-.-.,.#.-.@.x   t @.@.,.3.@.$ +.#.@.@.",
"-.3.2.-.^   #.,.,.,.#.2.,./ D u t e e O   % 5 z =.;.=.-.-.#.-. .-.-.-.( ^ @.-.-.2.X.. X.#.#.2.2.-.#.-.#.-.#.#.#.#.=.#.-.-.-.3.-.-.-.,.^ O @.-.-.1.-.@.% ! -.-.@.",
"-.,.-.-.o.. @.@.-.-.-.-.#.=._ @.@.@.@.% q @.[ ;.%.-.-.-.-.-.,.[ -.-.-.( ^ #.-.#.2.o.  5 2.2.2.2.-.-.,.-.=.#.-.#.-.-.-.-.,.,.;.#.@.-.,./ 5 $.#.-.-.-.@.> ! #.@.@.",
"-.-.-.-.+.  ! #.-.-.#.-.#.#.i.-.@.,.$.X.i ;...=.^ -.-.-.-.-.,.^ =.-.-.#.( #.-.-.2.o.  % #.2.2.2.,.,.1.-.-.-.-.-.#.-.=.-.1.[ C #.#.:.,./ % ,.-.#.-.-.@.0 ! ,.$.@.",
"-.#.#.,.+.. $ $.,.,.-.#.-.-.=.;.-.>.5.u 5 ;. .-.^ -.-.-.#.-.#.Q =.-.-.-.#.-.,.@.2.o.  $ >.2.$.2.3.3.-.#.-.#.#.-.@.=.@.[ [ [ m =.=.t.f.P $ ,.-.-.-.-.@.q X.-.,.<.",
"-.#.2.,.+.. . X.>.@.@.@.@.@.+.) =.+.J ; h { -.-.^ -.-.-.-.#.@./ ( -.#.-.$.,.1.,.,.!   O @.,.2.2.7.,.#.,.-.-.-.>.-.=.=.=.P ^ c Q -.} y.n 0 +.#.@.>.@.o.$ u ,.>.% ",
"+.~ ! ! e $ X.+.K K K J u e e e 7 g ) { G $ D o.F +.>.o./ ~ ! ! ! o.! / >.>.X.X.! %     q K i ! ! K K i K K ! ! ! D d N ) g p h ! ! b S . O > q t q .   o R %   ",
".         < >.@.@.+.( +.+.+.o.! > g / +.!     . : u u $ $ $ $ @ $ . . 0 K u J L L &.{ { { { A       . 0 e q   0 w 7 g p p p p & - , Z X                         ",
"0 0 q q 6 J / [ %.%.%.%.%.[ O.] L e $ o .   O X.O.,.@.@.+.@.+.+.+.o.~ q +.,.,.-.! n.S.J.!._.(.&.    O X.,.,.X.,.1.:.:.b.a.a &   & d g h t u u u t u t t t t q t ",
",.#.$.,.2.2.,.2.3.m./ @.m.I.I.W.W.K.w     $ @.5.%.-.$.>.#.,.2.2.2.2.#.q ,.#.-.#.+.-.-.,.2.3.~.`.k.    . i ,.1.-.-.-.-.Y U ;       o g / @.-.,.-.$.-.-.-.#.#.2.#.",
",.-.@.-.-.2.-.-.,.3.y E 1.,.-.-.,.2.>.$   @.,.,.^ @.#.-.-.-.+.F F Q l ^ ,.-.#.-.-.-.,.1.-.-.-.L.Y.      $ 6.-.-.#.-.-.=.j ]     o 8 H z @.-.-.-.,.3.-.#.#.#.,.#.",
"-.,.,.-.-.2.-.-.-.-.#.1.2.-.-.#.#.#.#.2.O -.-.-.Q / -.-.=.-.Q Q F ,.,.2.2.-.#.=.-.,.3.-.-.-.-.v.R.      $ -.-.-.-.-.#.( Y l.  @ 3 x @./ @.-.-.-.1.#.-.-.-.#.#.,.",
"3.,.#.-.-.2.-.-.@.@.,.,.-.=. .#.-.-.-.,.$ @.,.#.Q H =.@.-.@.^ 1.Q -.#.-.-.-.-.-.,.3.-.-.-.-.=.3.R.    @ +.@.-.-.-.-.-.=.=.c.# k H x +.@.-.-.,.3.-.-.-.-.-.#.-.#.",
"3.-.-.#.,.@.-.( @.( #.-.-.-.-.-.-.#.-.,.% @.-.-.^ @.-.-.@.[ ,.-./ -.-.-.-.-.#.-.2.#.-.-.-.#.-.1.R.O . ! -.-.-.-.-.-.-.,.6.l.2 H Q l @.-.-.-.1.-.-.-.-.#.-.-.-.,.",
"-.-.#.=.-.Q / #.#.@.-.-.-.-.=.#.-.-.1.2.0 @.$.-.+.@.-.-.=.] =.#.#.-.-.-.-.-.-.-.#. .-.-.-.@.#.,.Y.K u ! @.-.-.-.-.@.,.1.{ { 8 ^ -.F @.-.-.-.-.-.-.-.-.-.-.-.,.#.",
",.-.-.-.-.Q / -.#.#.-.-.#.-.#.-.-.,.,.,.t @.$.#.%.-.-.-.,.^ @.-.#.-.-.-.-.-.-.( -.-.-.-.-.-.>.1.J.K o.t =.-.-.-.-.,.1.-.M G 3 ] ,.Q =.-.-.-.-.-.-.-.@.-.#.,.2.,.",
">.-.-.=.-.Q =.,.#.-.-.#.-.-.#.-.1.2.#.2.i k @.-.( ( / ( / Q #.-.( -.-.-.-.-.-.-.-.-.-.-.-.-.,.6.M.K ( 5 @.-.-.-.-.{ ` [ c h h ] #.,.#.#.#.( #.-.-.( #.-.,.3.2.$.",
"-.-.-.-.,.^ [ -.( -.-.-.-.#.-.,.,.#.#.$.+.k / -.#.#.W l l ^ -.-.-.-.-.,.1.-.-.-.-.( -.-.-.2.4.-.3.K @.# @.-.=.} -._ q.) a h D j b L ,.2.2.2.-.2.2.2.2.2.7.2.2.,.",
",.-.-.-.3.^ / -.-.-.-.-.-.-.#.,.,.,.2.2.@.F / -.,.#.Q l l Q #.-.-.-.,.3.-.-.-.-.#.-.#.#.#.3.#.2.@.i -.% K +.) 0.0.C Y Q p s p G =.6.#.2.,.( -.-.-.#.2.4.2.,.,.,.",
",.[ =.,.1.F ( #.-.-.-.-.,.,.,.,.2.2.2.2.@.~ @.1.2.#.W l l Q ( #.-.,.3.-.-.,.-.-.#.2.#.#.-.-.-.2.+.0 ! $ . % @ @ d j 8 7 s p s G =.#.2.2.,.#.#.-.-.-.#.-.,.:.u.-.",
"-.V [ } _ 6  .#.-.-.,.2.,.#.-.#.,.2.#.@.E o.2.,.#.#./ W l W ^ ( ( -.( ( -.,.@. .( / ^ ^ ~ ! K ! 0       +.,.=. ./ Q W x l 9 8 ,.,.#.#.2.2.-.-.-.=.#.-.-. . .t.r.",
"C M ) N = X Q ,.,.#.! -.2.$.-.,.@.E q + + o.6.,.( 2.( l l W ( l W l Q W ^ / ( #.=.( W 9 9 u i i i t + e 6.-.-.-.( Q M W x k $ e #.,.,.2.2.,.=.^ Q _ / / _ z v b ",
"3 d d p X   o % % O 0 > @.@.E 5 + .     . ! 2.#.( ( Q W l l ( W / ( ( l l Q 2.#.2.3.( Q x -.( ,.,.@.e =.>.-.-.-.-. .B l 9 k o   O @ $ % % @ > $ + O @ ; ; ; p a ",
"p p a a c j H Q ! >.5.@.+.! i u e 6 5 1 2 9 / ( / l l l l l ( W @.#.( W ( 2.-.,.3.-.#.#.^ l l x / ! K  .-.-.-.-.2.( ` l 6 k o   @ ^ F W @.^ ,./ l k = 2 @ o p X ",
"- s s k =.,.,.,.2.3.,.,.,.,.,.2.$.2./ x l 4 F ( ^ l l k Q _ ( ^ ( -.-.-.-.,.,.3.-.-.-.-.-.Q l l W @.W @.-.-.=.-.#.( ` l 2 9 @ # @.2.,.( ,.1.-.-.#./ 6 k _ x -   ",
"- s N x [ @.-.#.-.-.=.#.-.#.-.-.#.$.Q l W 3 9 h 4 k k x ^ @.#.Q #.#.-.#.#.2.2.-.-.-.-.-.@.( l k W ^ ! -.-.#.-.-.-.-.a.^ 8 l 2 ~ ,.-.-.-.1.,.-.-.#./ 6 l =.H o   ",
"o h m ^ =.#.#.-.-.-.-.@.@.-.-.-.2.,.Q l l 3 3 4 4 4 h Q Q -.-.^ #.-.-.-.-.,.-.-.-.-.=.#.Q l H l W W u -.-.@.-.-.,.1.i.-.@.l 9 -.-.-.-.-.,.-.-.-.-.( 9 W =.^ .   ",
"X h ) _ #.-.-.-.-.-.-.-.-.-.-.-.@./ W k l ; 3 4 4 s D l H -.,./ ( -.( -.-.2.-.d.-.-.-.( ^ H ^ l l 9 t -.-.-.-.-.3.:.' @.~ ^ 9 -.-.-.-.-.-.@.-.-.-.( l Q ,.^ .   ",
"  = @.[ ,.#.#.#.#.-.#.-.-.-.,.[ l l l k l ; ; 3 3 3 4 h l ^ -./ -.-...}  .,.:.y...( / Q Q ] F l W 6 t @.-.-.-.,.-.=.[ -.( ^ 9 #.-.-.-.-.-.-.-.-.-.-./ -.-.^ .   ",
"  O ( ,.-.:.=.-.#.#.-.-.-.1.,./ l l l k 4 ; ; 4 4 4 4 4 l ^ ( F ( 2.x.y.` ..u.8.M V Q x e.N x l 9 4 8 #.-.-.#.=.-.'  .-.#./ t #.-.#.#.-.-.-.-.-.-.-.3.,.#.^ .   ",
"  . +.6.,.#.,.#.$.#.#.#.-.,.@.Q x l l k ; * = 3 3 4 4 4 4 l / ~ 2.6.,.q.8.x M 8.V M Q q.N F x 6 k k u #.-.=.-.-.;.[ =.#.@./ y 2.#.@./ =.-.-.,.-.>.6.-.-.@.^ X   ",
"  $ e i ! o.o.( @.@.@.$.@.+./ 9 = # X     @ ; @ . X . .   . . % 5 o + * p o $ c 4 h s 3 2 ; 2 9 l k t @.-.-.-.-.[  .-.-.-. .K ! @.@.^ ! +.+.+.+.@.@.=.+./ t     ",
"@ % @ @ + @ @ o O .         . t +.<.. : <.} L { / H z h 3 ; D ^ t #       o g I B l x x B z P P G 7 0 1.#.#.=.[  .-.-.-.-.3.>     .   . . . X     X     . o o o ",
"@.^ =.-.,.-.#.@.@.+.$       o.,.2.G.: 0 S.[ ;.) 3.....' ) ' | | s.k   o 2 ) f.../ Q x Q _ :.N.P.~.~.*.%.;. .[ ..-.-.#.#.,.-.% . i ! F 9 k k k 9 8 y 0 @ F / @.@.",
"-.( =.-.-.,.,.,.6.6.!     E 2.,.-.n.J =.#.-./ ^ / / / ( / l / ( _ ) . 8 Q _ ,.1.-.@.W Q ! =.-.-.,.).;.-.=. .=.#.-.#.-.=.#.#.$ 0 ,.,.=.l Q / x 9 6 ~ +.5 / =.,.,.",
"#.-.-.#.-.-.-.,.5.2.o.O 0 ,.2.#.-.,.,.-.-.@.+.^ -.-.-.#.@.( @.-. .s.@ k Q -.<.=.-.@.Q ( ^ #.-.-.,.J.;.#.#.-.-.-.=.#.-.-.-.>.% K 2.#.@.l %.@./ F F @.@.q =.-.3.-.",
"-.-.#.#.-.-.,.3.$.2.@.+ q 2.#.#.-.-.-.-.-.-./ / -.-.,.,.-.-.-.-.-.N.# l / 3.=.-.-.@./ -.#.-.-.-.>.m.:.#.-.#.-.-.-.-.#.#.-.$.1 o.-.-.-.{ / -.-.W F @.@.r @.@.-.@.",
"-.-.#. .#.-.,.-.$.$.$.O i 2.#.#.-.@.-.-.-.-.=.[ -.,.1.-.-.@.-.-.-.W.1 k [ #.[ -.-.-.-.-.=.-.-.@.-.3.=.o.2.-.-.,.3.-.-.#.,.-.> ! -.-.6.-.-.-.-.^ l -.@.e =.@.#.@.",
"#.-.-.-.( -.-.-.#.2.#.+ y ,.-.-.-.-.-.-.-.-. .[ 1.6.@.-.-.-.-.@.#.F.2 9 ^ #.[ -.-.-.-.-.-.-.-.-.-.3.^ 5 $.2.2.6.2.2.2.2.2.$.% ! -.,.-.#.-.-.-.^ H -.@.u ,.@.#.@.",
"-.-.-.#.-.-.-.-.#.2.#.O e 3.,.-.-.-.-.-.@.=. .;.1.-.-.-.-.-.-.-.#...6 l _ -.' -.=.-.-.-.,.-.#.-.-.2.D O #.2.3.,.-.,.2.2.2.$.% ! -.-.-.-.-.-.-.Q F -.-.t ,.#.-.@.",
"-.=.,.-.-.( -.-.#.2.#.O q 5.Q #.-.-.-.-.-.-.=. .-.-.-.-.-.-.-.-.( -.6 l / -.` -.-.-.,.1.,.@.#.,.2.$.e   @.3.-.#.-.-.,.2.2.#.# i #.-.-.-.@.-.-.Q F 1.$.t ,.-.#.@.",
"-.1.,.-.-.#.-.-.#.2.+.0 t ( F #.-.-.@.-.-.-.=. .-.@.=.-.-.-.-.,.2.2.6 l / -.` =.-.-.1.-.-.-.#.,.@.i % X o.2.-.=.-./ ^ ( ,.@.% i -.-.-.-.-.-.-.^ ^ ,.#.t ,.#.#.@.",
",.1.-.-.-.-.#.-.-.2.E + # ^ F ( / / @.@.-.@.#.@.-.-.-.-.-.-.,.,.2.2.6 9 _  . .-.-.1.-.=.-.@.-.-.#.J.%.. i 2.@./ ^ 9 o = e K . u -.-.-./ ^ @.-.%.H / #.t 2.#.#.@.",
"6.2.2.2.2.2.2.2.2.#.6   + k W l F l Q =.Q Q -.=.-.-.-.@.=.,.6.,.2.,.# 9 / -.-.-.-.-.#.-.-.-.-.,.,.T.~.5   1 6 6 9 @     A     0 @.=.~ W l / -.Q H H ( y ,.2.,.$.",
"2.-.,.-.-.,.,.2.2.+.%   . 2 l l l l Q =.^ / ,.,.2.2.2.^ / 6.2.,.,.$ @ k ( -.-.-.@.-.-.-.-.-.@.#.,.n.P.w       o . X O D = & * * * = * *                 e @.1.$.",
",.-.-.-.-.#.-.,.,.~ *     . + # # 7 L F W k y W ~ ~ ~ 9 J / W y 5   . t =.#.=.#.-.-.-.-.-.-.-.,.2.,.L.w     = l F F Q x Q Q ) Q Q x s.s.X   X . .       o ! 1.,.",
",.-.#.-.-.-.,.1._ g -   * 6 t t y ! y y y y i 6 O # 1 y ^ / [ { ^ >   F -.-.#.-.-.-.-.-.@.-.,.3.,.@.J.w   6 x x H K K / ( ( ^ l F W / ' * > z.C.a.P ,   % >.,.#.",
",.-.-.-.=.1.1.-.] g X   p V ' #.2.2.2.2.2.2.2.#.$   ! 2.3.m.G.L.!.H.X K 3.-.-.-.#.-.-.-.-.-.1.,.,.@.n.e 2 W W Q @.@.Q #.#.-.@./ @.,.<._ 8 <.m.D.L./.^.$ +.,.#.,.",
"-.#.-.-.,.3.-.-.( 3 .   5 V ..-.-.-.-.-.-.,.-.,./ % ,.2.#.,.#.#.3.(.$ +.,.=.@.-.-.-.-.=.-.-.-.-.,.@.3.9 l W W ( -.@.@.-.=.-.=./ -.3.-./ Q 2.-.-.,.J.(.D >.#.,.#.",
"-.-.-.-.,.-.-.-.#.! O   t ) [ -.-.-.-.-.#.-.-.,.5.$ ,.#.#.#.( l ~ (.t e -.-.-.-.-.-.-.#.-.@.-.-.,.#.,.t W Q [ -.-.@.-.-.-.-.@.=.1.,.-./ Q ,.-.-.-.3.(.r @.-.$.$.",
"2.-.-.( -.-.-.-.2.@.$   u -.[ -.-.-.-.-.=.-.-.3.,.% o.,.-.-.-.W l h.  5 -.-.-.-.-.-.#.-.-.-.#.-.2.-.-.8 ^ 3.^ #.-.-.-.-.#.=.#.=.,.-.-.=.Q 2.-.-.@.2.^.D @.,.,.$.",
"2.-.-.-.=.-.-.-.2.+.$ O +.1.-.#.=.-.-.-.-.,.3.,.-.t O ,.,.( ^ l l _   @ D @.=.-.=.-.,.-.-.-.-.-.2.#.@.8 [ 2.( #.-.-.-.-.-.-.@./ @.-.@.-. .,.-.-.,.2.E.w $ q @.#.",
",.@.@.@.#.#.-.,.+.0 $ < ~ -.( #.@.-.-.=.#.-.-.-.@.@.  > @./ l l l F     @ ( -.-.-.3.,.-.-.-.-.-.2.#.( D Q ,.#.-.-.-.@.-.-.-.-./ ( -.#.2.2.,.#.2.-.,.L.A     0 @.",
"K 0 q q t i i t % $ 1 O E 2.-.#.-.-.-.-.-.-.-.#.-.2.O   # F l k 9 7     % ( -.,.3.-.-.-.@.-.-.#.2.#./ 8 F -.-.-.-.-.-.-.-.-.@./ #.#.#.,.2.,.1.,.#.,.G.S     . 5 ",
"q 0 5 q q t t q q i y y y #.,.2.3.3.4.3.3.m.m.S.F.F.) h h L 7 = X     . t @.-.3.,.-.-.@.-.-.-.-.,.#.( 6 l ,.-.-.-.-.-.1.-.-.-./  .#.-.2.2.3.,.-.-.,.n.L $ 0 q 0 ",
"@.@.@.@.@.@.#.@.@.@.#.#.E @.2.2.,.3.:.> 8 ( 3.4.4.S.n.m.D.m.v.v.:.@   % +.@.-.-.-.-.-.-.-.-.-.-.,.,.( 8 l ( -.@.-.,.1.-.-.-.-.-.#.#.-.2.3.,.=.-.-.-.2.&.! @.@.@.",
"$.#.-.-.-.-.-.-.-.@.-.,.~ ~ 2.#.,.3.<.> i @.-.-.-.-.,.6.-.,.3.m.Q.G.  0 #.-.-.-.-.-.-.-.-.-.-.,.,.#.( 9 l / #.-.-.3.-.-.-.-.=.@.-.-.-.2.2.-.( -.-.-.3.:.@.#.#.@.",
"#.-.-.-.-.-.-.-.=.-.-.-.2.E 2.,.1.-.#.-.-.-.-.-.-.-.,.-.-.-.,.2.7.W.5 0 ,.#.-.#.-.-.=.-.-.-.6.-.,.#.( 6 k Q #.-.1.,.-.-.-.-.@./ #.( #.2.2.-.-.-.-.-.2.v.$.,.#.@.",
"-.#.#.-.-.3.-.-.-.-.#.-.2.E 2.2.-.-.@.-.-.-.-.-.-.-.-.-.-.#.-.2.2.7.t q ,.#.#.#.-.=.-.-.-.6.-.=.Q ( ( 6 9 Q @.-.-.-.=.-.-.-.-.-.-.-.#.-.2.#.-.-.-.-.2.n.@.#.#.@.",
"-.-.=.,.2.-.-.#.#.#.=.-.,.! 6.,.-.-.=.-.-.-.-.-.-.-.#.-.-.-.#.2.2.2.O.e ,.#. .#.-.@.-.,.1.,.=.( l W ^ 6 9 Q -.-.-.-.-.-.-.-.-.,.,.-.-.2.2.-.-.-.-.-.A.1.( -.@.@.",
"-.-.,.3.-.-.,.#.-.=.-.-.( E 2.#.-.-.-.-.-.-.-.-.-.( #.-.-.-.-.2.3.7.q % 2.#.#.#.-.-.-.-.@.( / @.9 h Q 6 8 Q =.-.-.=.#.-.-.-.-.2.,.-.#.,.,.#.-.-.-.,.2.-.o.-.#.@.",
"-.-.,.-.-.-.2.-.-.#.-.-.Q y 2.#.-.-.@.-.-.-.1.-.-.-.-.-.-.#.-.2.7.2.> O / 2.2.2.@.-.-.=.~ I l H h s j 8 9 x @.=.-.#.-.-.-.-.1.,.-.-.#.,.-.#.( #.-.-.,.@.~ ,.#.@.",
"=.#.-.#.-.-.2.,.-.#.-.@.W t 2.#.-.@.-.-.-.3.-.#.-.-.#.#.-.-.-.2.2.2.%   . 7 9 9 9 9 9 9 6 6 c s 3 p s 8 3 s / -.#.#.-.#.-.3.,.=.-.-.-.2.2.#.-.#.-.-.,.@.~ #.#.@.",
"@.@.@.@.@.@.,.#./ / ^ ^ l 9 #.@.@.@.@.-.1.#.@.@.( #.@.@.@.@.( ,.$.#.$     . 1 2 5 2 1 2 2 2 2 2 2 3 g 3 2 l / @.@.@.@.( ( @.@.@.( @.@.-.#.( ( #.@.@.@.~ ! @.#.( "
};
