/* XPM */
static char *xpm_[] = {
/* columns rows colors chars-per-pixel */
"80 80 100 2 ",
"   c #171719",
".  c #181719",
"X  c #1C1C1D",
"o  c #201F1F",
"O  c #1F1E21",
"+  c #201F21",
"@  c #1E2023",
"#  c #242325",
"$  c #282627",
"%  c #2B2927",
"&  c #262629",
"*  c #282729",
"=  c #26282B",
"-  c #2C2B2C",
";  c #302F2E",
":  c #31302F",
">  c #2E2D31",
",  c #302F32",
"<  c #2F3033",
"1  c #343334",
"2  c #393635",
"3  c #3A3936",
"4  c #353539",
"5  c #383739",
"6  c #37383C",
"7  c #3C3B3C",
"8  c #413E3D",
"9  c #43413E",
"0  c #48453F",
"q  c #373840",
"w  c #3D3D41",
"e  c #403F41",
"r  c #3F4045",
"t  c #3F4049",
"y  c #444343",
"u  c #494644",
"i  c #4C4946",
"p  c #454549",
"a  c #49474A",
"s  c #47484B",
"d  c #4C4B4B",
"f  c #504C47",
"g  c #514E4C",
"h  c #54514D",
"j  c #59544E",
"k  c #464651",
"l  c #494750",
"z  c #4D4C51",
"x  c #4E4F59",
"c  c #514E52",
"v  c #514F5C",
"b  c #4F505C",
"n  c #545253",
"m  c #595653",
"M  c #585455",
"N  c #585557",
"B  c #5A5557",
"V  c #585657",
"C  c #5A5857",
"Z  c #525158",
"A  c #51515A",
"S  c #54535A",
"D  c #575558",
"F  c #52525C",
"G  c #585559",
"H  c #585658",
"J  c #59565E",
"K  c #5B5958",
"L  c #5B585B",
"P  c #5C5A58",
"I  c #5F5A5E",
"U  c #5E5C5E",
"Y  c #615D5D",
"T  c #615F5F",
"R  c #535261",
"E  c #575760",
"W  c #575562",
"Q  c #585760",
"!  c #575860",
"~  c #595963",
"^  c #5A5866",
"/  c #5F5C67",
"(  c #58576A",
")  c #5E5E6A",
"_  c #5F5F70",
"`  c #615E61",
"'  c #625C62",
"]  c #625E63",
"[  c #625F63",
"{  c #636162",
"}  c #656165",
"|  c #676364",
" . c #646069",
".. c #67646C",
"X. c #696569",
"o. c #6C676B",
"O. c #6A6673",
"+. c #716B73",
"@. c #716C70",
"#. c #726E77",
/* pixels */
"1 q w q w w s v 7 2 y ' E / ~ c 3 7 a d n N I ..#.+.' d M J M d ; 8 g ' T | Y d H o.@.o.o.] | O.s 6 w ^ Q ^ J d 5 7 y d z c Q ) _ _ ( v ( ( E k - 1 p E ! ! x 4 ",
"w l A F A z z z y 4 7 c c z d y 1 7 a d g h n n N N M n ' T M a - 1 u B P N d y c I | X.[ I n v u 7 6 z z x d a 1 6 e p d z z z x l p e v x k w - 1 w x x z t 4 ",
"y z S ~ E A z d p 1 1 e a i a y : 5 y i s d i y 8 8 w a T M f 8 % , u T P c d e y c M Y I M i u u 7 4 7 a i s u 4 6 e y y a y w w 5 5 4 p p w 4 - 4 y l x p w < ",
"w e y d z d a y a 1 , y a h h d 7 7 7 9 y u y 8 8 8 1 , 8 u 8 8 % 2 g ' Y M g d y y a g d d i s i 1 , 7 y g n i 7 7 w e y w 7 5 1 4 4 4 q e e 5 - 4 s b b k w > ",
"6 e y y t y y y e - - 7 a g h a 5 4 2 7 3 3 6 7 a e 8 2 8 8 8 8 , 5 u h g g i y 8 u u y 9 y y y 8 > > 7 9 i i y 5 4 4 5 1 1 1 4 w w 4 1 5 7 w 5 > 1 q e p p w 1 ",
", 5 6 w q 7 6 4 1 # # > 3 7 8 7 = % - 1 : - % - 1 8 2 , : : 8 : # % 1 8 e 8 7 2 - 1 3 5 5 5 3 1 - o o - 1 2 3 1 # & - - - - - - , , , > * > - * + & > 4 4 4 1 * ",
"> 1 4 5 6 4 , > , % % > 6 7 6 4 - - : 6 r 7 6 3 2 8 8 2 ; 8 8 2 $ % ; 2 2 3 2 1 ; 1 2 3 y 7 1 - > - - 1 2 7 6 2 * * > 4 q 6 4 4 4 5 5 , > 4 4 , & * > , , 4 , , ",
"5 5 2 7 y 4 - % 5 y y w y y y 7 7 6 8 c T T K S e N c e 8 h N e 8 7 3 2 1 3 8 e y 8 e a M g 7 - 8 i s s s s a y y e w z ~ K S x d S v e w l v k w 5 q 4 4 q e e ",
"8 y u a Z d 7 - 4 7 e y p a y w y 5 7 a n h h g a d d y 7 y d u 7 8 8 8 8 9 0 0 9 i f h h g 8 * 7 e y y a a y 7 w 5 5 e z z z s p p t 6 5 y e e 6 q 6 r 7 8 7 7 ",
"r s i s d i 6 $ 1 5 7 y y y y e 7 5 5 7 c g c h g s y 7 1 8 a y 8 7 8 y 9 9 9 9 0 i g h g d 8 * 4 7 w e y y e e 8 1 4 5 s l z s s p r 6 4 q w e 6 7 6 r w 7 5 4 ",
"y y u i a y 6 < 1 4 5 7 e e w 7 5 4 1 1 s g d g g s y 4 : 7 y u y 3 3 9 9 9 8 8 0 i i f i i 8 , 1 1 5 7 7 w w 7 5 , > 1 y p s s p y q 4 1 4 6 e r 1 4 6 4 7 2 1 ",
"8 9 y y y 7 7 r > > 1 1 5 6 5 5 1 - - > w y s s u y 7 4 ; 2 7 e 8 : : 7 9 3 3 8 8 0 y 0 8 9 7 2 ; ; , , 1 5 5 1 1 % * - 4 w y p t q 4 < > , 1 7 7 < - 2 2 4 6 1 ",
"3 3 3 6 1 1 > - > * & * - 1 4 1 1 % * * 1 4 2 2 6 7 4 - & ; 4 2 5 - $ - 2 2 3 3 2 3 3 3 , ; % $ % % & & * , , , , - * # > , , 1 1 1 > & # - - 1 < * # # - , , - ",
"6 7 7 6 2 1 - - > - % 1 1 5 4 1 - > < 1 2 2 > - > r d g g c d e 7 1 1 5 8 9 3 1 1 i g e 8 2 ; ; 1 - - 1 q 5 7 5 - 4 6 4 4 4 > = > q p k k k s t q 4 1 6 w w 5 > ",
"r r y r r 5 1 2 4 - , 7 e y 8 6 > 4 e 9 7 7 1 - > y n Y { U N z i y y a i a 9 3 8 d c d y 8 3 8 7 ; 1 e d p y e - 7 y e e 6 , - - q l x R R b s p t y s l s 7 1 ",
"g g g d s u 9 y y 1 , w z z d p 1 y y y y y 7 2 4 7 p d c n n d a d h h Z h y 8 u u u i i u y 0 y 1 1 e z z d p 5 w e y y e 5 1 1 6 p z s s s p t p k z z d w 1 ",
"y 9 0 y y y y 9 8 < < 6 p s s a 7 7 9 y y y 7 1 , 7 y d z g d i u s z d d i 9 3 3 8 0 i s i u y y 4 1 7 y s d p 4 7 7 e y y 5 1 > 4 w t p p t t t p p p s p 6 > ",
"3 7 r y s y r 8 7 1 < 7 r y y y 7 6 2 8 y 9 3 > , 5 e y p a y y y y y y y r 9 3 : 8 0 u i i y 9 9 2 4 w r y p w 6 1 1 4 7 7 6 % > 4 q r r t w q q q q 6 q w 4 - ",
"2 3 w 9 y r 8 w 7 < - 6 6 7 6 5 7 > - 1 3 5 1 % * 5 w e e 7 7 5 6 6 2 1 6 7 2 < : 7 9 9 9 9 9 7 3 > - 5 6 6 6 3 4 - - > > 1 - # > 1 6 q 6 4 4 1 < < > > , > > & ",
"2 4 3 6 2 7 7 w 1 = - 1 4 4 4 1 4 - - - % = $ @ $ , 7 7 5 4 1 % $ - > : > < > = 3 3 7 3 3 8 3 3 1 & $ 4 6 1 2 : 1 - - - * # # + * > 1 4 < < = = > = > = > > * + ",
"7 6 6 2 - 1 6 7 6 < < 7 r r 6 < 1 7 7 1 1 < 1 6 2 4 2 2 7 p 7 = $ 6 p d p y r 3 3 9 y 0 1 3 3 r 5 2 5 y y p r 7 q w w 7 4 4 5 w 6 5 4 5 w s t = < k v v k w e q ",
"y 8 r w > 1 7 r y r 0 y u y 9 7 4 7 y r 7 5 7 y 7 8 7 7 r y 7 - 1 d J H i i u y y y u y 1 3 9 0 i d d d h d y 6 q e e e 6 7 w e w w q 5 q r 6 < 4 k v A a p e e ",
"y y r 9 < 2 7 y s f d i i d s 7 1 7 y u r 8 y y a u y y r 7 2 - 4 d H K d g d i i y u 0 1 3 9 i h j h h g d u 3 5 e p y e 7 w e y y e 6 6 4 - = 1 w l s s a p e ",
"r 8 8 8 < 1 7 8 u s s y s d y 7 1 7 y i 7 9 y d i d i y 9 4 - * , 7 i d g d i i 0 9 0 9 1 3 9 0 i d i y i i y 6 5 e y y 5 7 e p p p p y q 1 = = > 4 w p p e e e ",
"9 w 7 3 - > 3 7 9 9 r 9 9 r 9 3 , 5 e y 7 9 y u i d i i u 7 > @ ; 3 y u u i i i 0 9 0 9 % 3 9 9 0 u u u 0 u y 3 4 7 e e , 7 e e y y r r w 7 = @ * 4 e r t r y 6 ",
"8 w 7 3 - 1 3 w r r 9 r 7 8 8 6 > 1 5 4 1 5 8 9 r y s y y 6 1 - ; 3 8 8 y y y 0 9 9 9 3 3 3 7 9 9 u 9 y 8 8 8 1 , 1 5 1 , 5 7 8 w w w w 6 1 < = > 4 5 6 7 8 7 1 ",
"3 6 1 1 > 1 6 6 7 7 6 3 1 3 1 : & - - % - 1 5 w w w 3 3 2 2 1 - ; 2 8 8 8 8 8 3 7 9 7 3 3 3 7 9 9 9 9 7 4 2 1 , , , > + * 5 7 e 6 6 1 1 6 1 < = > 4 q q w 7 6 : ",
"- - - = = < < < 1 1 1 < = - - = % - * O % 1 6 y 8 1 - = > 1 1 : % 2 8 8 8 7 2 ; 3 6 3 : 3 3 9 7 7 6 7 5 $ $ ; ; 7 4 * + , q e e t 6 > - 6 7 6 1 , w y y t w 4 - ",
"6 w r 6 6 6 r r r r t z < < 7 s A Z e 1 S N N H K A y 3 i d i i u f h h j f a 8 3 r 8 7 3 9 w 9 y i i s - 1 7 d c c e 1 l c l c c s y : y p s y e e a a i w 7 > ",
"2 6 6 6 6 6 6 r r r r r < : 6 s z d e 1 u a d d d u 8 3 u d h j g f h j g f u 0 7 8 7 8 3 7 9 9 y y y y % 1 8 a c d e , e e a a i r 6 : y y i i a p u a y y 7 1 ",
"1 4 6 6 6 < 6 6 6 6 6 6 = < 1 r y 8 5 , 1 5 7 9 8 3 1 : 9 0 h j f u 0 i i 0 0 8 7 7 7 7 3 3 3 3 3 7 7 3 * 1 8 e y e 5 , 5 7 7 7 8 6 1 - 7 y i s y 9 9 y 9 w 6 < ",
"< 4 6 6 < > = < < < < < = < 1 7 5 4 1 % , 1 2 4 4 1 : : 8 0 i 0 0 9 8 8 0 9 3 3 : 6 8 3 3 < - : 1 1 3 4 # ; 3 8 8 1 , * 1 1 1 1 1 < - % 3 9 9 7 6 4 4 4 6 6 1 - ",
"= - < < = = O O # = = % # # & , 1 < # O % % : > : - % # 2 3 2 2 - - < ; : : 1 : # - < < > # # @ o & $ $ . o $ ; ; $ o o # $ % ; % $ o . % ; , * * + * > > > > = ",
"q w r r t w t w 4 = 1 y 4 1 1 5 7 8 y y y 6 1 : 9 9 3 2 : : - 2 5 9 8 r 9 y y y y y s u s s s z y 1 2 d 8 8 8 8 u e y a a 7 , , 8 8 8 8 8 % * 5 e e w w r r q 6 ",
"s z k k s k x x k < 4 h i y y y y u s c s y 3 : r 9 9 8 2 % > 7 a g z s s c g d C N N N n P J { N 5 8 T j j j j j j n B j y 3 1 8 8 8 8 8 % ; e k x x k z s t p ",
"z z z k k p s s x q 1 a n h g g i y 0 y 9 7 3 : : 2 3 3 3 3 2 y c n c h c g d n c n c c g u s g n 8 2 j j Y j j f 0 u f 0 8 2 ; % 8 8 8 8 % 8 e l a k e t p t t ",
"p p r r r w w r w 1 4 y d i d i y y u u 9 7 2 - > : 3 3 8 2 3 y u a i a i i s g d d s u u y y i y 2 8 0 f j f f f 0 f f 0 9 2 % % 8 8 8 8 : 1 e s p t k t t w q ",
"r r t r t r q q 6 = % y y y y y 9 r y u y 8 2 - : : : 3 2 : 4 9 u s s u s s p u y u s i i y y y 8 1 2 f 0 0 f e 0 0 f f 0 0 2 ; 8 ; 8 8 8 , 1 e p w e w t w q q ",
"w q r 6 w q 6 < 1 = - 7 w e 7 w w r 9 9 9 7 1 % : : : 3 1 ; , 5 r r r y y r r 8 8 8 9 y y y w 3 3 - ; e 0 8 8 8 0 8 8 8 8 8 : % 8 8 1 8 8 % - 8 q 7 q w q q 4 < ",
"6 4 4 4 q 4 < > > O = 7 7 w 7 7 7 6 1 1 4 1 : - : : 1 3 1 , ; , 1 1 6 7 8 7 7 6 6 3 6 7 7 w 1 - , # % 8 8 8 8 2 2 : : 2 : : ; ; 1 2 8 8 2 - - - > > > 6 4 < > > ",
"w r y w 6 6 y r 1 @ % r s s p y 1 % : > 1 3 r 9 y u a a 5 7 e u - : 8 K P c s 8 7 y i i r y i d 8 % , c z d f f : : 8 8 8 0 i d c a e e e c a e - < r M S Z s 7 ",
"w y d d s u y u 0 - % w y y y y 1 > 1 7 r y u u a u e y c c g u 1 1 9 N N n i 8 y i g n g f d h e 2 8 f a i g f 2 2 0 0 f f f f g f e e c N j e > 1 y c n a r 1 ",
"y y s z x i s s s 1 - 3 y y y y 6 1 6 9 i i r u y 8 3 5 c n f 0 2 3 7 d h g u 8 i g h n n h f f g 8 : 8 u f f f 8 8 8 0 j f f i 8 8 8 8 c c f 8 1 1 y i i p 7 < ",
"6 9 p s s s u y y 6 > 1 y i s i 7 6 3 8 r r 9 r 3 3 1 : 8 y y 8 : : 7 d d d u 9 i i i g h h h h f 8 ; 8 i j j j 8 8 0 0 i i y 0 8 8 2 8 e i e 8 : 2 r s s s r 1 ",
"3 r y y y y y 9 9 1 < 3 r i g i 7 : 1 8 8 7 6 3 2 5 7 7 3 8 0 8 2 3 y d h d u 9 u i f i u i i i 8 2 ; 8 0 j j f 8 8 8 0 8 8 8 8 8 8 0 8 0 u 0 9 < 3 r s s i w < ",
"1 6 r 7 w 7 w 6 3 # @ - 6 w 9 7 : % - 1 1 : : : 1 2 3 1 1 4 5 2 % : 2 0 u y 9 7 1 w y 9 9 0 9 8 8 o o ; 8 8 0 8 % ; : : : : % % 2 1 3 2 3 3 3 1 # % < 8 7 w 1 - ",
"4 4 4 6 6 1 1 > < # @ : 6 3 6 3 < % - < 7 6 1 1 2 7 3 4 - 1 6 1 % % ; 2 7 7 8 3 > 2 3 3 6 3 2 : 1 ; % : 8 8 8 8 % % ; 2 8 8 8 8 3 8 8 1 ; 2 7 4 % % : 3 2 3 1 : ",
"5 4 4 4 4 1 - # > 1 6 1 8 r w 6 6 1 : 1 N n s i y y a y & 3 y 7 5 2 2 1 1 1 3 3 9 3 3 3 3 2 > $ 8 8 8 8 0 0 0 8 8 8 8 u Y Y Y j M N c 8 2 y d y 7 6 3 3 3 3 w w ",
"9 7 r y s y 6 = 1 6 6 w y p e e w 7 5 1 a d d d s y y 7 - 5 a y 3 3 8 9 9 9 9 0 0 0 i f f u 3 1 8 8 8 u f g d y u 8 8 2 f j m j h h f e 7 y i u 8 8 e y 8 9 8 7 ",
"9 y u u s y 3 $ < 6 7 e p y e e w 7 4 1 a d d z a a y 6 % 1 y y r 7 8 y 9 9 9 9 0 f h j h u 3 % 8 8 8 u d f i i 0 8 8 8 j j j m j j f 8 8 8 i u 8 8 8 0 9 8 7 3 ",
"9 y s s s 9 1 = < 1 4 6 w e e w 7 5 1 , y d d d d a y 6 & 1 7 y y 7 3 9 9 8 9 8 0 i h f f 0 3 % 2 8 8 8 u u u u 8 8 : : f h j n j g a 5 : 8 0 y 0 3 8 8 8 8 3 3 ",
"w y y y 9 w 3 < 1 > , 1 5 5 5 4 1 , > , 7 y p p p y w 4 & , 5 8 r 1 : 9 3 8 8 9 9 0 0 u 9 8 2 : ; : : 8 3 8 8 3 8 ; ; % 9 i d d i i 8 1 : 3 8 8 y 1 ; 3 8 7 3 1 ",
"7 6 7 7 6 1 > = - * # & > , 1 1 , * * * 4 4 6 5 5 7 4 - X * 1 5 2 - - % 3 3 3 3 8 9 8 3 2 2 ; ; : % $ - : 8 3 5 2 : % $ 2 7 3 8 8 8 1 - & ; 2 3 3 - $ - 1 3 1 : ",
"1 2 1 1 : : : % , * & > , 4 4 4 > > , , , 1 , - - 1 4 4 > 5 6 w 7 4 > > 7 7 7 2 : 2 3 3 3 1 ; % 2 - - 1 1 8 8 1 ; 2 2 1 3 3 : : : 7 8 7 2 e y y 7 2 1 7 y 9 5 1 ",
"1 6 6 3 6 1 1 > 4 - - 4 5 q q 5 , 4 5 q 5 4 1 - * 1 w e e p a d y r 8 8 y a 9 2 : 3 9 9 8 3 3 3 8 ; ; 8 e e a 8 ; 7 u y 9 8 2 % ; 7 a d g c c d i y y d d d 9 1 ",
"6 9 y y 0 w w 8 8 , > q e p p p w w e p y e 7 4 1 5 y d z z z d u a d n g i u 9 8 i f i f i i i e 8 : 8 f c c d 2 u h i i 0 9 3 1 8 f n N n n h d h n j h d y 1 ",
"- 3 9 e e y y e w 1 = 6 r p s s p w 7 e e y 7 5 < 4 r p z s s s y p d s a i y 7 : 9 0 u i i u u u 3 1 8 a d g a 0 y i 0 i u 8 2 ; 8 i d g c d a i d d a d a 8 1 ",
"# 4 7 e y y e w 7 > - 1 q r t r w 4 1 7 w e 6 1 & 1 r r p p p p w e y y y y 7 2 % 3 0 0 i i u y e 3 1 8 e u a e 8 7 3 8 0 u 8 : ; 8 u a d d a y y y y y y y 7 , ",
"X > 7 e w e e w 6 - = 4 4 6 q 7 q , > 1 4 5 1 - @ 1 7 w w 7 5 4 6 5 5 4 7 7 6 , # 2 8 8 a u 0 8 8 ; , 8 8 8 8 8 8 1 - 2 3 3 2 $ % 3 e e 8 8 6 5 7 6 4 4 7 5 , * ",
"X > 7 6 5 6 7 7 4 * * < 4 4 4 4 > - - > - - * + # > 4 w 7 4 1 , * > 1 1 4 7 1 - $ 2 7 8 7 8 8 7 , % - 1 3 3 8 8 2 ; - , - $ & # % 1 8 8 5 5 1 - - < 1 1 1 1 > # ",
"% > 2 2 > > 4 w 4 < < 4 w 6 4 < % > 1 1 < - > 4 1 1 > > 5 e w , $ 1 p z p y w 4 : 3 8 7 , 2 8 e e 5 5 8 e e e 1 > 2 8 e 5 1 3 e 8 7 7 8 a d w > 1 p v v a e e 1 ",
"7 7 7 7 > 1 4 6 w 7 r r r y 8 6 - 1 7 7 6 4 6 7 w w 1 1 6 y w q 1 p c S a i y y 8 9 0 8 , 3 e u i d i d g f e 8 - 8 e u y 8 e d a u e 8 e y w , 4 d S S g d a e ",
"r 9 8 w 4 1 5 7 y p s i u s y r - 4 y y y 7 7 y y y r 7 7 6 4 5 5 y A n i i i i y u u y 3 8 e u g j h f h h e 8 , 8 i f u y i f f f i y 8 5 1 > 4 u g c d d a y ",
"7 7 8 6 < 1 2 7 y a s y y s y 7 - 5 y y 6 6 8 s y s i y w 1 - * , 7 y d a a a i 0 8 0 8 8 3 8 e f g f i i g d e , 8 i f 8 y i g h g g d a 2 - + ; 7 y d d a y 8 ",
"6 3 7 7 < - - 5 6 r r w 8 r r w > 2 8 r 1 5 7 y y y a p y 7 , # - 6 9 y s y i y 0 9 9 9 3 7 8 9 y u y 0 0 u 9 3 ; 8 8 e 8 8 j e j j f f e e 8 o - 7 y y y a y 8 ",
": 6 7 6 1 < 4 7 6 r w 7 6 7 7 6 - < 4 4 - , 7 e y y y y y 6 , * % 3 7 w r y y 9 9 9 8 8 4 3 7 9 0 9 y 9 9 9 9 3 ; , 8 , , 8 e e e e 8 8 e e 1 $ : 6 9 y e y 8 7 ",
"% < 6 4 > < 6 5 q 6 6 q 1 1 1 > * % - * & > 5 q 5 6 5 4 4 4 1 > = < 7 7 0 8 7 3 2 3 7 2 1 2 7 9 9 8 8 7 3 5 2 : - , , $ ; 8 8 e e 8 8 8 5 8 8 * , 4 9 y 8 8 7 1 ",
"X - < < > < < 4 < < 4 < < = - = # $ & @ + * 4 5 6 1 - % < 1 , > - 1 7 8 r 8 6 1 - 4 2 < 1 3 6 w 7 7 6 6 % % - - , , $ . ; 8 e e e 8 8 $ 8 8 8 8 4 y y s p e 5 , ",
"O < q q 4 4 4 q r r q r 4 - , 6 t w 4 > > q e p y r 8 7 e y y y 0 r i u i i 9 3 - 6 y 7 4 6 7 9 8 y r 7 - - 3 y e c e ; j j j j j 8 8 8 e j f e u u i f i 0 3 ; ",
"  = 6 q 4 4 6 q q q r 6 4 - , w r t 6 > 1 6 e e y 8 7 6 e y a g s i i s i u y 7 - 4 7 7 3 5 w 8 8 8 7 7 < 4 8 y e e e 8 e f e f 8 8 % % e e j j h i i g i y 7 1 ",
"  = q < < 4 < 4 q 4 4 4 < > > q 7 7 4 - 1 4 q 7 7 6 2 1 8 y d d s y y u y y 9 6 - 1 6 7 4 1 4 2 6 7 7 6 > 4 7 y e e 8 ; 8 8 8 8 8 8 8 % 8 j j f i 0 i y y y 6 1 ",
"@ = 4 q < > = = < < < < < = > 4 6 4 < # > , 1 4 4 4 : > 3 y y 9 9 9 7 7 8 7 7 3 & : 5 5 4 % $ : > 4 2 4 - > 2 8 8 8 - $ ; 1 2 8 8 8 % 8 8 e e e 8 8 3 7 7 7 2 1 ",
"  @ < < < - = @ @ @ > < > # @ > , , * X # * - > - - $ @ 1 3 3 1 : < : : - < < - . # - - - & + O + # % - # + $ - , % # X + % % - % % o o $ ; - - - - - , 1 1 > - ",
"< 4 q q q q 6 6 4 = - 4 4 1 < 4 6 q 5 4 5 4 > % 1 1 < < 1 : - - 3 q q 7 w 9 8 w 5 7 w y e y e w 6 > 2 y 8 3 7 8 y y e e 8 8 , : 8 8 8 8 8 ; ; 8 e e e e y r 6 6 ",
"y t w t r t t t r < > r y y y y p y y p y w 1 % 1 1 2 2 3 : - : r s s p y s s s c d l z z z c z s 7 8 h h g g g g g g g f e 8 , 8 8 8 8 8 ; 8 e d c c d s s k w ",
"s k k t p t t t p 4 < 6 d d d l a y 8 y y 7 6 1 < 1 2 7 7 6 1 1 s s z d s s s s d z d d d y y y y 6 6 i h j j h i u u i 8 8 2 , 8 8 8 8 e , 2 e d c c d p p s p ",
"p p t r w q q q r < > 4 p y d a y y y p r 7 5 < < 1 1 2 7 6 : < r r s p p t p p a y p p l e e e 7 3 7 f g g f i y u d i y 0 2 % 8 ; 8 8 8 % ; e a p s s p p p q ",
"y r w t t r q q q > - 1 y p e e e e y y y 8 6 1 1 1 1 2 3 1 < - r t y s p p y p y y y y e e e w 2 1 3 d i u y a 0 u i i i 8 8 - ; 8 8 8 8 % 8 e p p p s p w q q ",
"r w q q q q q 4 1 = * > w w q q w w e w w 7 1 = - : < < 1 < - = 4 q q w w w w q 7 w w w e w q < 4 & - 9 7 7 7 7 8 8 8 e 8 7 , * ; 8 % 8 8 % % ; q q q q q 4 4 4 ",
"6 < < < 4 < > = = O # > , 1 1 4 4 5 5 4 6 4 - # = = - - < - $ X > < 4 < 4 < < < 1 4 < < 1 4 , + * X o - , , , ; , , , 4 , , & + % % % % % $ + + > - > < > > & > "
};
