/* XPM */
static char *result[] = {
/* columns rows colors chars-per-pixel */
"50 39 201 2 ",
"   c black",
".  c #010000",
"X  c #010001",
"o  c #010101",
"O  c #020000",
"+  c #030000",
"@  c #020001",
"#  c #030001",
"$  c #020101",
"%  c #030101",
"&  c #020202",
"*  c #030202",
"=  c #040001",
"-  c #040101",
";  c #050101",
":  c #060101",
">  c #040102",
",  c #050102",
"<  c #060102",
"1  c #070102",
"2  c #050202",
"3  c #060202",
"4  c #070707",
"5  c #080102",
"6  c #0A0102",
"7  c #0B0102",
"8  c #0C0102",
"9  c #0C0203",
"0  c #0D0203",
"q  c #0E0203",
"w  c #0B0B0B",
"e  c #110103",
"r  c #100203",
"t  c #130204",
"y  c #120304",
"u  c #130305",
"i  c #140204",
"p  c #160204",
"a  c #190305",
"s  c #1B0306",
"d  c #1F0205",
"f  c #1D0306",
"g  c #1A0D0E",
"h  c #161616",
"j  c #240105",
"k  c #280307",
"l  c #290307",
"z  c #280407",
"x  c #330308",
"c  c #31050A",
"v  c #3E040A",
"b  c #262324",
"n  c #2D2D2D",
"m  c gray24",
"M  c #49040B",
"N  c #51040D",
"B  c #52040D",
"V  c #53040D",
"C  c #55040D",
"Z  c #57040D",
"A  c #59040E",
"S  c #5B050E",
"D  c #4B0B12",
"F  c #54161C",
"G  c #61040E",
"H  c #64040F",
"J  c #6A0410",
"K  c #730511",
"L  c #760512",
"P  c #780F1A",
"I  c #7D1622",
"U  c #6B3B41",
"Y  c #6D3B41",
"T  c #6B3E43",
"R  c #733B41",
"E  c #753B41",
"W  c gray33",
"Q  c #7D6063",
"!  c #850514",
"~  c #850614",
"^  c #880514",
"/  c #8F0515",
"(  c #860C1B",
")  c #870C1B",
"_  c #8E0C1B",
"`  c #8F0C1B",
"'  c #910515",
"]  c #930515",
"[  c #930616",
"{  c #950516",
"}  c #960516",
"|  c #940616",
" . c #960717",
".. c #9A0516",
"X. c #9B0517",
"o. c #9A0617",
"O. c #9D0517",
"+. c #9D0E1F",
"@. c #88101E",
"#. c #A10517",
"$. c #A20517",
"%. c #A10617",
"&. c #A20617",
"*. c #A40618",
"=. c #A70618",
"-. c #AB0619",
";. c #AE0619",
":. c #B10619",
">. c #B2061A",
",. c #B3061A",
"<. c #B4061A",
"1. c #BA061B",
"2. c #BB061B",
"3. c #BA071B",
"4. c #BB071B",
"5. c #BC061B",
"6. c #BD061B",
"7. c #BE061B",
"8. c #BF061B",
"9. c #B2091D",
"0. c #B4091D",
"q. c #B7081C",
"w. c #B7091D",
"e. c #B70B1F",
"r. c #B8091D",
"t. c #B80A1E",
"y. c #BC081D",
"u. c #BD081D",
"i. c #BD0A1F",
"p. c #821F2B",
"a. c #A21929",
"s. c #A11E2E",
"d. c #822732",
"f. c #8E323D",
"g. c #A32635",
"h. c #AC2333",
"j. c #A82635",
"k. c #A52F3C",
"l. c #A92D3A",
"z. c #C0061B",
"x. c #C1061C",
"c. c #C2061C",
"v. c #C3061C",
"b. c #C6061C",
"n. c #C7061C",
"m. c #C8061C",
"M. c #C8061D",
"N. c #C9061D",
"B. c #CA061D",
"V. c #CB061D",
"C. c #C8071E",
"Z. c #CA071E",
"A. c #CC061D",
"S. c #C00A1F",
"D. c #C9081E",
"F. c #C00C21",
"G. c #86464D",
"H. c #895359",
"J. c #826B6D",
"K. c #956167",
"L. c #A27D82",
"P. c #968E8E",
"I. c #939393",
"U. c #999293",
"Y. c #A68589",
"T. c #A88488",
"R. c #A79698",
"E. c #B49599",
"W. c #BC9B9F",
"Q. c #AAAAAA",
"!. c #AFAFAF",
"~. c #B1B1B1",
"^. c gray72",
"/. c #BFBDBE",
"(. c #C1A3A6",
"). c #C2B3B5",
"_. c #C5C5C5",
"`. c #C7C6C6",
"'. c gray78",
"]. c #CCC6C7",
"[. c #CDC6C7",
"{. c #D5D5D5",
"}. c #DADADA",
"|. c #E0DBDB",
" X c #E4E0E0",
".X c #E9E3E4",
"XX c #EAEAEA",
"oX c #EDECEC",
"OX c gray93",
"+X c #F0EFEF",
"@X c #F2F1F1",
"#X c #F4F4F4",
"$X c gray96",
"%X c #F6F6F6",
"&X c #F8F7F7",
"*X c #F8F8F8",
"=X c #F9F9F9",
"-X c gray98",
";X c gray99",
":X c #FDFDFD",
">X c #FEFEFE",
/* pixels */
"                                                                                                    ",
"                                                                                                    ",
"                                          + : 1 1 5 1 < +                                           ",
"                                      ; 7 V ] :.6.6.>.} A 8 ;                                       ",
"                                  . 6 G 1.V.A.A.A.A.A.A.V.6.J 7 .                                   ",
"                                . t ..M.A.A.A.A.A.A.A.A.A.A.N.&.a $                                 ",
"                                i =.B.A.A.A.A.A.A.A.A.A.A.A.A.V.;.s                                 ",
"                              7 / N.A.A.A.A.A.A.A.A.A.A.A.A.A.A.B.X.0                               ",
"                            X M x.A.N.8.6.m.A.A.A.A.A.A.M.6.8.M.A.v.Z $                             ",
"                            9 *.V.S.h.E U k.e.V.A.A.V.t.l.Y R j.F.V.-.y                             ",
"                            x 5.u.G.|.=X;X+XJ.9.A.A.r.Q OX;X-X XH.i.z.v .                           ",
"                          o H n.P U.^.$X>X>X;XT V.V.F Q._.:X>X>X.Xf.M.K o                           ",
"                          o ! M.c * 4 ~.;X>X>X'.D.M.* & h }.>X>X*XT.b.| o                           ",
"                          o [ M.j     I.-X>X>XXXD.n.    w !.>X>X-XE.c.#.$                           ",
"                          &  .V.D b m }.:X>X>XP.Z.N.g n W #X>X>X@XK.V.#.$                           ",
"                          &  .V.+.R.oX:X>X>X{.I V.V.@./.%X>X>X&X).a.A.$.%                           ",
"                          &  .V.B.s.L.[.`.(.d.C.A.A.C.p.W.`.].Y.g.B.A.$.%                           ",
"                          &  .V.A.V.y.` ( 0.B.A.A.A.A.V.q.) _ w.V.A.A.$.%                           ",
"                          &  .V.A.A.A.A.A.A.A.A.A.A.A.A.A.A.A.A.A.A.A.$.%                           ",
"                          &  .V.A.A.A.A.A.A.A.A.A.A.A.A.A.A.A.A.A.A.A.$.%                           ",
"                          &  .V.A.A.A.A.A.A.A.A.A.A.A.A.A.A.A.A.A.A.A.$.%                           ",
"                          &  .V.A.A.A.A.A.A.A.A.A.A.A.A.A.A.A.A.A.A.A.$.%                           ",
"                          &  .V.A.A.A.A.A.A.A.A.A.A.A.A.A.A.A.A.A.A.A.$.%                           ",
"                          &  .V.A.A.A.A.A.A.A.A.A.A.A.A.A.A.A.A.A.A.A.$.%                           ",
"                          &  .V.A.A.A.A.A.A.A.A.A.A.A.A.A.A.A.A.A.A.A.$.%                           ",
"                          &  .V.A.A.A.A.A.A.A.A.A.A.A.A.A.A.A.A.A.A.A.$.%                           ",
"                          &  .V.A.A.A.A.A.A.A.A.A.A.A.A.A.A.A.A.A.A.A.$.%                           ",
"                          &  .V.A.A.A.A.A.A.A.A.A.A.A.A.A.A.A.A.A.A.A.$.%                           ",
"                          &  .V.A.A.A.A.A.A.A.A.A.A.A.A.A.A.A.A.A.A.A.$.%                           ",
"                          &  .V.A.A.A.A.A.A.A.A.A.A.A.A.A.A.A.A.A.A.A.$.%                           ",
"                          &  .V.A.A.A.A.A.A.A.A.A.A.A.A.A.A.A.A.A.A.A.$.%                           ",
"                          &  .V.A.A.A.A.A.A.A.A.A.A.A.A.A.A.A.A.A.A.A.$.%                           ",
"                          &  .V.A.A.A.A.A.A.A.A.A.A.A.A.A.A.A.A.V.A.A.$.%                           ",
"                          &  .B.o.v V <.V.A.A.O.z k X.A.A.N.%.l d ^ N.$.%                           ",
"                          &  .{ p # = f 2.A.4.u O O r 3.A.,.q O . e / $.%                           ",
"                          o ~ S ;     & ! 8.N @     O B 7.L &     - C ' $                           ",
"                            , 2         < 5 >         > 5 3         > 3                             ",
"                                                                                                    ",
"                                                                                                    "
};
