/* XPM */
static char *result[] = {
/* columns rows colors chars-per-pixel */
"50 28 113 2 ",
"   c black",
".  c #010100",
"X  c #020200",
"o  c #030300",
"O  c #040400",
"+  c #050500",
"@  c #060600",
"#  c #070701",
"$  c #0C0C00",
"%  c #0D0D00",
"&  c #0C0C01",
"*  c #0F0F00",
"=  c #0F0F01",
"-  c #101000",
";  c #121201",
":  c #121301",
">  c #131401",
",  c #141401",
"<  c #151501",
"1  c #181801",
"2  c #1A1A01",
"3  c #1B1B01",
"4  c #1C1C01",
"5  c #202001",
"6  c #212101",
"7  c #222201",
"8  c #232301",
"9  c #212102",
"0  c #242401",
"q  c #252501",
"w  c #282801",
"e  c #292901",
"r  c #2A2A01",
"t  c #2B2B01",
"y  c #2C2C02",
"u  c #313002",
"i  c #333302",
"p  c #353501",
"a  c #343402",
"s  c #343502",
"d  c #373702",
"f  c #3A3A02",
"g  c #444402",
"h  c #494902",
"j  c #4E4E01",
"k  c #575702",
"l  c #585802",
"z  c #5D5D03",
"x  c #656503",
"c  c #686802",
"v  c #6A6B02",
"b  c #737302",
"n  c #7B7B03",
"m  c #7E7E02",
"M  c #858503",
"N  c #8A8A03",
"B  c #8E8E02",
"V  c #929202",
"C  c #969603",
"Z  c #9C9C02",
"A  c #9E9E03",
"S  c #A1A103",
"D  c #A6A601",
"F  c #A7A702",
"G  c #ACAC02",
"H  c #B4B401",
"J  c #B6B601",
"K  c #B9B902",
"L  c #C0C002",
"P  c #C6C601",
"I  c #C7C701",
"U  c #C5C502",
"Y  c #C8C801",
"T  c #CBCB01",
"R  c #C9C902",
"E  c #CACA02",
"W  c #CCCC01",
"Q  c #CDCD01",
"!  c #CECE02",
"~  c #CFCF02",
"^  c #D0D001",
"/  c #D0D002",
"(  c #D3D302",
")  c #D4D401",
"_  c #D5D501",
"`  c #D4D402",
"'  c #D6D702",
"]  c #DBDB01",
"[  c #DCDC01",
"{  c #DDDE02",
"}  c #DFDF02",
"|  c #E1E101",
" . c #E2E200",
".. c #E2E201",
"X. c #E7E701",
"o. c #E9E901",
"O. c #EFEF01",
"+. c #EFEF02",
"@. c #F1F100",
"#. c #F0F001",
"$. c #F3F300",
"%. c #F2F201",
"&. c #F4F400",
"*. c #F5F501",
"=. c #F7F700",
"-. c #FAFA00",
";. c #FBFB00",
":. c #FBFB01",
">. c #FCFC00",
",. c #FDFD00",
"<. c #FEFE00",
"1. c yellow",
"2. c #FEFE01",
/* pixels */
"                                                                                                    ",
"                                                                                                    ",
"                                          o , 9 5 =                                                 ",
"                                      q b H W _ ) Y D k ,                                           ",
"                                  1 B X.=.,.1.1.1.1.>.$.] x                                         ",
"                                r ( <.1.1.1.1.1.1.1.1.1.1.1.K &                                     ",
"                              t | 1.1.1.1.1.1.1.1.1.1.1.1.1.,.L 3                                   ",
"                            4 ( 1.1.1.1.1.1.1.1.1.1.1.1.1.1.1.-.Z -                                 ",
"                          O S 1.1.1.1.1.1.1.1.1.1.1.1.1.1.1.1.1.O.j o                               ",
"                          i #.1.1.1.1.1.1.1.1.1.1.1.1.1.1.1.1.1.1.I $                               ",
"                          C >.1.1.1.1.1.1.1.1.1.1.1.1.1.1.1.1.1.1.;.u                               ",
"                        ; T 1.1.1.1.1.1.1.1.1.1.1.1.1.1.1.1.1.1.1.1.M                               ",
"                        w ] 1.1.1.1.1.1.1.1.1.1.1.1.1.1.1.1.1.1.1.1.J                               ",
"                        a ..1.1.1.1.1.1.1.1.1.:.<.1.1.1.1.1.1.1.1.1.!                               ",
"                        p  .1.1.1.1.1.1.1.1.<.V ' 1.1.1.1.1.1.1.1.1.~                               ",
"                        e [ 1.1.1.1.1.1.1.1./ 8 g 2.1.1.1.1.1.1.1.1.K                               ",
"                        < Q 1.1.1.1.1.1.1.*.v X X G 1.1.1.1.1.1.1.1.N                               ",
"                          A >.1.1.1.1.1.<.P <     2 #.1.1.1.1.1.1.>.d                               ",
"                          f @.1.1.1.1.1.$.h       @ m -.1.1.1.1.1.! %                               ",
"                          # G 1.1.1.1.1.G #         6 ^ 1.1.1.1.%.l o                               ",
"                            7 { 1.1.1.+.0           + c @.1.1.;.F :                                 ",
"                              s o.1.1.n               > U <.<.E 6 .                                 ",
"                              . p } ` *                 g &.R <                                     ",
"                                  7 y X                 . z X                                       ",
"                                                                                                    ",
"                                                                                                    ",
"                                                                                                    ",
"                                                                                                    "
};
