/* XPM */
static char *result[] = {
/* columns rows colors chars-per-pixel */
"50 28 110 2 ",
"   c black",
".  c #000100",
"X  c #010100",
"o  c #020200",
"O  c #030300",
"+  c #040400",
"@  c #050500",
"#  c #050600",
"$  c #060600",
"%  c #070700",
"&  c #060601",
"*  c #080800",
"=  c #090900",
"-  c #0A0A00",
";  c #0B0B01",
":  c #0D0D00",
">  c #0E0E00",
",  c #0E0E01",
"<  c #0F1001",
"1  c #121201",
"2  c #151501",
"3  c #161600",
"4  c #161601",
"5  c #1A1A01",
"6  c #1C1C01",
"7  c #1D1D01",
"8  c #2A2A01",
"9  c #2B2B01",
"0  c #2C2C01",
"q  c #2D2D01",
"w  c #333301",
"e  c #303002",
"r  c #363701",
"t  c #373702",
"y  c #393901",
"u  c #3E3E01",
"i  c #414102",
"p  c #464602",
"a  c #494902",
"s  c #4C4C02",
"d  c #4F4F02",
"f  c #595902",
"g  c #5A5A02",
"h  c #5B5B02",
"j  c #5B5C02",
"k  c #626202",
"l  c #636302",
"z  c #646402",
"x  c #696902",
"c  c #6A6A02",
"v  c #6C6C02",
"b  c #6F6F02",
"n  c #707002",
"m  c #777702",
"M  c #7B7B02",
"N  c #7C7C03",
"B  c #858502",
"V  c #848403",
"C  c #878702",
"Z  c #898903",
"A  c #8C8C02",
"S  c #8E8E02",
"D  c #909002",
"F  c #959502",
"G  c #969602",
"H  c #9F9F02",
"J  c #A0A003",
"K  c #A4A402",
"L  c #A9A903",
"P  c #ABAB02",
"I  c #B5B502",
"U  c #BABA02",
"Y  c #C5C503",
"T  c #CDCD02",
"R  c #CDCD03",
"E  c #D2D201",
"W  c #D3D301",
"Q  c #D0D002",
"!  c #D7D702",
"~  c #D8D801",
"^  c #DBDB01",
"/  c #D8D802",
"(  c #DEDE01",
")  c #E0E001",
"_  c #E1E101",
"`  c #E2E201",
"'  c #E0E102",
"]  c #E3E302",
"[  c #E4E401",
"{  c #E9E901",
"}  c #EBEB01",
"|  c #ECEC00",
" . c #EDED01",
".. c #EFEF01",
"X. c #F1F101",
"o. c #F2F201",
"O. c #F3F301",
"+. c #F6F600",
"@. c #F7F700",
"#. c #F7F701",
"$. c #F8F800",
"%. c #F9F900",
"&. c #FAFA00",
"*. c #FAFA01",
"=. c #FCFC00",
"-. c #FDFD00",
";. c #FCFC01",
":. c #FEFE00",
">. c #FFFE00",
",. c yellow",
/* pixels */
"                                                                                                    ",
"                                                                                                    ",
"                                  + # .                   ;                                         ",
"                                : c B *                 2 I s X                                     ",
"                              * S O.o.e                 M %. .v o                                   ",
"                            X V :.,.,.Y o             8 ^ ,.,...h X                                 ",
"                            a ;.,.,.,.>.j           - D =.,.,.,.~ 9 X                               ",
"                          1 / ,.,.,.,.,.' 5       X y [ ,.,.,.,.:.F %                               ",
"                          g @.,.,.,.,.,.&.A $     - I :.,.,.,.,.,.{ 5                               ",
"                        & I :.,.,.,.,.,.,.) r     d +.,.,.,.,.,.,.>.z                               ",
"                        6 E ,.,.,.,.,.,.,.-.H , O ] ,.,.,.,.,.,.,.,.L                               ",
"                        q ( ,.,.,.,.,.,.,.,.X.u N ,.,.,.,.,.,.,.,.,.R                               ",
"                        w ` ,.,.,.,.,.,.,.,.,.Q #.,.,.,.,.,.,.,.,.,.!                               ",
"                        q ( ,.,.,.,.,.,.,.,.,.,.,.,.,.,.,.,.,.,.,.,.T                               ",
"                        7 W ,.,.,.,.,.,.,.,.,.,.,.,.,.,.,.,.,.,.,.,.P                               ",
"                        @ U :.,.,.,.,.,.,.,.,.,.,.,.,.,.,.,.,.,.,.,.x                               ",
"                          k @.,.,.,.,.,.,.,.,.,.,.,.,.,.,.,.,.,.,.O.3                               ",
"                          1 _ ,.,.,.,.,.,.,.,.,.,.,.,.,.,.,.,.,.:.J *                               ",
"                            f $.,.,.,.,.,.,.,.,.,.,.,.,.,.,.,.,.) 0                                 ",
"                            X G *.,.,.,.,.,.,.,.,.,.,.,.,.,.,.| l %                                 ",
"                              < F #.,.,.,.,.,.,.,.,.,.,.,.,.o.b :                                   ",
"                                > b } ,.,.,.,.,.,.,.,.,.,._ i =                                     ",
"                                  o 4 K O.,.,.,.,.,.:.[ N - X                                       ",
"                                        @ p m Z C n t O                                             ",
"                                                                                                    ",
"                                                                                                    ",
"                                                                                                    ",
"                                                                                                    "
};
