/* XPM */
static char *result[] = {
/* columns rows colors chars-per-pixel */
"50 28 121 2 ",
"   c black",
".  c #010100",
"X  c #020200",
"o  c #030300",
"O  c #040400",
"+  c #050500",
"@  c #050501",
"#  c #060600",
"$  c #070700",
"%  c #090900",
"&  c #0A0A00",
"*  c #0A0A01",
"=  c #0B0B01",
"-  c #0C0C00",
";  c #0C0C01",
":  c #0D0D01",
">  c #0F0F00",
",  c #101000",
"<  c #111100",
"1  c #111101",
"2  c #121200",
"3  c #121201",
"4  c #131301",
"5  c #141401",
"6  c #151501",
"7  c #171701",
"8  c #191901",
"9  c #191A01",
"0  c #1D1D01",
"q  c #1F1F01",
"w  c #242401",
"e  c #292901",
"r  c #343401",
"t  c #363601",
"y  c #373701",
"u  c #373702",
"i  c #393A01",
"p  c #3B3B01",
"a  c #3A3A02",
"s  c #3F3F01",
"d  c #3E3E02",
"f  c #414102",
"g  c #474802",
"h  c #484801",
"j  c #494901",
"k  c #4F4F01",
"l  c #4F4F02",
"z  c #5A5A02",
"x  c #5C5C02",
"c  c #5D5D02",
"v  c #656502",
"b  c #6C6C01",
"n  c #6D6D03",
"m  c #737302",
"M  c #747401",
"N  c #747402",
"B  c #7A7A02",
"V  c #808003",
"C  c #888903",
"Z  c #8C8C01",
"A  c #8F8F02",
"S  c #919102",
"D  c #9A9A03",
"F  c #9F9F02",
"G  c #A1A102",
"H  c #A3A303",
"J  c #ACAC03",
"K  c #AFAF02",
"L  c #AFB002",
"P  c #B2B202",
"I  c #B3B302",
"U  c #B8B802",
"Y  c #B8B902",
"T  c #BCBB02",
"R  c #BFBF01",
"E  c #C2C201",
"W  c #CBCB02",
"Q  c #D1D101",
"!  c #D3D301",
"~  c #D4D401",
"^  c #D7D701",
"/  c #D4D402",
"(  c #D5D502",
")  c #D7D703",
"_  c #D9DA01",
"`  c #DAD903",
"'  c #E1E101",
"]  c #E2E201",
"[  c #E3E301",
"{  c #E0E002",
"}  c #E5E501",
"|  c #E6E601",
" . c #E4E402",
".. c #E8E801",
"X. c #EAEA01",
"o. c #EAEB01",
"O. c #E8E802",
"+. c #ECEC01",
"@. c #EEEE00",
"#. c #EFEF00",
"$. c #EEEE01",
"%. c #F1F100",
"&. c #F0F001",
"*. c #F2F200",
"=. c #F2F201",
"-. c #F3F301",
";. c #F4F401",
":. c #F7F700",
">. c #F6F601",
",. c #F8F800",
"<. c #F9F900",
"1. c #F8F801",
"2. c #FAFA01",
"3. c #FBFB01",
"4. c #FCFC00",
"5. c #FDFD00",
"6. c #FDFD01",
"7. c #FEFE00",
"8. c yellow",
"9. c #FEFE01",
"0. c #FFFF01",
/* pixels */
"                                                                                                    ",
"                                          o = ; @                                                   ",
"                                    * t b Z F G S M f 4                                             ",
"                                + a I ' >.7.8.8.8.1.| E l #                                         ",
"                              $ B X.4.8.8.8.8.8.8.8.8.5.*.J =                                       ",
"                            X D 7.8.8.8.8.8.8.8.8.8.8.8.8.8.Q 4                                     ",
"                          # V 9.8.8.8.8.8.8.8.8.8.8.8.8.8.8.5.Y 3                                   ",
"                          q  .8.8.8.8.8.8.8.8.8.8.8.8.8.8.8.8.-.m $                                 ",
"                          & k U 6.8.8.8.8.8.8.8.8.8.8.8.8.8.8.8.~ w                                 ",
"                            . 6 v ^ 8.8.8.8.8.8.8.8.8.8.8.8.8.8.2.c o                               ",
"                                O 7 C <.8.8.8.8.8.8.8.8.8.8.8.8.8.P &                               ",
"                                      1 ) ,.8.8.8.8.8.8.8.8.8.8.8._ >                               ",
"                                        O l ! :.8.8.8.8.8.8.8.8.8.+.<                               ",
"                                          1 n o.8.8.8.8.8.8.8.8.8.&.2                               ",
"                                      . f T =.8.8.8.8.8.8.8.8.8.8.} ,                               ",
"                                  . 8 L ..8.8.8.8.8.8.8.8.8.8.8.8.W -                               ",
"                                # N $.7.8.8.8.8.8.8.8.8.8.8.8.8.8.A #                               ",
"                          . & p ` 8.8.8.8.8.8.8.8.8.8.8.8.8.8.8.-.i                                 ",
"                          6 H 0.8.8.8.8.8.8.8.8.8.8.8.8.8.8.8.5.K 5                                 ",
"                          q ( 8.8.8.8.8.8.8.8.8.8.8.8.8.8.8.8.[ s                                   ",
"                            u O.8.8.8.8.8.8.8.8.8.8.8.8.8.8.;.v $                                   ",
"                            . r { 8.8.8.8.8.8.8.8.8.8.8.8.>.x %                                     ",
"                              . 0 P 3.8.8.8.8.8.8.8.8.7./ e .                                       ",
"                                  X g K ] @.%.*.#.| R z *                                           ",
"                                        : y h j d 9                                                 ",
"                                                                                                    ",
"                                                                                                    ",
"                                                                                                    "
};
