/* XPM */
static char *result[] = {
/* columns rows colors chars-per-pixel */
"60 60 237 2 ",
"   c #000000",
".  c #090707",
"X  c #0B0C0B",
"o  c #150B09",
"O  c #18100E",
"+  c #0F1110",
"@  c #131514",
"#  c #181816",
"$  c #1A1B1A",
"%  c #240F09",
"&  c #23110B",
"*  c #2C140C",
"=  c #35170D",
"-  c #261C16",
";  c #341B14",
":  c #3B1D12",
">  c #2F271E",
",  c #3D2217",
"<  c #252624",
"1  c #2B2D2C",
"2  c #30302C",
"3  c #3C332A",
"4  c #373936",
"5  c #4C1A0F",
"6  c #441E12",
"7  c #491D12",
"8  c #601E16",
"9  c #442215",
"0  c #4C2414",
"q  c #482819",
"w  c #4D2A1B",
"e  c #532414",
"r  c #572814",
"t  c #5C2915",
"y  c #532D1B",
"u  c #5D2C19",
"i  c #4A311F",
"p  c #5C341B",
"a  c #58361C",
"s  c #632A15",
"d  c #632916",
"f  c #6B2B16",
"g  c #772E17",
"h  c #62331B",
"j  c #673518",
"k  c #6C341A",
"l  c #6B3A1C",
"z  c #7D3217",
"x  c #73331A",
"c  c #7A341A",
"v  c #753A1B",
"b  c #78381A",
"n  c #492D22",
"m  c #45362A",
"M  c #4C392D",
"N  c #573927",
"B  c #483B32",
"V  c #533E32",
"C  c #663923",
"Z  c #763D22",
"A  c #663E31",
"S  c #37403D",
"D  c #3D413D",
"F  c #7B401F",
"G  c #5A402F",
"H  c #47433B",
"J  c #594436",
"K  c #68462A",
"L  c #784527",
"P  c #7F532F",
"I  c #674A37",
"U  c #764C34",
"Y  c #6A5139",
"T  c #785438",
"R  c #3E3F40",
"E  c #3D4642",
"W  c #434A46",
"Q  c #474A46",
"!  c #454E4A",
"~  c #554D47",
"^  c #5A4B43",
"/  c #46514C",
"(  c #4B524E",
")  c #57534B",
"_  c #4D5552",
"`  c #4E5A54",
"'  c #525552",
"]  c #535A56",
"[  c #5B5B52",
"{  c #555C59",
"}  c #5A5E5B",
"|  c #654F43",
" . c #645449",
".. c #785C45",
"X. c #645A53",
"o. c #655C57",
"O. c #4F605C",
"+. c #56625C",
"@. c #5B635E",
"#. c #5B685F",
"$. c #66635B",
"%. c #766A5D",
"&. c #5C6562",
"*. c #5C6965",
"=. c #5D6A64",
"-. c #626564",
";. c #636965",
":. c #636D69",
">. c #6C6D69",
",. c #746E63",
"<. c #65736C",
"1. c #6B746D",
"2. c #68786E",
"3. c #797468",
"4. c #677271",
"5. c #6C7572",
"6. c #6D7A74",
"7. c #6E7B79",
"8. c #757774",
"9. c #727A74",
"0. c #737D7A",
"q. c #83361A",
"w. c #873E22",
"e. c #854927",
"r. c #8C4C25",
"t. c #934C29",
"y. c #89542B",
"u. c #9B5326",
"i. c #945529",
"p. c #9B542A",
"a. c #9C5B2C",
"s. c #885A36",
"d. c #995532",
"f. c #945C32",
"g. c #9A5C33",
"h. c #A55526",
"j. c #A45B2C",
"k. c #AB5C2B",
"l. c #B45F2A",
"z. c #A35A32",
"x. c #9C612E",
"c. c #8E6031",
"v. c #946234",
"b. c #9B6333",
"n. c #96653B",
"m. c #AA612E",
"M. c #B7662E",
"N. c #A46433",
"B. c #AB6432",
"V. c #AC6B35",
"C. c #A46B39",
"Z. c #AB6C39",
"A. c #B46B34",
"S. c #B46A35",
"D. c #BB6B33",
"F. c #AC723A",
"G. c #B3733B",
"H. c #BB743B",
"J. c #BB783B",
"K. c #C26B2F",
"L. c #C36D32",
"P. c #C46E37",
"I. c #C57234",
"U. c #C97638",
"Y. c #C37B3E",
"T. c #D27937",
"R. c #996B42",
"E. c #9A7149",
"W. c #8F7056",
"Q. c #A87647",
"!. c #B97944",
"~. c #AD7455",
"^. c #A77558",
"/. c #857B6A",
"(. c #957D6F",
"). c #C77E42",
"_. c #6F8078",
"`. c #73827C",
"'. c #77857D",
"]. c #D1813E",
"[. c #BD8245",
"{. c #B58456",
"}. c #87877A",
"|. c #938A76",
" X c #9B8B70",
".X c #A98467",
"XX c #B88A65",
"oX c #A98E76",
"OX c #C98445",
"+X c #D38543",
"@X c #D48845",
"#X c #DA8D46",
"$X c #D78D4A",
"%X c #DC934B",
"&X c #CA8D52",
"*X c #C29050",
"=X c #D89857",
"-X c #E29F5A",
";X c #E4A25B",
":X c #C79365",
">X c #C39269",
",X c #E9A963",
"<X c #EBAB64",
"1X c #7B8683",
"2X c #7C8A83",
"3X c #7A8885",
"4X c #828C84",
"5X c #828E8B",
"6X c #85928C",
"7X c #88948B",
"8X c #9B9686",
"9X c #879592",
"0X c #8B9A93",
"qX c #8D9D9A",
"wX c #939F97",
"eX c #A59886",
"rX c #A39F90",
"tX c #97A59A",
"yX c #93A29C",
"uX c #AAA495",
"iX c #AFA996",
"pX c #B7AD9B",
"aX c #94A5A3",
"sX c #9EACA2",
"dX c #98A8A5",
"fX c #9BACAB",
"gX c #9DB0AE",
"hX c #A1AEA3",
"jX c #A4B2A6",
"kX c #A7B4AB",
"lX c #ABB9AD",
"zX c #B6B0A0",
"xX c #ACB8B5",
"cX c #B1BDBA",
"vX c #B3C0BE",
"bX c #B9C8C6",
"nX c #BFD0CF",
/* pixels */
"                              $ 5X9X2X9XwXxXcXcXcXxXcXbXbXbXxX0X`./ fXbXbXbXnXnXbXbXbXxXxX6X+.:.kXxXcXcXvXvXvXvXxXjXdX7.",
"                              $ 0.^.W./.4X4X1X8.8.0.5X5XwXuX1X>.`.E <._.9XqXaXyXtXsXyX0X0.7./ _ :.2X5X5X9XqXaXqX}..X|.9X",
"                              $ $.H.I.Y 4X4X7X7X7X5X4X4X0.1X9X>.`.D *.7.sXhX6X0.5.4XtXtX0.'._ ] -.3XaXqX7X5X5X9.n.Q.T `.",
"                              $ { C k H 1.8.8.1.>.>.8.1X0.8.} -.7.E 7.7.7.;.;.0.5X5X5X4X:.`.` &.&.0.`.5.>.8.0.;.M i G $.",
"                              # } W D ) #.;.<.;.@.&.} } } +.&.' *.E ] / W _ { } { { { { ' } W ( { ] ( W ( _ @.-.[ ( #.2.",
"                              X 1 < @ # # # 1 B B B W R B 4 4 4 H 4 4 B R W B 4 4 2 1 1 < 1 4 W Q R 4 4 1 # # $ # O # 4 ",
"                              . 1 ! <.2.2.+.D [ [ ) ~ ' ~ ~ ~ ^ ^ ^ ^ ^  .^  . .X.X.X.X.X.o.o.o.o.$.$.o.W 1 *.`._._.H S ",
"                                @ } 3.`._.O.+.H ; 7 6 6 : 6 6 7 7 7 7 0 e e e r t e 7 7 7 7 7 7 6 7 9 ; ! +.%.2X_._.` + ",
"                                + #.[ _._.` ;.3.O & o % = = = = , p e : : % = % : 6 w y 9 : e : o o O , ] 2.3.0X}.}.O.X ",
"                                X 2 S S 4 4 Q >.; * o f Z g f f C S.h.u.y.f z s L f.N.m.L b k.r.q . . ; @.W W W ! E < . ",
"                                @ #.'.7X_._.$.1.u = 9 r.u.w.q.Z s.OXP.I.b.c z c b.G.Y.@Xv.t.P.z.z.e . , ;.2.'._.7X'.O.+ ",
"                                @ _.sXjX0X'.@.1.f 6 y.z.p.w.w.w.s.$XP.+XC.c g c g.!.].#Xc.u.P.N.V.r.o n $.<.tX7XvXsX` + ",
"                                # _.hXvXjX_.] ;.g 0 j.B.z.w.e.w.s.OXP.#XZ.q.g b g.!.).#Xy.j.P.z.S.h.& n -.{ wXjXvXtX/ + ",
"                                # }.hXhXlX2.' $.x t N.G.a.x w.Z L !.z.!.c.f f f y.N.B.G.K d.g.s.b.t.* y $.( 7XlXlXhX#.X ",
"                                - 7XjXlXwX2.] &.N  .eXeX8X(.(.(.(. X X.X.X^.^.^.^.{.~.XX.X{.{.{.{.Q.N w } &.;.tXlXhX#.+ ",
"                                $ 7XjXhX'.' ( $.n y.n.f.+XU d.@X#X#XE.C.#X#X#X#XR.P #X@X#X!.W.+X..e.C y [ ( W 1XtXhX#.+ ",
"                                $ '.}.'.#.#.( @.a y.f.f.Y.s.y.].Y.Y.n.b.J.Y.Y.H.a.f.J.J.H.B.s.G.s.e.h n { 2 &.@.6XdX&.X ",
"                                $ _.'._.O.+.+.@.- q N l L l K l p Z p v h p 0 y h l h p : t r e p u ; q } X.Q @.<.3X{ + ",
"                                @ O.#./ ` _.{ ;.q : C w.p.S.M.A.e.p.r.M.y.f e d e.j.e.u.= g f 8 d.p.0 q } ,./.~ 1.1._ + ",
"                                + / / #.2X6X+.$.r l g.m.[.=X;X;XR.Z.U.T.j.b t c g.D.a.K.6 q.g f Z.D.h 9 [ 3.iX/.o.;.! X ",
"                                @ D #.'.tX'.#.#.e v x.I.Y.$X<X-XQ.S.+X].g.c f b g.G.j.I.: z g f N.D.l q } ,.pXpXeX$.H X ",
"                                X ` _.wXhX_.<.$.0 v x.Y.[.%X<X=XQ.G.+XY.N.c c x d.Z.a.I.6 f q.8 N.S.C q @.,.zXpXpXeXH . ",
"                                @ #._.tX7X2X_.#.7 b a.U.OX&X<X;X[.F.+X].C.x z z d.C.j.P.0 x x C f.V.l w } 3.uXeXzXpX$.X ",
"                                @ ` _.hX'.hX<.#.0 j x.U.J.{.,X,XQ.S.+XOXC.f q.g g.B.M.U.w C ,.%./.Q.h n $.,./.3.iXpX,.o ",
"                                @ ( 5.tXyXhX:.>.r j x.I.J.[.<X=XQ.G.@XOXC.d q.g d.B.M.G., 8.J | V o.n n V V V V ^ | J B ",
"                                @ ! <.sXlXhX1.8.s j N.I.J.E.<X=XE.F.@X$XQ.j q.g d.B.z...~ ) I | V  .- e.t.t.w.Z A w.e.t.",
"                                @ / <.hXjX0X1.9.j x B.D.V.R.,X*XQ.C.@XQ.I 3 C I s.B.i.M R ^ n n A ^ # % * ; ; * O ; ; % ",
"                                @ =.2.tXtX9.-.>.h k A.M.b.s.,X!.E.N.@XY < 1 | XX{.B.l.t.; ~ M V V B & : 8 u c c C w.w.A ",
"                                @ :.<.tX7X<.] -.s j I.m.v.c.;X&Xn.n.%X) 1 1 Y &X*XD.M.M.q w M B m ; % h e.t.d.d.Z z.z.w.",
"                                @ <._.tX2X5.] { t v U.a.v.C.,X=Xn.b.%X .1 2 J =X[.S.l.L.j r.9 & * b e x w.d.d.t.n w.z.Z ",
"                                @ <._.7X`.' ( ] t b T.x.n.&X,X=Xn.b.@XY $ < N -X[.l.M.K.l A.B.B.C.P.u C w.| 4.8.8.>.M h ",
"                                @ *._.'.9.[ 4 ] t b U.b.n.=X<X=Xn.x.%X].Y m y.-X!.h.l.U.j P.B.H.Z.P.u Z w.C e 7 : e k u ",
"                                @ :._.9.[ W ` { t b U.C.v.=X=X;XT T R.E.T P N.;XJ.x.M.T.p J.M.A.Z.I.d v e.t.d.d.Z d.d.f ",
"                                + ! ] ( +.#.+.` t k U.N.C.&X{.-XT 1 4 S 2 U v.;XF.u.K.T.j A.a.x.v.N.h Z Z d.z.d.C d.z.Z ",
"                                + W ` <.2X'.@.` t k I.B.x.Q.~.-Xs.i ) 1.H x.y.-XF.x.D.T.p b.T s.s.T K q h Z L Z n w.w.A ",
"                                + S _.`.0X0X:.] t l I.D.x.C.{.=Xv.b.Y ) a C.y.-XF.m.I.T.p b.R.v.%XK y.s.~.~.~.~.I W.~.^.",
"                                @ E _.wXjXsX5.@.t j K.T.x.x.:X;Xf.b.s.P y.F.y.=XV.a.K.T.p x.P y.v.y.L h Z Z e.L C Z Z Z ",
"                                @ ! '.sXlXhX9.-.t x D.T.x.a.,X=Xc.Z.G.OXf.F.s.%XN.u.K.T.p V.l y.l b 0 & 2 > 3 B R B - o ",
"                                @ ` '.0XlXtX6.-.s v M.T.x.N.<X=Xs.F.G.].x.F.v.%XN.u.L.I.p S.v.M.u.M.k e ) ' 7.3X1X1X4 . ",
"                                # @.'.0XjX7X5.-.t k k.U.x.G.<X=Xc.Z.G.OXb.G.b.%XN.a.I.I.p G.N.M.u.l.h y o.-.1X7.aXaXQ . ",
"                                @ +.0X0XhX_.5.-.t h p.U.p.!.&XOXc.Z.J.@Xb.F.G.#Xx.u.K.U.p A.A.M.i.l.r y $.@.6.3XfXqXE . ",
"                                @ O.0X7XtX1.9.-.e y g.U.a.Z.R.*Xc.V.[.@Xb.A.Y.#Xx.m.I.I.a A.D.M.r.M.r N $.@.0.dXgX3X4 . ",
"                                # O.7X'.rX2.9.$.u C p.U.a.z.g.OXx.V.].OXb.F.].@Xi.h.D.M.y H.J.M.r.k.u y ) #.2XgXgX3X4 . ",
"                                # _ }.'.tX2.2.@.u k a.V.a.a.z.!.v.A.Y.@Xb.x.!.V.i.m.M.M.0 J.K.m.r.j.e y [ $.0XdXfX3X1 . ",
"                                @ E 4X6XtX0.:.{ d k t.e.u.y.y.!.a.N.A.Z.y.y.V.i.i.a.r.a.y N.r.r.L h.0 y ' &.qXqXaX7.1 X ",
"                                @ S 7XtXjXwX*.' 9 N I N I M H ..Y U T s.K I Y ..U I G Y G U G G K T * y ) *.aXfX3X<.E X ",
"                                + W 7XjXlXyX&.' N T W.^..X.X^.:X>XXXoXXX:XXX>X>X.X.X:X>XXX.X.X{.^.W.& w ' @.gXgX7.*.` X ",
"                                + +.2XjXlX9X@.' K L U f.L.T K I.U.H.s.P I.L.I.U.s.T #X@X$Xn.v.[.c.T & w ) ;.gXgX3X3X&.X ",
"                                @ =.6.jX7X'.+._ * l i.u.u.F e.u.t.u.e.t.p.t.p.h.r.r.a.p.b.a.r.u.e.L & y ~ $.fXgXfX3X=.X ",
"                                @ <.'.jX6.:.+.' 6 e j y p 0 l L h 5 8 8 5 5 6 e 7 p Z Z : t.F e.q , * q Q #.qXfXfXqX&.X ",
"                                @ *.2X2X5.&.] ( r x u.r.r.r.V.A.e.t c z 8 s e f f a.S.k.0 Y.M.K.a M , q Q ] 2.3XaXyX=.. ",
"                                X D ! W ! Q W ' s b h.r.i.j.J.I.y.d g c s f 8 f k m.S.l.q Y.M.M.a G 9 0 H D ! _ { ] S . ",
"                                + E ` +.+.+./ ' u v h.r.t.k.).).r.d g z s s f z f m.A.m.w U.D.D.G N 0 q H H +.O.[ +.D . ",
"                                @ O.#._._.<._ 4 0 t h.r.e.w.).U.e.t z z s f g q.k a.m.k.y !.M.S.a M 0 q H O.#.2._.2._ . ",
"                              X > D m H H H 3 3 3 3 m m V V V V M 3 m 3 n m M n n m m M m V V V m D m m m H m H H H B - ",
"                              < /.|.}.|.|.|.|.|.oXeXeXrXrXeXeX1X}.%.8XuXuXuXrXrXrXrXrX8XwX8X8./.iXpXpXpXpXpXrXoXeXeXoX>.",
"                              2 }.3.%.3.`.`.7.7.0.qXqXaXaX5X3X4.2.E 3XdX3X3X3XdXfXqX3X9X9X7.O.O.`.2X3X9XdXfXfXdX}.3.}.5X",
"                              2 %.J.]...0XqXqXqX9X3X7.:.7.5X3X&.#.S `.2X9X9X3X4.4.1XqXaX7.1X{ &.*.9XaX3X`.0.0.4.R.~.T '.",
"                              $ ) L l 3 &.{ +.@.&.4.7.7.4.7.*.&.*.E _.<.7.7.0.3X5X5X3X1X4.7.! { *.5.4.7.7.0.5.-.A a M :.",
"                              # #.H D +.&.{ ] { { { { { &.&.-.4.7./ `.<.&.&.*.*.:.4.4.7.3X7.R _ `.&.' _ ' } :.9.;.o.&.:."
};
