/* XPM */
static char *b383bf17b459436ee4bdb2e9c126074a3C4xIHDWOrolXKQ6[] = {
/* columns rows colors chars-per-pixel */
"60 60 246 2 ",
"   c #040404",
".  c #080707",
"X  c #070807",
"o  c #0B0B0B",
"O  c #0F0F0F",
"+  c #061A1D",
"@  c #0C1C1E",
"#  c #121212",
"$  c #131D1C",
"%  c #0E211F",
"&  c #0D1E22",
"*  c #051C29",
"=  c #121F23",
"-  c #1E1F20",
";  c #072327",
":  c #0B2A2B",
">  c #112022",
",  c #142B2E",
"<  c #0C302E",
"1  c #0D2D33",
"2  c #062A38",
"3  c #132D32",
"4  c #093439",
"5  c #0A3D3B",
"6  c #143539",
"7  c #232728",
"8  c #2D3536",
"9  c #323B39",
"0  c #54362F",
"q  c #553632",
"w  c #563735",
"e  c #692D2D",
"r  c #683030",
"t  c #6A3A38",
"y  c #0C403E",
"u  c #15413F",
"i  c #37473E",
"p  c #42403F",
"a  c #64413C",
"s  c #6D423E",
"d  c #083846",
"f  c #0B364A",
"g  c #123441",
"h  c #093D55",
"j  c #084447",
"k  c #05454D",
"l  c #0A444B",
"z  c #174647",
"x  c #18534C",
"c  c #094756",
"v  c #0B4C53",
"b  c #154A53",
"n  c #0D535B",
"m  c #0C585B",
"M  c #11545B",
"N  c #19595A",
"B  c #25494A",
"V  c #384849",
"C  c #28524D",
"Z  c #2E4B55",
"A  c #295556",
"S  c #365558",
"D  c #1F6759",
"F  c #0B5965",
"G  c #135B62",
"H  c #145864",
"J  c #085B76",
"K  c #175C74",
"L  c #2B5C67",
"P  c #355B6A",
"I  c #0B676B",
"U  c #186667",
"Y  c #156D6C",
"T  c #16726E",
"R  c #0A6673",
"E  c #156A75",
"W  c #0C787A",
"Q  c #14737B",
"!  c #197478",
"~  c #28656D",
"^  c #386667",
"/  c #2F7266",
"(  c #2C6273",
")  c #256B74",
"_  c #336474",
"`  c #25767A",
"'  c #35767C",
"]  c #574F4D",
"[  c #475859",
"{  c #654845",
"}  c #634D49",
"|  c #6F5050",
" . c #50625E",
".. c #73625D",
"X. c #486869",
"o. c #4B726D",
"O. c #53746F",
"+. c #506970",
"@. c #4A7777",
"#. c #537673",
"$. c #6C6D6D",
"%. c #953D3A",
"&. c #82433E",
"*. c #99413D",
"=. c #A0423F",
"-. c #9D4542",
";. c #88504D",
":. c #A24542",
">. c #AF4E49",
",. c #B8524D",
"<. c #BC5552",
"1. c #BB5B56",
"2. c #BD625D",
"3. c #947170",
"4. c #AA786F",
"5. c #C25D5A",
"6. c #C36258",
"7. c #CC7569",
"8. c #2D8B7C",
"9. c #6A847B",
"0. c #B48175",
"q. c #D1826F",
"w. c #0E7C83",
"e. c #137C84",
"r. c #187886",
"t. c #1B7C85",
"y. c #1C7E8C",
"u. c #1C7E90",
"i. c #247B85",
"p. c #357A84",
"a. c #287F92",
"s. c #4B7987",
"d. c #617B81",
"f. c #0C8687",
"g. c #1C8285",
"h. c #178788",
"j. c #15838C",
"k. c #1C838B",
"l. c #0D928D",
"z. c #168593",
"x. c #1B8592",
"c. c #1B8B94",
"v. c #1A8B99",
"b. c #1B9295",
"n. c #1D939C",
"m. c #248485",
"M. c #288687",
"N. c #228B85",
"B. c #37898B",
"V. c #26938B",
"C. c #32918D",
"Z. c #258B96",
"A. c #3C8E91",
"S. c #24929B",
"D. c #279498",
"F. c #3E9193",
"G. c #36989B",
"H. c #27A19E",
"J. c #1C96A3",
"K. c #2997A4",
"L. c #229CA3",
"P. c #2B9CA6",
"I. c #2697AA",
"U. c #349CA7",
"Y. c #1CADA4",
"T. c #27A7A9",
"R. c #2CA3AC",
"E. c #37A5AB",
"W. c #3BA2AB",
"Q. c #2BB3AE",
"!. c #38B4AF",
"~. c #2CA5B2",
"^. c #37A9B3",
"/. c #2BB8B3",
"(. c #34B7B6",
"). c #4A848B",
"_. c #54828B",
"`. c #488A94",
"'. c #578A99",
"]. c #449597",
"[. c #5D949C",
"{. c #668C88",
"}. c #6E9596",
"|. c #51A49D",
" X c #449DA2",
".X c #5996A3",
"XX c #679BA8",
"oX c #749DAC",
"OX c #43AAAD",
"+X c #48A8AA",
"@X c #53A9A8",
"#X c #4BB1AF",
"$X c #47ACB1",
"%X c #4DB2B4",
"&X c #4BB4BA",
"*X c #53B4B4",
"=X c #5AB6B4",
"-X c #5AB9B5",
";X c #54B6B8",
":X c #58B7B8",
">X c #5ABAB9",
",X c #6AA5A7",
"<X c #6BA5AC",
"1X c #77A8A9",
"2X c #67AEB2",
"3X c #73A4B4",
"4X c #79AAB7",
"5X c #7DB1BA",
"6X c #2CC5BB",
"7X c #38C5BC",
"8X c #3DBDC6",
"9X c #40BEC3",
"0X c #3DCFC6",
"qX c #48C5C8",
"wX c #59C5C5",
"eX c #4FD8CC",
"rX c #68CBC8",
"tX c #75CBC6",
"yX c #7BD2CA",
"uX c #71D4D2",
"iX c #74ECE7",
"pX c #929089",
"aX c #A7998D",
"sX c #8CA39B",
"dX c #87B3AD",
"fX c #8BB1AF",
"gX c #83ADB7",
"hX c #85B4BC",
"jX c #89B4BA",
"kX c #A0ABA1",
"lX c #9ECCBD",
"zX c #A1CCBE",
"xX c #84AFC1",
"cX c #85B4C2",
"vX c #8CBAC3",
"bX c #8BB9C6",
"nX c #94BEC8",
"mX c #99C4C9",
"MX c #9DC5CC",
"NX c #8BD1CC",
"BX c #98DCD5",
"VX c #ABD3D3",
"CX c #9AEDDE",
"ZX c #B9E5E5",
"AX c #A5F5E5",
"SX c #C3EEEF",
/* pixels */
"                $ #.9.{.}.sXsXsXfXdXdXdXdXdXdXdXdXdXdX1X1X1X1X1X1X1X1X,X,X,X,X,X,X,XXXXX[.[.[.[.@..                     ",
"                zX2X=X=X=X-X=X=X-X-X=X*X*X*X*X*X*X;X*X*X*X*X*X;X;X;X;X*X;X;X;X;X;X&X&X&X&X%X&X%XB.                      ",
"                zX=X>X>X>X-X>X>X-X-X-X>X:X:X;X;X;X;X;X;X:X-X;X;X;X;X;X;X*X;X*X*X*X%X%X*X*X*X%X#XB.X                     ",
"                zX=X-X>X@X`.].].].].].F.].].].F.A.F.F.F.].F.F.F.F.F.F.F.F.F.F.A.B.B.`.A.M.*X%X#XM.X   X                 ",
"                lX*X*X-X@X,X<X<X<X,X<X<X<X<X<X<X<X<X<X<X<X<X<X,X<X<X,X<X<X<X,X<X<X<X<X<X|.*X#X#XB.X X   X               ",
"                BX*X*X>X+XhXMXMXMXMXMXMXMXMXMXMXMXMXMXMXMXMXMXMXMXMXMXMXMXMXMXMXMXMXMX4X].-X%X#XC.X   X   X             ",
"              . AX].:X@X].mXMXjX: ; ; : : ; : : : : : : : : : < < 1 1 1 1 1 1 1 : VXMX4XA.wX$X#XC.X X                   ",
"                AX=X=X*X].MXMXjX> : 3 , , 3 3 3 , , , , , , 3 , , , , , 3 , , , , MXMXhXB.rX$X+XC.O   X X X X   X       ",
"          .   o AX=X*X*X].VXMXgX> 4 5 5 5 5 5 5 5 5 5 5 5 5 5 5 5 5 5 5 5 5 5 5 z fXmXgXB.rX$XW.G.8 o X X X   X         ",
"        X   X X AX*X*X*X`.ZXMXoX& y j 2 2 2 2 2 2 2 2 2 2 4 d d d d d z l l b m N sXmXcXM.rXOXOXG.9 X   o . o .   X   X ",
"          X X . AX*X*X*XB.ZXmXoX@ j d * * * * * * * * * ; 2 2 2 d 2 S P P g 2 I N {.nXcXi.rXOXOX X9   o X o X .     X   ",
"          X X o CX*X%X%XB.ZXnX{.+ j d 2 * 2 d d 2 2 2 2 2 f f f f ^ X.X.h f f I U 9.mXhXi.rXOXOX XV o X o X X o   X . X ",
"  X     X X o X CX*X%X%XB.SXnXd.& j j 4 d b c c 2 2 2 2 2 f f f P _ P b f f f Q U O.nXvXp.rXOXOX+X[ X X X o o X X   . X ",
"    X   X X X # CX*X%X%XB.SXmX+.; v d 4 d c h h 2 2 2 2 f f c ( s.p.p.K f f f e.) ^ mXjX` rXOXOX+X[ # X o X X o     X X ",
"  X     X X # tXuXuXyXyXNX,XmXP ; v d 2 d h h h h h h c K K K p.) K K K E K H g.) A mXBXyXuXtXrXrXtX@.X # X O . X X   o ",
"X     X . o X g.w.w.w.w.Q c mXZ ; b d d f c h h h h h J J J J J J J J J J J J c.` B MXB.t.W I F F I A # X # X X X   o   ",
"    X   o X o ' e.e.e.e.! ( 1X6 L ( ( ( ( ~ ~ ~ ( ( L ( `..X.X.X,X<X3X4X5X5X5XcXbXC mX.Xw.w.e.e.e.t.9 X o o X X X o X X ",
"  X   X X o o V m.m.! ! v '.bX, P ( ( ( ( ( ( ( ( ( ( ( '..X.XXX<X3X4X4XxXcXcXbXmXC nX}.) *Xi.` ` ).X # o o o X o X X X ",
"X   X . X o X V OX$X$X$XB.cXnX; : 1 1 1 1 1 1 1 1 1 1 1 1 1 1 6 6 6 6 g B B B B Z S MXnX) iXW.W.W.X.# o o o o # X X X X ",
"X o   X X X O 9 OXOXOXOXp.bXnX; $ y j k k k k k l l l l k j j j l v l j j j j j l A VXmX_ iXU.U.U.).X # o o # X # X o X ",
"X     o   O X 9 OXF F OXp.nXbX+ $ l v M G M M M M m M.m.V.I U T T Y Y Y Y Y Y U U A VXnX' iXZ.J U.@.o $ X # X # X X o . ",
"X X X X o X o 9 W.m W OXi.bXvX+ @ l v G G G G G G U N.N.D.I T m.N.N.N.N.N.N.N.Y U A VXnX' iXD.W R.' o X # o # o X o X o ",
". X   X X o o V OXI w.OXp.nXvX@ & l v U U U U U U ` N.N.D.I Y N.V.D.V.V.V.V.8.Y U C ZXnXs.uXG.Q R.` X # o # o o o X o X ",
"X . o X o o o X.^.I h.W.' bXcX@ > v n G U ] ] ]  .` m.N.D.I T g.V.aXaXaXaX8.T Y E C ZXbXs.rXG.Q R.) # o # o o # X X X o ",
"X o   o o o O X.^.I b.W.' bXxX@ > v n m A { s { { M.M.N.D.R Y h.V.0.6.6.5.@.T Y Q C ZXbXs.wXG.r.^.) X o o # # o # X o o ",
"X X o o X O X X.^.Y S.W.` vXcX+ % v m m A s s s { M.m.N.L.E T g.V.0.5.6.5.@.! ! k.B ZXbXs.wXK.e.^.) # # o # X # X o o X ",
"X o X X # X # {.^.Q R.W.' vX4X@ & v M G A s { s { M.m.N.L.Q T g.V.0.5.6.5.#.T ! z.B ZXbX_.&XK.e.(.) o o # o # X X # X o ",
"X X X o o o o }.W.Q ^.W.p.jX4X= + v G M A s s { a M.m.N.L.Q ! N.V.0.5.6.5.#.W j.c.z VXvX'.E.K.h.(.! X # o # o o o X o X ",
"X X o X o o o ,XW.t.(.W.).jX1X= + v G G A s { { { M.m.k.T.! T N.V.4.5.1.6.#.W j.c.u MXvX'.E.K.h.(.r.# o # # o o X o X X ",
"X o X X o o # yXE.g.8XU.'.vXXX= ; n H G A a t t { m.m.g.P.Q ! g.V.0.5.1.2.#.W j.n.z nXvX[.D.K.x.8Xe.o o o # # o # X o X ",
"o X o X o o o uXU.x.9XU.[.vX}.= ; M G G A a t t { m.m.k.P.Q ! N.V.4.5.1.2.#.W h.n.z fXcXXXZ.S.x.qXk.# o # # o # X X X X ",
"  o X X # X # rXU.x.qXU.,XcX'.= ; M G H A t t t | i.M.k.P.r.! g.c.4.1.1.1.O.W h.L.b }.hXXXt.L.x.0Xx.o o # o # o o # X # ",
"o X . O o # o wXU.Z.qXG.1XcX_.= ; m G H L t t t ;.i.N.k.R.r.! k.b.4.<.1.1.O.W c.T.v {.hXXXQ J.Z.8Xu.o # o # o o o X O X ",
"X . o X o o o wXU.K.qXD.5XhXs.> : H H G A t t t ;.i.m.g.R.y.` m.c.3.<.1.1.O.W b.R.M #.hXXXE J.v.0Xu.7 o # # o o X o o o ",
"X o X X o o # qXU.K.qXZ.hXcX+.= : F H G S r t t ;.t.m.k.R.k.i.k.c.3.,.,.<.O.W b.T.U o.hXoXK J.Z.0Xx.- # o O # o o X o X ",
"X . X X o o o 9XK.U.qXM.vXhXP = 1 F H G S r t e ;.! m.j.R.y.` k.c.3.,.,.,.O.8.S.T.) X.gXoXF J.Z.qXu.7 o # O o # X o X o ",
"X o   X X o # (.K.U.8Xi.mXcXS & 6 F F G S r r e ;.! y.k.R.k.t.x.c.3.>.,.,.$.f.H.T.` S gX3Xc J.Z.qXx.7 # o o # X # X o o ",
"o . . o X # o (.D.U.(.Q mXhXB & 6 F H G S e r e ;.i.a.y.R.t.r.x.c.3.>.>.,.$.f.T.Q.M.B gX3Xc J.Z.qXx.8 # o # X # X X # X ",
"  . X X o X o Q.D.E.^.K mXgXg & g H M H N B B B ^ ! i.k.R.y.t.k.c.' X.X.+.p.h.T.Q.C.B 4X3Xc J.D.qXk.8 o # o # X . # X o ",
". o X X X o o Q.S.iX~.F nXgX1 & g H n n n v v F E E y.j.R.y.i..X! Q w.e.h.c.c.Q./.G.B 4X3Xc J.eXiXj.7 O o # o o o X o X ",
"X   X X X o X Q.L.n.S.n nXgX* & z F n n M M M ) i.i.y.u.~.i.' aX) v.n.J.L.T.T.Q./.W.C jX4Xh J.n.v.x.[ o O o o # X X X X ",
". o   X X o 7 T.Z.Z.Z.h nXgX* & b H n b i  . .pXaXpXa.u.~.t.p. .L v.n.J.T.T.T.Q./.OXC jX4Xd Z.y.k.i.X.o o o O X # X X X ",
"X   X o . o 8 BXBXBXBXBX5X4X* > b H n v 4 6 4 Z b N i.x.R.t.' $.~ n.L.L.T.T.Q./.(.!.A vX4XZXBXBXNXNXNX# o #   # X X o   ",
"  . X   o X MXyXyXyXyXyX<X4X* = N H n n n n n i.r.y.u.u.R.i.' pX^ n.S.L.T.T.Q.(./.7XA vX,XNXyXyXyXyXyX[ # X # X   o   X ",
"      X X O -X>X*X#X].C.).4X& $ N H n G ) U U V.Z.x.y.y.R.t.y.Z.E.R.T.Q.!.(.T.(.7X7XC vXyX-X-X=X-X>X>XC o # o X X X o X ",
"X   X X X # OX+X]. XOXOXp.3X@ $ N M n G S ] ] pX{.Q r.y.R.t.a.z.R.1XsXkXkX@Xl.(.7X7XB 1X=X$X$X$X$X$X$Xx o o o o X X X X ",
"  X   X . o E.U.Q W !.OX`.3X@ > N n v H S s t 6...! r.r.P.t.u.z.P.aX7.7.q.{.l.6X(.7Xz }.@X^.W.I R Z.OXA o o o X o     . ",
"    . . X o E.W.x.z.!.W..XoX& $ N n v G S s &.6...E r.r.P.g.y.z.J.aX7.7.q.{.l.6X/.0Xz oX].E.W.j.z.R.W.A o o X o   X     ",
"        X X ^.U.x.c.^.E.,XXX& @ N v v G S t -.1...E r.r.P.g.k.c.L.pX7.7.7.9.l.6X/.0Xz dX`.!.W.k.v.^.U.A #   o     X   X ",
"      X   O ~.E.x.b.R.U.3X.X= = G v v M S t >.,.| E t.r.P.g.y.z.J.pX6.7.7.9.l.6XQ.0Xz jX`.^.U.j.v.^.U.^ X o X X     X   ",
"        . o ~.P.Z.L.K.K.3X'.& & N v k m V r :.>.} E Q r.R.g.y.z.n.3.6.6.6.$.l.6XQ.0Xz jX).~.P.k.n.T.S.^ o X X X   X     ",
"          X ~.K.Z.^.S.Z.3X'.> @ H k k v b z ( ~ ~ F Q Q P.k.x.z.n.M.B.B.F.G.l.6XY.0Xx 1X_.~.K.x.P.c.K.^ X X X           ",
"          X I.S.&XqXK.u.3X_.% & G k l k k k U I E I E Q R.h.x.c.n.c.n.J.T.Q./.6XY.eXx }._.~.K.^.9Xn.S.@.X X X X         ",
"          o I.n.S.K.n.r.3Xs.@ & U j j j l k U E Y Y E Q P.g.g.x.c.n.L.L.L.T.T.Y.l.eXN {.s.K.S.K.v.v.Z.d.X X X           ",
"          1XtXtXtXtXtXtX].@.& & 4 : : < 6 6 z y y y u z z z z x x x N N D D D D D 8./ _.2XtXtXtXtXrXuXtX# o             ",
"        9 D.D.Z.Z.Z.k.g.e.b Z Z X.o.O.O.O.o.O.O.O.O.O.O.o.O.O.o.o.o.o.o.o.o.X.X.X.^ ^ ^ D.D.Z.D.D.D.D.S.L   X           ",
"        7 k.z.x.c.x.x.x.c.[ q w w q w q 0 q q q q q q q 0 q q q 0 0 q q q w w w w w w ] h.z.z.z.z.z.x.x.N               ",
"          j.z.z.z.z.z.x.j...%.:.:.-.-.:.:.-.-.:.:.:.:.=.=.=.*.*.*.%.-.%.*.*.*.*.%.*.%.;.j.j.j.j.j.j.j.j.z               ",
"          j.y.z.j.x.j.j.t.$.*.,.,.,.,.,.,.,.<.<.<.<.<.<.<.<.<.<.<.<.<.<.<.<.<.<.<.<.5.4.t.j.j.j.j.j.j.h.S               ",
"          8 V V V V V V V p { { { { { } { { } } } } } } } } } } } } } { } } } } { } } ] V S S S [ V V V O               "
};
