/* XPM */
static char *_00dea51db434c228214113e87a8a45dr9V0yHBeV6mnVJwR[] = {
/* columns rows colors chars-per-pixel */
"60 60 106 2 ",
"   c black",
".  c #040303",
"X  c #040404",
"o  c #080707",
"O  c #090909",
"+  c #0C0B0B",
"@  c #0C0C0C",
"#  c #100F0F",
"$  c #191406",
"%  c #11100F",
"&  c #0F1010",
"*  c #111111",
"=  c #141313",
"-  c #131413",
";  c #151613",
":  c #121214",
">  c gray8",
",  c #151515",
"<  c #181717",
"1  c #161912",
"2  c #161816",
"3  c #1F1E12",
"4  c #1A1917",
"5  c #141618",
"6  c #171819",
"7  c #191919",
"8  c #1C1B1B",
"9  c #1A1C18",
"0  c #1B1A1D",
"q  c gray11",
"w  c #272218",
"e  c #201F20",
"r  c #202020",
"t  c #3D3626",
"y  c #423A20",
"u  c #5A5538",
"i  c #7A6A40",
"p  c #857347",
"a  c #8A7543",
"s  c #967B42",
"d  c #C5972B",
"f  c #C5972E",
"g  c #C79A2F",
"h  c #C49733",
"j  c #C69A30",
"k  c #C79E32",
"l  c #C99C33",
"z  c #C99F39",
"x  c #CAA035",
"c  c #C7A33B",
"v  c #C9A33D",
"b  c #D1AA3F",
"n  c #958250",
"m  c #CFAB44",
"M  c #CEA948",
"N  c #CFAA4C",
"B  c #D0A742",
"V  c #D5AD47",
"C  c #D6AD4A",
"Z  c #DAB44E",
"A  c #CEB15D",
"S  c #D8B454",
"D  c #DBB957",
"F  c #DDBB5B",
"G  c #DEBD5E",
"H  c #E9C459",
"J  c #ECC75C",
"K  c #EBC95B",
"L  c #ECC85A",
"P  c #EBC95D",
"I  c #ECC85C",
"U  c #EACB61",
"Y  c #EACA65",
"T  c #ECCB64",
"R  c #EBCD65",
"E  c #EBCE6A",
"W  c #ECCF6B",
"Q  c #E8CE6C",
"!  c #EDCE6C",
"~  c #EACD73",
"^  c #ECCF72",
"/  c #EED071",
"(  c #EFD473",
")  c #EED175",
"_  c #E6D77C",
"`  c #EFD37B",
"'  c #EDD478",
"]  c #EFD57E",
"[  c #F5D57A",
"{  c #F2D77F",
"}  c #F3D87B",
"|  c #F4DB7E",
" . c #B6AA80",
".. c #BCB294",
"X. c #EDD681",
"o. c #EFD983",
"O. c #F0D781",
"+. c #F0D882",
"@. c #F0DA85",
"#. c #F1DE8A",
"$. c #EDD896",
"%. c #F4E192",
"&. c #FBE496",
"*. c #FBE99C",
"=. c #FAE9A1",
"-. c #FEECA2",
/* pixels */
"                X   X X X X X X X X O X O X O O O O X O O O @ X @ O O O O + X O O O O X O X X X X X   X X X .           ",
"              X     X X O X X X o O X @ X o O O @ O @ O O O O @ O X O O @ o O X O O O @ X O o O O X X . X X X X         ",
"            X   X   X O X O X O O O O X @ o @ @ O * O O O @ @ O @ O @ @ O @ X O O O @ O @ O O O X O X X X X X . X       ",
"          X   X X   O X O X O @ X @ O @ O O * O * O O * O * O * O X * O * O O @ X * O @ O X @ X O X X O X X X X     X   ",
"        X X X X X O X O X O O X @ O @ + X * O * @ O @ O * O @ @ O * O * O O O O * O @ O X @ o @ O o O X O X X X   X     ",
"        X X X X X X O O X O X O O @ O O @ O @ @ @ @ O @ @ * @ O * @ * @ O @ O @ O @ @ O @ O @ O O O X O X O X X X X X   ",
"    X   X X X O   O O O O X O O @ @ O @ O @ @ @ * @ * @ @ @ @ * O @ @ @ * O * O @ @ O @ X @ O @ @ O O X X X X X   X X X ",
"  X     X X X X O O + O O @ O O @ @ * O @ O @ @ @ , O @ @ * * + * @ * @ @ * O O @ @ * O * O @ O O @ X O O O O X X X X X ",
"X . X X X X X @ X O + O @ O @ @ @ @ O = O * * @ * O * * * * + , @ * * @ , O , * @ * O , O @ @ O * X @ O O O X O X X X X ",
"  X X X O X O X X @ X @ O @ @ O * O , O O , @ , @ * @ @ 7 + , @ O , O , @ * @ + , O , O O , O * O @ O X @ X + X X O X O ",
"X . X O X O X X O O @ O @ @ O * + * @ @ @ @ , @ * # O , @ , * @ * @ , # , * O , @ = @ @ @ + * @ @ O X @ O @ O o X X O X ",
"  X X X X O O O X + O @ @ O @ O # @ @ * O * * * * @ , @ * * * * O * * * , @ * @ * * @ * O * @ @ @ O @ O O O O @ X O X X ",
"  O X O O O @ X @ O @ @ O * O @ @ * * @ * @ * * * 7 @ * # , , # , @ * , * , O @ # * * O * @ # @ @ * O O O O @ O O X o X ",
"X X O X O O O @ X O O @ * @ * @ = * @ 7 O , * , , @ , @ , , * 7 @ , * , , @ , @ = * * , O @ @ * * + * O @ O O @ X X o O ",
"X O X X O X * O @ * O * O , @ @ 7 O 7 @ , , @ 7 @ q * @ 7 @ 8 @ , 7 * q @ q * @ 7 @ 7 @ * 7 O , O , @ O * O @ o O O X @ ",
"O X X O o @ O O @ O * @ * @ O , @ , @ * * @ 7 * 7 * @ 7 * 7 * , * * 7 , 7 * @ , @ 7 @ * @ @ , @ , @ O * O * O O O X @ O ",
"X X O X O O @ @ O @ @ * @ @ * @ , * * = O , * 7 , * , * 7 , , , @ 7 * 7 , @ * @ , * * * O , # , * + @ O @ @ @ + X O O O ",
"X O X O O @ @ O @ O @ * @ * O * * * , @ , @ * , * 7 @ , * , , # 7 * , , * 7 @ , * * , @ * @ * * * * O @ @ @ @ O @ o O O ",
"O X O O O + O * O @ @ * * @ * @ , * * 7 @ * * < 7 * 7 * , 7 * q @ * * , 7 * 7 * , , * 7 @ @ @ * , @ * @ @ @ @ * X O O O ",
"X O X O O O @ O @ O * * @ < O * * * < @ 7 * 7 , * q @ 7 , , 7 * q * 7 , * q @ , , , 7 @ 7 @ , * @ , O * @ @ @ O @ O + O ",
"O X X @ X * O * @ O , O , @ @ 7 @ q @ 7 , @ q @ q @ * q @ q & e , @ r * q @ * q @ 7 @ 7 * @ 7 @ 7 + @ 7 O * O * O O @ X ",
"X O O O @ O @ O O , @ , @ * * @ , * , * @ 7 * 7 * : 5 } z k g / h 3 : q * , , * 7 * 7 * @ 7 # , @ @ @ O * @ * O X @ O @ ",
"O O X O O @ @ O * + * * @ * @ , * , , @ , @ , 7 *  .Y R P L L L H ! p , * , @ , * , , @ , @ , * * * O * @ @ @ @ @ O @ O ",
"O o @ O @ @ O * O @ @ * , @ , @ , , * 7 @ * , < .._ ) E P L L L L I / n 7 * 7 * , , * 7 @ * * , , @ * @ * @ @ * O O O @ ",
"X @ X + @ @ @ O * @ * * @ , @ * * , 7 * , * 7 2 -.O.) W P L L L L L m j 2 r @ , * , 7 * 7 @ , * * 7 O @ @ * * + @ O @ @ ",
"O X O @ O * O , @ @ , @ 7 @ , , * 7 * q * * 0 D o.O.) R K L L L L L L g g * q 7 * 7 @ q @ * , @ 7 @ 7 , @ = O * O O @ O ",
"X @ O O * O * O O , @ , @ , * @ q * q * @ q * =.@.o.^ T I L L L L L L N g 9 , * q * q @ @ 8 @ 7 @ , @ O , @ = O O * O @ ",
"O O X @ @ @ @ O @ @ * * * * O , * 7 , * , * u *.@.` W P K L L L L L L H ! s @ q * 7 , * , * 7 * * * O , @ * @ O @ O @ O ",
"O O O O @ @ @ @ O # @ * , @ , @ * , , 7 @ , { X.+.) R P L L L L L L L L v g 7 * , , , < @ , , , , @ , @ * * @ @ O @ O O ",
"O @ O o O @ * O * @ # * * , @ * * , 7 * 7 * S ] ' ! U P L L L L L L L L k k * , , 7 7 * 7 # , , * , @ @ @ * * + * O @ O ",
"O o @ O @ @ @ = O * * * 7 @ , @ 7 , * q @ 7 S ( ! R P L L L L L L L L L l j q * 7 , , q @ , * , , @ , @ , * @ * O @ O O ",
"X @ O O * O = O @ * + 7 @ q * @ q @ r @ * q ~ Q E P L L L L L L L L L J c g * * r @ q @ , q @ 7 @ 7 @ @ , O , O @ * O * ",
"O O X @ O * @ @ @ @ 7 @ , @ @ 7 * 7 * , , @ t &.P P L L L L L L L L L V Y a @ q * q * , : @ 7 * , @ @ , @ , @ @ @ O # O ",
"O X O O @ @ @ @ O * * , * @ , @ 7 , , , @ 7 ; %.K L L L L L L L L L L N l % 7 * 7 , * , @ , * , * @ * @ * * @ @ O @ + @ ",
"O @ O O + @ * O @ @ * * @ , @ * * , , * 7 * ; x K L L L L L L L L L L d x 9 @ , * , 7 * 7 @ * , * , O * @ * * + @ O O O ",
"O O O O @ @ @ * O @ @ * , @ = @ , , * 7 @ * * 1 #.K L L L L L L L L M B 0 * q * 7 , * 7 @ @ * * , @ = @ * @ @ = O @ O @ ",
"O @ X O O @ * O @ @ * * @ 7 @ , * , 7 @ 7 * 7 7 w | L L L L L L L C G i * q @ , , , 7 @ 7 * , , * , @ * @ @ * O * O @ O ",
"@ O X @ O * O * @ @ , @ 7 @ @ 7 @ q @ 7 , @ q * r $ | L L L L L Z F y * r * * q * q @ 7 = @ 8 @ 7 @ @ , @ , O * O O @ X ",
"o X O O @ O @ @ O * @ , * * * @ 7 * 7 * @ 7 * 7 , * ; $.f b g [ A q = q * * , * q * , * @ 7 * 7 @ @ @ @ = @ * O X @ O @ ",
"X O X O + @ @ O @ O * * * * O , * , , # , @ , , * 7 @ 7 - 4 6 * 7 * 7 , * < @ , * , , * , @ * * * * O @ @ * @ O @ O O O ",
"O X O O O @ O * O O @ * , @ * @ * * * 7 @ = * , 7 * 7 * , 7 , 7 @ * * , 7 * 7 * , , * 7 @ * # * , @ * O # @ @ * X O O O ",
"X @ X O O @ @ O @ O * * @ , O @ * * , * , * , , * q @ * * , 7 # q * 7 , , q @ = * 7 7 @ , @ * * @ , O @ @ @ @ O @ o O O ",
"O X O @ o @ O * O @ * + , O * , @ 7 @ q * * 7 * q @ , 7 * q * q @ = 7 * q @ 7 7 * 7 @ 8 @ @ , O , + * * @ * O * O X @ O ",
"X X O X @ O @ O O * + , @ * @ @ , @ 7 # @ 7 @ 7 * , , * q * q * @ q * q @ , * @ q * 7 @ O 7 @ , @ * @ O * O * O X @ O + ",
"X X X O O O O O @ O * @ @ @ O , @ , * @ * @ , * , * @ 7 * 7 * * , @ 7 * , * @ 7 * , * @ * @ * * @ @ O * @ * O O O O O O ",
"X X O o O O O @ O @ @ @ * @ * @ * * * * @ * * , , @ , @ * , , , @ * * , , # , @ , * * * O * @ * * O @ O @ @ O O X O O O ",
"X O X O o O @ O @ O @ @ @ = O @ @ * * @ * @ = , * 7 @ * * , < # , @ * , * 7 O * * * , @ , @ * * @ * O O O @ @ O @ X O O ",
"X X O o O O O @ X @ O @ @ O * @ * * @ , @ * * * , @ , @ , * * 7 O , * , , @ , * , * @ , O @ @ # * O * O @ @ O @ X O X O ",
"  X X X O X @ O O # O * O * @ O , + , O # 7 @ 7 @ 7 * @ 7 @ 7 @ * 7 @ 7 @ 7 @ + 7 O , O @ , + , O * O o * X @ X X O X O ",
"X X X O X O o O O O @ O # O o * @ = @ @ * O , # , @ O 7 @ , @ * * @ 7 @ , @ O , @ , @ @ @ O * @ @ O X @ O @ O O X X O X ",
"X X X X o X o O O O O @ @ O @ O # @ @ @ O * * * * @ * @ * * * * O * @ * * @ * @ * * @ * O @ @ * @ O O O O O O O X O X X ",
"  X   X X X O X O X O O O @ X @ @ @ @ O * O * * @ , O * @ * * @ * @ * * @ * O * @ @ * O * O @ @ O @ X O O O O X X X X X ",
"    X X X X X O X X O @ @ O @ O @ @ @ * O @ @ * * + * @ * * @ , O @ # * * @ * O @ @ @ * O O O @ @ X O X O O o O X X X X ",
"  X X X X X X X O X O @ O @ O + @ @ * O * @ @ @ @ * + @ # @ * O * # * * + , X @ @ @ * O @ O O @ O @ X O O O O X X X X X ",
"      X X O   o X X O X @ X O * O @ O * O O * O * O O , + , O * @ O , O , O O * O * O @ O O * X @ X X @ X O X X X X X   ",
"    X   X X X X   O X O X o O X @ O O O X @ O @ O O @ O * @ @ @ O * @ @ O O @ O @ @ @ + X @ O @ O X O X O X O X   X X X ",
"        . X X . X X O O X O X O O O O O O O @ @ + @ O @ @ @ @ O @ O @ @ + @ o @ O @ @ O O O O O X O X X X O X X X       ",
"            X X X X X O O o O X O O O @ O O O @ @ O @ O @ @ O * O O O @ @ O @ O + @ O @ O O O X O X O X X X X X   X     ",
"            X   X X X X X O   O O O O X O O @ O O @ X O O @ @ O @ X @ @ O @ X O O O O X O X O X X O X X   X             ",
"              .   X X X X X X O X O X @ X X @ X @ X O @ O @ O @ O O @ O @ O O O O @ X O X X O X O X X X X X   .         "
};
