/* XPM */
static char *_672285280fb4a3ff804610a39249438J6rq8is3An7le06m[] = {
/* columns rows colors chars-per-pixel */
"60 60 106 2 ",
"   c #050505",
".  c #080707",
"X  c #0A0A05",
"o  c #0B0B0B",
"O  c #100F0F",
"+  c #0F100F",
"@  c #11110F",
"#  c #0F0E11",
"$  c #100710",
"%  c #121212",
"&  c #171817",
"*  c #171D18",
"=  c #1B1C1B",
"-  c #23371B",
";  c #25391E",
":  c #1C2020",
">  c #262C24",
",  c #253321",
"<  c #2B3F23",
"1  c #2B4225",
"2  c #2E4928",
"3  c #32452A",
"4  c #324C2B",
"5  c #35512B",
"6  c #395C2E",
"7  c #3A4138",
"8  c #3A5632",
"9  c #3B5F30",
"0  c #415E37",
"q  c #486A3C",
"w  c #043275",
"e  c #06347C",
"r  c #09347B",
"t  c #17407F",
"y  c #475A40",
"u  c #4B6442",
"i  c #53694E",
"p  c #507049",
"a  c #637D59",
"s  c #5EB938",
"d  c #3DCB0C",
"f  c #42CE0F",
"g  c #44CD14",
"h  c #48CB17",
"j  c #43CB18",
"k  c #49CC1A",
"l  c #45D113",
"z  c #49D117",
"x  c #47D219",
"c  c #4DCA21",
"v  c #51C626",
"b  c #52C925",
"n  c #56C32D",
"m  c #54C929",
"M  c #58C92A",
"N  c #54D524",
"B  c #5CD22E",
"V  c #5DCD32",
"C  c #5FD031",
"Z  c #61C73B",
"A  c #61C93A",
"S  c #69D73F",
"D  c #528443",
"F  c #5DA649",
"G  c #69AA47",
"H  c #69B949",
"J  c #6CAE50",
"K  c #7BA06C",
"L  c #7BAA68",
"P  c #7EB670",
"I  c #6CCA48",
"U  c #75D34D",
"Y  c #7ED45C",
"T  c #80DA5B",
"R  c #88C76C",
"E  c #93E16D",
"W  c #053A84",
"Q  c #093E86",
"!  c #073E8A",
"~  c #093F89",
"^  c #193E80",
"/  c #9EE784",
"(  c #AAE687",
")  c #A7E78F",
"_  c #A8E68D",
"`  c #BCE8A3",
"'  c #BEE5AA",
"]  c #ABBCD0",
"[  c #D5F2C2",
"{  c #E1FCD2",
"}  c #C4D0E7",
"|  c #CBD7EF",
" . c #CDDCEB",
".. c #D9E1EF",
"X. c #D5E1F1",
"o. c #E6EEEE",
"O. c #EEFAE5",
"+. c #F2FCEC",
"@. c #F7FAF5",
"#. c #FAFBF6",
"$. c #F9FEF7",
"%. c #F7FBFF",
"&. c #FBFEFA",
"*. c #FDFFF8",
"=. c #FBFEFC",
"-. c #FFFFFC",
/* pixels */
"                                  . .   .   . . . . . . . . o   o . . . . . . . . . .   .   . .                         ",
"                                . . . o     . . o . o . . o o o .   . . o   o . . . . o   . . . .                       ",
"                      .   .   . . . o . o   o @ A B ( / V V V U E T g a . + . o . . o . o . . .   .                     ",
"                    .   .     o   o . + . R S c z z z z z z z z z z z g U m o + . o . o .   o   o     .                 ",
"                  .   .   . .   o . o L N l z z z z z z z z z z z z z z z z B k % o o .   . . o . . .   .               ",
"                    . . . .   . . o g z z z z z z z z z z z z z z z z z z z z z z i o . o . o . . .   .   .             ",
"                  . . . . . . . > z z z z z z z z z z z z z z z z z z z z z z z z z I #   o . o o . .                   ",
"                . . o . . + . u z z z z z z z z z z z z z z z z z z z z z z z z z z z z % . o o . o   . . . .   .       ",
"          .   o   . o . o . y z z z z z z z z z z z z z z z z z z z z z z z z z z z z z j o o . % . o . . .   .         ",
"        .   .     o . + . & z z z z z z z z z z z z z z z z z z z z z z z z z z z z z z z Z . % . o .   o . o .   .   . ",
"          . .   . . o . o z z z z z z z z z z z z z z z z z z z z z z z z z z z z z z z z z u o o o . o . o . .     .   ",
"          . . o   o . o g z z z z z z z z z z z z z z z z z z z z z z z z z z z z z z z z z z o + . o . o . . o   .   . ",
"        . . o . o . o 7 z z z z z z z z z z z z z z z z z z z z z z z z z z z z z z z z z z z d o % . . . . o . .     . ",
"    .   . . . o   . o z z z z z z z z z z z z z z z z z z z z z z z z z z z z z z z z z z z z z * . % . o o . o     . . ",
"  .     . . % . o % D z z z z z z z z z z z z z z z z z z z z z z z z z z z z z z z z z z z z z g & o . % . % . . .   o ",
".     . . o . . o . z z z z z z z z z z z z z z z z z z z z z z z z z z z z z z z z z z z z z z z % . % . % . . .   o . ",
"    .   o . o o   % z z z z z z z z z z z z z z z z z z z z z z z z z z z z z z z z z z z z z z z k % . o o . . . o . . ",
"  .   . . o o . o g z z z z z z z z z z z z z z M V l l z z z z z z z z z z z z z g M C l z z z z z o % o o o . o . . . ",
".   . . . o . % . x z z z z z z z z z z z g *.-.-.-.-.$.z z z z z z z z z z z g -.-.-.-.-.#.z z z z = o o o o + . . . . ",
". o . . . . % . # z z z z z z z z z z z h -.-.-.-.-.-.-.-.z z z z z z z z z g &.-.-.-.-.-.-.-.z z z g % o o % . + . o . ",
".   . o   % . % G z z z z z z z z z z z -.-.-.-.-.-.-.-.-.*.z z z z z z z z -.-.-.-.-.-.-.-.-.*.z z z & . & . % . . o . ",
". . . . o . o o z z z z z z z z z z z Y -.-.-.-.-.*.^ e ..-.g z z z z z z Y -.-.-.-.-.-.t r ..-.f z z o & o % o . o . o ",
". .   . . o o . g z z z z z z z z z z *.-.-.-.-.-.! ~ ~ ~  .{ z z z z z z -.-.-.-.-.-.! ~ ~ ~ X.{ z z % o % o o o . o . ",
".   o . o o . % z z z z z z z z z z z *.-.-.-.-.o.~ ~ ~ ~ W -.z z z z z z &.-.-.-.-.o.~ ~ ~ ~ W -.z z . % o o % . . . o ",
". o   . o o + o z z z z z z z z z z z -.-.-.-.-.} ~ ~ ~ ~ ~ -.z z z z z z -.-.-.-.-.| ~ ~ ~ ~ Q -.z z % o % % . % . o o ",
". . o o . + . & z z z z z z z z z z z -.-.-.-.-.#.~ ~ ~ ~ W -.z z z z z z -.-.-.-.-.@.~ ~ ~ ~ e -.z z 0 o % . % . o o . ",
". o . . % . % o z z z z z z z z z z z $.-.-.-.-.-.w ~ ~ ~ *.' z z z z z z $.-.-.-.-.-.w ~ ~ ~ -.` z z 6 & o % . . % . o ",
". . . o o % o o z z z z z z z z z z z k -.-.-.-.-.-.%.] -.-.l z z z z z z j -.-.-.-.-.-.=.] -.*.z z z 8 o % o . o . o . ",
". . o . o o o O z z z z z z z z z z z z &.-.-.-.-.-.-.-.-.[ z z z z z z z z -.-.-.-.-.-.-.-.-.[ z z z 5 % % o o . o . o ",
". o . . o o % o z z z z z z z z z z z z z *.-.-.-.-.-.-.+.z z z z z z z z z k *.-.-.-.-.-.-.O.z z z z 9 o % % o % . o . ",
"o . o . # o o % z z z z z z z z z z z z z z _ =.-.-.-.U z z z z z z z z z z z z ) *.-.-.-.U z z z z z 6 & % o % . o . . ",
". o . . % . % . z z z z z z z z z z z z z z z z z l z z z z z z z z z z z z z z z z l z z z z z z z z 6 & o & . o % . % ",
"o . . + . % o o z z z z z z z z z z z z z z z z z z z z z z z z z z z z z z z z z z z z z z z z z z z 4 o & o o o . % . ",
". . o . o o o o z z z z z z z z z z z z z z z z z z z z z z z z z z z z z z z z z z z z z z z z z z z < % % o o . o o o ",
". o . . o o % o z z z z z z z z z z z z z z z z z z z z z z z z z z z z z z z z z z z z z z z z z z z 4 o % % . o . o . ",
". . . . o o o % z z z z z z z z z z z z z z z z z z z z z z z z z z z z z z z z z z z z z z z z z z z 1 % o o % . o . o ",
". o   . . o % . z z z z z z z z z z z z z z z z z z z z z z z z z z z z z z z z z z z z z z z z z z z 4 o o % . % . o . ",
"o . . o . % . % z z z z z z z z z z z z z z z z z z z z z z z z z z z z z z z z z z z z z z z z z z z 3 o & . % . . % . ",
". . . . o . o o z z z z z z z z z z z z z z z z z z z z z z z z z z z z z z z z z z z z z z z z z z z ; & o % .   % . o ",
". o . . . o o o z z z z z z z z z z z z z z z z z z z z z z z z z z z z z z z z z z z z z z z z z z z 1 o % o o o . o . ",
".   . . o o o % z z z z z z z z z z z z z z z z z z z z z z z z z z z z z z z z z z z z z z z z z z z ; O o o % . . . . ",
". o   . . o o o z z z z z z z z z z z z z z z z z z z z z z z z z z z z z z z z z z z z z z z z z z z 1 o o o . + . . . ",
".   . o . o . & z z z z z z z z z z z z z z z z z z z z z z z z z z z z z z z z z z z z z z z z z z z 1 o %   % . . o   ",
"  . .   o . o o z z z z z z z z z z z z z z z z z z z z z z z z z z z z z z z z z z z z z z z z z z z < % . % .   o   . ",
"      . . . . . z z z z z z z z z z z z z z z z z z z z z z z z z z z z z z z z z z z z z z z z z z z 3 o % o . . . o . ",
".   . . . . . o z z z z z z z z z z z z z z z z z z z z z z z z z z z z z z z z z z z z z z z z z z z ; o o o o . . . . ",
"  .   . . . o . z z z z z z z z z z z z z z z z z z z z z z z z z z z z z z z z z z z z z z z z z z z 1 . o o . o   . . ",
"    .   . . . o z z z z z z z z z z z z z z z z z z z z z z z z z z z z z z z z z z z z z z z z z z z , o o . o   .   . ",
"        .   o . z z z z z z z z z z z z z z z z z z z z z z z z z z z z z z z z z z z z z z z z z z z - %   o     .   . ",
"      .   .   . z z z z z z z z z z z z z z z z z z z z z z z z z z z z z z z z z z z z z z z z z z z 1 . o . .     .   ",
"        .     . z z z z z z z z z z z z z z z z z z z z z z z z z z z z z z z z z z z z z z z z z z z 1 . . . .   .     ",
"            .   z z z z z z z v . % l z z z z z z z z z q @ % l z z z z z z z z z z , X s z z z z z z 1 . . .           ",
"              . z z z z z z P . o o o z z z z z z z z = % % o & l z z z z z z z x % o % . H l z z z z   . . . .         ",
"            .   z z z z z A . o o . o p z z z z z z n o % o & o % z z z z z z z J o % . + o z z z z z   . . .           ",
"              . g z z z z . . % . o . o z z z z z z X & o & . % o 2 z z z z z l . % . o . . + z z z z o   o             ",
"                A z z z . . .   o . . . . k z z x ; o o % o o o . % j z z z z . o . o . . o . : z z z   .   .           ",
"                . l l .   .   . . . o . o $ g z F o . o o o o . o . o b z g o o . o o . . . . . K z V                   ",
"                        .   .   . . . o . . . o o . o . o o o % . . . o O . o . . o . o . . . . .                       ",
"                          .   . . . o . . . o o . o . . . o o . o . o o . o . . . o .   . . . .   .                     ",
"                              .   .   o   . o   o . . o . o . o . . o . % . . o . o . o     .   .                       "
};
