/* XPM */
static char *_499930bbdc34656bac03596141627d914cHE8TY6qbB61xI[] = {
/* columns rows colors chars-per-pixel */
"60 60 248 2 ",
"   c #040404",
".  c #080707",
"X  c #070708",
"o  c #0B0B0B",
"O  c #100F0F",
"+  c #01131B",
"@  c #121212",
"#  c #191B1A",
"$  c #021721",
"%  c #031A24",
"&  c #0B1D27",
"*  c #031C29",
"=  c #052127",
"-  c #0B2C25",
";  c #05222B",
":  c #09242A",
">  c #0C2D29",
",  c #172528",
"<  c #14292B",
"1  c #0F342D",
"2  c #052733",
"3  c #082633",
"4  c #052934",
"5  c #0A2B35",
"6  c #05293A",
"7  c #0A2C3A",
"8  c #093635",
"9  c #0D333C",
"0  c #073839",
"q  c #0C3A3E",
"w  c #113133",
"e  c #11343C",
"r  c #14393F",
"t  c #252B2B",
"y  c #2A3739",
"u  c #3B363A",
"i  c #5B201F",
"p  c #5C2825",
"a  c #4D312E",
"s  c #493232",
"d  c #533638",
"f  c #612D2A",
"g  c #643735",
"h  c #7E3735",
"j  c #7D3A35",
"k  c #032D40",
"l  c #073844",
"z  c #0C364B",
"x  c #0C394B",
"c  c #113B41",
"v  c #1B3D43",
"b  c #0B3A52",
"n  c #243E45",
"m  c #6C3D46",
"M  c #09464A",
"N  c #16454D",
"B  c #16484B",
"V  c #17554F",
"C  c #044D54",
"Z  c #0A4C54",
"A  c #094958",
"S  c #164A56",
"D  c #0B545A",
"F  c #13555D",
"G  c #195858",
"H  c #27494B",
"J  c #3B4545",
"K  c #394647",
"L  c #2E4C52",
"P  c #275759",
"I  c #375759",
"U  c #0F625C",
"Y  c #16625D",
"T  c #276759",
"R  c #124B63",
"E  c #095866",
"W  c #0C5B64",
"Q  c #155964",
"!  c #0C5674",
"~  c #0C5974",
"^  c #175A74",
"/  c #295A6A",
"(  c #355D64",
")  c #265E72",
"_  c #08646A",
"`  c #0D626C",
"'  c #156666",
"]  c #12636D",
"[  c #13696B",
"{  c #09706F",
"}  c #1A7168",
"|  c #0C6B73",
" . c #156A77",
".. c #0D747A",
"X. c #13727B",
"o. c #1A777C",
"O. c #2B6967",
"+. c #366368",
"@. c #267469",
"#. c #286373",
"$. c #356777",
"%. c #297879",
"&. c #387A7A",
"*. c #4C4A4C",
"=. c #455A59",
"-. c #685357",
";. c #5F6562",
":. c #59686C",
">. c #4C6D74",
",. c #813936",
"<. c #A2413F",
"1. c #895B59",
"2. c #B44E47",
"3. c #B54E4A",
"4. c #AC564E",
"5. c #B4524A",
"6. c #B5544A",
"7. c #BC665D",
"8. c #D95247",
"9. c #C35755",
"0. c #C35B59",
"q. c #D36556",
"w. c #E76F5B",
"e. c #C77564",
"r. c #EF7B65",
"t. c #3E807F",
"y. c #A68E7C",
"u. c #CC896C",
"i. c #F88C71",
"p. c #0A7982",
"a. c #1A7383",
"s. c #137B84",
"d. c #167A87",
"f. c #087D90",
"g. c #277B86",
"h. c #327A8A",
"j. c #497985",
"k. c #0B8186",
"l. c #15838C",
"z. c #1A838C",
"x. c #198889",
"c. c #14928E",
"v. c #188793",
"b. c #1B8A94",
"n. c #169598",
"m. c #27848B",
"M. c #398286",
"N. c #278893",
"B. c #378A96",
"V. c #29979D",
"C. c #379699",
"Z. c #12B199",
"A. c #22A79B",
"S. c #128DA0",
"D. c #1C98A7",
"F. c #2495A2",
"G. c #299AA4",
"H. c #369BA6",
"J. c #1AA5A9",
"K. c #1CB2B0",
"L. c #29A7A8",
"P. c #3AA6A9",
"I. c #25B5AA",
"U. c #3AB6AC",
"Y. c #3AABB6",
"T. c #25BBB9",
"R. c #38B8B5",
"E. c #3ABBBB",
"W. c #4D8C95",
"Q. c #44899B",
"!. c #518C9A",
"~. c #519193",
"^. c #699091",
"/. c #49A09E",
"(. c #77A399",
"). c #558DA2",
"_. c #4A98A3",
"`. c #5A98A9",
"'. c #659CAB",
"]. c #4BA3A2",
"[. c #44AAAC",
"{. c #48A9AB",
"}. c #58ACA9",
"|. c #49B7AC",
" X c #57B2AA",
".X c #49ACB2",
"XX c #52AFB2",
"oX c #4DB2B5",
"OX c #46B8B7",
"+X c #53B4B5",
"@X c #57B6B7",
"#X c #55BAB9",
"$X c #5CBBBB",
"%X c #6BA5B3",
"&X c #6EAFB2",
"*X c #1AC1A5",
"=X c #27C3AD",
"-X c #27C8B9",
";X c #35C7B7",
":X c #29D3BC",
">X c #34D2B4",
",X c #46C2B9",
"<X c #5EC1BB",
"1X c #65C8BF",
"2X c #39BBC2",
"3X c #43BDC4",
"4X c #57B7C0",
"5X c #38C6C2",
"6X c #2FD3C6",
"7X c #3BE2C8",
"8X c #48C8CA",
"9X c #56CDCB",
"0X c #5AD9D2",
"qX c #69CAC3",
"wX c #77CCC5",
"eX c #79D2C9",
"rX c #6EDCD3",
"tX c #46EBCC",
"yX c #4BF2CD",
"uX c #4FF2D1",
"iX c #7BE5D5",
"pX c #71EDE9",
"aX c #939184",
"sX c #A19888",
"dX c #9AA597",
"fX c #A4B19A",
"gX c #90B3B2",
"hX c #AABDA3",
"jX c #85C0B7",
"kX c #B0D1B0",
"lX c #BBE3BD",
"zX c #8AB7C5",
"xX c #88C9C6",
"cX c #98C5CB",
"vX c #9BC6CC",
"bX c #87D6CB",
"nX c #85DEDC",
"mX c #ADD2D2",
"MX c #83F7CC",
"NX c #89E5DE",
"BX c #92E9DB",
"VX c #A8ECDC",
"CX c #B9DFE0",
"ZX c #93EEE5",
"AX c #B2F3E6",
"SX c #CCDAC6",
"DX c #C8E8EA",
"FX c #C7F4EB",
/* pixels */
"                        o @ # u J J J J J J J J J J J J J J J J J J J J J J J J J J J J J y y t t X                     ",
"            # VXbXbXbXbXbXbXeXeXeXeXeXwXqXqXqXqXqX1XqX<X<X<X$X$X#X@X#X#X#XoXoXoXoXoXoXoXoXoX.X.X.X&.                    ",
"            t BX$X$X$X$X$X$X@X$X@X$X#X#X@X@X@X@X@X@X@X@X@X@X@X@X+X+X@X+X+X+X+X+X+X+X+X+X+X+X+XoX+X&.                    ",
"            t bX$X$X$X].].].].].].].].].].].].].].].].].].].].].].].].].].].]./.]./._.]._.{.oXoXoX&.  .                 ",
"            J bX$X$X$XM.W.W.W.W.W.W.!.W.W.W.W.W.W.W.W.W.W.W.W.W.W.W.W.W.W.W.W.W.W.W.W.W.h.AX.XoX#X&..   .               ",
"            =.wXXX@X+X&.DXvXvXvXvXcXvXvXcXvXvXvXvXcXvXcXvXvXvXvXvXvXvXvXvXcXvXcXvXcXcXcX~.ZXoXoX+X&.  .   .             ",
"            =.$X+X@X@X&.DXcX(.r v r v v v v v v v v v v v v v v v v v v v v v H v I vXcX!.ZX.X.X.X%..                   ",
"            ^. X@X@X@X%.DXvX^., < < < < < < < < < < < < < < < < < < < < < < < < < =.vXvX`.NX[.[.[.h.  . . . .   X       ",
"            (. X@X@X+X@.DXcX>.& 8 0 0 0 8 8 8 8 0 0 8 8 8 8 8 8 8 0 8 8 0 8 0 8 8 I mXcX'.iX[..XP.g.o . . .   .         ",
"        .   (. X+X+X+X@.DXcX>.= q 0 q q q q q q q c l l l l M M M M M N M S S D V I vXcX'.rX[.[.[.h.o   o X o X   .   . ",
"          . gXXX+X+X+X} DXcX( % M q * * * * * * 3 7 7 7 7 7 7 7 7 5 n H H 7 6 [ ' L mXcX'.rX[.[.[.m.@ o . o . . X   .   ",
"          . VXXX+X+XXX%.DXcXL & M l * * 2 6 6 6 x x x x x x x x l >.>.>.z x x o.' H mXcX%XqX[.[.[.m.# . o . . o   .   . ",
"  .     . . VXXXoXoXXX%.CXcXv = M l l l A A A S x x x x x x z z $.+.+.S l x z m.' H CXcX%XqXP.[.[.N.@ . . . o . .     . ",
"    .   . . VX|.oXoXXX&.CXcX< : Z x l l S A ^ b x x x z x x b $.j.h.h.A b b x N. .V CXcX%X#XP.[.[.C., . o . . o     . . ",
"  .     o ^.BXNXNXNXZXnX(.cX& > C l 7 k b A ^ ^ ^ ^ ^ ^ ^ ^  .h.#.^ ^ ^ ^ ^ R C. .P CXxXNXNXNXnXnXnXxXJ @ . O . . .   o ",
".     . . %.z.z.X...| D j.cX& w A k k k b ^ ! ~ ! ! ! ! ! !  .~ ~ ~ ^ ~ ! ! ~ H.o.P DXxXx.s.| _ _ _ _ I . @ . . . X o X ",
"    .   o J k.p.p.k.{ W.j.cX: / / ) #.) ) #.Q.Q.Q.Q.B.B.Q._._.`.`.`.`.%X%X%X&X&X&X^.DX^.o.k...k.s.s. .@ O o o . . o . . ",
"  .   . . o g.o.o.] FXmXS ( 2 / #.) #.#.#.#.!.!.).).!.).).`.`.'.'.%X%X&X&XgXzXzXzX^.AXOX=Xc.[ o.o.o.>.@ o o o . o . . . ",
".   . . . o @X[.[.{.FXmXx M M l 9 w 9 w 5 9 N N N N N N S P P P P P P ( +.+.>.+.].;X-XZ.Z.c.| P.P.H.*.o o o o @ . . . . ",
". . . . . o +X[..X[.AXvXM Y M M M + + + + $ * % % % * % * % % % % * % * * % @.6X-X*XtXyXZ.c.| H.H.H.=.@ o o @ . @ . o . ",
".     o   @ +Xm.[ H.AXjXM U U Y M + + + + % * * * * % * * % * * * % * * % $ @.>XyXuXyXyXZ.c.[ C D N.=.# . @ . @ . . o X ",
"X . . . o o oXg.{ P.AX&XM } ' Y G + + + + % % * $ % $ % * * % * * * * % % % @.tXyXuXuXyXZ.c.[ C E N.=.o @ o @ o X o . o ",
". .   . . O .Xo.{ P.AX&XM O.T U Y + + + + % % * * * % * % % * % % % * % % * @.7XtXiXMXyXI.c.[ C _ N.>.@ o @ o o o . o . ",
". . o . o t P.o...P.AX(.M O.g *.V + + + + % * % * % $ % % % * % * * * * * & } >XsXi.lXyX*Xn.[ D _ m.>.o @ o o @ . . . o ",
". o   . o t P.X...P.VX^.M O.g d V + + + + % % % * * $ % % * * * * * & ; 2 2 } >Xu.i.lXuX=XA.] E _ b.( O o @ @ . @ . o o ",
". X o o . t P.| p.P.VX~.Z O.g d V + + + + % % % % * % % % * * * ; ; 2 2 4 2 } >Xu.i.lXyX-XA.] W | b.G @ o @ . @ . o o . ",
". o . . @ , P.| k.P.ZX~.Z O.g d V + + + + % % % % % % % % % % * ; 2 2 2 2 5 } >Xu.i.lXyX-XA.] W | b.S . @ o @ . . @ . o ",
". . X o o J L.| k.H.BXM.Z O.g d G + + + % % % % % * % % % $ % * 3 5 5 5 5 2 } =Xe.i.lXtX-XL.] ] | v.S @ o @ o o o . o . ",
". . o . o J L.| k.G.BX&.Z +.f d G + + + % % * * % * % * % % % * 3 2 2 2 2 2 } =Xe.r.kXtX:XL.]  .X.b.S o @ @ o o . o . o ",
". o . . o J L.| k.V.BX%.Z +.f a G + + + $ % % % $ * % * % $ $ % 3 2 2 2 2 2 ' =Xe.r.kXtX:XL.]  .a.V.S @ o @ @ o @ . o . ",
". . o . o =.L...v.V.NX@.D +.f a G + + + $ % % % % % * % % % % % 2 2 2 2 2 3 [ =Xe.w.kXtX:XI.`  .X.F.S o @ @ o @ . . . . ",
"  o . . @ ^.G.p.n.V.NX' F ( p s G + + + % % % % $ % % * % % * = 4 2 2 2 2 6 [ =Xe.w.hXtX:XI.` a.s.F.Q o @ o @ o o @ . @ ",
"o . X O . ^.G.d.D.F.iXD Q ( f s G + + + % % % % % % % % * * * = 2 2 2 2 2 6 ' =X7.w.hX7X:XR.` a.d.G.Q @ o @ o o o . o . ",
". X o . o ^.G.s.G.F.iXD F I f s G + + + % * % % % % % % % * % 3 2 2 2 2 2 2 ' I.7.q.fX7X:XR.] a.d.L.^ o @ @ O o . o o o ",
". o . . o wXG.z.L.F.iXD F I f s G + + + % * % % * % * * * * * 3 2 2 3 2 2 2 ' I.7.q.fX7X6XR.` a.z.L.Q @ o @ @ o o . o . ",
". . . . o eXG.z.Y.G.rXC Q I p u G + + + % * % * * % * % * * % 2 5 2 2 2 2 2 ' I.6.8.dX7X-XE.` a.N.P.Q @ @ O o @ . o . o ",
"X o   . o qXG.N.3XV.rXC Q I p u S + + + % % % % % % % * % * * 2 2 2 5 3 2 6 ' I.4.8.dX6X-XE.` a.N..X^ # o o @ . @ . o . ",
"o . X o . 9XG.V.8XG.rXC Q I i u V + + + % % % % % % % % * % & 2 2 2 2 2 5 2 ' I.4.8.sX6X-XE.W a.N.OX] # o @ . @ . . @ . ",
"X X . . O 9XF.V.9XL.rXC Q I i u S + + + * * % $ % $ % % * * ; 5 2 5 5 2 2 2 ' L.1.4.(.6X-XR.~ a.N.OX] @ @ o @ o . @ . o ",
"X o X . . 9XG.pXpXL.rXC Q Q V G S + + $ % * % % % % $ % % % ; 4 2 5 2 5 2 4 ' I.I.I.I.5X-X;X` p.OXR.` # o @ o . o . o . ",
".   . . o 8XF.F.G.L.0XC F Q Q F B + + % % % % % $ % % % * * 2 4 5 5 2 4 5 2 W T.-X6X6XmXU.E.E d...X.W # O o o @ . . . . ",
". o   . . #XN.N.N.V.0XC F F F F N + + % % * % % % % % % $ * 3 4 2 5 2 2 6 2 ' T.-X-X,XSXU.OXgXE E E D =.o o o . @ . . . ",
".   . o # bXbXbXbXeX0XA F J J L N + + % % * * % * % % % * * 3 2 5 2 2 2 4 ; W T.T.6X;XdX|.|.aX X X X}.}.o @   @ . . o   ",
"  . .   :.eXeXeXwXqX0XA Q W Q Q N + + % % * % * % % % * % * 2 2 2 5 2 2 5 ; W T.T.-X-XfXOX,XaX}.}.}. X}.*.. @ .   o   . ",
"      . @X|.{.[.C.U.0XA Q D D W N + + % % % % % % % % % % ; 4 5 5 5 5 5 5 2 W K.T.T.T.t.E.,X+.C.B.B.C.C.H @ o . . . o . ",
"X   . . #X.Xm.m.m.OX9XA D G G Z c + + % % % % % * % % * % ; 4 5 5 5 2 2 2 2 W J.R.R.;X-XT.;XE N.B.B.B.B.H o o o . . . . ",
"  .   . OX[.X.z.b.3X0XZ Z *.d B q + + % % % % % % % % % % ; 5 2 2 2 2 2 2 5 W D.;.e.fX-XK.E.E  .] ` N.N.I o o . o   X X ",
"    . . OXP...v.L.3X9XZ D *.p B c + + * * % % % % % % % % 5 5 5 5 2 5 2 2 5 F D.;.0.sXT.K.E.E %.X.X.N.m.I o . o   .     ",
"        R.P...b.E.2X8XZ Z d p B 9 $ + * * * * * * * % * * 5 5 5 5 5 7 5 5 6 Q D.-.5.aXT.J.2XE g.a.s.N.m.:.  o     .   . ",
"      . Y.H...V.3X2X8XM A d p B 9 $ + = = = = & & & * = = 7 5 5 5 5 5 5 5 7 W D.-.2.y.K.J.2XE g.d.s.N.g.:.o . .     .   ",
"        Y.G.d.V.3X2X8XM A d p N 7 $ + = = = = = : = & = = 7 7 7 7 7 7 9 9 9 W D.-.<.1.K.D.E.E g.d.b.d.g.:.. . .   .     ",
"        H.F.b.G.Y.2X5XM A y n M 9 + % = = = = = ; 5 5 e 9 9 9 9 9 9 9 9 9 9 W S.$.-.:.J.n.E.E d.d.G.d.g.J . .           ",
"        H.F.F.b.n.T.5XM Z l x Z 5 % : 5 9 e e e e 9 9 9 e e e e e e e e e e W S.f.p.p.D.n.E.E d.s.p.d.a.*.. X .         ",
"        4X4X$X$X#X5X2XM M Z M M = : w r q 9 9 c c c c 9 e e e e e e e 9 9 q D v.S.S.n.n.n.R.D C.C.m.X.] :.. .           ",
"      '.qX1XqXqXqX,X2XM 5 = > > B V V V G G G G P P T T T T T T T T T T T T T @.@.%.x.b.v.R.C {.{.{.{.{.}.J             ",
"    . v.v.v.v.v.v.v.v.o.4 - - - - - - - - - - > < < > > > > > > - - > > > 1 1 1 1 1 1 1 D | X.X.X.X.X.X.X.B .           ",
"      z.v.v.v.v.v.v.l. .m h h h h h j h ,.,.,.,.,.h j j j j j j j j ,.j ,.,.,.j j j j ,.G p.X.X.......X.X.H             ",
"      s.l.l.l.l.v.z.l.] -.<.2.3.3.3.5.3.3.3.3.3.2.3.5.5.5.5.5.5.5.5.5.5.5.5.5.6.6.6.6.6.>.l.z.d.l.l.d.s.X.L             ",
"      #.m.d.d.g.g.g.g.Q 1.2.9.9.9.9.9.9.9.9.9.9.9.9.9.0.0.0.0.0.9.9.0.0.0.0.0.0.0.0.0.0.j.z.z.l.d.l.z.m.m.=.            ",
"                              .   .   o     o   o   . o . o . o . . o . o . . . . o X o     .   .                       "
};
