/* XPM */
static char *_d6541ab12054aaae14250cddbf96f22ccptaIQltvjKTTQO[] = {
/* columns rows colors chars-per-pixel */
"60 60 115 2 ",
"   c black",
".  c #040303",
"X  c #020503",
"o  c #040500",
"O  c #010304",
"+  c #060304",
"@  c #040404",
"#  c #080707",
"$  c #070806",
"%  c #0A0B01",
"&  c #0E0B07",
"*  c #050408",
"=  c #09070A",
"-  c #090909",
";  c #0C0B0B",
":  c #0B0C0B",
">  c #0D0F0B",
",  c #0B0B0C",
"<  c #0C090E",
"1  c #0C0C0C",
"2  c #100F0F",
"3  c #151300",
"4  c #171600",
"5  c #191A00",
"6  c #1C1B00",
"7  c #111309",
"8  c #10100C",
"9  c #15120E",
"0  c #0F0E10",
"q  c #0F0F15",
"w  c #100E11",
"e  c #110F15",
"r  c #111111",
"t  c #131313",
"y  c #141313",
"u  c #151610",
"i  c #121116",
"p  c #101615",
"a  c #151515",
"s  c #1A1917",
"d  c #1D1E17",
"f  c #161418",
"g  c #19161E",
"h  c gray10",
"j  c #1C1B1B",
"k  c #1B1A1D",
"l  c #1D1D1D",
"z  c gray12",
"x  c #252400",
"c  c #242404",
"v  c #3A3A04",
"b  c #23231D",
"n  c #454703",
"m  c #4D4F03",
"M  c #464508",
"N  c #525010",
"B  c #686616",
"V  c #7D7C1C",
"C  c #94912D",
"Z  c #949530",
"A  c #959435",
"S  c #ACAE37",
"D  c #A2A03D",
"F  c #AAAE39",
"G  c #B7B533",
"H  c #BFC220",
"J  c #C7C91F",
"K  c #D2D51E",
"L  c #DDDD1B",
"P  c #D8D91D",
"I  c #E1E417",
"U  c #E4E71A",
"Y  c #E6E819",
"T  c #E6E91D",
"R  c #E8EA1E",
"E  c #EAEC1D",
"W  c #EDEE1D",
"Q  c #EEF11D",
"!  c #F9FA16",
"~  c #FAFF17",
"^  c #F2F51E",
"/  c #F4F51E",
"(  c #F6F81B",
")  c #F7F91C",
"_  c #F9FB19",
"`  c #FAFF1B",
"'  c #FDFE1B",
"]  c #F9FB1F",
"[  c #FBFD1D",
"{  c #FDFF1F",
"}  c #D6DA27",
"|  c #D4D732",
" . c #E2E423",
".. c #F6FA20",
"X. c #FAFE22",
"o. c #FCFE20",
"O. c #FAFD26",
"+. c #FBFE2A",
"@. c #FFFF2E",
"#. c #FEFF33",
"$. c #F9FA37",
"%. c #FCFD37",
"&. c #F1F43A",
"*. c #BDBD43",
"=. c #DEDF46",
"-. c #D3D748",
";. c #D6DA49",
":. c #E3E54B",
">. c #EFF146",
",. c #F1F446",
"<. c #FCFF43",
"1. c #F1F34C",
"2. c #F9F94A",
"3. c #FBFF49",
"4. c #F0F754",
/* pixels */
"                @   @ @ @ @ @ @ @ @ - @ - @ - - - - @ - - - 1 @ 1 - - - - - - - - - - @ - @ @ @ @ @   @ @ @ @           ",
"              @     @ @ - @ @ @ # - @ 1 @ # - - 1 - 1 - - - - 1 - - - - 1 @ - @ - - - 1 @ - # - - @ @ @ @ @ @ @         ",
"            @   @   @ - @ - @ - - - - @ 1 # 1 1 - r - - - 1 1 - r - 1 1 - 1 @ - - - 1 - 1 @ - - @ - @ @ @ @ @ . @       ",
"          @   @ @   - @ - @ - 1 @ 1 - 1 - - r - r - - r - r - r - @ r - r - - 1 @ 1 - 1 - @ 1 @ - @ @ - @ @ @ @     @   ",
"        @ @ @ @ @ - @ - @ - - @ 1 - 1 ; @ r - r - - 1 - r - 1 1 @ r - r - - - - r - 1 - @ 1 # 1 - # - @ - @ @ @   @     ",
"        @ @ @ @ @ @ - - @ - @ - - 1 - - 1 - 1 1 1 1 - 1 1 r 1 - 1 ; r 1 - 1 - 1 - 1 1 - 1 - 1 - - - @ - @ - @ @ @ @ @   ",
"    @   @ @ @ -   - - - - @ - - 1 1 - 1 - 1 1 1 r 1 r ; 1 1 1 r - 1 1 1 r - r - 1 1 - 2 @ 1 - 1 1 - - @ @ @ @ @   @ @ @ ",
"  @     @ @ @ @ - - ; - - 1 - - 1 1 r - 1 - 1 1 1 a % 2.o.o.{ o.[ { #.x 1 r - - 1 1 r - r - 1 - - 1 @ - - - - @ @ @ @ @ ",
"@ . @ @ @ @ @ 1 @ - ; - 1 - 1 1 1 1 - y - r e M { { { { { { { { [ [ { { { { ;.8 1 r - a - 1 1 - r @ 1 - - - @ - @ @ @ @ ",
"  @ @ @ - @ - @ @ 1 @ 1 - 1 1 - r - a - , -.{ { { { { { { { { { { { { { { { [ [ [ , a - - r - r - 1 - @ 1 @ ; @ @ - @ - ",
"@ . @ - @ - @ @ - - 1 - 1 1 - r ; r 1 % { { { { { { { { { { { { { { { { { { { { { ~ 1.1 1 - r 1 1 - @ 1 - 1 - # @ @ - @ ",
"  @ @ @ @ - - - @ ; - 1 1 - 1 - 2 w @.{ { { { [ { { { { { { { { { { { { { { { { { { { X.* r 1 1 1 - 1 - - - - 1 @ - @ @ ",
"  - @ - - - 1 @ 1 - 1 1 - r - 1 > ! { { { { { { { { { { { { { { { { { { { { { { { { { { { : 2 1 1 r - - - - 1 - - @ # @ ",
"@ @ - @ - - - 1 @ - - 1 r 1 r 1 o.{ { { { { { { { { { { { { { { [ { { { { { { { { { { { { { & r r ; r - 1 - - 1 @ @ - - ",
"@ - @ @ - @ r - 1 r - r - a 1 { { { { { { { { { { [ { { { { { { [ { { { { { { { { { { { { { o.p - a 1 - r - 1 # - - @ 1 ",
"- @ @ - # 1 - - 1 - r 1 r 1 _ { { { { { { { { { [ [ { { { [ { { { { { { { { { { { { { { { { { X.r 1 - r - r - - - @ 1 - ",
"@ @ - @ - - 1 ; @ 1 1 r 1 n [ { { { { { { { { { { { { { { { { [ { { { { { { { { { { { { { { { { ' < 1 - 1 1 1 - @ - - - ",
"@ - @ - - - 1 - 1 - 1 r - ' { [ { { { { { { { { [ { { { { { { { { { { { { { { { { { [ { { { { { { 4 - 1 1 1 1 - 1 # - - ",
"- @ - - - 1 - r - 1 1 r +.{ { { { { { { { { [ [ [ { { { { { { { { { { { [ { { { { { { { { { { { { { r 1 1 1 1 r @ - - - ",
"@ - # - - - 1 - 1 - r 7 { { { { { { { { { { { { { { { { { { { { { { [ { [ [ { { { { { { { { { { { 9 - r 1 1 r - 1 - ; - ",
"- @ @ 1 @ r - r 1 - a 3.{ { { { { { { { [ { { { { [ { { { { { { { { { { { { { { { { { { { { o.5 s ; 1 h - r - r - - 1 @ ",
"@ - - - 1 - 1 - - a 1 { { { { { { { { [ { { { { { [ { { { { [ [ { { { { { { { { { { { { X.m 0 a 1 1 1 - r 1 r - @ 1 - 1 ",
"- - @ - - 1 1 - r - i { { { { { { { { { { { { { { { { { { { { { { { { { { { { { { { [ V u 1 a r r r - r 1 1 1 1 1 - 1 - ",
"- # 1 - 1 1 - r - 1 4.{ { { { { { { { { { { { { { { { { { { { { { { { { { { { { { C y k 1 r r a a 1 r 1 r 1 1 r - - - 1 ",
"@ 1 @ ; 1 1 1 - r 1 { { { { { { { { { { { { { { { { { { { { { { { { { { { { o.*.i a h r h 1 a r r h - 1 1 r r - 1 - 1 1 ",
"- @ - 1 - r - a 1 1 { { { { { { { { { { [ { { { { { { { { { { { { { { { { :.d h r h 1 l 1 r a 1 h 1 h a 1 r - r - - 1 - ",
"@ 1 - - r - r - - a { { { { { { [ [ { { { { { { { { { [ { { { { { { { ,.8 k a r l r l 1 1 j 1 h 1 a 1 - a 1 y - - r - 1 ",
"- - @ 1 1 1 1 - 1 1 ` { { { { { { { { { { { { { { { { [ { [ { { ' <.h a h a 1 l r h a r a r h r r r - a 1 r 1 - 1 - 1 - ",
"- - - - 1 1 1 1 - 2 { { { { { { { { { { [ { { { { { { { { { { O.o h a h h r h r a a a a 1 r r a a 1 a - r r 1 1 - 1 - - ",
"- 1 - # - 1 r - r 1 { { { { { { { { { { [ [ { { { { [ { { { { [ ] 8 h h h l 8 a r a h r h 1 a a r a 1 1 1 r r ; r - 1 - ",
"- # 1 - 1 1 1 y - r [ [ { { { { [ { { { { { { { { { { { { { { { { { $.j l r l r h a r l 1 a y a a 1 a 1 a r 1 r - 1 - - ",
"@ 1 - - r - y - 1 r [ [ { { { { [ { { { { { { { { { { { { { { { { { { ' >.b r r l 1 l 1 a l 1 h 2 h 1 1 a ; a - 1 r - r ",
"- - @ 1 - r 1 1 1 1 { { { { { { { { { { { { { { { { { { { { { [ { { { { { { =.1 - a r r r 1 h r h 1 1 a 1 a 1 1 1 - 2 - ",
"- @ - - 1 1 1 1 - r o.{ { { { { [ [ { { { { { { { { { { { { [ [ { { { { { { { { G , 1 r - a r a a 1 r 1 r r 1 1 - 1 ; 1 ",
"- 1 - - ; 1 r - 1 1 v { { { { { { { { { { { { { { { { { { { { { { { { { { { { { [ T F X 1 - 1 r r a - r 1 r r - 1 - - - ",
"- - - - 1 1 1 r - 1 > { { { { { { { { { { { { [ { { { { { { { { { { { { { [ [ { { ` ) Y D @ @ 1 a 1 y 1 r 1 1 r - 1 - 1 ",
"- 1 @ - - 1 r - 1 1 r { { { { { { { { { { { { [ { { { { { { { { [ { { { { [ { { { { { { ] ) A q 1 a 1 r 1 1 r - r - 1 - ",
"1 - @ 1 - r - r 1 1 a % { { { { { { { { { { { { { { { { { { { [ { { { { { [ { { { { { { { { { { Z = 1 a 1 a - r - - 1 @ ",
"# @ - - 1 - 1 1 - r 1 f o.{ { { [ [ { { { { { [ { { { [ { { { { { { { { { { { { { { { { { { { { { [ 1 1 y 1 r - @ 1 - 1 ",
"@ - @ - ; 1 1 - 1 - r r 9 { { { { { { { { { { { { [ { { { { { { { { { { { { { { { { { { { { { ( E H - 1 1 r 1 - 1 - ; - ",
"- @ - - - 1 - r - - 1 r a ` { { { { { { { { { { { { { { { { { { { { { { { { { { { { { { { { I ` U @ r - 2 1 1 r @ - - - ",
"@ 1 @ - - 1 1 - 1 - r r 1 a { { { { { { { { { { { { { { { { { { { { { { { { { { { { { { [ { / ^ c 1 - 1 1 1 1 - 1 # - - ",
"- @ - 1 # 1 - r - 1 r - a , r { { { { { { { { { { { { { { { { { { { { { { { { { { { { { { { Q | - - r r 1 r @ r - @ 1 - ",
"@ @ - @ 1 - 1 - - r - a 1 r 1 N o.{ { { { { { { { { { { { { { { { { [ { { { { { { { { { { [ K - - r 1 - r - r - @ 1 - ; ",
"@ @ @ - - - - - 1 - r 1 1 1 - a B { { { { { { [ { [ [ { { { { { { [ [ { { { { { { { { { [  .$ - 1 1 - r 1 r - - - - - - ",
"@ @ - # - - - 1 - 1 1 1 1 ; r 1 r 3 { { { { { { { [ { { { { { { { [ { { { { { { { { [ ] &.+ @ 1 r - 1 - 1 1 - - @ - - - ",
"@ - @ - # - 1 - 1 - 1 1 1 i - 1 1 r r { { { { { { { { { { { { { { { { { { { { { { ] [ 6 @ @ 1 1 1 r - - - 1 1 - 1 @ - - ",
"@ @ - # - - - 1 @ 1 - 1 1 - r 1 r r 1 f S ' { { { { { { { { { { { { { { { { { { { J   - - - 1 1 r - r - 1 1 - 1 @ - @ - ",
"  @ @ @ - @ 1 - - 2 - r - r 1 - a ; a - 2 g ;.{ { { { { { { { { { { { { { { o.} * @ 1 # 1 a - a - 2 - @ r @ 1 @ @ - @ - ",
"@ @ @ - @ - # - - - 1 - 2 - # r 1 y 1 1 r - a 2 a %.' { { { [ [ W ..R L P 4 @ - - r 1 1 1 - r 1 1 - @ 1 - 1 - - @ @ - @ ",
"@ @ @ @ # @ # - - - - 1 1 - 1 - 2 1 1 1 - r r r r 1 r 1 - *   O   # @ - - - 1 - r r 1 1 - 1 1 1 1 - - - ; - - - @ - @ @ ",
"  @   @ @ @ - @ - @ - - - 1 @ 1 1 1 1 - r - r r 1 a - r - - - @ - - 1 1 1 r - r 1 1 r - r - 1 1 - - @ - - - - @ @ @ @ @ ",
"    @ @ @ @ @ - @ @ - 1 1 - 1 - 1 1 1 r - 1 1 r r ; r 1 r r 1 r - 1 2 r r ; r - 1 1 - r - - - 1 1 @ 1 @ - - @ - @ @ @ @ ",
"  @ @ @ @ @ @ @ - @ - 1 - 1 - ; 1 1 r - r 1 1 1 1 r ; 1 2 1 r - r 1 r r ; a @ 1 1 1 r - 1 - - 1 - 1 @ - - # - @ @ @ @ @ ",
"      @ @ -   # @ @ - @ 1 @ - r - 1 - 2 - - r - r - - a ; a - r 1 - a - a - - r - r - 1 - - r @ 1 @ @ 1 @ - @ @ @ @ @   ",
"    @   @ @ @ @   - @ - @ # - @ 1 - - - @ 1 - 1 - - 1 - r 1 1 1 - r 1 1 - - 1 - 1 1 1 ; @ 1 - 1 - @ - @ - @ - @   @ @ @ ",
"        . @ @ . @ @ - - @ - @ - - - - - - - 1 1 ; 1 - 1 1 1 1 - 1 - 1 1 ; 1 # 1 - 1 1 - - - - - @ - @ @ @ - @ @ @       ",
"            @ @ @ @ @ - - # - @ - - - 1 - - - 1 1 - 1 - 1 1 - r - - - 1 1 - 1 - ; 1 - 1 - - - @ - @ - @ @ @ @ @   @     ",
"            @   @ @ @ @ @ -   - - - - @ - - 1 - - 1 @ - - 1 1 - 1 @ 1 1 - 1 @ - - - - @ - @ - @ @ - @ @   @             ",
"              .   @ @ @ @ @ @ - @ - @ 1 @ @ 1 @ 1 @ - 1 - 1 - 1 - - 1 - 1 - - - - 1 @ - @ @ - @ - @ @ @ @ @             "
};
