/* XPM */
static char *d867009d4aee4618f7b59d02ada1f0e2KFESXUcLWbb5xmnW[] = {
/* columns rows colors chars-per-pixel */
"60 60 114 2 ",
"   c black",
".  c #040303",
"X  c #020503",
"o  c #040500",
"O  c #010304",
"+  c #060304",
"@  c #040404",
"#  c #070707",
"$  c #080707",
"%  c #070806",
"&  c #0B0B00",
"*  c #0A0B01",
"=  c #060608",
"-  c #09070A",
";  c gray3",
":  c #0C0B0B",
">  c #0E0E0B",
",  c #080A0C",
"<  c #0C090E",
"1  c #0C0C0C",
"2  c #0C0C0F",
"3  c #100F0F",
"4  c #161300",
"5  c #171600",
"6  c #191A00",
"7  c #1C1B00",
"8  c #111309",
"9  c #11130D",
"0  c #15120E",
"q  c #0F0E10",
"w  c #0F0F15",
"e  c #100E11",
"r  c #110F15",
"t  c #101010",
"y  c #141313",
"u  c #131611",
"i  c #151610",
"p  c #131314",
"a  c #101615",
"s  c gray8",
"d  c gray9",
"f  c #1D1E17",
"g  c #161518",
"h  c #19161E",
"j  c #181818",
"k  c #1C1B1B",
"l  c #19181C",
"z  c #1E1D1D",
"x  c gray12",
"c  c #252400",
"v  c #242404",
"b  c #3A3A04",
"n  c #23231D",
"m  c #454703",
"M  c #4D4F03",
"N  c #464508",
"B  c #525010",
"V  c #686616",
"C  c #7D7C1C",
"Z  c #94912D",
"A  c #949530",
"S  c #959435",
"D  c #ACAE37",
"F  c #A2A03D",
"G  c #AAAE39",
"H  c #B7B533",
"J  c #C7C91F",
"K  c #D2D51E",
"L  c #DDDD1B",
"P  c #D8D91D",
"I  c #E1E417",
"U  c #E6E819",
"Y  c #E6E91D",
"T  c #E8EA1E",
"R  c #EAEC1D",
"E  c #EDEE1D",
"W  c #EEF11D",
"Q  c #F9FA16",
"!  c #FBFE17",
"~  c #F2F51E",
"^  c #F4F51E",
"/  c #F6F81B",
"(  c #F7F91C",
")  c #F9FB19",
"_  c #FAFF1B",
"`  c #FCFF1A",
"'  c #FAFA1E",
"]  c #FBFD1E",
"[  c #FDFF1E",
"{  c #D6DA27",
"}  c #D4D732",
"|  c #E2E423",
" . c #F6FA20",
".. c #FBFE23",
"X. c #FCFE20",
"o. c #FAFD26",
"O. c #FBFE2A",
"+. c #FFFF2E",
"@. c #FEFF33",
"#. c #F9FA37",
"$. c #FCFD37",
"%. c #F1F43A",
"&. c #BDBD43",
"*. c #DEDF46",
"=. c #D3D748",
"-. c #D6DA49",
";. c #E3E54B",
":. c #EFF146",
">. c #F1F446",
",. c #FCFF43",
"<. c #F1F34C",
"1. c #F9F94A",
"2. c #FBFF49",
"3. c #F0F754",
/* pixels */
"          . @ @ @ ; @ @ @ ; 1 ; ; ; ; ; ; 1 ; 1 1 ; 1 ; ; ; ; t ; 1 ; 1 ; @ 1 ; ; ; @ ; ; ; ; ; ; @ @ @ @ @   @         ",
"          @ @ @ @ @ $ @ @ $ @ 1 ; ; ; 1 1 ; 1 ; 1 1 ; 1 ; 1 ; ; 1 : ; ; 1 t ; 1 ; ; 1 @ 1 ; ; @ @ ; @ @ @ @ @ . @       ",
"        @ @ @ @ @ ; @ ; @ @ : ; ; @ ; ; ; 1 ; ; ; 1 t ; 1 ; 1 t ; 1 ; 1 ; ; t ; ; ; @ 1 ; ; @ ; : @ ; @ @ @ @ @   .     ",
"    @     @ @ ; @ @ ; @ ; @ ; ; @ 1 @ 1 ; ; 1 ; t ; ; 1 ; t ; 1 1 ; 1 ; t ; ; 1 ; t ; @ ; @ 1 @ @ @ @ @ @ @ @   @       ",
"  @ @ @ @ @ @ @ ; @ @ ; ; 1 - ; : ; t ; t ; ; t : y ; 1 1 1 t ; 1 1 : t ; t ; ; t ; t ; ; ; ; 1 @ ; ; @ ; @ @ @ @ @   . ",
"  @ @ @ @ @ @ ; @ : ; ; 1 ; t ; 1 1 1 t ; t 1 1 t ; s 1 1 t 1 s 1 t t 1 t ; t 1 1 t @ t ; ; 1 ; 1 ; ; ; @ ; @ ; @ @     ",
"@ @ @ ; @ ; @ ; ; @ 1 ; 1 1 ; t 1 1 1 1 t 1 1 1 t t 1 s t t t ; s t t t 1 s 1 t t 1 t ; t 1 1 1 @ 1 ; ; ; @ ; @ @ @ @ @ ",
"@ @ @ @ ; $ @ ; ; 1 ; > 1 1 t ; 3 1 t 1 ; t 1 t 3 1 s 1 t 1 s s 1 t 3 t 1 1 p 1 t 1 1 t 1 1 ; 1 t ; 1 ; ; ; @ ; @ @ . @ ",
"@   @ ; @ ; @ ; ; @ 1 ; ; ; ; t ; 3 1 t j ; t 1 t s ; s ; 1 1 1 s 1 t 1 t s 1 1 ; 1 t ; t ; ; ; $ t ; ; @ ; 1 @ @ @ @ @ ",
"  @ @ @ ; @ ; @ 1 ; ; 1 ; t ; ; 1 ; s ; 1 1 ; t ; j 1 1 s 1 j 1 1 t ; s 1 1 e ; s ; t 1 ; t ; t ; ; : ; 1 $ @ ; @ ; @ @ ",
"@ @ ; @ $ ; ; 1 @ 1 1 ; t ; s 1 < 4 [ y : 1 t 1 j 1 s t 1 s 1 j t 1 s 1 s ; [ J @ 1 ; t 1 ; t ; 3 ; ; ; @ 1 @ @ ; @ ; @ ",
"@ ; @ 1 ; ; 1 ; t ; 1 t 1 t ; u ! [ [ [ j t t s t j 1 t s t s t j s t s 1 A [ R U v ; ; 1 t 1 t ; 1 1 : 1 ; 1 ; @ ; @ ; ",
"; ; ; @ 1 ; 1 1 ; t 1 1 1 t a ..[ [ [ [ 6 j t s t 1 j t s s s j t s t 1 w [ [ / ] ~ } 1 ; 1 1 1 s 1 1 1 1 1 @ 1 ; @ ; @ ",
"; ; ; 1 $ 1 1 1 1 ; t 1 t > X.[ [ [ [ [ X.e s t s s 1 j t s t 1 j t 1 @ S [ [ [ I ^ W K % @ 1 1 ; t 1 1 : 1 t ; ; ; ; ; ",
"@ ; @ @ ; ; 1 ; 1 t ; t 1 [ [ [ [ [ [ [ [ M t t 1 t k t s t s z 1 s ; @ ( [ [ [ [ [ [ ] | + @ ; s ; 1 ; ; 1 ; 1 ; ; ; @ ",
"; @ 1 ; @ ; @ t ; ; t = X.[ [ [ [ [ [ [ [ ..i 1 j 1 t s 1 j 1 s t ; 1 F ' [ [ [ [ [ [ [ ] %.@ ; 1 1 ; t ; t ; @ ; ; ; @ ",
"@ 1 @ 1 ; ; t ; s ; 1 ..[ [ [ ] [ [ [ [ [ [ C l t z 1 t s t z 1 t t X U [ [ [ [ [ [ [ [ [ ' 7 ; @ 1 1 ; t ; 1 1 ; 1 @ 1 ",
"; @ 1 ; 1 1 < t ; s <.[ [ [ [ ] [ [ [ [ [ [ [ y j 1 z s s j a z t 1 G ( [ [ [ [ [ [ [ [ [ ] ]   1 1 1 t 1 t ; 1 1 ; ; ; ",
"; ; ; 1 : 1 1 t t , ! [ [ [ [ [ [ [ [ [ [ [ [ Z s j t j s j s 1 s , Y _ [ [ [ [ [ [ [ [ [ [ ' J @ t t t 1 1 t ; 1 : 1 1 ",
"; ; ; @ t : 1 1 1 ] [ [ [ [ [ [ [ [ [ [ [ [ [ [ p t z t j p j z ; H ] [ [ [ [ [ [ [ [ [ [ [ [ [ = ; t 1 1 t ; 1 ; ; ; ; ",
"; ; > t ; 1 ; , 9 ] [ [ [ [ [ [ [ [ [ [ [ [ ] [ &.j t z t s s e 1 [ [ [ [ [ [ [ [ [ [ [ [ [ [ [ { : 1 t ; 1 t ; 1 ; ; ; ",
"; 1 @ ; ; ; t ; -.[ [ [ [ [ [ [ [ [ [ ] [ [ ] [ X.f s 1 j t z t *.[ [ [ [ [ [ [ [ [ [ [ [ [ [ ] X.@ 1 ; t ; ; 1 @ 1 $ ; ",
"; @ t ; ; 1 ; t [ [ [ [ [ [ ] [ [ [ [ [ [ [ [ [ [ ;.l s t z y n [ [ [ [ [ [ [ [ [ ] [ [ [ [ [ ] [ 5 ; t 1 s 1 1 1 ; 1 ; ",
"; 1 ; t ; ; t 1 [ [ [ [ [ [ ] [ [ [ [ ] [ [ [ [ [ [ 9 j j s z :.[ [ [ ] ] [ [ [ [ [ [ ] [ [ [ [ [ P ; 1 t 1 s 1 1 1 ; 1 ",
"; ; 1 ; t 1 1 c [ [ [ [ [ ] [ [ ] [ [ [ [ ] [ [ [ [ >.s j j k ` [ ] ] [ [ [ ] [ [ [ [ ] [ [ [ [ [ L ; 1 t t ; 1 1 1 1 ; ",
"; ; 3 t ; t 1 @.[ [ [ [ [ [ [ [ [ [ [ [ [ ] ] [ [ [ [ j s j #.[ [ [ [ [ [ [ ] [ [ [ [ [ [ [ [ [ [ T @ 1 1 1 s 1 1 ; 1 1 ",
"; ; ; ; t ; 1 [ [ [ [ [ [ [ [ [ [ [ [ [ [ [ [ [ [ [ [ ,.j 9 [ [ [ [ [ [ [ [ [ [ [ [ ] [ [ [ [ [ [  .$ ; 1 9 ; t ; ; @ ; ",
"1 ; t ; $ 1 ; ] [ [ [ ] [ [ [ [ [ [ [ [ [ [ [ [ [ [ [ ` o ' [ [ [ [ [ [ [ [ [ [ [ [ [ [ [ [ [ [ [ E   ; ; s 1 ; 1 ; 1 ; ",
"$ 1 ; t : ; t X.[ [ [ ] [ [ [ [ [ [ [ [ [ [ [ [ [ [ [ [ o.] [ [ ] [ [ [ [ ] [ [ [ [ [ [ [ [ [ [ [ ] O ; t ; t 1 ; t ; 1 ",
"1 ; 3 ; 1 1 1 [ [ [ [ [ [ [ [ [ [ [ [ [ [ [ [ [ [ [ [ [ [ [ [ [ [ [ [ [ [ ] [ [ [ [ ] ] [ [ [ [ [ ] O ; 1 y ; 1 1 1 1 ; ",
"; ; 1 t ; t e X.[ [ [ [ [ ] [ [ [ [ [ [ ] [ [ [ [ [ [ [ [ [ [ [ [ [ [ [ [ [ [ [ [ [ [ [ [ [ [ [ [ [ = 1 t 1 s 1 1 1 1 1 ",
"; ; ; ; t 1 t X.[ [ [ [ [ ] [ [ [ ] ] [ [ [ [ [ [ [ [ [ [ [ [ [ [ [ [ [ [ [ [ [ [ [ [ [ [ [ [ [ [ [ 1 1 t 1 ; t : 1 ; ; ",
"; ; ; t ; 1 1 1.[ [ [ [ [ [ [ [ [ [ [ [ [ [ ] ] [ [ [ [ [ [ [ [ [ [ [ ] ] [ [ [ [ [ [ [ [ [ [ [ [ [ 1 1 1 1 s 1 1 ; ; 1 ",
"; 1 ; ; 1 ; t * [ [ [ [ [ [ [ [ [ [ ] [ [ [ [ [ [ [ [ [ [ [ [ [ [ [ [ [ ] [ [ [ [ [ [ [ [ [ [ [ [ ` t ; t : ; 1 ; 1 ; ; ",
"; ; t ; 1 1 ; s [ [ [ [ [ [ [ [ [ [ [ [ [ [ [ [ [ [ [ [ [ [ [ [ [ [ [ [ [ [ [ [ [ [ [ ] ] ] [ [ [ $.1 s : t ; ; 1 ; 1 $ ",
"; 1 ; t 1 1 t 1 [ [ [ [ [ [ [ [ [ [ [ [ [ [ [ [ [ [ [ [ [ ] [ [ [ [ [ [ [ [ [ [ [ [ [ [ [ [ [ [ [ s t 1 t 1 t ; ; 1 ; 1 ",
"; ; 1 ; t 1 1 1 N [ [ [ [ [ [ [ [ ] ] [ ] ] [ [ ] ] [ [ [ [ [ [ [ [ [ [ [ [ [ [ [ [ [ [ [ [ [ [ [ 1 t t t 1 ; t 1 1 1 @ ",
"; ; 1 t : 3 1 1 r [ [ [ [ [ [ [ [ [ [ [ [ [ [ [ [ [ [ [ ] ] [ [ [ [ [ [ [ [ [ [ [ [ [ [ [ [ [ [ -.s 3 t 1 t s 1 1 ; 1 1 ",
"@ $ ; ; t ; 1 ; t =.[ [ [ [ [ [ [ [ [ [ [ [ [ [ [ [ [ [ [ [ [ [ [ [ [ [ [ ] ] [ [ [ [ [ [ [ [ ` h ; t ; 1 t ; 1 ; ; ; @ ",
"; @ 1 ; @ 1 ; 1 ; , [ [ [ ] [ [ [ [ [ [ [ [ [ [ [ [ [ [ [ [ [ [ [ ] [ [ [ [ [ [ ] ] [ [ [ [ [ D 3 t ; t ; t ; @ 1 ; ; @ ",
"@ 1 ; t ; ; 1 ; y ; * [ [ [ [ [ [ [ [ [ [ [ [ [ ] ] [ [ [ [ [ [ [ [ [ [ [ [ [ [ [ [ [ [ ] [ [ g ; 1 t ; t ; 1 : ; 1 $ 1 ",
"; ; 1 ; 1 ; ; 1 ; s 1 +.[ [ [ [ [ [ [ [ [ [ [ [ [ [ [ [ [ [ [ [ [ [ [ [ [ [ [ [ [ [ [ [ [ [ t 1 j 1 1 t 1 t ; ; : ; 1 @ ",
"; ; ; 1 ; 1 1 1 1 ; t e Q [ [ [ [ [ [ [ [ ] ] [ [ [ [ [ [ [ [ [ ] [ [ [ [ [ [ [ [ [ [ [ [ 4 t t 1 s 1 1 1 ; 1 ; ; ; ; ; ",
"@ @ ; @ 1 ; 1 ; 1 t : 3 > X.[ [ [ [ [ [ [ [ [ [ [ [ [ [ [ [ [ [ [ ] [ [ [ [ [ [ [ [ [ X.V t 1 t s 1 1 1 1 1 ; 1 ; ; ; @ ",
"@ @ ; 1 $ 1 ; ; 1 ; t ; 1 1 [ [ [ [ [ [ [ [ [ [ [ [ [ [ [ [ [ [ [ [ [ [ [ [ [ [ [ [ [ B s 1 1 1 ; y ; 1 ; ; t @ ; @ ; ; ",
"@ @ @ @ ; @ : ; 1 1 ; 1 ; t 1 ) [ [ [ [ [ [ [ [ [ [ [ [ [ [ [ [ [ [ [ [ [ [ [ [ [ [ t t ; t ; t 1 $ 1 @ 1 ; ; ; @ ;   @ ",
"$ @ ; @ ; ; $ 1 ; 1 1 ; t 1 s 1 m ` [ [ [ ] [ [ [ [ [ [ [ [ [ [ [ [ [ [ [ [ [ [ _ s , t 1 : t ; t ; ; 3 ; 1 @ ; ; $ ; @ ",
"@ ; @ ; @ ; 1 ; 1 ; 1 1 ; t ; t 1 ; O.[ [ ] [ [ [ ] ] [ [ [ [ [ ] [ [ [ [ [ X.0 s 1 g 1 1 1 1 1 ; 3 1 ; 1 ; 1 ; ; ; ; ; ",
"@ @ ; @ ; ; ; ; ; 1 ; 1 1 1 s 1 t t t 8 2.[ [ [ [ [ [ [ [ [ [ [ ] [ [ [ [ * g t t t : s 1 1 1 1 t ; 1 ; 1 ; @ ; @ ; @ @ ",
"@ @ @ ; @ ; ; ; ; ; 1 ; 1 1 ; t 1 1 1 s s 1 p 3.[ [ [ _ [ [ ] ] ] X.b > t s 1 t 1 t t ; t 1 1 ; ; 1 ; ; ; ; ; @ @ @ @ @ ",
". @ @   @ @ ; @ ; 1 ; 1 ; ; t ; 1 ; 1 ; ; s < 1 1 1 j 1 3 1 t t 1 t 1 1 1 1 t ; 1 1 1 t ; 1 ; 1 t ; ; ; ; ; @ ; @ @ @ @ ",
"@ @ @ @ @ @ @ ; @ @ ; @ 1 @ 1 1 @ 1 ; 1 1 ; t ; t 1 1 1 ; t ; 1 1 ; 1 ; q 1 ; 1 ; t 1 ; 1 ; 1 @ ; ; ; ; @ ; @ @ @   @   ",
"  @   @ @ @ ; @ ; @ $ 1 ; 1 ; ; 1 ; t ; t ; ; t ; s ; ; 3 ; y ; 1 t : t ; t 1 ; t ; t ; ; 1 ; 1 ; ; ; @ ; @ ; @ . @   @ ",
"  @ @   @ @ @ ; @ ; ; ; 1 ; t ; 1 1 ; t ; 1 1 ; 3 ; t 1 1 t 1 t 1 1 t 1 t ; 1 1 ; 1 ; 1 1 ; 1 ; 1 $ ; ; @ ;   @ @ @ @   ",
"      @ @ @ @ @ @ @ ; ; ; ; @ 1 ; ; 1 1 t ; 1 1 1 1 ; t 1 1 1 ; t 1 1 1 1 t ; 1 1 1 1 ; : ; ; ; @ 1 @ @ @ @ @ @ @       ",
"        @ @ @ @ @ ; @ @ ; ; : $ ; ; ; ; ; 1 ; 1 : ; t 1 1 1 1 t : 1 < 1 ; ; 1 ; ; ; $ 1 ; ; ; ; ; @ $ @ @ @ @ @ .       ",
"              @ @ @ ; @ @ @ @ ; @ ; ; ; 1 ; ; ; : 1 ; 1 ; ; ; ; 1 ; ; ; ; 1 ; ; ; ; 1 @ ; @ @ $ @ ; @ @ @ @ @           ",
"            @   @ @ @ @ @ ; ; @ ; @ ; ; @ ; @ 1 @ 1 ; ; 1 ; 1 ; % ; ; ; @ @ ; @ ; @ ; ; @ ; @ ; @ @ @   @ .   .         ",
"              @   @ @ @ ; @ ; @ @ ; @ : @ ; ; @ 1 @ 1 ; ; 1 $ 1 ; ; : @ 1 $ ; 1 @ 1 @ ; @ @ ; @ @ @ @ @   @             ",
"                    @ @   @ @ ; @ @ ; @ ; @ @ ; @ ; @ ; ; ; 1 @ 1 ; ; ; @ 1 ; ; ; ; ; @ @ @ @ @ @ @ @   .               "
};
