/* XPM */
static char *b309892e32be401f8c5f1cc38417afd3lFw6U9QIWEo2IO63[] = {
/* columns rows colors chars-per-pixel */
"60 60 114 2 ",
"   c black",
".  c #040303",
"X  c #020503",
"o  c #040500",
"O  c #010304",
"+  c #040404",
"@  c #080707",
"#  c #070806",
"$  c #0B0B00",
"%  c #0A0B01",
"&  c #0A0A03",
"*  c #0E0B07",
"=  c #050408",
"-  c #09070A",
";  c gray3",
":  c #0C0B0B",
">  c #0B0C0B",
",  c #0B0B0C",
"<  c #0A090F",
"1  c #0C090E",
"2  c #0C0C0C",
"3  c gray6",
"4  c #100F0F",
"5  c #171600",
"6  c #191A00",
"7  c #1C1B00",
"8  c #111309",
"9  c #10100C",
"0  c #12130E",
"q  c #14120F",
"w  c #0F0E10",
"e  c #100E11",
"r  c #101010",
"t  c #141313",
"y  c #131611",
"u  c #151610",
"i  c #121116",
"p  c gray8",
"a  c #161515",
"s  c gray9",
"d  c #1A1917",
"f  c #1D1E17",
"g  c #161418",
"h  c #19161E",
"j  c #181818",
"k  c #1C191B",
"l  c #19181C",
"z  c gray12",
"x  c #252400",
"c  c #242404",
"v  c #3A3A04",
"b  c #23231D",
"n  c #454703",
"m  c #4D4F03",
"M  c #464508",
"N  c #525010",
"B  c #686616",
"V  c #7D7C1C",
"C  c #94912D",
"Z  c #949530",
"A  c #959435",
"S  c #ACAE37",
"D  c #A2A03D",
"F  c #AAAE39",
"G  c #B7B533",
"H  c #BFC220",
"J  c #C7C91F",
"K  c #D2D51E",
"L  c #DDDD1B",
"P  c #D8D91D",
"I  c #E1E417",
"U  c #E4E71A",
"Y  c #E6E819",
"T  c #E6E91D",
"R  c #E8EA1E",
"E  c #EAEC1D",
"W  c #EDEE1D",
"Q  c #EEF11D",
"!  c #F9FA16",
"~  c #FAFF17",
"^  c #F2F51E",
"/  c #F4F51E",
"(  c #F7F91C",
")  c #F9FB19",
"_  c #F9FC1B",
"`  c #FCFF1A",
"'  c #F8F91D",
"]  c #FBFD1E",
"[  c #FCFD1E",
"{  c #D6DA27",
"}  c #D4D732",
"|  c #E2E423",
" . c #F6FA20",
".. c #FBFE20",
"X. c #FCFD21",
"o. c #FAFD26",
"O. c #FBFE2A",
"+. c #FFFF2E",
"@. c #FEFF33",
"#. c #F9FA37",
"$. c #F1F43A",
"%. c #BDBD43",
"&. c #D5D847",
"*. c #DEDF46",
"=. c #D3D748",
"-. c #D6DA49",
";. c #E3E54B",
":. c #EFF146",
">. c #F1F446",
",. c #FCFF43",
"<. c #F1F34C",
"1. c #F9F94A",
"2. c #FBFF49",
"3. c #F0F754",
/* pixels */
"            + + + + + ; + ; + + 2 ; 2 ; 2 ; ; r ; 2 ; ; 2 ; 2 ; 2 ; @ 2 + 2 + + 2 + ; + ; + + + + @ +   .               ",
"        . + + + + + ; + + ; ; ; + ; ; ; ; + 2 ; 2 2 ; 2 ; 2 2 ; ; ; 2 ; 2 2 ; ; + ; ; ; ;   ; + + + + +   + .           ",
"        + + + + + ; + ; + ; ; ; 2 ; ; ; ; 2 ; 2 2 : ; ; r ; 2 2 ; 2 ; 2 2 ; ; ; 2 ; ; ; + ; @ ; ; + + + + +             ",
"      + . + ; + + + ; ; ; ; ; ; ; 2 2 ; 2 ; 2 ; 2 2 ; 2 ; 2 2 2 2 ; 2 ; 2 2 ; 2 ; 2 ; ; ; + ; ; ; ; + + + + + .         ",
"    +   + ; + ; + ; + ; 2 ; 2 + ; 2 2 2 : 2 ; ; 2 2 r ; 2 2 2 r ; 2 ; ; w < 2 + 2 ; ; 2 + ; ; ; ; + ; + + + + +   +     ",
"  + + + + + ; + 2 + + 2 + r ; ; 2 ; r ; a ; ; a ; a ; 2 r ; a : a ; ; r ; a ; < r ; 2 ; 2 ; + 2 ; 2 + + ;   + + +       ",
"+ + + ; + ; + ; ; + 2 ; 2 2 ; 2 ; r 2 4 2 + a : r 2 2 r ; a 2 4 2 : u 2 r 2 2 r ; r : 2 ; ; 2 ; 2 ; ; ; + + + + + . +   ",
"+ + + + ; + ; ; + 2 + r 2 : ; ; r 2 2 2 ; r 2 r r 4 2 ; r 2 r r 2 r : r r 2 2 ; r : 2 2 ; 2 ; 2 ; ; + + ; + + + + +     ",
"+ + + ; + ; ; ; ; ; ; : 2 2 ; r ; r 2 2 r ; r 2 2 2 ; ; # ; ; ; 2 ; a 2 r r ; r ; 2 2 2 2 + 2 ; ; ; + ; + ; ; + +   +   ",
"+ + ; + ; ; ; ; ; 2 ; 2 2 2 r ; 2 2 2 r ; 2 ; ; ; # @   O   = ; 2 r 2 r r 4 r ; 2 2 2 0 ; 2 ; 2 2 ; ; + ; + ; ; + + + + ",
"+ ; + + ; ; 2 ; r ; ; r 2 r ; 2 2 2 r ; ; + 5 P L R  .W ] [ [ [ [ ` @.a 2 a ; r 2 2 u 2 i - ; 4 ; 2 ; ; ; ; < + ; + + + ",
"; + ; + + 2 + r + ; r ; a ; a 2 + 2 + = { X.[ [ [ [ [ [ [ [ [ [ [ [ [ [ [ &.h 0 ; a 2 a 2 2 r ; r ; 4 ; ; 2 + ; + + +   ",
"+ + ; + 2 ; 2 2 ; r ; r r 2 ; ; ;   J X.[ [ [ [ [ [ [ [ [ [ [ [ [ [ [ [ [ [ ` S g e r r 2 r > 2 2 2 2 + 2 ; ; ; @ ; + + ",
"@ @ + 2 ; 2 2 ; ; ; r 2 r 2 + + 7 ] ..[ [ [ [ [ [ [ [ [ [ [ [ [ [ [ [ [ [ [ [ [ X.r r 2 2 ; y 2 2 2 ; 2 + 2 ; @ @ + ; + ",
"; ; ; ; ; 2 2 2 ; 2 ; r 2 ; + $.' ] [ [ [ [ [ [ [ [ [ [ [ [ [ [ [ [ [ [ [ [ [ [ [ [ 5 r 2 r > 2 r 2 2 ; 2 ; ; ; + ; + + ",
"; 2 ; ; ; ; r 2 r ; 2 2 ; # | [ [ [ [ [ [ [ [ [ [ [ [ [ [ [ [ [ [ [ [ [ [ [ [ [ [ [ [ B a ; 2 2 2 r ; 2 ; : 2 ; ; + + + ",
": + 2 + ; r ; r ; 2 r ; ; K ] [ [ [ [ [ [ [ [ [ [ [ [ [ [ [ [ [ [ [ [ [ [ [ [ [ [ [ [ X.N 2 r 2 a : r ; ; 2 ; 2 + ; ; + ",
"; 2 + ; r ; r 2 r r ; ; } Q [ [ [ [ [ [ [ [ [ [ [ [ [ [ [ [ [ [ [ [ [ [ [ [ [ [ [ [ [ [ [ r < a 2 r 2 : r ; 2 @ 2 ; + ; ",
"; ; @ 2 ; 2 2 2 2 ; 2 c ^ / [ [ [ [ [ [ [ [ [ [ [ [ [ [ [ [ [ [ [ [ [ [ [ [ [ [ [ [ [ [ [ [ a 2 r r : 4 ; 2 2 ; ; + 2 ; ",
"; ; ; + r 2 r r ; r + U ] I [ [ [ [ [ [ [ [ [ [ [ [ [ [ [ [ [ [ [ [ [ [ [ [ [ [ [ [ [ [ [ [ _ a r 2 : ; r 2 2 ; ; ; + ; ",
"; 2 ; 2 ; 2 r 2 2 ; H E ( [ [ [ [ [ [ [ [ [ [ [ [ [ [ [ [ [ [ [ [ [ [ [ [ [ [ [ [ [ [ [ [ [ [ q r r ; 2 ; 2 2 ; ; + ; + ",
"2 ; r ; ; r 2 a 2 2 [ [ [ [ [ [ [ [ [ [ [ [ [ [ [ [ [ [ [ [ [ [ [ [ [ [ [ [ [ [ [ [ [ [ [ [ [ X.g 2 r ; 2 2 ; 2 ; ; ; + ",
"; r ; ; r ; a 2 a 2 ; Z [ [ [ [ [ [ [ [ [ [ [ [ [ [ [ [ [ [ [ [ [ [ [ [ [ [ [ [ [ [ [ [ [ [ [ [ % a 2 2 r ; r ; r ; ; 2 ",
": 2 ; r ; r 2 2 r 2 j r i A ( ' [ [ [ [ [ [ [ [ [ [ [ [ [ [ [ [ [ [ [ [ [ [ [ [ [ [ [ [ [ [ [ [ [ r 2 2 ; r 2 2 ; + 2 ; ",
"2 ; 2 ; t 2 2 r 2 a 2 a r ; + D Y ( _ [ [ [ [ [ [ [ [ [ [ [ [ [ [ [ [ [ [ [ [ [ [ [ [ [ [ [ [ [ [ 2 2 ; r 2 2 2 ; ; ; ; ",
"; ; ; 2 : r r 4 r ; a r a r ; 2 X F T ] [ [ [ [ [ [ [ [ [ [ [ [ [ [ [ [ [ [ [ [ [ [ [ [ [ [ [ [ [ v 2 2 ; r 2 > ; ; 2 ; ",
"2 : 2 ; 2 2 r r 2 r 2 r a r a ; r 2 < G [ [ [ [ [ [ [ [ [ [ [ [ [ [ [ [ [ [ [ [ [ [ [ [ [ [ [ [ [ X.r ; 0 2 2 2 ; ; + ; ",
"; 2 ; 2 2 2 a 2 a 2 2 a r j 2 r r r a > 2 *.[ [ [ [ [ [ [ [ [ [ [ [ [ [ [ [ [ [ [ [ [ [ [ [ [ [ [ [ 2 2 2 2 r : 2 + ; ; ",
"r ; r 2 ; a ; a 2 2 j 2 j 2 z a 2 z 2 z 2 r b :.` [ [ [ [ [ [ [ [ [ [ [ [ [ [ [ [ [ [ [ [ [ [ [ [ [ a r ; r ; r ; ; 2 + ",
"; ; ; ; r 2 r a 2 a 2 a a r a 2 z r a j r z r z k #.[ [ [ [ [ [ [ [ [ [ [ [ [ [ [ [ [ [ [ [ [ [ [ [ r ; t 2 2 2 ; 2 @ : ",
"; 2 ; r 2 r r 2 2 2 a r a a r j r j a r a 2 z a j j 0 ' ] [ [ [ [ [ [ [ [ [ [ [ [ [ [ [ [ [ [ [ [ [ 2 r : r 2 ; ; ; 2 ; ",
"; ; 2 ; 2 2 r r ; a 2 a a r r 2 j a a a r j r j j a j o o.[ [ [ [ [ [ [ [ [ [ [ [ [ [ [ [ [ [ [ [ [ r ; r 2 2 2 ; 2 ; ; ",
"; 2 ; 2 2 2 r 2 a ; r a r j r a r a j r z 2 a j a j ,.` [ [ [ [ [ [ [ [ [ [ [ [ [ [ [ [ [ [ [ [ [ _ 2 2 ; 2 r 2 2 + ; ; ",
"2 ; r ; ; a 2 a ; 2 a 2 j 2 k r 2 z r z r a l 0 >.[ [ [ [ [ [ [ [ [ [ [ [ [ [ [ [ [ [ [ [ [ [ [ [ [ a ; ; r ; r ; ; 2 + ",
"; 2 2 ; t ; a 2 a j 2 j 2 a r 2 z 2 j r j f ;.[ [ [ [ [ [ [ [ [ [ [ [ [ [ [ [ [ [ [ [ [ [ [ [ [ [ [ 2 2 a ; 2 ; 2 ; + ; ",
"2 2 ; r ; r r 4 2 ; j r r a r j r j a i %.X.[ [ [ [ [ [ [ [ [ [ [ [ [ [ [ [ [ [ [ [ [ [ [ [ [ [ [ [ 2 r > 2 2 > : + 2 @ ",
"2 ; ; ; r 2 2 r 2 r 2 a a r r 2 l u C [ [ [ [ [ [ [ [ [ [ [ [ [ [ [ [ [ [ [ [ [ [ [ [ [ [ [ [ [ [ 3.2 ; r 2 2 2 ; 2 + ; ",
"; 2 ; 2 2 2 r 2 r ; r r r a 2 u V [ [ [ [ [ [ [ [ [ [ [ [ [ [ [ [ [ [ [ [ [ [ [ [ [ [ [ [ [ [ [ [ i ; r ; 2 2 ; ; + ; ; ",
"2 ; 2 ; ; r 2 r ; 2 2 2 a w m ..[ [ [ [ [ [ [ [ [ [ [ [ [ [ [ [ [ [ [ [ [ [ [ [ [ [ [ [ [ [ [ [ [ 2 a ; 2 r ; 2 ; ; ; + ",
"@ 2 ; ; r ; r ; j 2 : d 6 X.[ [ [ [ [ [ [ [ [ [ [ [ [ [ [ [ [ [ [ [ [ [ [ [ [ [ [ [ [ [ [ [ [ [ 2.a 2 2 r ; r ; 2 + + ; ",
"; 2 ; 4 ; r 2 2 r ; q [ [ [ [ [ [ [ [ [ [ [ [ [ [ [ [ [ [ [ [ [ [ [ [ [ [ [ [ [ [ [ [ [ [ [ [ [ 8 a ; r ; r ; ; ; + ; + ",
"; ; ; ; 2 2 2 2 2 a [ [ [ [ [ [ [ [ [ [ [ [ [ [ [ [ [ [ [ [ [ [ [ [ [ [ [ [ [ [ [ [ [ [ [ [ [ O.r 2 2 ; r ; ; ; ; ; + ; ",
"; ; ; 2 ; 2 2 2 r ; 5 [ [ [ [ [ [ [ [ [ [ [ [ [ [ [ [ [ [ [ [ [ [ [ [ [ [ [ [ [ [ [ [ [ [ [ ` > r 2 ; 2 ; 2 ; ; ; + ; + ",
"; ; 2 + ; ; 2 r ; r 1 ` [ [ [ [ [ [ [ [ [ [ [ [ [ [ [ [ [ [ [ [ [ [ [ [ [ [ [ [ [ [ [ [ [ [ n 2 r 2 2 + ; 2 ; ; + ; + + ",
"+ : + ; ; ; r : r ; 2 y ..[ [ [ [ [ [ [ [ [ [ [ [ [ [ [ [ [ [ [ [ [ [ [ [ [ [ [ [ [ [ [ [ ) 2 r 2 r ; 2 ; ; 2 @ ; + + ; ",
"; + : ; ; r ; r ; ; a ; a X.[ [ [ [ [ [ [ [ [ [ [ [ [ [ [ [ [ [ [ [ [ [ [ [ [ [ [ [ [ [ [ 2 a ; a ; r 2 ; r + ; + ; ; + ",
"; ; @ + 2 ; > 2 ; r ; r r * [ [ [ [ [ [ [ [ [ [ [ [ [ [ [ [ [ [ [ [ [ [ [ [ [ [ [ [ [ X.2 r 2 r 2 2 ; + 2 ; ; ; + ; + + ",
"; @ + ; ; 2 ; ; > ; r 2 2 0 > [ [ [ [ [ [ [ [ [ [ [ [ [ [ [ [ [ [ [ [ [ [ [ [ [ [ [ ! > 2 ; r > 2 2 ; 2 + 2 ; ; ; + ; + ",
"; @ ; + ; ; ; ; ; 2 ; r 2 2 r = X.[ [ [ [ [ [ [ [ [ [ [ [ [ [ [ [ [ [ [ [ [ [ [ [ +.e 4 ; 2 ; 2 2 ; 2 + 2 ; ; + + + +   ",
"+ @ + + + ; 2 ; 2 ; 2 2 2 r ; 2 w <.~ [ [ [ [ [ [ [ [ [ [ [ [ [ [ [ [ [ [ [ [ [ % 2 r : r ; 2 2 ; 2 ; ; @ ; ; + ; + + + ",
"; + ; + ; : + 2 + ; 2 ; r ; r ; ; a < [ ] [ [ [ [ [ [ [ [ [ [ [ [ [ [ [ [ [ =.< ; a 2 r ; 2 2 ; 2 + 2 + + ; + ; + + +   ",
"+ + + + ; + ; ; ; 2 + r ; 2 2 ; a ; r 2 0 -.[ [ [ [ [ [ [ [ [ [ [ [ [ [ M i r > a : r 2 2 2 ; 2 ; : ; + ; + + + + + . + ",
"+ + + + + ; ; ; ; + 2 ; 2 2 ; r ; r r 2 > ; r 2 x @.[ [ X.[ X.X.1.% a 2 2 2 ; 2 ; 2 2 ; ; ; 2 ; ; ; + ; + ; + +     +   ",
"+ + +   ; ; ; ; + ; + 2 2 2 2 + r 2 2 2 > r ; r 2 2 2 ; r 2 r r : r > r 2 2 2 ; 2 ; 2 2 ; 2 + 2 ; ; ; + ; + + +   +     ",
". + + + + + ; ; ; + ; ; ; 2 ; ; ; 2 2 2 2 ; 2 ; 2 r ; 2 ; 2 r 2 2 ; 2 2 2 2 ; 2 ; ; 2 ; 2 + ; + ; ; + + + + + +         ",
"    +   + + + ; + ; @ ; 2 ; ; + ; 2 ; r ; ; ; ; r : r + : 2 ; r ; 2 2 2 r ; r + : 2 ; 2 ; ; ; + ; + + + + + + +         ",
"  +     + + + + ; + + ; + 2 + ; 2 ; 2 + 2 ; ; r ; r + ; r ; r ; r ; ; r ; r + ; r ; 2 + 2 ; + ; + ; . + +   +           ",
"      + . + + + + + ; + ; ; ; 2 ; 2 ; ; ; + 4 ; 2 2 ; r ; 2 2 ; ; ; r ; 2 2 ; 2 ; 2 ; ; ; + ; + ; + + +   +             ",
"        + + + +   + + ; ; @ ; + 2 + ; ; ; 2 ; 2 : ; ; ; 2 ; 2 ; ; 2 ; 2 ; ; + + 2 + ; + + ; + + + + + + +               ",
"          + + + + + + + ; ; + ; + ; ; ; ; ; 2 ; ; ; ; 2 + 2 ; ; ; ; ; ; ; ; + ; + ; + + + + @ + + +   +                 "
};
