/* XPM */
static char *adc78fe31f3f4c58d756c24a952825837Uf5bQcqlSN4vmgM[] = {
/* columns rows colors chars-per-pixel */
"60 60 118 2 ",
"   c black",
".  c #040303",
"X  c #020503",
"o  c #040500",
"O  c #010304",
"+  c #060304",
"@  c #040404",
"#  c #080707",
"$  c #070806",
"%  c #0A0A03",
"&  c #0E0B07",
"*  c #050408",
"=  c #09070A",
"-  c gray3",
";  c #0C0B0B",
":  c #0B0C0B",
">  c #0E0E0B",
",  c #0B0A0E",
"<  c #0C090E",
"1  c #0C0C0C",
"2  c #0E0E0E",
"3  c #100F0F",
"4  c #151300",
"5  c #171600",
"6  c #191A00",
"7  c #1C1B00",
"8  c #111309",
"9  c #12130E",
"0  c #15120E",
"q  c #0F0E10",
"w  c #0F0F15",
"e  c #100E11",
"r  c #110F15",
"t  c #101010",
"y  c #111010",
"u  c #141313",
"i  c #131611",
"p  c #151610",
"a  c #131314",
"s  c #101615",
"d  c gray8",
"f  c gray9",
"g  c #1A1917",
"h  c #1D1E17",
"j  c #161418",
"k  c #19161E",
"l  c gray10",
"z  c #1C191B",
"x  c #1B1A1D",
"c  c #1D1D1D",
"v  c #252400",
"b  c #242404",
"n  c #3A3A04",
"m  c #23231D",
"M  c #454703",
"N  c #4D4F03",
"B  c #464508",
"V  c #525010",
"C  c #686616",
"Z  c #7D7C1C",
"A  c #94912D",
"S  c #949530",
"D  c #959435",
"F  c #ACAE37",
"G  c #A2A03D",
"H  c #AAAE39",
"J  c #B7B533",
"K  c #BFC220",
"L  c #C7C91F",
"P  c #D2D51E",
"I  c #DDDD1B",
"U  c #D8D91D",
"Y  c #E1E417",
"T  c #E4E71A",
"R  c #E6E819",
"E  c #E6E91D",
"W  c #E8EA1E",
"Q  c #EAEC1D",
"!  c #EDEE1D",
"~  c #EEF11D",
"^  c #F9FA16",
"/  c #FBFE17",
"(  c #F2F51E",
")  c #F4F51E",
"_  c #F6F81B",
"`  c #F7F91C",
"'  c #F9FB19",
"]  c #FAFF1B",
"[  c #FDFD1B",
"{  c #F9FB1F",
"}  c #FBFE1D",
"|  c #FCFE1E",
" . c #D6DA27",
".. c #D4D732",
"X. c #E2E423",
"o. c #F6FA20",
"O. c #FBFE23",
"+. c #FDFD21",
"@. c #FAFD26",
"#. c #FBFE2A",
"$. c #FFFF2E",
"%. c #FEFF33",
"&. c #F9FA37",
"*. c #FCFD37",
"=. c #F1F43A",
"-. c #BDBD43",
";. c #D5D847",
":. c #DEDF46",
">. c #D3D748",
",. c #D6DA49",
"<. c #E3E54B",
"1. c #EFF146",
"2. c #F1F446",
"3. c #FCFF43",
"4. c #F1F34C",
"5. c #F9F94A",
"6. c #FBFF49",
"7. c #F0F754",
/* pixels */
"                  @ @   @ @ - @ @ - @ - @ @ 2 - - - - - @ - - - - @ - @ - - @ - @ - @ @ - @ @ @ @ @                     ",
"            @   @ @ @ @ @ - @ @ @ @ 2 @ - @ - 2 - 2 @ - 2 # 2 - - 2 @ 2 @ - - @ - @ - @ @ - @ - @ @ @   @               ",
"              @ @ @ @ @ # @ - @ - - @ - @ - @ @ - - 2 @ - 2 - 2 @ - - @ 2 @ - @ - - @ - @ @ - @ @ @ @ @   @             ",
"          @ @ @ @ @ - @ @ # # - @ 2 - - - - 2 - - - - 2 - - - - 2 - 2 - - - - 2 - - - @ - @ @ @ @ - @ @ @   @           ",
"      . @ @ @ @ @ # @ - - # - - 2 - - - - 2 - - 2 ; 2 - y 2 - 2 2 y - > 2 - 2 @ - - - - # - - - @ @ - @ @ @ @ @         ",
"      @ @ - @ @ @ @ - @ - - - - - 2 2 2 2 - y 2 2 2 2 y - 2 2 2 2 - 2 2 2 2 - y 2 2 - - 2 @ - - - - @ @ @ @ @ @ @       ",
"  @ @ @ @ @ # @ - @ - 2 - 2 - - 2 - 2 - 2 2 - y 2 y 2 2 y 2 y 2 2 y - q - 2 2 - y - 2 2 - y - 2 - @ - @ # @ @ @   @     ",
".   @ . @ @ @ - @ - - - 2 @ 2 - - y - y - 2 y - y - 2 2 - u - 2 - - d - y - - y - y - 2 - - 2 @ 2 @ @ ; @ - @ @ @   @   ",
"  @ @ @   @ - @ - - - - @ 2 - 2 - - 2 - 2 - 2 2 - 2 - 2 2 - y - 2 - 2 y - y - 2 y - 2 - - 2 @ - @ - @ @ -   @ @ @ @   @ ",
"@ @ @ @ - @ @ @ - - - y 2 - 2 - y 2 - - - y 2 2 2 2 y 2 y y 2 3 2 d 2 2 2 - d - - 2 - 2 - y - - 2 - 2 - - - @ @     @   ",
"# @ @ @ @ - - - - - 2 - - 2 2 y - y y 2 y 2 d y > n +.} } } | | ] | | | 7.a 2 d y 2 2 2 y - - 2 - 2 - 2 2 - - @ - @ @ @ ",
"@ @ @ # - @ - - - 2 - y 2 2 2 2 d - y y y j % | | | | | | | | | | | | | | | | 6.8 y y y 2 y 2 2 2 - 2 - - - - - @ - @ @ ",
"@ @ - - - 2 - 2 - 2 3 - 2 2 2 2 2 d 2 d 0 +.| | | | | | | | | | | | | | | | | | | #.- 2 y - y - 2 2 - 2 - - # @ - @ - @ ",
"@ - @ - # @ 2 - 2 - ; y - y ; 2 y , d ] | | | | | | | | | | | | | | | | | | | | | | [ M 2 d 2 y - 2 2 - 2 @ - - @ - @ # ",
"- @ - @ - - - 2 @ 2 @ 2 y - y - 2 y | | | | | | | | | | | | | | | | | | | | | | | | | | ' 2 y - 2 - 2 2 - - @ - - @ @ @ ",
"- - @ - @ 3 2 - 2 - d 2 2 2 2 d V | | | | | | | | | | | | | | | | | | | | | | | | | | | | | 2 2 - y - 2 - - - @ 2 - @ @ ",
"@ - - - 2 - 2 2 2 2 2 d y 2 y C +.| | | | | | | | | | | | | | | | | | | | | | | | | | | | | +.> y ; y 2 - 2 - 2 @ - @ @ ",
"- - - - - 2 2 2 2 2 y - y y 4 | | | | | | | | | | | | | | | | | | | | | | | | | | | | | | | | ^ e y - 2 2 2 2 - 2 - - - ",
"@ - - - - - y 2 2 2 2 d 2 y | | | | | | | | | | | | | | | | | | | | | | | | | | | | | | | | | | $.2 d - 2 - - 2 @ - @ - ",
"2 @ 2 - - 2 - y - 2 2 - j | | | | | | | | | | | | | | | | | | | | | | | | | | | | | | | | | | | | % - u - 2 - - 2 # 2 @ ",
"@ - - 2 @ - y - y 2 y 3 F | | | | | | | | | | | | | | | | | | | | | | | | | | | | | | | | | | | | | , - 2 - 2 @ - 2 @ - ",
"@ - - - 2 - 2 2 - y - k [ | | | | | | | | | | | | | | | | | | | | | | | | | | | | | | | | | | | | | >.y - 2 - y @ - - @ ",
"2 2 - 2 - y 2 2 y 3 d ;.| | | | | | | | | | | | | | | | | | | | | | | | | | | | | | | | | | | | | | | r 3 2 2 - 2 2 - - ",
"@ 2 2 2 2 - 2 y y y 2 | | | | | | | | | | | | | | | | | | | | | | | | | | | | | | | | | | | | | | | | B 3 2 2 y - 2 - - ",
"2 - 2 - - y 2 y 2 y d | | | | | | | | | | | | | | | | | | | | | | | | | | | | | | | | | | | | | | | | | 2 y 2 - y - 2 - ",
"@ 2 - 2 - - y ; d 2 *.| | | | | | | | | | | | | | | | | | | | | | | | | | | | | | | | | | | | | | | | | d - 2 - - y - - ",
"- @ 2 - 2 - ; y - y [ | | | | | | | | | | | | | | | | | | | | | | | | | | | | | | | | | | | | | | | | | % y - 2 - - 2 @ ",
"2 - - 2 2 d 2 2 y 2 | | | | | | | | | | | | | | | | | | | | | | | | | | | | | | | | | | | | | | | | | | 5.- 2 - y - - - ",
"- - 2 ; y - 2 y - - | | | | | | | | | | | | | | | | | | | | | | | | | | | | | | | | | | | | | | | | | | +.2 2 y - - - - ",
"2 2 2 2 2 d 2 y - * | | | | | | | | | | | | | | | | | | | | | | | | | | | | | | | | | | | | | | | | | | +.2 2 - y 2 - - ",
"- 2 - 2 2 - y 2 -   } | | | | | | | | | | | | | | | | | | | | | | | | | | | | | | | | | | | | | | | | | | 2 2 2 - y 2 2 ",
"2 - y - 2 y - y @ O } | | | | | | | | | | | | | | | | | | | } @.| | | | | | | | | | | | | | | | | | | | +.y - ; y - 2 - ",
"- 2 - 2 - 2 y - -   ! | | | | | | | | | | | | | | | | | | | { o [ | | | | | | | | | | | | | | | | | | | } - 2 @ - 2 - 2 ",
"- @ - - y - 2 2 - # o.| | | | | | | | | | | | | | | | | | | 9 l 3.| | | | | | | | | | | | | | | | | | | | 2 - y @ - @ - ",
"2 2 - 2 2 d y 2 2 @ W | | | | | | | | | | | | | | | | | | &.l d l | | | | | | | | | | | | | | | | | | | %.2 y - y 3 - - ",
"- 2 2 2 y - y y 2 - I | | | | | | | | | | | | | | | | | [ z l l d 2.| | | | | | | | | | | | | | | | | | v 2 2 y - 2 2 - ",
"2 - 2 - - d 2 y 2 - U | | | | | | | | | | | | | | | | | 1.c d l l 9 | | | | | | | | | | | | | | | | | | 2 y - - y - 2 - ",
"- 2 - 2 ; - d ; y - 5 | | | | | | | | | | | | | | | | | m y c y d x <.| | | | | | | | | | | | | | | | | y - 2 - - 2 @ - ",
"- @ 2 @ 2 - @ y - 2 @ +.| | | | | | | | | | | | | | | :.y c 2 l 2 d h +.| | | | | | | | | | | | | | | ,.- y - - - @ - @ ",
"- - - 2 - y 2 - y - -  .| | | | | | | | | | | | | | | 2 2 y d y c y l -.| | | | | | | | | | | | | | | 9 - 2 2 - 2 - @ - ",
"- - - - 2 - 2 2 2 y - * | | | | | | | | | | | | | } J 2 c l y d y c y a | | | | | | | | | | | | | | } 2 2 2 - y - - - - ",
"2 - - 2 2 y 2 2 2 2 y @ L { | | | | | | | | | | ] E q d 2 d d d l y l d A | | | | | | | | | | | | ] , y 2 2 2 - 2 - - - ",
"@ - - 2 2 - y - y 2 2 2   } } | | | | | | | | | ` H 2 y c d l d d c 2 l u | | | | | | | | | | | | 4.d - y - 2 2 - 2 - - ",
"- @ 2 - - 2 - y - 2 2 @ - 7 { | | | | | | | | | R X y d 2 c y d y 2 c y x Z | | | | | | | | | | O.2 - d - 2 - - 2 # 2 @ ",
"@ - # - @ - 2 - y - 2 2 - @ =.} | | | | | | | } G 2 - y d 2 l 2 d 2 2 l 2 p O.| | | | | | | | | * 2 - - y @ - @ - 2 @ - ",
"@ @ - - 2 - - - - 2 - d - @ + X.} | | | | | | { @ - d 2 c d 2 y y z y 2 y 2 N | | | | | | | | : y - y 2 - 2 - - @ @ - @ ",
"- - - - - y - - 2 2 y - 2 2 @ $ P ~ ) Y | | | D @ 2 y l 2 y d y l 2 d d y d q +.| | | | | +.& 3 2 y - 2 2 - 2 # 2 - # @ ",
"@ - - - 2 @ 2 2 2 2 2 d 2 2 2 - - ..( } _ | | w 2 y d y l d d d y l 2 y d y d 6 | | | | O.s y 2 2 2 y - - 2 - 2 @ - - @ ",
"- @ - - - 2 - y ; 2 2 - y 2 y 2 - - b T Q | S y d y y d 2 d y d y 2 l y d y 2 g | | | / i - y 2 2 2 - y - 2 - - - @ - @ ",
"@ - @ - - - 2 @ - - - y - y - 2 y - 2 @ K } = d 2 d 2 2 l 2 d 2 y d 2 l 2 y 2 ; 0 | 4 < 2 d - y - - 2 @ 2 @ - @ @ - @ @ ",
"@ @ @ @ - @ # 2 - 2 @ - y - 2 - 2 y - y - 2 2 2 u - y 2 2 d 2 d - 2 l - y - 2 2 - y - 2 - - y - 2 - - 2 @ - @ - @ @ @   ",
"@   @ @ @ 2 - @ - - 3 @ - - - y - y 2 - 2 2 d y 2 y 2 d 2 2 2 - d 2 d 2 2 y - l y 2 2 - y - - - - 2 @ - - @ - @ - @   @ ",
"@ @ @ @ - @ - - - - - y 2 - 2 2 y 2 2 3 2 y 2 2 y 2 y 2 d d 2 y 2 d 2 2 y 2 y - 2 2 2 2 ; y 2 - - - 2 - - @ @ - @ @ @ @ ",
"@ @ @ @ @ - @ - - - 2 @ 2 2 2 y - y 2 2 y 2 d 2 y y y d - y y y y 2 y y 2 2 2 y 2 2 2 2 y - 2 - - 2 @ - - @ - @ @ @ @ @ ",
"    @ @ - @ - @ - - - 2 - 2 - - y @ 2 2 2 y - y 2 y 2 2 d 2 y 2 2 y - y 2 2 y - y 2 2 - - 3 - 2 - - 2 @ - - @ @ @ @ @ @ ",
"    @ . @ @ @ - @ - - @ 2 - - - - y - y - - y - y - 2 2 - y ; 2 2 - y - y 2 2 y - 2 - - - # 2 - - # - - @ - @ @ @ @ @   ",
"      @   @ @ @ @ @ @ - @ 2 @ - @ - 2 @ 2 @ - y - 2 - 2 2 - y - 2 - - 2 - 2 @ - 2 @ 2 @ - - @ - @ - @ @ @ . @     @     ",
"    .   @ @ @ @ @ - @ - - @ - - 2 @ @ - - 2 - - 2 - 2 - y - - 2 - y - - - - 2 - - - @ - @ - @ @ - @ - @ @ @ @ @         ",
"      . @ @ @ @ @ @ - @ @ # - ; @ 2 - - 2 - y 2 - - ; 2 - - 2 - 2 - 2 2 - 2 - 2 2 - - - 2 @ - # @ # @ @ @ @ @   @       ",
"            @ @ @ @ @ - # - - - ; @ - - - 2 - ; 2 - 2 - y - - - - 2 - - 2 - 2 @ - - - - - 2 - - @ @ - @ @ @             "
};
