/* XPM */
static char *bb8850ef6ced47a091433f3046b32e3bzytijHpAQC3qMidU[] = {
/* columns rows colors chars-per-pixel */
"60 60 21 1 ",
"  c black",
". c #040303",
"X c #040404",
"o c #070707",
"O c #080707",
"+ c #0B0A0A",
"@ c #0B0B0B",
"# c #0C0B0B",
"$ c #0C0C0C",
"% c gray6",
"& c #100F0F",
"* c #131313",
"= c #141313",
"- c gray8",
"; c #181717",
": c #181818",
"> c #1C1B1B",
", c #1D1D1D",
"< c gray12",
"1 c #212020",
"2 c gray14",
/* pixels */
"        X  XXXX++X+X+X++++X+++$++O+++$X+O++X+X++XXX X X     ",
"       X XXXXX+X+++$XX+$$X$++#+$++++$+#X+++$XXO++XX XXXX    ",
"      XXXXX+X+X+++++++$$+*+#+$$X$+*$+$X$++$X$X++X+XXXXX X   ",
"     X XXX+X+X+$X$+$+X$+$++*+*+*+X*+*++$+$+$++$X+XX+X+XX    ",
"    XXXX +X+X++X$+$+X*+*++$+*+*++*$*$+++$+$+X$+++X+XXXXX X  ",
"   .XXXXXX++X+X$+$$+$+$$$$+$$$$+$+*$$$+$+$$+++$+++X+X+XXXX  ",
"  X XXX+X+O+#O#+$$+&+$$$*+*#&&$*+$$$*+&+$$#&+$+$$O+X++X+ XXX",
"XX XXX+X+X+++$X+$$*+*+$$$-+$$**$*$&*$*+$$$*+&+$++$X+X++X+.XX",
"XXXXX+X$XX#+$+$$$*$-$&*&*#***=$:$*=$-+-*$*+=+$$+*+$+++X+XXX ",
" XXX+X+XX$+$+$$+-+*++-$-$-*$-$-$+:$:$*$+-+-++*+*+$+X$X$XX+XX",
"XXX+X+OX++$+$$+*+*$+*$*$**+-$-*$*$-*-*+-$-$$$+*$$+X$+++XX.XX",
" XXX++X+X$+$$+$+**$*+*$**$-$-***+-**-$*$****+*$$*+$+$+++X+X+",
"XXXXO+#X++$$$*+$$**$*$***-#**--$-$*-*-#*$**#*$**$*+++$$++XX+",
"XX+X+++$+$+$*+*+***:$**--$-$:-*:$-*-:$:$-**-#$$**+*+$$+$XX++",
"X+XX$X$++*+*+-*$:#:$-:$:$:=&,$,$-:*,$,*$:$:+*-+-$*$+*+$X++X+",
"+XX++$++$+*$-$+-$-$**$:*:*$:*:*-**:*:$$:$:$*$#-$-$+*+*+++X+X",
"XX+X$+$+O$$*$$*$-***$-=:-*-*:---$:*:**-$-***+-$-*$*+*$$+X+++",
"X+XX+#$+$#$*$*+**--*-$---:$----*:*--=:$-*--$*$****+$$$$+$+++",
"+X+++#+&+$$**$*$-=*:$**-:*;*::->$**-:*:*--*-$$$**#*+$$$$+X++",
"X#X++$$+$$**$-+***-$-$:-*1$:-:>*:-::*,$:*-:$:*:*$-+*$$$+$+++",
"+XX$X*+*$+-$:$$:$:$:*$,$,$*1$1$1*$1*1**,$,$:$$:$:$$-+-+*++$X",
"X++O$+*++-$-$**$:*:*+,*:=*;*,-,-$,*,---*:*:*+:*-&$*$*$*+X&+$",
"X+X++$$+$+**$*$-*--&-*:;-:$:-::*:*:---$:*;-*-$-*=*+*$*$#$+$+",
"+O#+#$#*+$$*-$-$--=:$=--:*:*-::,*--::*:*-:-:$**--$*$**$*O++$",
"+$X+#$&+*#**&:$**-:*:&::=,$-->,*,*,:-1$--::&:*:=*:#*$**+*+$#",
"$X+$+*$-$$-$:$--*:*1**:-1*::-1*2*-,*,*::*,*,$*:*:$--$-+-+$$+",
"X$++*+-++-$-$-*$,*,*$,*1*,:*1-1-*1*,*:-*,*,$$,$:$-$+-$-++*+*",
"++X$$*$+*$****+:*:-*-*,-,-$,-,-*:*,-,-$,*:**-*:*-*+-$-$+$+$+",
"+X$+$$$*+****$-$---:$--::*:=::-,*:-;:=:*---:$----$-$**$$O$+$",
"+$+++$*+*$$*&-$**-:*:*::-,*--:,=,*::-,&--::&:&--*-#$$**+&+$#",
"+X$+$$$-+**--&-$:-=,$:-::*,-1:-1$:-::*,*,-=,$-*--$:+-***+$++",
"X$++*+-+*-#:$,*$,$1$-1*1*1-*2&2*:2*1*1-*,$1$*,$:$:$$:$:+$*+*",
"$+X$+*$$*$-$-$$:*:*--*,-,**1-1-::-1-,*$,*,*--*:*:*+-$-$$$+*+",
"++$+$$$*+*$-*$-*----$:-:-*:*::::*,-:-*:*:---$-*--$*$*$$$+$+$",
"+$++$$$+*$***-$**-:*:&-:-:$--::=>*::-,&-*;:&:$--*-+*$**+*+#+",
"++++$$$=+$$*-$-$--=:$**::*:*::-,$*-::*,*-:-:$**--$-$**$*+$+$",
"+$X$+$*$*$**$:$-*-:&,*::-,$,-::*,*,:*1$:--:*:*:-*:$*$**+*+$+",
"$X+$+*+*$$-$:$&:$,$:*$,*1**1*,*,-$1*1**1$,$:*$:$:$$-$-+*++$X",
"X+++$+$$X*$-$$*$:*:*$:*>--:*,-:-$,-,**-*:*:*$:*-**$#*$*+X$+$",
"++X++$$+$+****+-*--*-&:--:&:-::*:*:---$:*--*-$-***#$$*$+$+$+",
"+X+++$#*++$*=$-$=-*:$**-:*:*-:-,$*=-:*:$--*:$**--$*$$&$*X+++",
"X+X++$$+*#*$$-+**=-$:&-;-,$*--:*,&::=,$-*-:$-$-*&-+$$$$+$+++",
"+X+++$+-+$*+-+*-*:$,**:*,$::-,*,$*:*,$::=,$,$*-$-+**$*+*++$+",
"XX+X$+&++*+-$**$:$:&$:$:*--*,*,*$,*,*-*$,*:$$:$-$*$$*+*+X$X+",
"XXX++$++$+*$$$+-$-*$*$-*--$:*>-*-$:*--$:*-*$*$*$*$+*$$$++O+X",
"XX+X+++$+$$*$#*$****$**--$-**---*-*--*-$--**$*$**$$+$$++++++",
"X+X+O+#X$+$$$*+$$*-$-$*-&:$**-;$:$*-*:$**=-$-$**$-+++$$X$X+X",
"XX+X+++$X$+$*+*$***-$-*--$-$:=*:+**--$:$:**-+*$**#*+$$+*X+X+",
"XXXX+X$X+*+*+*$+-$;+*-$:$:*$:$:$*:$:$:$$:$:+$-+-+*++&X$X++X+",
"XXX+++++++$+$++*$-$#$$-$=*$:$:$$*$:$-$+-$-$$$+*+$++$+$++XX+X",
"X XXXXO+X#+$$+$+*$$$+****$*$****+*$-*$*$*$$$+*$*$+++++++X+XX",
"XX XXX+X+X+$+$X#$$*+*+**$=+&$**$*$**$*+$$**+*+$$+$O++++XXXXX",
"  XXXXX+X++#$+$+$$$*+$$*=$*$**$-+$$**$*$*$$*++++$+$X++X+ XXX",
" XX XXXX++++X$++$$*+$$&*$=+*$$*#**$*$-+$$$$+$+$$+$X++XXX+XXX",
"  XXX+ XXX$X$X+*+*X*++*+-++-+-+*$+*+-++-+*+$++$+*XX$X+ XX.X ",
"   XXXXXX+X+XX+X$+$+X*+*+$$+*$$$+*$*++$+$+$++$+$+X+X+X+XXXX ",
"     XXXXX++++X+++$+$+$$+$+$$$$+$+$$$$+++$$++O++++XXXXXXX X ",
"     XXXXXXO+X+X+++$X++$$+$+#$+*O++$$+$X$+++X+O++X+XXXXX X  ",
"      X X XXX+X+X++X++$++$+++$$+*X$$+$+$+++X+X+XX+XX X      ",
"       X XXXXXX+X+X$XX++$X$$+$+$++$+$+++++O+XX+X+XXXXX X    "
};
