/* XPM */
static char *_28f355e4dee40dcc2b5086652a00a37cbplpcTi0BoEmy4N[] = {
/* columns rows colors chars-per-pixel */
"100 50 140 2 ",
"   c #182C5F",
".  c #172D62",
"X  c #192E63",
"o  c #1E2D69",
"O  c #1B3164",
"+  c #1E326A",
"@  c #1E3770",
"#  c #1E3970",
"$  c #203467",
"%  c #21366A",
"&  c #24396C",
"*  c #233575",
"=  c #253B74",
"-  c #283D74",
";  c #24367A",
":  c #263C7D",
">  c #293E7F",
",  c #2C407F",
"<  c #263D80",
"1  c #283D80",
"2  c #274184",
"3  c #2C4183",
"4  c #2D438B",
"5  c #2D488E",
"6  c #324684",
"7  c #354985",
"8  c #384B86",
"9  c #31468B",
"0  c #34498B",
"q  c #384C8C",
"w  c #2E4990",
"e  c #314792",
"r  c #334B93",
"t  c #384E92",
"y  c #344E98",
"u  c #2F5097",
"i  c #355196",
"p  c #34539B",
"a  c #3A5499",
"s  c #3A57A3",
"d  c #3C5BA5",
"f  c #3D5EAB",
"g  c #3F60A7",
"h  c #3F60AD",
"j  c #3E61B2",
"k  c #435C9C",
"l  c #47619E",
"z  c #48619D",
"x  c #435EA1",
"c  c #415CA3",
"v  c #425DA2",
"b  c #415EA2",
"n  c #425DA0",
"m  c #455EA1",
"M  c #465FA1",
"N  c #445FA2",
"B  c #415EA4",
"V  c #425EA4",
"C  c #425FAA",
"Z  c #4561A2",
"A  c #4760A2",
"S  c #4662A3",
"D  c #4661A3",
"F  c #4B64A6",
"G  c #4F67A5",
"H  c #4D65A3",
"J  c #4F68A1",
"K  c #4262AD",
"L  c #4464AF",
"P  c #4262AC",
"I  c #4A69AF",
"U  c #5169A7",
"Y  c #536BA7",
"T  c #5169A7",
"R  c #556DAB",
"E  c #546CAA",
"W  c #5E74AD",
"Q  c #4162B1",
"!  c #4064B2",
"~  c #4165B3",
"^  c #4364B3",
"/  c #4266B2",
"(  c #4367B3",
")  c #4465B2",
"_  c #4063B4",
"`  c #4164B5",
"'  c #4266B4",
"]  c #4367B5",
"[  c #4564B4",
"{  c #4465B4",
"}  c #4665B5",
"|  c #4566B5",
" . c #4667B4",
".. c #4465B6",
"X. c #4667B6",
"o. c #4365B2",
"O. c #456AB1",
"+. c #4569B3",
"@. c #4769B3",
"#. c #4369B4",
"$. c #4468B4",
"%. c #4569B5",
"&. c #4768B5",
"*. c #466AB4",
"=. c #476BB5",
"-. c #4468B6",
";. c #456BB6",
":. c #4669B4",
">. c #4868B1",
",. c #486AB2",
"<. c #496BB5",
"1. c #486CB6",
"2. c #4A6FB6",
"3. c #4B6CB5",
"4. c #4167B8",
"5. c #4266BA",
"6. c #4167BA",
"7. c #4268B9",
"8. c #4368B9",
"9. c #446ABB",
"0. c #456BBC",
"q. c #446ABD",
"w. c #446ABF",
"e. c #446DBF",
"r. c #476DBE",
"t. c #466FBF",
"y. c #436ABC",
"u. c #4A6BB8",
"i. c #4C6DB8",
"p. c #4E73BA",
"a. c #5071B8",
"s. c #5374BB",
"d. c #436BC0",
"f. c #456BC0",
"g. c #456DC2",
"h. c #446BC1",
"j. c #496FC1",
"k. c #4770C0",
"l. c #4E73C3",
"z. c #4C73C2",
/* pixels */
"3 k 1 1 1 1 1 1 1 1 3 7 1 1 1 1 1 1 < 1 1 1 1 7 6 1 1 1 < 1 1 1 1 y j 4 G 1 1 > : 1 1 1 1 1 1 : 3 < 1 > 1 1 1 1 1 1 < > 1 7 3 > 1 < 1 1 y j e k 1 1 1 1 > 1 1 1 1 1 1 1 1 1 1 1 1 1 1 1 1 : 1 1 1 > 3 7 ",
"3 k 3 1 1 1 1 1 > 3 6 1 1 1 1 1 1 1 1 1 1 > 3 6 > 1 : < 1 1 < 1 1 y j 4 U 1 1 1 1 1 1 1 1 1 1 6 6 > 1 1 1 1 1 1 1 : 1 3 7 3 > 1 1 1 1 1 y j r k 1 1 1 > > 1 1 1 1 1 1 > 1 3 1 1 1 1 1 1 1 1 1 1 > 3 7 1 ",
"3 k 3 1 1 1 1 1 6 7 1 > 1 1 : 1 1 1 1 1 1 > > 1 1 1 1 1 1 1 1 1 : i j 4 U 1 1 : 1 1 1 1 1 1 6 6 1 1 : : 1 1 1 > 1 1 > 3 3 1 : 1 1 1 < 1 y j r k 1 1 1 1 1 1 1 1 1 1 > 1 6 3 1 1 1 1 1 1 1 1 1 > 3 7 1 > ",
"3 k 3 1 1 1 1 3 7 3 > 1 < 1 1 1 1 1 1 1 1 1 1 1 1 1 1 1 1 1 1 > 3 a j 9 U 1 1 1 1 1 1 : 1 6 6 1 1 1 1 1 1 1 1 1 1 1 > > > : 1 1 1 1 1 1 i j r k 1 1 1 1 1 1 1 1 1 1 3 7 3 1 1 1 1 1 1 1 1 1 1 > 3 1 > 1 ",
"3 l 3 1 1 1 1 6 1 > > 1 1 1 1 1 1 1 1 1 1 1 1 1 > 1 1 1 1 1 1 3 7 a j 9 R 1 1 1 1 1 1 1 6 6 1 1 > 1 1 1 1 1 1 1 1 1 1 1 1 1 1 1 < 1 1 1 i $.t k 1 1 1 1 1 1 1 1 > 3 7 6 1 1 1 1 1 1 1 1 1 1 1 > > > 1 1 ",
"3 z 1 1 : 1 > > > 1 1 1 1 1 1 1 1 > > 1 1 1 1 1 1 1 1 1 1 1 3 7 1 a j 4 R 1 1 1 1 1 1 > 3 1 1 1 1 1 1 1 1 1 1 1 1 1 1 1 1 1 1 1 1 1 1 1 a  .t k 1 1 1 1 1 1 1 1 1 6 3 1 1 1 1 1 1 1 1 1 1 1 1 1 1 1 1 1 ",
"3 k 1 > > > > > > > > > > > > > > 6 > > > > > > > > > > > 3 6 , > i j 9 U > > > > > > > : > > : > > > > > > > > > 1 : > > > > > : > > 3 k j e k > > > > > > > > > 1 > > > > > > > > > > > > > > > > > 1 ",
"; = o X X X O X X X X X X O O O % % X X O X X X X X X X O & O X O @ p 1 - X X X X X X X X X X X X X X X X + & O X X X X X X X X X X % & = p 3 = X X X O X X X X X X X O X X X X O X X O X X X X X X X X ",
": : : : : : ; ; : : : : : : : , > X ; : > : : : : : : : > > : : : : : : ; : : : : ; : : ; : : : : : ; ; o , 1 > : : : : : : ; : ; > 3 > : : : : : ; : : : = : : : : = : : : ; X = : > 6 : : : : : : : ; ",
"! $.<.! _ ! ! j j j Q j j j @.$.q.1 L $.$.$.$.$.@. . .$.!  . .]  .] ]  . .] ! ! _ ! j j j j j j j j j g.q ,.3.$.,.$.$.@. .$.$.#. . . . . .!  .! ! ! j ! j j j Q Q j j j j j d.1 K 3.s.u.$.$.$.@.$.$.$.! ",
"6 6 3 1 3 1 1 1 1 1 1 1 1 6 3 4 4.1 n 3 3 1 1 1 3 1 1 3 3 1 1 3 1 1 1 1 1 3 6 6 3 1 1 1 1 1 1 1 1 1 3 l.4 n 6 3 1 > 1 1 1 1 3 1 1 1 1 1 1 1 1 1 1 1 1 3 3 1 1 1 1 1 1 1 1 3 7.1 M q 3 1 1 1 , 3 3 3 3 1 ",
"7 1 > 1 1 > 1 1 1 1 1 : 1 1 > 4 4.1 M 3 1 1 1 > > 1 1 1 1 1 1 1 1 1 1 > 1 7 3 > 1 1 1 1 1 > 1 1 1 > 0 g.4 M 3 1 1 1 : 1 1 > 1 1 1 1 1 1 > 1 1 1 1 > 1 7 3 > 1 1 1 1 1 1 1 3 9.1 F 3 > > 1 1 1 1 1 1 1 1 ",
"1 > 1 1 1 1 1 1 1 1 1 1 1 1 1 6 4.1 M 3 < 1 > 1 1 1 1 1 1 1 1 > 1 1 1 1 7 7 > 1 1 1 1 1 1 1 1 1 1 > 3 q.4 A 3 1 1 1 1 1 1 > 1 1 1 1 1 1 1 1 1 1 1 1 7 , > 1 1 : 1 1 < 1 1 3 q.3 n 3 > 1 1 1 1 1 > 1 1 1 ",
"< 1 1 1 1 1 1 1 1 1 1 1 1 1 1 9 7.1 A 3 : > 3 7 3 1 1 1 1 1 1 1 1 1 1 6 6 > 1 1 > 1 1 1 1 1 1 1 1 > 3 d.4 A 3 1 1 1 > 1 3 3 1 1 1 1 1 1 1 1 1 1 1 7 6 > 1 1 1 1 1 1 1 1 > 3 e.1 n 3 > 1 1 1 1 1 1 1 1 1 ",
"1 1 1 1 > 1 1 1 1 1 1 < 1 1 1 5 7.1 M 3 > 3 7 1 > : 1 1 1 1 1 1 1 1 1 3 1 1 1 1 1 1 1 1 1 1 1 1 1 > 3 h.4 A 3 1 < 1 1 3 6 > 1 1 1 1 1 1 1 1 1 1 7 3 1 1 1 1 1 1 1 1 1 1 1 3 e.1 B 3 > 1 1 1 1 1 1 6 3 1 ",
"1 1 1 1 1 1 1 , 6 1 1 1 < 1 1 9 7.1 A 3 3 7 3 1 1 1 1 1 1 1 1 1 1 1 1 > 1 1 1 1 1 1 : 1 1 1 1 1 1 > > e.4 A 6 1 1 1 6 7 1 1 1 1 1 1 1 1 1 1 1 1 3 1 1 1 1 1 1 1 1 1 : > 1 3 k.1 n 3 > 1 1 1 < 1 6 3 1 1 ",
"1 1 1 1 1 1 3 6 3 1 1 1 1 1 : 9 7.1 A 6 6 3 1 : 1 1 1 1 1 1 1 1 1 1 1 > 1 1 1 1 1 1 1 1 3 6 3 < 1 1 1 e.4 S 6 1 1 6 0 3 : 1 > 1 1 1 1 1 1 > 1 > > 1 1 1 1 < 1 1 < > 1 > 1 3 k.1 B 3 > 1 1 1 1 6 6 > 1 1 ",
": > 1 1 1 3 6 3 > 1 1 1 1 1 1 9 7.1 D 3 1 < 1 1 1 1 1 1 1 1 1 1 1 1 1 1 1 < 1 1 1 1 1 3 7 , 1 1 1 1 > g.4 D 6 1 3 7 1 1 1 1 1 1 1 1 < < 1 1 1 1 1 1 1 1 1 1 1 1 < 3 7 1 1 3 k.1 n 3 1 1 1 1 6 6 1 1 1 1 ",
"X X X X X & $ X X X . X X X X + p ; ; X X X X X X . X X . X X X X X X X   X X X X X O & O X X . X X X p 1 , O X X O X X X . X X X X . X X X X X X X X X X . X X + & X X X X p : , X X . X + O X X X X X ",
"+ < 1 1 9 4 3 1 1 1 < 1 1 1 1 1 3 4 3 1 3 3 1 1 1 3 3 3 3 3 4 3 3 3 ; + 1 1 1 1 1 3 0 4 1 2 1 1 1 1 1 2 4 3 3 1 3 1 1 1 3 3 1 1 3 1 3 3 3 : * 1 1 1 1 1 3 1 1 3 0 3 1 1 1 2 4 3 3 < 3 2 3 3 3 1 3 1 1 1 ",
"4 u.L L L L L L K K K  .K K P P K K P h f K f f f f f f K h f d f j j 4 p. .L L L I L L K K L K K P P P P C P f f f f f f f f f d f K f j j e ,.L L L L K  . .3. .L K K K K K K P P K h f f f f f f f f ",
"4 k 3 1 1 1 1 1 1 1 > 1 1 1 3 3 1 1 1 1 1 1 1 1 1 1 1 6 6 > 1 > 1 y j 4 H 1 1 1 1 1 1 1 > 1 1 1 1 1 1 1 1 1 1 1 3 1 3 < 1 1 1 1 1 7 3 1 y j 9 k 1 1 1 1 1 1 6 3 1 1 1 1 1 1 1 1 1 1 1 1 1 1 1 1 1 1 1 1 ",
"3 k 1 > 1 1 : 1 1 1 1 1 > 3 7 3 > 1 1 1 1 : 1 1 1 > 6 6 1 1 1 1 1 y j 4 U 1 1 < 1 1 1 1 1 1 1 1 1 1 1 3 1 1 1 1 1 1 1 1 1 1 1 > 7 6 1 1 y j e k 1 1 1 1 1 1 1 1 1 : 1 : 1 1 > 1 1 > > 1 1 1 < 1 > 1 1 1 ",
"3 k 1 1 < 1 1 1 1 1 1 > 3 7 1 1 1 1 1 1 1 1 1 1 1 1 3 1 > 1 1 1 1 y j 9 U 1 > 1 1 1 1 1 < 1 1 1 1 1 3 6 1 1 1 1 1 1 1 1 1 < > 7 6 1 1 1 y j r k > 1 1 1 1 1 1 1 1 1 1 1 1 1 1 1 6 3 > 1 1 1 1 1 1 1 1 > ",
"3 k 3 1 1 1 1 1 1 1 > 3 7 3 > : 1 1 1 1 1 1 1 1 1 1 1 1 1 1 1 1 1 i j 9 Y 1 : 1 1 1 1 1 1 1 1 1 1 3 0 1 1 1 : 1 1 1 1 1 1 1 > 3 1 1 1 1 y j r k 1 < < 1 1 1 1 > 1 1 1 1 1 1 > 6 3 > 1 1 1 1 1 1 1 1 > 3 ",
"3 l 3 1 1 1 1 1 1 > 3 8 > > 1 1 1 1 1 1 > 1 : 1 1 1 1 1 1 1 1 : 1 i j 9 W 1 < 1 1 : 1 1 1 1 1 1 3 7 1 1 1 1 1 1 1 1 1 1 1 1 1 > 1 1 1 1 i j e k 1 > 1 1 1 1 1 1 1 1 1 1 1 1 6 6 > > 1 1 1 1 1 1 1 1 > 1 ",
"3 l 3 1 1 1 : 1 1 1 1 1 1 1 1 1 1 1 1 1 1 1 1 1 1 1 1 1 1 1 1 1 > p j t R > 1 1 < < 1 1 1 1 > 3 6 1 1 : 1 1 1 1 1 1 1 1 1 1 1 1 1 1 1 < i j 0 k 3 7 1 1 1 1 1 : 1 1 1 1 1 6 6 1 1 1 : 1 1 1 1 1 1 1 > > ",
"3 z 3 1 1 1 1 1 1 1 1 1 1 1 1 1 1 1 1 1 1 , 1 1 1 1 1 1 1 1 1 1 > a $.9 R : 1 > 1 1 1 1 1 1 1 1 1 1 1 < 1 1 1 1 1 1 1 1 1 1 1 1 1 : 1 1 i _ r k 6 , > 1 1 1 : 1 1 1 1 > 3 6 1 1 1 1 1 1 : 1 1 1 1 1 1 1 ",
"3 A 3 1 1 > 1 1 1 1 1 1 1 1 1 1 1 1 : 1 6 6 > 1 1 1 1 1 1 1 1 1 , k ] 4 R 1 1 1 1 1 1 1 1 1 1 1 1 1 1 1 1 1 1 1 1 1 3 1 1 1 1 1 1 1 1 1 a _ t H 1 1 1 1 1 1 1 1 1 1 1 > 1 1 > 1 : 1 : 1 1 1 1 1 1 1 1 1 ",
"; & O X X X X X X X X X X X X X X X X % % X X X X X X X X X X X % = u 1 & X X X X X X X X X X X X X X X X X X X X & % X X X X X X X X X # p 0 = X X X X X X X X X X X X X X X X X X X X X X O + X X X X ",
"1 1 < < < 1 1 < < < < < < < < < : o , 3 < < < < < < < < < < < < < < 1 1 < 1 < < < < < < < < < < < < < : o : < 1 9 1 < < < < < < 1 < < < 1 9 1 1 < < < 1 1 < < < < < < < < < : X : 1 < < < 1 6 3 < < < < ",
" .! ! ! ] <.! Q j Q h h h h f j h.9 I i.i.i.i.i.3.3.3.<.<.@.$. . . . . .! ! ! !  .Q  .! Q h h h f f f g.4 L s.s.s.i.i.3.3.<.<.<.@.@.$. . . . . .! ! ! ! Q K K K Q h h f f j d.1 K i.3.i.i.s.i.3.,.<.<.@.",
"> > > 3 7 3 > > > 1 1 1 > > > 3 7.9 M 3 1 1 1 1 > > > 1 > 1 > > > > > > > > > > 1 3 6 3 1 1 > > > > 2 d.4 A q 6 > > 1 1 > > > > 1 1 1 > > > > > > 1 > > > > 1 6 3 > > > 1 3 4.1 c 3 1 3 6 3 > > > 1 > 1 ",
"1 > 3 7 3 > 1 1 1 1 1 < 1 1 1 3 4.1 k 3 > 1 < < 1 1 > 1 > 1 1 1 1 1 1 : 1 1 1 1 3 6 > 1 1 1 1 1 1 > 2 q.4 A 9 1 1 1 > 1 1 > > 1 1 1 1 1 1 1 1 1 1 1 1 1 1 1 6 3 > 1 > 1 1 3 9.: c 3 1 6 3 1 1 1 1 1 1 1 ",
"1 3 7 3 1 1 1 1 1 1 1 1 1 : 1 6 4.1 M 3 1 1 1 1 1 > 3 6 1 1 1 1 1 1 1 1 1 1 1 3 6 1 1 1 1 1 : 1 1 > 3 d.4 M 3 1 : 1 1 1 1 1 1 > 3 > 1 1 1 1 1 1 1 1 1 1 1 6 6 1 1 1 1 1 1 3 q.1 n 3 1 1 > > 1 : 1 1 1 1 ",
"1 3 1 > 1 1 1 : 1 1 1 1 1 1 1 9 7.1 M 3 1 1 1 1 > 3 6 3 1 1 1 1 1 1 1 1 1 1 3 6 > 1 1 1 1 1 1 1 1 > 3 d.4 A 3 1 1 1 1 1 1 1 > 3 7 3 1 1 1 1 1 1 1 1 1 > 6 6 1 1 1 1 1 1 1 3 e.1 n 3 > 1 1 1 > 1 : 1 1 : ",
"1 1 1 1 1 1 1 1 1 1 > > 1 1 1 9 7.1 M 3 1 1 1 > 3 7 3 > 1 1 : : 1 1 1 1 1 1 > > 1 1 1 1 1 1 1 1 1 > 3 e.4 A 3 1 1 : 1 1 1 > 3 7 1 > 1 1 1 1 1 1 1 1 > 3 6 1 1 1 1 1 > 1 1 3 j.: n 3 > : 1 1 1 1 1 1 1 > ",
"1 1 1 1 1 1 1 1 1 1 1 6 7 1 < 9 7.1 A 3 1 1 > 1 7 3 > 1 1 1 1 > 1 1 1 1 1 1 : 1 1 1 1 1 1 1 1 1 1 3 1 e.4 D 6 1 1 1 : 1 > 3 8 1 > 1 1 1 1 1 1 1 1 1 1 1 1 1 1 1 1 1 1 1 1 3 j.: B 3 > 1 1 > 1 1 1 1 1 6 ",
"1 1 1 1 1 1 1 1 1 1 7 3 1 1 1 9 q.1 A 3 1 1 1 q 1 > 1 1 1 1 1 1 1 1 1 1 : : 1 1 1 1 1 1 1 : > > 7 , 1 e.4 D 6 1 1 1 1 > 3 7 1 > 1 1 1 1 1 1 1 1 1 1 1 1 1 1 1 1 1 1 1 1 > 3 z.1 V 3 > 1 1 1 1 1 1 1 6 7 ",
"1 1 1 1 1 1 1 1 > 6 6 > 1 1 1 0 7.1 D 3 1 1 1 1 1 1 1 1 1 1 : 1 1 1 1 1 1 1 1 1 1 1 1 1 1 < 3 6 3 < : e.4 D 3 1 1 1 1 1 3 1 1 1 1 1 1 1 : : 1 1 1 1 1 1 1 > < 1 1 1 1 1 1 8 z.: n 3 1 1 1 < 1 1 > 6 6 1 ",
"X X X X X X X X % % X X X X X O y ; - X X X X X X X X X X X X X X + O X X X X X X X X X X X & % X X X p 1 - X X X X X X X X X X X X X X X X X X   X X X X X X X X X X O & O y : : X X X X X X X X + X X ",
"* 5 w w w w w w r w w 5 w w 5 5 y r w w w w w 5 w w w w w e 4 w r i 3 * 5 w w w w 5 w w w i r w w w 5 y r w w w w w w w w w w w w w w w w 3 , 5 5 5 w w w w w w w e e i r e w r w w w w w w w w w w 5 w ",
"3 ,.P P P P P P P Z P P P f B B d d d d d d d d d d d d s s s d B f j 9 i.P P P P P P P P P P C d f B f f d d d d d d d d d d d d s s s h  .t ,.P P P P P P P P P P I P g d d d d d d d d d d d d d d d ",
"3 k 3 3 3 1 3 3 3 3 3 3 3 3 3 3 3 3 7 3 1 1 1 1 1 1 > 1 1 1 3 7 3 y j 4 G 3 3 3 1 1 3 3 > 3 3 3 3 3 3 1 1 1 1 3 1 1 1 1 1 > 3 1 > 1 > 1 a  .9 k 3 3 3 3 3 3 3 , 3 3 3 3 3 , 1 1 1 1 1 1 1 1 1 > 1 1 1 1 ",
"3 k 1 1 1 > 1 < 1 1 1 1 1 1 1 > 3 6 3 1 1 1 1 > 1 1 1 1 1 3 7 1 1 y j 9 G 1 1 1 1 1 1 1 > 1 1 1 1 1 1 1 1 > 3 6 > 1 1 1 1 1 1 1 1 1 1 6 a j e k > 1 1 1 1 1 1 1 1 < > 1 1 > 1 1 1 > 1 1 1 1 1 : 1 1 1 1 ",
"3 k 3 1 > 1 1 1 1 1 1 1 1 1 1 3 7 3 > 1 1 1 1 1 1 1 > 1 1 1 1 1 1 i j 4 U 1 1 1 > 1 1 : 1 1 1 1 < 1 1 1 : 3 6 1 > 1 1 1 1 1 1 1 1 1 6 6 i j r k > 1 1 1 1 1 1 1 1 1 1 > 1 1 1 1 1 1 1 3 6 1 1 > 1 1 1 1 ",
"3 k 7 3 1 1 1 1 1 1 1 1 1 1 1 7 3 1 : > 1 1 < 1 1 1 1 1 1 1 1 1 : i j 4 U 1 1 1 3 > > 1 1 1 1 1 1 1 1 > 3 6 > < 1 1 1 1 1 1 1 1 1 1 3 1 y j r k 1 1 1 1 > > > 1 1 > > > 1 1 > : 1 1 6 6 1 1 1 1 : 1 1 1 ",
"3 H 6 < 1 1 1 1 1 1 1 1 1 1 6 3 > 1 1 > 1 1 : 1 1 1 1 1 1 1 1 1 > i j 4 Y 1 1 7 , 1 > 1 1 1 1 1 1 > 1 3 7 1 > 1 1 1 1 : 1 1 1 1 1 1 1 > y j r k 1 1 1 > 3 , > 1 1 1 1 : 1 > < 1 1 6 7 1 1 1 1 > 1 1 1 1 ",
"9 J 3 1 1 1 1 1 1 1 1 1 1 1 1 1 1 1 1 1 1 1 1 1 > > > 1 1 1 1 1 : p j 9 Y 1 7 3 1 1 1 1 1 1 1 1 1 1 1 9 1 > 1 1 1 1 1 1 1 > > 1 1 1 : 1 i _ r k 1 1 > 1 7 3 > > 1 1 1 1 1 1 1 > 6 6 1 1 1 > 1 1 1 1 1 1 ",
"0 z 3 1 1 1 1 1 1 1 1 1 1 1 1 1 1 1 1 1 1 1 1 1 3 3 > 1 1 1 1 1 > p j 4 R 7 6 > 1 1 1 1 1 1 1 1 1 1 1 > > 1 1 1 1 1 1 1 1 > > 1 1 1 1 1 i j r k > > 3 7 1 1 1 1 1 1 1 1 1 1 1 > 6 > 1 1 1 1 1 1 1 1 1 1 "
};
