/* XPM */
static char *adbaa984aec44b63c8d389493b2744f0ILtMrqKksnIoVW1E[] = {
/* columns rows colors chars-per-pixel */
"60 60 86 1 ",
"  c #2F3128",
". c #33352D",
"X c #36382F",
"o c #363730",
"O c #373931",
"+ c #3B3C34",
"@ c #3D3F38",
"# c #3E4136",
"$ c #3E4039",
"% c #43443C",
"& c #46493F",
"* c #464741",
"= c #474841",
"- c #4B4C44",
"; c #4E4F49",
": c #4E5047",
"> c #4F5049",
", c #515247",
"< c #53544C",
"1 c #57584F",
"2 c #58594F",
"3 c #565751",
"4 c #575950",
"5 c #5B5C53",
"6 c #5E5E58",
"7 c #605F55",
"8 c #5F6056",
"9 c #5F6159",
"0 c #616157",
"q c #63645B",
"w c #67685E",
"e c #69695F",
"r c #666760",
"t c #676960",
"y c #6B6C62",
"u c #716F65",
"i c #6F7066",
"p c #6F7168",
"a c #717166",
"s c #74756A",
"d c #78766D",
"f c #77786E",
"g c #79796E",
"h c #777970",
"j c #7C7D72",
"k c #817E74",
"l c #7F8075",
"z c #828177",
"x c #818377",
"c c #818378",
"v c #838578",
"b c #828479",
"n c #848579",
"m c #85877B",
"M c #85867C",
"N c #87877D",
"B c #88877C",
"V c #87887C",
"C c #87897E",
"Z c #888A7D",
"A c #8A8A7F",
"S c #8A8C7F",
"D c #878980",
"F c #888A80",
"G c #8B8D82",
"H c #8A8C83",
"J c #8C8E83",
"K c #8C8E84",
"L c #8F8F84",
"P c #8E9085",
"I c #8F9085",
"U c #919185",
"Y c #909287",
"T c #919288",
"R c #929388",
"E c #93958A",
"W c #949488",
"Q c #97978B",
"! c #96978D",
"~ c #97998E",
"^ c #99998E",
"/ c #9A9B91",
"( c #9B9C91",
") c #9EA095",
"_ c #A2A49B",
"` c #A5A79C",
/* pixels */
",lgsttjwK5<wqq0wZga<ws5<q58qe5qiZcGfay1,;2ywswiyyy,fjxbby5q<",
"9MFTFPsYE55JmxJbjZjq6FjgcmlmbywPPMCCsmG:&yexsxsgw64jsjgjjsj<",
">bwKTGFTF,8bCZjjxxm68GaGMjCJftyKFFcGcME:qjjmgsdjsw5fscjycts,",
"5bs/bFFcZ<sQYxxQYmjqy)CbffaGQeqCjKjKsil5txYsjMFsd%<saqjjjij<",
"6FTGaJbmG-fJQQTT^YKqfTqjxblfjtfjZxFgMY^-5jjxxjmkk<1syjMjssl3",
"qbFlJJxxZ<tJjMmcMKc5iFFjyGjssahjxcCFjlYwqjcajxckg5,jigcsasy<",
"qbbycs)Sb5ijbTE!lTmqjYTaabGbsttjMFGlbj_65d5dscxsMq-gatjqcas3",
"6*%y-%&%%,---& $@&&%=%@59-@<q@--o<%O@+3-43=%--<<q9@=@.%$-<5;",
"YCjmfwsxmm7Zmx;;jjlfbGjMpybCYjCxKG<yMcZGl!Ej5fTKCEPZZC5isGxf",
"Fgmsysa0Zmxxjg6;jlxblxaMswjMyllGjs<tMxJbjjxPwyZGEECEPx8fgmyc",
"ibJia5xydgkBjjZ2aFGcjZtmM6iCqclMMj;5PGZjxgFgqyjMPTZmZYyfsJPM",
"ZGCTyqZZgxxxjxjyljjGbjfax<gewlC8mc,1KjxFCCFKwqGjMTGMjxwjaZbJ",
"ZGGKy8jmxggmxxk5jYmZPCYjj8gjlCgsxs&5FxxCPGtZ<6Mjb^jlwj1tZMJb",
"ZlbZsqjsxmmxsxjqMCsCMjjjb1jPmxsCgC-;gGygycMC5<GjjGbCZKwsJljC",
"y+O<tO.OoOO&qyj5,OOyjjsjs64%qMlajf@@yp@o8Fcf,@5ccsjjq<<y9q9y",
"-51;5,-81=;ysMjstyq,Fjyfalqt6<w0q1&4<<y-2sq<;1tty<-6t,65qwwq",
"4sjfaisft<<ZmKjjjbK6CFMJbmjmmiaejjjsbgM-5csZjjmjxq,ygejsjjja",
"5gxsgyygj<wCKMxjljPqiEmaJCGxZg5jjlljcFM;0JjmxZeM5,6xjMmsaajg",
"1tsstwilf;wGPCjcCiCqj~P!clGEJtybsgjccyl-,mxgbmgmg-<5dgysggya",
"5isjwtaig;<jMCxjjCFwa^PEGlbmPstjfajsjca<5ZajCZmgg>ysgxgyjdgw",
",ssysysiy-qyCCYfbZKqqYMFPbZElstmyjjbsjgs5myamxgmJ45mqjjawxx6",
"4qeawty8i<wj8fyys1ttjjjjMjga5ytjyjf%wclg6jyjjxlgM;6tsatjas0-",
",>,<O@%O+<<>&;.<5--,;,=-+->--<<>-&%4<<,5-XO<O+;59&--&-O--55,",
"asjy@5lswlCxyb;sa5yxmxjj-jxcgjjdau-~KFPJjslj;isfxtcljb6jjxmg",
"eaagOeEZMmmbwl.xx0xaxxsytujjxjkxjmsYKCl!FZPs6CjJaj1flf<yjyjj",
"qety+:jKCeiGCZ.0jjysscsy;aayaggcks,sGlTPGZ6w@yslClbsbj,5ygxg",
"ajyjOtZsFjmMjm#emajMMMjx-eatssasgj-aZmPxjjbs&sxxCfbjlc6yasga",
"yjjq@tFjGCmlbF.wsxjmgjxj4tyytexsxj-GJjbjflif<bFmlfliaGwyjsae",
"aayc%qbFjFbMGf.axdsjcgsq+<jdjsdjsu<ZjelCmCPj45bCMqtCjjtyjjj7",
"qyt<&<,aat6qyq+,,<*%wtqq+<qwq2qw2q<wttsywtst<4qyw5q56j=;5tw<",
"-fg5jjjsjy#y9typyaew;yypw655q<;q,q05w6t5-tawwatsq<-6yGtyisyw",
"-Ex^jKxJJj-FbGGaFGsy;mFFMjsmgw:jqsjjjysj;gYxmYjxml6jssljjslj",
";ZQYYYcQKK;jjyZmFmfy6xxFsmjmje:fesjMssjy-amYZxYmZs-ajjjjfjCj",
"5ZmjZYmPjc5mGMCjYMPs4ZmxxZkxmt;jysffyjja;sjxmxZxg6%sjjjbqjbj",
"<ZJEmECPjG-PjGmCY^(i<xcxYJkyey;jllMqtsjt-aYJZjKyjC;jsjjxtljw",
"&fxYxJGj^l%^GYGbPiC5$jmmsYmjmw<jajiDaqjy#cYgZYMjMS<t8gsxsljy",
":sjytyiyti+ttfwyyxst=lggt606x5,w56wqq6<6-ssyysswyw5y5wp,,0q;",
"<q56-666wq,$:5O<2fw<5est%56wis5&4,%<w6,&;>&Oo;;6qwq>9,>qy55=",
"jcca-PCqKZQGmg<sJQgmYJGs;jsiistjya%ytqat8jby%yYKmYay/g6aKxca",
"gyjjtGQZyCJZCl%jhjeJjGjZ<sg6jjaisf;sljlxaajq,KYJYaxZZl<jmZgq",
"jgjj4CmZmm~JGJ@accjxbxmx&sjywlsssh,sMfssijmy5J!bgPCJjZ<asmgg",
"aegj1bEGGP`KEc%gjjcgjJGb%5qsjfjaaw#wjcfysjii8CDcGYgqjM5gmZdx",
"sgsj-xjjGZ/sEG%txMPxlZxb&yssjjfcjj-bjaijfj2gqCKMJG/Yfs;amjxB",
"bjja%sPlJZ!EFj;sgMxjjCfJ%ywyfajsys,jjtjfassi<smPKmJZJs%esjjx",
"<<26;<q;556q,,&;;-,<5<<,*--=$-;;;;$;<-<;><9-*-<65:6<q9$<6<>;",
"waggxmxqs-jsayjlfjswbyaZGmMKwyaFmjYxssjweejjascjj%tbcfFsCsj$",
"wsyjjsjsx,jljjfajjC<iPfG(P~YKyjjZsKMMmJyqggjgjsaj.y!CFscPFF%",
"8gjsssxqj;qfigfbfCx:sxjJQjxMJiscZjxKMZMt6ajjjjjjg.sYJFjjZgC;",
"<sjyyygsj-jclxjfmcl<fGCj^xjTTfsZjcxZJxK4qyasssgst@tjCxCxbyj;",
"qqjmcyeeqyjslbmZMPm<j!(j^YMjaiwsFcsQxMa;taqwsyxya-sjwjjmjjj-",
"6teajaetg1syfljs5xc<qPJZEJZYMwgxjYFZmY(&wjwssjjjt&tmxcjjCjs%",
"=tssjf6sj6tjCxmjlcs545qsbYSZ^qjgZcCj,56-<tyqtr5-w-qjbsq66<;O",
"+O5+<--o#+&&5-#%+.%-%#;q;,,#%;;#&#-&..5q;:%:8&&.&&%;y>@%==#X",
"gjag,e<tsm0gsj&jCxlFjbjJ@fjlajjgfx6aQJYTZMjc<ClsjybaZw1jljYZ",
"agmm,yaqsjgxgg-tjCZjiKMYOjgxjsqags>ydmjmZFgsqMMjxECscs9jxxjx",
"gFFa,tsgyjgasg&aMcGxbbGJ%jfjygways;yxxjMjcmjybtglcalGs-jgxxg",
"TagJ,qjcxysjt,-ibxljjgxZ=s<jtsyfsy-gZsJYJxZF6bjfFf5C1y:jjJJY",
"bFMm-wsajsjaaaOyMCaxMjgj&jssasjjga:JgxcaxmMTtsxbMgxbGc5jmsxm",
"Zxlj-wswssdaug+qCGjjZGJC%ajsajbjgi;JSJxsJSxTyCxxjjbjFmwgjjjZ",
"@$$@+OO.$@.o.$OO%@o@%%%++..o..@O%%>+@++oO@$O@@%@O@OO-,%;&%@$"
};
